M48
;Layer_Color=9474304
;FILE_FORMAT=2:5
INCH,LZ
;TYPE=PLATED
T1F00S00C0.01000
T3F00S00C0.02000
T5F00S00C0.02756
T6F00S00C0.02800
T7F00S00C0.03346
T8F00S00C0.03543
T9F00S00C0.03622
T10F00S00C0.03740
T11F00S00C0.03937
T12F00S00C0.04000
T13F00S00C0.05000
T14F00S00C0.05512
T15F00S00C0.07874
T16F00S00C0.10630
T17F00S00C0.12992
;TYPE=NON_PLATED
T18F00S00C0.08110
T19F00S00C0.09055
T20F00S00C0.12598
T21F00S00C0.13000
T22F00S00C0.15000
%
T01
X1529Y0021
X1499Y0008
X16025Y00325
X1605Y0045
X15975
X1628
X1634
X164Y00325
X1657Y0045
X1634Y0102
X1605Y0101
X1622Y0128
Y0134
X16375Y0135
Y014
Y0145
X16425Y014
Y0135
Y013
X16375
X16475
X16525
Y0135
X16475
X1589Y0175
X1559Y0165
X1545Y0101
X1515
X1485
X148Y0045
Y00325
X151Y0032501
X15125Y0045
X15075
X15375
X15425
X154Y00325
X157
X15675Y0045
X157355
X1575Y0101
X1426Y0104
X1431Y0115
X1436Y012
X1423Y0134
X1409Y0128
X1416Y0052
X1425Y0054
X1326Y0185
X1281Y0154
X1276Y0145
X1272Y0135
X1159Y0145
X1097Y0154
X1068Y0135
X0977Y0115
X0987Y0104
X0967Y0125
X0926Y0075
X0916Y0065
X0899Y0165
X0908Y0175
X0824Y018
X0776Y0105
X0746
Y005
X0776Y0051
X0666Y0085
X0676Y0095
X0636Y0088
X063Y0082
X0641Y0129
X0646Y0124
X0616Y0138
X0611Y0134
X0569Y0105
X0576Y0095
X0541Y0115
X0543Y0125
X0518Y0088
X0586Y0185
X0656Y0175
X0651Y0169
X0493Y0082
X0438Y0042
X0429Y0046
X0185Y0285
X0175Y0295
X0115Y0269
X0105Y0275
X0095Y0285
X0085Y0295
X0195Y0275
X0205Y0269
X033Y0242
X034Y0234
X038Y0321
X0374Y0331
X039Y0336
X0399Y0326
X0429Y0311
X0438Y0301
X047Y0231
X0526Y0225
X0551Y0215
X0556Y0205
X058Y0195
X0596Y0241
X0606Y0235
X0627Y0301
X0621Y0311
X0725Y0295
X0721Y0285
X0713Y0265
X0717Y0255
X0814Y019
X1129Y0245
X1246Y0239
X1234Y0271
X129Y0265
X1301Y0255
X1307Y0215
X1314Y0205
X132Y0195
X1299Y032
X1421Y0311
X1428Y0301
X1435Y0294
X1467Y0304
X1462Y0311
X1528Y027
X1527Y025
X1661Y029
X1638Y032
X1658Y0411
X1543Y0499
X1405Y049
X1365Y04775
X1334Y044
X1346Y0421
X1356Y0395
X1366Y0375
X1291Y0407
X1097Y0443
X1068Y0432
X0936Y0387
X0931Y0381
X0926Y0375
X0921Y0369
X08475Y0395
X084Y04075
X0838Y0469
X0855
X0872
X0887
X0807Y0417
X0802Y041
X0796Y0402
X0791Y0394
X0745Y0456
X075Y0463
X0734Y0475
X074Y0485
X0678Y0449
X0672Y0442
X0667Y0433
X0661Y0425
X021Y0475
X0185
X018Y0495
X0165Y0463
X0126Y0456
X0112Y054
X01275Y05575
X01325Y0555
X014Y0575
X01Y057
X00925Y0555
X016Y0535
X0175Y054
X018Y0645
X0185Y0655
X021
X02025Y06025
X02325Y05975
X0255
X0235Y05675
X021Y057
X0205Y055
X023Y05425
X026Y0545
X0286Y056
X0295Y0563
X0302Y056
Y055
Y0571
X0335Y057
X0336Y056
X0335Y055
X0342Y052
X0343Y06
X024Y05175
X0215Y05075
X0373Y0549
X0361Y0565
X0643Y0541
X08565Y05565
X0874Y0549
X0884
X0894
X08665Y05165
X09915
X0999Y0549
X1009
X1019
X09815Y05565
X1428Y0559
X142Y0594
X1435Y0514
X1543Y0544
Y0579
X1573Y0585
X1579Y0557
X15905Y0534
X1576389Y0504
X154Y0626
X1645Y0553
X1657Y0558
X1676Y056
X1675Y0518
X1685Y0509
X1666Y0505
X1645Y0528
Y0533
X14475Y06945
X14275
X1136Y0684
X0824Y0728
X0814Y0735
T03
X1695Y015
T05
X0889Y0624
X0904
Y0654
X0889
X1014
X1029
Y0624
X1014
T06
X0894Y05165
X0934
X0919Y06339
X0854Y0639
X0979
X1044Y063225
X1059Y0519
X1019
X1645Y0543
X1682
X1703Y0587
X1497Y0659
Y0694
X1209Y0679
X1199
Y0669
X1209
Y0659
X1199
T07
X145063Y005
Y006
Y007
Y008
Y009
Y01
Y011
Y012
Y014
Y015
Y016
Y017
Y018
X126063
Y017
Y016
Y014
Y013
Y012
Y011
Y01
Y009
Y008
Y007
X095063
Y008
Y009
Y01
Y011
Y012
Y014
Y015
Y016
Y017
Y018
Y006
Y005
X076063Y007
Y008
Y009
Y01
Y011
Y012
Y013
Y014
Y016
Y017
Y018
X070063
Y017
Y016
Y015
Y014
Y012
Y011
Y01
Y009
Y008
Y007
Y006
Y005
X051063Y007
Y008
Y009
Y01
Y011
Y012
Y013
Y014
Y016
Y017
Y018
Y019
Y02
Y021
Y022
Y023
Y0246
Y0256
Y0266
Y0276
Y0286
Y0296
Y0306
Y0316
Y0326
Y0336
X070063Y03
Y029
Y028
Y027
Y026
Y025
Y024
Y023
Y021
Y02
Y019
X076063
Y02
Y021
Y022
Y023
Y0246
Y0256
Y0266
Y0276
Y0286
Y0296
Y0306
Y0316
Y0326
Y0336
X095063Y03
Y029
Y028
Y027
Y026
Y025
Y024
Y023
Y021
Y02
Y019
X126063
Y02
Y021
Y022
Y023
Y0246
Y0256
Y0266
Y0276
Y0286
Y0296
Y0306
Y0316
Y0326
Y0336
X145063Y03
Y029
Y028
Y027
Y026
Y025
Y024
Y023
Y021
Y02
Y019
T08
X041Y0535
Y0545
Y0555
Y0565
Y0575
Y0585
Y0595
Y0605
Y0615
Y0625
T09
X167437Y0186221
Y0196063
Y0203937
Y0213779
T10
X051063Y003
X052063
X053063
X054063
X055063
X056063
X057063
X058063
X059063
X060063
X061063
X062063
X063063
X064063
X065063
X066063
X067063
X068063
X076063
X077063
X078063
X079063
X080063
X081063
X082063
X083063
X084063
X085063
X086063
X087063
X088063
X089063
X090063
X091063
X092063
X093063
X126063
X127063
X128063
X129063
X130063
X131063
X132063
X133063
X134063
X135063
X136063
X137063
X138063
X139063
X140063
X141063
X142063
X143063
Y004
X142063
X141063
X140063
X139063
X138063
X137063
X136063
X135063
X134063
X133063
X132063
X131063
X130063
X129063
X134063Y01495
Y01595
X135063
Y01495
X136063
Y01595
X128063Y004
X127063
X126063
X093063
X092063
X091063
X090063
X089063
X088063
X087063
X086063
X085063
X084063
X083063
X082063
X084063Y01495
Y01595
X085063
Y01495
X086063
Y01595
X081063Y004
X080063
X079063
X078063
X077063
X076063
X068063
X067063
X066063
X065063
X064063
X063063
X062063
X061063
X060063
X059063
X058063
X057063
X056063
X055063
X054063
X053063
X052063
X051063
X059063Y01495
Y01595
X060063
Y01495
X061063
Y01595
X053363Y0328
Y0338
X052363
Y0328
X077363
X078363
Y0338
X077363
X127363
Y0328
X128363
Y0338
Y0348
X127363
X078363
X077363
X053363
X052363
T11
X008Y053
X009
X01
Y0585
X009
X008
X0505
Y0595
Y0605
X0545
Y0595
Y0585
X0585
Y0595
Y0605
X0625
Y0595
Y0585
X124Y058
Y059
Y06
X127
Y059
Y058
Y0635
Y0645
Y0655
X124
Y0645
Y0635
X13
Y0645
Y0655
X133
Y0645
Y0635
Y06
Y059
Y058
X13
Y059
Y06
X1365
Y059
Y058
X1405
Y059
Y06
Y0645
Y0655
X1365
Y0645
X1693Y0649
Y0639
Y0629
X1405Y0665
X1365
X1179Y0659
X1169
X1159
T12
X0345Y0035
Y0085
Y0135
Y0185
X0335
X0325
X0315
X0285
X0275
X0265
X0255
X0225
X0215
X0205
X0195
Y0035
X0205
X0215
X0225
X0255
X0265
X0275
X0285
X0315
X0325
X0335
Y0085
X0325
X0315
Y0135
X0325
X0335
X0165Y0185
X0155
X0145
X0135
X0105
X0095
X0085
X0075
Y0135
X0085
X0095
X0105
Y0085
X0095
X0085
X0075
Y0035
X0085
X0095
X0105
X0135
X0145
X0155
X0165
X026Y025
X027
X028
X029
X0335
Y0305
X029
X028
X027
X026
X0345
X0355
X0365
Y025
X0355
X0345
X156Y0245
Y0255
Y0265
Y0275
Y0365
Y0375
Y0385
X1515
Y0375
Y0365
Y043
Y044
Y045
X156
Y044
Y043
X0365Y036
X0355
X0345
X0335
X029
X028
X027
X026
X00575Y047
Y048
Y049
Y05
Y0615
Y0625
Y0635
Y0645
X0655Y0615
Y0605
Y0595
Y0585
Y0575
Y0565
Y0555
Y0545
Y0535
Y0525
X0775
Y0515
Y0535
Y0545
Y0555
Y0565
Y0575
X1375Y0705
X1385
X1395
X1029Y0719
X1019
X1009
X0899
X0889
X0879
X0765Y068
X0755
X0745
X0735
T13
X0075Y025
X0085
X0095
X0105
X0115
X0125
X0165
X0175
X0185
Y0305
X0175
X0165
X0125
X0115
X0105
X0095
X0085
X0075
X0195
X0205
X0215
Y025
X0205
X0195
X169Y026
Y027
Y028
Y029
Y03
Y031
Y0355
Y0365
Y0375
Y0385
Y0395
Y0405
X0215Y036
X0205
X0195
X0185
X0175
X0165
X0125
X0115
X0105
X0095
X0085
X0075
X0864Y0574
X0874
X0884
X0894
X0904
X0914
X0924
X0934
X0929Y0594
X0919
X0909
X0899
X0889
X0879
X0869
X0994
X1004
X1014
X1024
X1034
X1044
X1054
X1059Y0574
X1049
X1039
X1029
X1019
X1009
X0999
X0989
X1289Y0704
X1299
X1309
X1279
X1269
X1259
T14
X166Y0627
X1643465
Y0648654
X166
X118Y06925
X1163465
Y0714153
X118
X057Y0696654
X0553465
Y0675
X057
T15
X12Y051
X123937
T16
X12Y004
X1007087
Y0268347
X12
T17
X003Y003
X1695
Y0722
X003Y072
T18
X0129213Y0262402
Y0317402
X0219213
Y0262402
X1702402Y0255787
Y0350787
X0219213Y0372402
X0129213
X1313213Y0716402
T19
X1685039Y0174134
Y0225866
T20
X070063Y003
X095063
X145063
X143063Y015
X132063
X126063Y0055
X093063Y015
X082063
X068063
X076063Y0055
X051063
X057063Y015
X145063Y0355
X126063Y035
X095063Y0355
X076063Y035
X070063Y0355
X051063Y035
T21
X066Y05
X077
Y064
X066
T22
X0455Y054
Y0619
M30
