G04*
G04 #@! TF.GenerationSoftware,Altium Limited,Altium Designer,21.6.4 (81)*
G04*
G04 Layer_Physical_Order=4*
G04 Layer_Color=16711680*
%FSLAX25Y25*%
%MOIN*%
G70*
G04*
G04 #@! TF.SameCoordinates,CD5F86C8-859A-4174-9CB5-FF9077504482*
G04*
G04*
G04 #@! TF.FilePolarity,Positive*
G04*
G01*
G75*
%ADD14C,0.01000*%
%ADD15C,0.00600*%
%ADD16C,0.02000*%
%ADD19C,0.00800*%
%ADD40R,0.05906X0.05906*%
G04:AMPARAMS|DCode=44|XSize=55mil|YSize=43mil|CornerRadius=7.96mil|HoleSize=0mil|Usage=FLASHONLY|Rotation=90.000|XOffset=0mil|YOffset=0mil|HoleType=Round|Shape=RoundedRectangle|*
%AMROUNDEDRECTD44*
21,1,0.05500,0.02709,0,0,90.0*
21,1,0.03909,0.04300,0,0,90.0*
1,1,0.01591,0.01355,0.01955*
1,1,0.01591,0.01355,-0.01955*
1,1,0.01591,-0.01355,-0.01955*
1,1,0.01591,-0.01355,0.01955*
%
%ADD44ROUNDEDRECTD44*%
G04:AMPARAMS|DCode=49|XSize=55mil|YSize=43mil|CornerRadius=7.96mil|HoleSize=0mil|Usage=FLASHONLY|Rotation=180.000|XOffset=0mil|YOffset=0mil|HoleType=Round|Shape=RoundedRectangle|*
%AMROUNDEDRECTD49*
21,1,0.05500,0.02709,0,0,180.0*
21,1,0.03909,0.04300,0,0,180.0*
1,1,0.01591,-0.01955,0.01355*
1,1,0.01591,0.01955,0.01355*
1,1,0.01591,0.01955,-0.01355*
1,1,0.01591,-0.01955,-0.01355*
%
%ADD49ROUNDEDRECTD49*%
%ADD77C,0.07000*%
%ADD78R,0.07000X0.07000*%
%ADD86C,0.06000*%
%ADD108C,0.03000*%
%ADD109C,0.05000*%
%ADD111R,0.04331X0.03543*%
%ADD112R,0.06000X0.06000*%
%ADD113C,0.08110*%
%ADD114C,0.07500*%
%ADD115R,0.07500X0.07500*%
%ADD116C,0.23622*%
%ADD117C,0.04724*%
%ADD118C,0.09055*%
%ADD119C,0.05622*%
%ADD120R,0.05622X0.05622*%
%ADD121C,0.24410*%
%ADD122C,0.11811*%
%ADD123R,0.06299X0.06299*%
%ADD124C,0.06299*%
%ADD125C,0.05906*%
%ADD126C,0.07400*%
%ADD127C,0.13000*%
G04:AMPARAMS|DCode=128|XSize=37.4mil|YSize=61.02mil|CornerRadius=18.7mil|HoleSize=0mil|Usage=FLASHONLY|Rotation=270.000|XOffset=0mil|YOffset=0mil|HoleType=Round|Shape=RoundedRectangle|*
%AMROUNDEDRECTD128*
21,1,0.03740,0.02362,0,0,270.0*
21,1,0.00000,0.06102,0,0,270.0*
1,1,0.03740,-0.01181,0.00000*
1,1,0.03740,-0.01181,0.00000*
1,1,0.03740,0.01181,0.00000*
1,1,0.03740,0.01181,0.00000*
%
%ADD128ROUNDEDRECTD128*%
G04:AMPARAMS|DCode=129|XSize=49.21mil|YSize=37.4mil|CornerRadius=18.7mil|HoleSize=0mil|Usage=FLASHONLY|Rotation=270.000|XOffset=0mil|YOffset=0mil|HoleType=Round|Shape=RoundedRectangle|*
%AMROUNDEDRECTD129*
21,1,0.04921,0.00000,0,0,270.0*
21,1,0.01181,0.03740,0,0,270.0*
1,1,0.03740,0.00000,-0.00591*
1,1,0.03740,0.00000,0.00591*
1,1,0.03740,0.00000,0.00591*
1,1,0.03740,0.00000,-0.00591*
%
%ADD129ROUNDEDRECTD129*%
%ADD130O,0.08960X0.05600*%
%ADD131C,0.12598*%
%ADD132P,0.07144X8X22.5*%
%ADD133P,0.06605X8X112.5*%
%ADD134P,0.06605X8X22.5*%
%ADD135R,0.06299X0.13780*%
%ADD136R,0.08661X0.17323*%
%ADD137C,0.13780*%
%ADD138R,0.13780X0.07008*%
%ADD139R,0.13780X0.06299*%
%ADD140R,0.17323X0.08661*%
%ADD141R,0.06299X0.06299*%
%ADD142R,0.06000X0.06000*%
%ADD143R,0.07008X0.13780*%
%ADD144R,0.07500X0.07500*%
%ADD145C,0.15000*%
%ADD146C,0.02000*%
%ADD147C,0.05000*%
%ADD148C,0.04000*%
%ADD150C,0.03200*%
D14*
X1314000Y548000D02*
X1314000Y205000D01*
X1301000Y561000D02*
X1314000Y548000D01*
X1289000Y561000D02*
X1301000D01*
X1240000Y580000D02*
X1266000Y554000D01*
X1293000D01*
X1307000Y540000D01*
X1270000Y580000D02*
X1289000Y561000D01*
X1307000Y540000D02*
X1307000Y215000D01*
X1320000Y540000D02*
Y560000D01*
X1300000Y580000D02*
X1320000Y560000D01*
X1326000Y540000D02*
Y576000D01*
X1330000Y580000D01*
X1320000Y653550D02*
X1320725Y654275D01*
X1329275D01*
X1330000Y655000D01*
X1290725Y654275D02*
X1299275D01*
X1290000Y653550D02*
X1290725Y654275D01*
X1299275D02*
X1300000Y655000D01*
X1324000Y635000D02*
X1330000D01*
X1320000Y639000D02*
X1324000Y635000D01*
X1320000Y639000D02*
Y646450D01*
X1292500Y635000D02*
X1300000D01*
X1290000Y637500D02*
X1292500Y635000D01*
X1290000Y637500D02*
Y646450D01*
X1262500Y635000D02*
X1270000D01*
X1260000Y637500D02*
Y646450D01*
Y637500D02*
X1262500Y635000D01*
X1260725Y654275D02*
X1269275D01*
X1260000Y653550D02*
X1260725Y654275D01*
X1269275D02*
X1270000Y655000D01*
X1232500Y635000D02*
X1240000D01*
X1230000Y637500D02*
X1232500Y635000D01*
X1230000Y637500D02*
Y646450D01*
X1230725Y654275D02*
X1239275D01*
X1230000Y653550D02*
X1230725Y654275D01*
X1239275D02*
X1240000Y655000D01*
X1326000Y540000D02*
X1326000Y185000D01*
X1320000Y540000D02*
X1320000Y195000D01*
X505000Y85000D02*
X515000D01*
X502000Y82000D02*
X505000Y85000D01*
X493000Y82000D02*
X502000D01*
X515000Y85000D02*
X518000Y88000D01*
X630000Y40630D02*
Y82000D01*
X606000Y35370D02*
Y235000D01*
X600630Y30000D02*
X606000Y35370D01*
X340000Y40000D02*
Y234000D01*
X335000Y35000D02*
X340000Y40000D01*
X1650000Y45000D02*
X1657000D01*
X1634000D02*
X1642821D01*
X1621049D02*
X1628000D01*
X1431000Y66000D02*
Y115000D01*
Y66000D02*
X1437000Y60000D01*
X1450630D01*
X1270630Y40000D02*
Y133630D01*
X1272000Y135000D01*
X987000Y55000D02*
Y104000D01*
X982000Y50000D02*
X987000Y55000D01*
X950630Y50000D02*
X982000D01*
X950630Y70000D02*
X963000D01*
X967000Y74000D02*
Y125000D01*
X963000Y70000D02*
X967000Y74000D01*
X745000Y220000D02*
X760630D01*
X740000Y225000D02*
Y485000D01*
Y225000D02*
X745000Y220000D01*
X678000Y448914D02*
Y449000D01*
X677000Y175000D02*
Y447914D01*
X678000Y448914D01*
X666000Y126000D02*
Y431914D01*
Y126000D02*
X692000Y100000D01*
X667000Y432914D02*
Y433000D01*
X666000Y431914D02*
X667000Y432914D01*
X204191Y14809D02*
X209000Y10000D01*
X204191Y14809D02*
Y34191D01*
X209000Y10000D02*
X587500D01*
X220000Y16000D02*
X583500D01*
X215000Y21000D02*
Y35000D01*
Y21000D02*
X220000Y16000D01*
X205000Y250000D02*
Y360000D01*
X115000Y250000D02*
Y305000D01*
X399000Y326000D02*
Y589000D01*
X405000Y595000D01*
X390000Y594000D02*
X401000Y605000D01*
X390000Y336000D02*
Y594000D01*
X1637725Y560375D02*
Y597225D01*
Y535275D02*
Y560275D01*
X1637796Y535204D02*
X1645000Y528000D01*
X1637725Y560275D02*
X1645000Y553000D01*
X1405000Y490000D02*
Y580000D01*
X1420000Y593729D02*
X1421000Y592729D01*
X1420000Y593729D02*
Y594000D01*
X1421000Y311000D02*
Y592729D01*
X1428000Y301000D02*
Y559000D01*
X1435000Y294000D02*
Y514000D01*
X868000Y136000D02*
Y439000D01*
X840630Y108630D02*
X868000Y136000D01*
X838000Y469000D02*
X868000Y439000D01*
X855000Y469000D02*
X875000Y449000D01*
X872000Y469000D02*
X881000Y460000D01*
Y130000D02*
Y460000D01*
X875000Y134000D02*
Y449000D01*
X850630Y109630D02*
X875000Y134000D01*
X643000Y528000D02*
Y541000D01*
X887000Y126000D02*
Y469000D01*
X860630Y109630D02*
X881000Y130000D01*
X840630Y40000D02*
Y108630D01*
X850630Y40000D02*
Y109630D01*
X860630Y40000D02*
Y109630D01*
X870630D02*
X887000Y126000D01*
X870630Y40000D02*
Y109630D01*
X750000Y269000D02*
Y463000D01*
X734000Y216000D02*
Y475000D01*
X165000Y463000D02*
Y571000D01*
X791000Y321000D02*
Y394000D01*
X796000Y318000D02*
Y402000D01*
X787000Y302000D02*
X802000Y317000D01*
Y410000D01*
X793000Y300000D02*
X807000Y314000D01*
Y417000D01*
X677000Y175000D02*
X693000Y159000D01*
X590630Y40000D02*
X596000Y34630D01*
Y18500D02*
Y34630D01*
X587500Y10000D02*
X596000Y18500D01*
X583500Y16000D02*
X590630Y23130D01*
Y30000D01*
X1365000Y477500D02*
Y580000D01*
X847500Y177500D02*
Y395000D01*
X837500Y167500D02*
X847500Y177500D01*
X817500Y167500D02*
X837500D01*
X807500Y157500D02*
X817500Y167500D01*
X807500Y46870D02*
Y157500D01*
X800630Y40000D02*
X807500Y46870D01*
X790630Y40000D02*
X800000Y49370D01*
Y160000D01*
X840000Y182500D02*
Y407500D01*
X832500Y175000D02*
X840000Y182500D01*
X815000Y175000D02*
X832500D01*
X800000Y160000D02*
X815000Y175000D01*
X786000Y45000D02*
X793000Y52000D01*
Y300000D01*
X780630Y44630D02*
X787000Y51000D01*
X786000Y35370D02*
Y45000D01*
X787000Y51000D02*
Y302000D01*
X429000Y46000D02*
Y311000D01*
X626000Y167550D02*
X627000Y168550D01*
Y301000D01*
X626000Y35370D02*
Y167550D01*
X620630Y40000D02*
Y310359D01*
X621000Y310729D01*
Y311000D01*
X620630Y30000D02*
X626000Y35370D01*
X438000Y42000D02*
Y301000D01*
X1436000Y74000D02*
Y120000D01*
Y74000D02*
X1440000Y70000D01*
X1498809Y8191D02*
X1499000Y8000D01*
X1498809Y8191D02*
Y44741D01*
X1528550Y45001D02*
X1528809Y44743D01*
Y21191D02*
X1529000Y21000D01*
X1528809Y21191D02*
Y44743D01*
X1589000Y174729D02*
Y175000D01*
X1588550Y45000D02*
Y174279D01*
X1589000Y174729D01*
X1558809Y164809D02*
X1559000Y165000D01*
X1558809Y45000D02*
Y164809D01*
Y45000D02*
X1567500D01*
X899000Y140000D02*
Y165000D01*
Y140000D02*
X910630Y128370D01*
Y40000D02*
Y128370D01*
X908000Y146000D02*
X920630Y133370D01*
X908000Y146000D02*
Y175000D01*
X920630Y40000D02*
Y133370D01*
X1299000Y315000D02*
Y320000D01*
X1663000D02*
X1697000D01*
X1663000Y307850D02*
Y320000D01*
X1638000D02*
X1663000D01*
X1291000Y321000D02*
Y407000D01*
X1300630Y40000D02*
Y255000D01*
X1290630Y265000D02*
X1290630Y40000D01*
X1296000Y312000D02*
X1299000Y315000D01*
X1290630Y30000D02*
X1296000Y35370D01*
Y312000D01*
X1286000Y316000D02*
X1291000Y321000D01*
X1286000Y35370D02*
Y316000D01*
X1280630Y30000D02*
X1286000Y35370D01*
X1451030Y170000D02*
X1461000D01*
X1450630D02*
X1451030D01*
X1467000Y176000D02*
Y304000D01*
X1461000Y170000D02*
X1467000Y176000D01*
X1462000Y185000D02*
Y311000D01*
X1457000Y180000D02*
X1462000Y185000D01*
X1450630Y180000D02*
X1457000D01*
X1356000Y128000D02*
Y395000D01*
X1366000Y126000D02*
Y375000D01*
X1346000Y131000D02*
Y421000D01*
X1334000Y134000D02*
Y440000D01*
X1356000Y116000D02*
X1366000Y126000D01*
X1346000Y118000D02*
X1356000Y128000D01*
Y35370D02*
Y116000D01*
X1346000Y35370D02*
Y118000D01*
X1350630Y30000D02*
X1356000Y35370D01*
X1320630Y105630D02*
X1346000Y131000D01*
X1320630Y40000D02*
Y105630D01*
X1340630Y30000D02*
X1346000Y35370D01*
X1310630Y110630D02*
X1334000Y134000D01*
X1310630Y40000D02*
Y110630D01*
X1246000Y104000D02*
Y239000D01*
Y104000D02*
X1250000Y100000D01*
X1260630D01*
X1234000Y95000D02*
X1239000Y90000D01*
X1260630D01*
X1234000Y95000D02*
Y271000D01*
X734000Y216000D02*
X740000Y210000D01*
X745000Y259000D02*
Y456000D01*
Y259000D02*
X748000Y256000D01*
X750000Y269000D02*
X753000Y266000D01*
X1129000Y245000D02*
Y688000D01*
X1159000Y145000D02*
X1159000Y659000D01*
X1129000Y688000D02*
X1132100Y691100D01*
X1136000Y684000D02*
X1144000D01*
X1276000Y35370D02*
Y145000D01*
X1270630Y30000D02*
X1276000Y35370D01*
X824000Y180000D02*
Y728000D01*
X814000Y190000D02*
Y735000D01*
X126000Y456000D02*
Y456271D01*
X126450Y456721D01*
Y540000D01*
X753000Y266000D02*
X760630D01*
X748000Y256000D02*
X760630D01*
X740000Y210000D02*
X760630D01*
X401000Y605000D02*
X410000D01*
X405000Y595000D02*
X410000D01*
X643000Y528000D02*
X646000Y525000D01*
X655000D01*
X717000Y167000D02*
Y255000D01*
X725000Y295000D02*
X725000Y147000D01*
X718000Y140000D02*
X725000Y147000D01*
X700630Y140000D02*
X718000D01*
X721000Y157000D02*
Y285000D01*
X714000Y150000D02*
X721000Y157000D01*
X700630Y150000D02*
X714000D01*
X710000Y160000D02*
X717000Y167000D01*
X700630Y160000D02*
X710000D01*
X701030Y170000D02*
X708000D01*
X713000Y175000D02*
Y265000D01*
X708000Y170000D02*
X713000Y175000D01*
X745000Y555000D02*
Y680000D01*
Y555000D02*
X775000Y525000D01*
X755000Y555000D02*
Y680000D01*
Y555000D02*
X775000Y535000D01*
X772000Y41370D02*
Y302000D01*
X791000Y321000D01*
X781000Y303000D02*
X796000Y318000D01*
X776000Y51000D02*
Y105000D01*
X781000Y51000D02*
Y303000D01*
X780630Y30000D02*
X786000Y35370D01*
X780630Y40000D02*
Y44630D01*
X776000Y46000D02*
X781000Y51000D01*
X776000Y35370D02*
Y46000D01*
X770630Y30000D02*
X776000Y35370D01*
X770630Y40000D02*
X772000Y41370D01*
X693000Y127630D02*
Y159000D01*
X692000Y100000D02*
X700630D01*
X698070Y122125D02*
Y122560D01*
X693000Y127630D02*
X698070Y122560D01*
X700195Y120000D02*
X700630D01*
X698070Y122125D02*
X700195Y120000D01*
X204191Y34191D02*
X205000Y35000D01*
X596000Y44630D02*
Y241000D01*
Y44630D02*
X600630Y40000D01*
X330000Y40000D02*
Y242000D01*
X325000Y35000D02*
X330000Y40000D01*
X380000Y274000D02*
Y321000D01*
X375000Y269000D02*
X380000Y274000D01*
X374000Y282000D02*
Y331000D01*
X371000Y279000D02*
X374000Y282000D01*
X360000Y269000D02*
X375000D01*
X355000Y250000D02*
Y264000D01*
X360000Y269000D01*
X350000Y279000D02*
X371000D01*
X345000Y274000D02*
X350000Y279000D01*
X345000Y250000D02*
Y274000D01*
X636000Y35370D02*
Y88000D01*
X630630Y30000D02*
X636000Y35370D01*
X630000Y40630D02*
X630630Y40000D01*
X576000Y35370D02*
Y95000D01*
X570630Y30000D02*
X576000Y35370D01*
X569191Y41439D02*
Y104809D01*
Y41439D02*
X570630Y40000D01*
X569000Y105000D02*
X569191Y104809D01*
X540630Y40000D02*
Y114359D01*
X541000Y114729D01*
Y115000D01*
X640809Y128102D02*
Y128809D01*
X640630Y127923D02*
X640809Y128102D01*
Y128809D02*
X641000Y129000D01*
X640630Y40000D02*
Y127923D01*
X646000Y35370D02*
Y124000D01*
X640630Y30000D02*
X646000Y35370D01*
X610630Y133359D02*
X611000Y133729D01*
Y134000D01*
X610630Y40000D02*
Y133359D01*
X656000Y35370D02*
Y175000D01*
X650630Y30000D02*
X656000Y35370D01*
X650630Y168359D02*
X651000Y168729D01*
X650630Y40000D02*
Y168359D01*
X651000Y168729D02*
Y169000D01*
X580000Y194729D02*
X580630Y194099D01*
X580000Y194729D02*
Y195000D01*
X580630Y40000D02*
Y194099D01*
X550630Y40000D02*
Y214359D01*
X551000Y214729D01*
Y215000D01*
X526000Y35370D02*
Y225000D01*
X520630Y30000D02*
X526000Y35370D01*
X1500725Y375725D02*
X1514275D01*
X1515000Y375000D01*
X1500000Y376450D02*
X1500725Y375725D01*
X1500000Y383550D02*
X1500725Y384275D01*
X1514275D02*
X1515000Y385000D01*
X1500725Y384275D02*
X1514275D01*
X1559275Y375725D02*
X1560000Y375000D01*
X1545725Y375725D02*
X1559275D01*
X1545000Y376450D02*
X1545725Y375725D01*
X1559275Y384275D02*
X1560000Y385000D01*
X1545725Y384275D02*
X1559275D01*
X1545000Y383550D02*
X1545725Y384275D01*
X972000Y60000D02*
X977000Y65000D01*
Y115000D01*
X950630Y60000D02*
X972000D01*
X1440000Y70000D02*
X1450630D01*
X1426000Y60000D02*
X1436000Y50000D01*
X1450630D01*
X1426000Y60000D02*
Y104000D01*
X746000Y50000D02*
Y105000D01*
X666000Y35370D02*
Y85000D01*
X660630Y30000D02*
X666000Y35370D01*
X676000D02*
Y95000D01*
X670630Y30000D02*
X676000Y35370D01*
X916000D02*
Y65000D01*
X926000Y35370D02*
Y75000D01*
X910630Y30000D02*
X916000Y35370D01*
X920630Y30000D02*
X926000Y35370D01*
X1425030Y34400D02*
Y53970D01*
X1425000Y54000D02*
X1425030Y53970D01*
X1420630Y30000D02*
X1425030Y34400D01*
X1410630Y30000D02*
X1416000Y35370D01*
Y52000D01*
X1498550Y45000D02*
X1498809Y44741D01*
X1588550Y45000D02*
X1588809Y44741D01*
X195000Y275000D02*
Y305000D01*
Y250000D02*
Y275000D01*
X105000D02*
Y305000D01*
Y250000D02*
Y275000D01*
X185000Y285000D02*
Y305000D01*
Y250000D02*
Y285000D01*
X95000D02*
Y305000D01*
Y250000D02*
Y285000D01*
X175000Y295000D02*
Y305000D01*
Y250000D02*
Y295000D01*
X85000D02*
Y305000D01*
Y250000D02*
Y295000D01*
X100000Y570000D02*
Y572500D01*
X102500Y575000D01*
X307000Y555000D02*
X316450D01*
X323550Y545000D02*
Y550000D01*
Y555000D01*
Y550000D02*
X335000D01*
X361000Y565000D02*
X373000Y553000D01*
Y549000D02*
Y553000D01*
X286000Y560000D02*
X289000Y563000D01*
X295000D01*
X302000Y571000D02*
X306000Y575000D01*
X302000Y560000D02*
X307000Y565000D01*
X306000Y575000D02*
X316450D01*
X307000Y565000D02*
X316450D01*
X323550Y570000D02*
Y570450D01*
Y575000D01*
Y565000D02*
Y570000D01*
Y570450D02*
X324000Y570000D01*
X335000D01*
X127309Y557691D02*
Y564141D01*
X112000Y540000D02*
X126450D01*
X127309Y557691D02*
X127500Y557500D01*
X132500Y555000D02*
X132691Y555191D01*
Y564141D01*
X133550Y565000D01*
Y539560D02*
Y540000D01*
Y539560D02*
X135178Y537932D01*
X135618D01*
X138550Y535000D01*
X160000D01*
X102500Y575000D02*
X126450D01*
Y565000D02*
X127309Y564141D01*
X133550Y575000D02*
X140000D01*
X161000D01*
X165000Y571000D01*
X302000Y550000D02*
X307000Y545000D01*
X302000Y560000D02*
X307000Y555000D01*
Y545000D02*
X316450D01*
X1132100Y691100D02*
X1144000D01*
X1670000Y383000D02*
Y396450D01*
X1669399Y301451D02*
X1670000D01*
X1500000Y453550D02*
X1511450D01*
X1515000Y450000D01*
X1500725Y439275D02*
X1514275D01*
X1515000Y440000D01*
X1500000Y438550D02*
X1500725Y439275D01*
X1500000Y438550D02*
Y446450D01*
X1514275Y430725D02*
X1515000Y430000D01*
X1500725Y430725D02*
X1514275D01*
X1500000Y431450D02*
X1500725Y430725D01*
X1556450Y453550D02*
X1560000Y450000D01*
X1545000Y453550D02*
X1556450D01*
X1545725Y439275D02*
X1559275D01*
X1545000Y438550D02*
X1545725Y439275D01*
X1559275D02*
X1560000Y440000D01*
X1545000Y438550D02*
Y446450D01*
X1559275Y430725D02*
X1560000Y430000D01*
X1545000Y431450D02*
X1545725Y430725D01*
X1559275D01*
X1670000Y383000D02*
X1678000Y375000D01*
X1690000D01*
X1688550Y403550D02*
X1690000Y405000D01*
X1670000Y403550D02*
X1688550D01*
X1663000Y307850D02*
X1669399Y301451D01*
X1661000Y290000D02*
X1690000D01*
X1697000Y320000D02*
X1700000Y317000D01*
Y283000D02*
Y317000D01*
X1697000Y280000D02*
X1700000Y283000D01*
X1690000Y280000D02*
X1697000D01*
X175000Y305000D02*
Y360000D01*
X185000Y305000D02*
Y360000D01*
X195000Y305000D02*
Y360000D01*
X1645000Y604500D02*
X1655000D01*
X1660000Y609500D01*
Y627000D01*
X1637725Y597225D02*
X1645000Y604500D01*
X1169000Y659000D02*
Y674000D01*
X1172500Y677500D01*
X1187500D01*
X1192500Y682500D01*
Y701653D01*
X1180000Y714153D02*
X1192500Y701653D01*
X1144800Y711750D02*
X1148250D01*
X1144000Y712550D02*
X1144800Y711750D01*
X1157500Y702500D02*
X1170000D01*
X1148250Y711750D02*
X1157500Y702500D01*
X1170000D02*
X1180000Y692500D01*
X1653000Y535450D02*
X1663000D01*
X1647450D02*
X1653000D01*
X1645000Y533000D02*
X1647450Y535450D01*
X1675000Y518000D02*
X1681000D01*
X1683000Y520000D01*
Y525450D01*
X929000Y549000D02*
Y594000D01*
X924000Y544000D02*
X929000Y549000D01*
X879000Y544000D02*
X924000D01*
X874000Y549000D02*
X879000Y544000D01*
X914000Y552250D02*
Y574000D01*
X894000Y549000D02*
X910750D01*
X914000Y552250D01*
X1054000Y549000D02*
Y594000D01*
X1049000Y544000D02*
X1054000Y549000D01*
X1004000Y544000D02*
X1049000D01*
X999000Y549000D02*
X1004000Y544000D01*
X1039001Y554472D02*
Y573999D01*
X1039000Y574000D02*
X1039001Y573999D01*
X1019000Y549000D02*
X1033529D01*
X1039001Y554472D01*
X1144000Y691100D02*
Y705450D01*
X1528550Y45001D02*
X1528551Y45000D01*
X1537500D01*
X1588550D02*
X1597500D01*
X1542500D02*
X1551450D01*
X1512500D02*
X1521449D01*
X1521450Y45001D01*
X1605000Y45000D02*
X1611450D01*
X1573550D02*
X1581450D01*
X1480000D02*
X1491450D01*
X1498550D02*
X1507500D01*
D15*
X773000Y525000D02*
X775000D01*
D16*
X1241450Y636450D02*
X1250000D01*
X1240000Y635000D02*
X1241450Y636450D01*
X1272613Y643550D02*
X1280000D01*
X1271163Y645000D02*
X1272613Y643550D01*
X1270000Y645000D02*
X1271163D01*
X1271450Y636450D02*
X1280000D01*
X1270000Y635000D02*
X1271450Y636450D01*
X1302613Y643550D02*
X1310000D01*
X1301163Y645000D02*
X1302613Y643550D01*
X1300000Y645000D02*
X1301163D01*
X1300000Y635000D02*
X1301450Y636450D01*
X1310000D01*
X1330000Y635000D02*
X1331450Y636450D01*
X1340000D01*
X1330000Y645000D02*
X1331163D01*
X1332613Y643550D02*
X1340000D01*
X1331163Y645000D02*
X1332613Y643550D01*
X1355039Y647461D02*
Y651450D01*
X1355000Y658550D02*
X1355028Y658578D01*
Y662528D01*
X1357500Y665000D01*
X1414972Y658578D02*
Y662528D01*
Y658578D02*
X1415000Y658550D01*
X1412500Y665000D02*
X1414972Y662528D01*
X1355039Y647461D02*
X1357500Y645000D01*
X1365000D01*
X1357500Y665000D02*
X1365000D01*
X1405000D02*
X1412500D01*
X1405000Y645000D02*
X1412500D01*
X1415000Y647500D01*
Y651450D01*
X57500Y635000D02*
X80000D01*
X90000Y625000D01*
Y585000D02*
Y625000D01*
X57500Y490000D02*
X77500D01*
X90000Y502500D01*
Y530000D01*
X1670000Y308551D02*
X1688551D01*
X1690000Y310000D01*
X1663000Y542550D02*
X1663225Y542775D01*
X1652775D02*
X1653000Y542550D01*
X1645000Y543000D02*
X1645225Y542775D01*
X1652775D01*
X1682000Y542188D02*
Y543000D01*
X1683000Y532550D02*
Y541188D01*
X1682000Y542188D02*
X1683000Y541188D01*
X1681775Y542775D02*
X1682000Y543000D01*
X1663225Y542775D02*
X1681775D01*
D19*
X698230Y180000D02*
X698630Y179600D01*
X699430D01*
X699830Y180000D02*
X700630D01*
X699430Y179600D02*
X699830Y180000D01*
X700630Y170000D02*
X701030D01*
X948230Y180000D02*
X948630Y179600D01*
X949430D01*
X949830Y180000D02*
X950630D01*
X949430Y179600D02*
X949830Y180000D01*
X950630Y170000D02*
X951030D01*
X1448230Y180000D02*
X1448630Y179600D01*
X1449430D01*
X1449830Y180000D02*
X1450630D01*
X1449430Y179600D02*
X1449830Y180000D01*
X1450630Y170000D02*
X1451030D01*
X470000Y231000D02*
Y252000D01*
X520630Y40000D02*
Y233370D01*
X499000Y238000D02*
X516000D01*
X520630Y233370D01*
X495000Y242000D02*
X499000Y238000D01*
X495000Y242000D02*
Y251000D01*
X490000Y256000D02*
X495000Y251000D01*
X470000Y252000D02*
X474000Y256000D01*
X490000D01*
X1626200Y133800D02*
X1650000Y110000D01*
Y45000D02*
Y110000D01*
X1622200Y133800D02*
X1626200D01*
X672000Y441931D02*
Y442000D01*
X671000Y132000D02*
Y440931D01*
X672000Y441931D01*
X661000Y121000D02*
X692000Y90000D01*
X700630D01*
X661000Y121000D02*
Y425000D01*
X671000Y132000D02*
X693000Y110000D01*
X921000Y197000D02*
Y369000D01*
X949430Y180000D02*
X949830D01*
X948630D02*
X949430D01*
X921000Y197000D02*
X938000Y180000D01*
X926000Y202000D02*
Y375000D01*
Y202000D02*
X938000Y190000D01*
X931000Y207000D02*
Y381000D01*
X936000Y215000D02*
Y387000D01*
X616000Y35000D02*
Y138000D01*
X611000Y30000D02*
X616000Y35000D01*
X1622000Y45951D02*
Y128000D01*
X1621049Y45000D02*
X1622000Y45951D01*
Y134000D02*
X1622200Y133800D01*
X1420630Y40000D02*
Y131630D01*
X1423000Y134000D01*
X1410630Y40000D02*
Y126370D01*
X1409000Y128000D02*
X1410630Y126370D01*
X1097000Y154000D02*
Y443000D01*
X1068000Y135000D02*
Y432000D01*
X1280630Y40000D02*
X1281000Y40370D01*
Y154000D01*
X938000Y180000D02*
X948230D01*
X938000Y190000D02*
X950630D01*
X931000Y207000D02*
X938000Y200000D01*
X950630D01*
X941000Y210000D02*
X950630D01*
X936000Y215000D02*
X941000Y210000D01*
X700630Y170000D02*
X701030D01*
X693000Y110000D02*
X700630D01*
X540630Y30000D02*
X546000Y35370D01*
Y122000D01*
X543000Y125000D02*
X546000Y122000D01*
X610630Y30000D02*
X611000D01*
X586000Y35370D02*
Y185000D01*
X580630Y30000D02*
X586000Y35370D01*
X556000Y120253D02*
X556230Y120023D01*
Y35600D02*
Y120023D01*
X556000Y120253D02*
Y205000D01*
X550630Y30000D02*
X556230Y35600D01*
D40*
X410000Y625000D02*
D03*
D44*
X316450Y565000D02*
D03*
X323550D02*
D03*
Y575000D02*
D03*
X316450D02*
D03*
X126450Y540000D02*
D03*
X133550D02*
D03*
X316450Y555000D02*
D03*
X323550D02*
D03*
Y545000D02*
D03*
X316450D02*
D03*
X133550Y565000D02*
D03*
X126450D02*
D03*
Y575000D02*
D03*
X133550D02*
D03*
X1491450Y45000D02*
D03*
X1498550D02*
D03*
X1521450Y45001D02*
D03*
X1528550D02*
D03*
X1551450Y45000D02*
D03*
X1558550D02*
D03*
X1581450D02*
D03*
X1588550D02*
D03*
X1611450Y45000D02*
D03*
X1618550D02*
D03*
X1642821Y45000D02*
D03*
X1649921D02*
D03*
D49*
X1280000Y643550D02*
D03*
Y636450D02*
D03*
X1683000Y525450D02*
D03*
Y532550D02*
D03*
X1653000Y535450D02*
D03*
Y542550D02*
D03*
X1663000D02*
D03*
Y535450D02*
D03*
X1670000Y301451D02*
D03*
Y308551D02*
D03*
X1670000Y396450D02*
D03*
Y403550D02*
D03*
X1545000Y376450D02*
D03*
Y383550D02*
D03*
X1500000Y376450D02*
D03*
Y383550D02*
D03*
X1144000Y712550D02*
D03*
Y705450D02*
D03*
Y691100D02*
D03*
Y684000D02*
D03*
X1500000Y431450D02*
D03*
Y438550D02*
D03*
Y446450D02*
D03*
Y453550D02*
D03*
X1545000Y431450D02*
D03*
Y438550D02*
D03*
Y446450D02*
D03*
Y453550D02*
D03*
X1355039Y658550D02*
D03*
Y651450D02*
D03*
X1415000D02*
D03*
Y658550D02*
D03*
X1230000Y646450D02*
D03*
Y653550D02*
D03*
X1290000Y646450D02*
D03*
Y653550D02*
D03*
X1250000Y643550D02*
D03*
Y636450D02*
D03*
X1310000Y643550D02*
D03*
Y636450D02*
D03*
X1320000Y646450D02*
D03*
Y653550D02*
D03*
X1260000Y646450D02*
D03*
Y653550D02*
D03*
X1340000Y643550D02*
D03*
Y636450D02*
D03*
D77*
X1059000Y574000D02*
D03*
X1054000Y594000D02*
D03*
X1049000Y574000D02*
D03*
X1044000Y594000D02*
D03*
X1039000Y574000D02*
D03*
X1034000Y594000D02*
D03*
X1029000Y574000D02*
D03*
X1024000Y594000D02*
D03*
X1019000Y574000D02*
D03*
X1014000Y594000D02*
D03*
X1009000Y574000D02*
D03*
X1004000Y594000D02*
D03*
X999000Y574000D02*
D03*
X994000Y594000D02*
D03*
X934000Y574000D02*
D03*
X929000Y594000D02*
D03*
X924000Y574000D02*
D03*
X919000Y594000D02*
D03*
X914000Y574000D02*
D03*
X909000Y594000D02*
D03*
X904000Y574000D02*
D03*
X899000Y594000D02*
D03*
X894000Y574000D02*
D03*
X889000Y594000D02*
D03*
X884000Y574000D02*
D03*
X879000Y594000D02*
D03*
X874000Y574000D02*
D03*
X869000Y594000D02*
D03*
D78*
X989000Y574000D02*
D03*
X864000D02*
D03*
D86*
X365000Y250000D02*
D03*
X355000D02*
D03*
X345000D02*
D03*
X1375000Y705000D02*
D03*
X1385000D02*
D03*
X1395000D02*
D03*
X57500Y480000D02*
D03*
Y490000D02*
D03*
Y500000D02*
D03*
Y645000D02*
D03*
Y635000D02*
D03*
Y625000D02*
D03*
X345000Y185000D02*
D03*
X335000D02*
D03*
X325000D02*
D03*
X85000D02*
D03*
X95000D02*
D03*
X105000D02*
D03*
X145000D02*
D03*
X155000D02*
D03*
X165000D02*
D03*
X205000D02*
D03*
X215000D02*
D03*
X225000D02*
D03*
X265000D02*
D03*
X275000D02*
D03*
X285000D02*
D03*
X325000Y135000D02*
D03*
X335000D02*
D03*
X345000D02*
D03*
X105000Y35000D02*
D03*
X95000D02*
D03*
X85000D02*
D03*
X165000D02*
D03*
X155000D02*
D03*
X145000D02*
D03*
X225000D02*
D03*
X215000D02*
D03*
X205000D02*
D03*
X285000D02*
D03*
X275000D02*
D03*
X265000D02*
D03*
X85000Y135000D02*
D03*
X95000D02*
D03*
X105000D02*
D03*
X85000Y85000D02*
D03*
X95000D02*
D03*
X105000D02*
D03*
X325000Y35000D02*
D03*
X335000D02*
D03*
X345000D02*
D03*
X325000Y85000D02*
D03*
X335000D02*
D03*
X345000D02*
D03*
X745000Y680000D02*
D03*
X755000D02*
D03*
X765000D02*
D03*
X270000Y250000D02*
D03*
X280000D02*
D03*
X290000D02*
D03*
X270000Y305000D02*
D03*
X280000D02*
D03*
X290000D02*
D03*
X270000Y360000D02*
D03*
X280000D02*
D03*
X290000D02*
D03*
X365000D02*
D03*
X355000D02*
D03*
X345000D02*
D03*
X365000Y305000D02*
D03*
X355000D02*
D03*
X345000D02*
D03*
X1009000Y719000D02*
D03*
X1019000D02*
D03*
X1029000D02*
D03*
X879000D02*
D03*
X889000D02*
D03*
X899000D02*
D03*
X1560000Y255000D02*
D03*
Y265000D02*
D03*
Y275000D02*
D03*
Y385000D02*
D03*
Y375000D02*
D03*
Y365000D02*
D03*
X1515000D02*
D03*
Y375000D02*
D03*
Y385000D02*
D03*
Y430000D02*
D03*
Y440000D02*
D03*
Y450000D02*
D03*
X1560000Y430000D02*
D03*
Y440000D02*
D03*
Y450000D02*
D03*
D108*
X1240893Y645000D02*
X1242343Y643550D01*
X1240000Y645000D02*
X1240893D01*
X1242343Y643550D02*
X1250000D01*
D109*
X533630Y328000D02*
X534130Y327500D01*
X783630Y328000D02*
X784130Y327500D01*
X1283630Y328000D02*
X1284130Y327500D01*
D111*
X209803Y635000D02*
D03*
Y645000D02*
D03*
X185000Y635000D02*
D03*
Y645000D02*
D03*
X1543000Y504000D02*
D03*
Y514000D02*
D03*
X1518197Y504000D02*
D03*
Y514000D02*
D03*
X1542803Y549000D02*
D03*
Y559000D02*
D03*
X1518000Y549000D02*
D03*
Y559000D02*
D03*
X1542803Y584000D02*
D03*
Y594000D02*
D03*
X1518000Y584000D02*
D03*
Y594000D02*
D03*
X185197Y495000D02*
D03*
Y485000D02*
D03*
X210000Y495000D02*
D03*
Y485000D02*
D03*
D112*
X335000Y250000D02*
D03*
X315000Y185000D02*
D03*
X75000D02*
D03*
X135000D02*
D03*
X195000D02*
D03*
X255000D02*
D03*
X315000Y135000D02*
D03*
X75000Y35000D02*
D03*
X135000D02*
D03*
X195000D02*
D03*
X255000D02*
D03*
X75000Y135000D02*
D03*
Y85000D02*
D03*
X315000Y35000D02*
D03*
Y85000D02*
D03*
X735000Y680000D02*
D03*
X260000Y250000D02*
D03*
Y305000D02*
D03*
Y360000D02*
D03*
X335000D02*
D03*
Y305000D02*
D03*
D113*
X129213Y317402D02*
D03*
X1702402Y255787D02*
D03*
Y350787D02*
D03*
X129213Y372402D02*
D03*
Y262402D02*
D03*
X219213Y372402D02*
D03*
Y262402D02*
D03*
X1313213Y716402D02*
D03*
X219213Y317402D02*
D03*
D114*
X125000Y305000D02*
D03*
X115000D02*
D03*
X105000D02*
D03*
X95000D02*
D03*
X85000D02*
D03*
X1690000Y300000D02*
D03*
Y290000D02*
D03*
Y280000D02*
D03*
Y270000D02*
D03*
Y260000D02*
D03*
Y355000D02*
D03*
Y365000D02*
D03*
Y375000D02*
D03*
Y385000D02*
D03*
Y395000D02*
D03*
X85000Y360000D02*
D03*
X95000D02*
D03*
X105000D02*
D03*
X115000D02*
D03*
X125000D02*
D03*
X85000Y250000D02*
D03*
X95000D02*
D03*
X105000D02*
D03*
X115000D02*
D03*
X125000D02*
D03*
X215000Y360000D02*
D03*
X205000D02*
D03*
X195000D02*
D03*
X185000D02*
D03*
X175000D02*
D03*
Y250000D02*
D03*
X185000D02*
D03*
X195000D02*
D03*
X205000D02*
D03*
X215000D02*
D03*
X1309000Y704000D02*
D03*
X1299000D02*
D03*
X1289000D02*
D03*
X1279000D02*
D03*
X1269000D02*
D03*
X175000Y305000D02*
D03*
X185000D02*
D03*
X195000D02*
D03*
X205000D02*
D03*
X215000D02*
D03*
D115*
X75000D02*
D03*
Y360000D02*
D03*
Y250000D02*
D03*
X165000Y360000D02*
D03*
Y250000D02*
D03*
X1259000Y704000D02*
D03*
X165000Y305000D02*
D03*
D116*
X1200000Y40000D02*
D03*
Y268347D02*
D03*
X1007087Y40000D02*
D03*
Y268347D02*
D03*
D117*
X1014000Y624000D02*
D03*
Y654000D02*
D03*
X1029000Y624000D02*
D03*
Y654000D02*
D03*
X904000Y624000D02*
D03*
Y654000D02*
D03*
X889000Y624000D02*
D03*
Y654000D02*
D03*
D118*
X1685039Y225866D02*
D03*
Y174134D02*
D03*
D119*
X1674370Y213779D02*
D03*
Y203937D02*
D03*
Y196063D02*
D03*
D120*
Y186221D02*
D03*
D121*
X30000Y30000D02*
D03*
Y720000D02*
D03*
X1695000Y722000D02*
D03*
Y30000D02*
D03*
D122*
X553465Y696654D02*
D03*
X570000D02*
D03*
Y675000D02*
D03*
X553465D02*
D03*
X1163465Y714153D02*
D03*
X1180000D02*
D03*
Y692500D02*
D03*
X1163465D02*
D03*
X1643465Y648654D02*
D03*
X1660000D02*
D03*
Y627000D02*
D03*
X1643465D02*
D03*
D123*
X1270000Y635000D02*
D03*
Y580000D02*
D03*
X1693000Y629000D02*
D03*
X1365000Y645000D02*
D03*
X1405000D02*
D03*
X1365000Y580000D02*
D03*
X1405000D02*
D03*
X545000Y585000D02*
D03*
X585000D02*
D03*
X625000D02*
D03*
X505000D02*
D03*
X1240000Y635000D02*
D03*
X1300000D02*
D03*
X1330000D02*
D03*
X1240000Y580000D02*
D03*
X1300000D02*
D03*
X1330000D02*
D03*
D124*
X1270000Y645000D02*
D03*
Y655000D02*
D03*
Y600000D02*
D03*
Y590000D02*
D03*
X1693000Y639000D02*
D03*
Y649000D02*
D03*
X80000Y530000D02*
D03*
X90000D02*
D03*
Y585000D02*
D03*
X80000D02*
D03*
X1179000Y659000D02*
D03*
X1169000D02*
D03*
X1365000Y665000D02*
D03*
Y655000D02*
D03*
X1405000Y665000D02*
D03*
Y655000D02*
D03*
X1365000Y590000D02*
D03*
Y600000D02*
D03*
X1405000Y590000D02*
D03*
Y600000D02*
D03*
X545000Y595000D02*
D03*
Y605000D02*
D03*
X585000Y595000D02*
D03*
Y605000D02*
D03*
X625000Y595000D02*
D03*
Y605000D02*
D03*
X505000Y595000D02*
D03*
Y605000D02*
D03*
X1240000Y645000D02*
D03*
Y655000D02*
D03*
X1300000Y645000D02*
D03*
Y655000D02*
D03*
X1330000Y645000D02*
D03*
Y655000D02*
D03*
X1240000Y590000D02*
D03*
Y600000D02*
D03*
X1300000D02*
D03*
Y590000D02*
D03*
X1330000Y600000D02*
D03*
Y590000D02*
D03*
D125*
X410000Y615000D02*
D03*
Y595000D02*
D03*
Y585000D02*
D03*
Y575000D02*
D03*
Y565000D02*
D03*
Y555000D02*
D03*
Y545000D02*
D03*
Y535000D02*
D03*
Y605000D02*
D03*
D126*
X655000Y615000D02*
D03*
Y605000D02*
D03*
Y595000D02*
D03*
Y585000D02*
D03*
Y575000D02*
D03*
Y565000D02*
D03*
Y555000D02*
D03*
Y545000D02*
D03*
Y535000D02*
D03*
Y525000D02*
D03*
X775000Y515000D02*
D03*
Y525000D02*
D03*
Y535000D02*
D03*
Y545000D02*
D03*
Y555000D02*
D03*
Y565000D02*
D03*
Y575000D02*
D03*
D127*
X770000Y640000D02*
D03*
Y500000D02*
D03*
X660000Y640000D02*
D03*
Y500000D02*
D03*
D128*
X1717000Y126221D02*
D03*
Y153779D02*
D03*
D129*
X1706370Y130157D02*
D03*
Y149843D02*
D03*
D130*
X510630Y120000D02*
D03*
Y130000D02*
D03*
Y140000D02*
D03*
Y160000D02*
D03*
Y110000D02*
D03*
Y326000D02*
D03*
Y336000D02*
D03*
Y316000D02*
D03*
Y306000D02*
D03*
Y70000D02*
D03*
Y80000D02*
D03*
Y90000D02*
D03*
Y100000D02*
D03*
Y230000D02*
D03*
Y296000D02*
D03*
Y266000D02*
D03*
Y246000D02*
D03*
Y256000D02*
D03*
Y286000D02*
D03*
Y276000D02*
D03*
Y200000D02*
D03*
Y170000D02*
D03*
Y180000D02*
D03*
Y190000D02*
D03*
Y210000D02*
D03*
Y220000D02*
D03*
X700630Y300000D02*
D03*
Y290000D02*
D03*
Y280000D02*
D03*
Y270000D02*
D03*
Y260000D02*
D03*
Y250000D02*
D03*
Y240000D02*
D03*
Y230000D02*
D03*
Y120000D02*
D03*
Y140000D02*
D03*
Y210000D02*
D03*
Y190000D02*
D03*
Y160000D02*
D03*
Y180000D02*
D03*
Y170000D02*
D03*
Y150000D02*
D03*
Y200000D02*
D03*
Y110000D02*
D03*
Y100000D02*
D03*
Y90000D02*
D03*
Y80000D02*
D03*
Y70000D02*
D03*
Y60000D02*
D03*
Y50000D02*
D03*
X760630Y120000D02*
D03*
Y130000D02*
D03*
Y140000D02*
D03*
Y160000D02*
D03*
Y110000D02*
D03*
Y326000D02*
D03*
Y336000D02*
D03*
Y316000D02*
D03*
Y306000D02*
D03*
Y70000D02*
D03*
Y80000D02*
D03*
Y90000D02*
D03*
Y100000D02*
D03*
Y230000D02*
D03*
Y296000D02*
D03*
Y266000D02*
D03*
Y246000D02*
D03*
Y256000D02*
D03*
Y286000D02*
D03*
Y276000D02*
D03*
Y200000D02*
D03*
Y170000D02*
D03*
Y180000D02*
D03*
Y190000D02*
D03*
Y210000D02*
D03*
Y220000D02*
D03*
X950630Y300000D02*
D03*
Y290000D02*
D03*
Y280000D02*
D03*
Y270000D02*
D03*
Y260000D02*
D03*
Y250000D02*
D03*
Y240000D02*
D03*
Y230000D02*
D03*
Y120000D02*
D03*
Y140000D02*
D03*
Y210000D02*
D03*
Y190000D02*
D03*
Y160000D02*
D03*
Y180000D02*
D03*
Y170000D02*
D03*
Y150000D02*
D03*
Y200000D02*
D03*
Y110000D02*
D03*
Y100000D02*
D03*
Y90000D02*
D03*
Y80000D02*
D03*
Y70000D02*
D03*
Y60000D02*
D03*
Y50000D02*
D03*
X1260630Y120000D02*
D03*
Y130000D02*
D03*
Y140000D02*
D03*
Y160000D02*
D03*
Y110000D02*
D03*
Y326000D02*
D03*
Y336000D02*
D03*
Y316000D02*
D03*
Y306000D02*
D03*
Y70000D02*
D03*
Y80000D02*
D03*
Y90000D02*
D03*
Y100000D02*
D03*
Y230000D02*
D03*
Y296000D02*
D03*
Y266000D02*
D03*
Y246000D02*
D03*
Y256000D02*
D03*
Y286000D02*
D03*
Y276000D02*
D03*
Y200000D02*
D03*
Y170000D02*
D03*
Y180000D02*
D03*
Y190000D02*
D03*
Y210000D02*
D03*
Y220000D02*
D03*
X1450630Y300000D02*
D03*
Y290000D02*
D03*
Y280000D02*
D03*
Y270000D02*
D03*
Y260000D02*
D03*
Y250000D02*
D03*
Y240000D02*
D03*
Y230000D02*
D03*
Y120000D02*
D03*
Y140000D02*
D03*
Y210000D02*
D03*
Y190000D02*
D03*
Y160000D02*
D03*
Y180000D02*
D03*
Y170000D02*
D03*
Y150000D02*
D03*
Y200000D02*
D03*
Y110000D02*
D03*
Y100000D02*
D03*
Y90000D02*
D03*
Y80000D02*
D03*
Y70000D02*
D03*
Y60000D02*
D03*
Y50000D02*
D03*
D131*
X570630Y150000D02*
D03*
X510630Y55000D02*
D03*
Y350000D02*
D03*
X700630Y355000D02*
D03*
Y30000D02*
D03*
X680630Y150000D02*
D03*
X820630D02*
D03*
X760630Y55000D02*
D03*
Y350000D02*
D03*
X950630Y355000D02*
D03*
Y30000D02*
D03*
X930630Y150000D02*
D03*
X1320630D02*
D03*
X1260630Y55000D02*
D03*
Y350000D02*
D03*
X1450630Y355000D02*
D03*
Y30000D02*
D03*
X1430630Y150000D02*
D03*
D132*
X510630Y30000D02*
D03*
Y40000D02*
D03*
X560630Y30000D02*
D03*
X570630Y40000D02*
D03*
X580630D02*
D03*
Y30000D02*
D03*
X520630Y40000D02*
D03*
Y30000D02*
D03*
X530630Y40000D02*
D03*
Y30000D02*
D03*
X540630Y40000D02*
D03*
Y30000D02*
D03*
X550630Y40000D02*
D03*
Y30000D02*
D03*
X560630Y40000D02*
D03*
X570630Y30000D02*
D03*
X630630Y40000D02*
D03*
X640630D02*
D03*
Y30000D02*
D03*
X650630Y40000D02*
D03*
Y30000D02*
D03*
X660630Y40000D02*
D03*
Y30000D02*
D03*
X670630Y40000D02*
D03*
Y30000D02*
D03*
X680630Y40000D02*
D03*
Y30000D02*
D03*
X630630D02*
D03*
X590630Y40000D02*
D03*
Y30000D02*
D03*
X600630Y40000D02*
D03*
Y30000D02*
D03*
X610630Y40000D02*
D03*
Y30000D02*
D03*
X620630Y40000D02*
D03*
Y30000D02*
D03*
X760630D02*
D03*
Y40000D02*
D03*
X810630Y30000D02*
D03*
X820630Y40000D02*
D03*
X830630D02*
D03*
Y30000D02*
D03*
X770630Y40000D02*
D03*
Y30000D02*
D03*
X780630Y40000D02*
D03*
Y30000D02*
D03*
X790630Y40000D02*
D03*
Y30000D02*
D03*
X800630Y40000D02*
D03*
Y30000D02*
D03*
X810630Y40000D02*
D03*
X820630Y30000D02*
D03*
X880630Y40000D02*
D03*
X890630D02*
D03*
Y30000D02*
D03*
X900630Y40000D02*
D03*
Y30000D02*
D03*
X910630Y40000D02*
D03*
Y30000D02*
D03*
X920630Y40000D02*
D03*
Y30000D02*
D03*
X930630Y40000D02*
D03*
Y30000D02*
D03*
X880630D02*
D03*
X840630Y40000D02*
D03*
Y30000D02*
D03*
X850630Y40000D02*
D03*
Y30000D02*
D03*
X860630Y40000D02*
D03*
Y30000D02*
D03*
X870630Y40000D02*
D03*
Y30000D02*
D03*
X1260630D02*
D03*
Y40000D02*
D03*
X1310630Y30000D02*
D03*
X1320630Y40000D02*
D03*
X1330630D02*
D03*
Y30000D02*
D03*
X1270630Y40000D02*
D03*
Y30000D02*
D03*
X1280630Y40000D02*
D03*
Y30000D02*
D03*
X1290630Y40000D02*
D03*
Y30000D02*
D03*
X1300630Y40000D02*
D03*
Y30000D02*
D03*
X1310630Y40000D02*
D03*
X1320630Y30000D02*
D03*
X1380630Y40000D02*
D03*
X1390630D02*
D03*
Y30000D02*
D03*
X1400630Y40000D02*
D03*
Y30000D02*
D03*
X1410630Y40000D02*
D03*
Y30000D02*
D03*
X1420630Y40000D02*
D03*
Y30000D02*
D03*
X1430630Y40000D02*
D03*
Y30000D02*
D03*
X1380630D02*
D03*
X1340630Y40000D02*
D03*
Y30000D02*
D03*
X1350630Y40000D02*
D03*
Y30000D02*
D03*
X1360630Y40000D02*
D03*
Y30000D02*
D03*
X1370630Y40000D02*
D03*
Y30000D02*
D03*
D133*
X533630Y328000D02*
D03*
X523630Y338000D02*
D03*
X533630D02*
D03*
X523630Y348000D02*
D03*
X533630D02*
D03*
X523630Y328000D02*
D03*
X783630D02*
D03*
X773630Y338000D02*
D03*
X783630D02*
D03*
X773630Y348000D02*
D03*
X783630D02*
D03*
X773630Y328000D02*
D03*
X1283630D02*
D03*
X1273630Y338000D02*
D03*
X1283630D02*
D03*
X1273630Y348000D02*
D03*
X1283630D02*
D03*
X1273630Y328000D02*
D03*
D134*
X590630Y159500D02*
D03*
Y149500D02*
D03*
X600630Y159500D02*
D03*
Y149500D02*
D03*
X610630D02*
D03*
Y159500D02*
D03*
X840630D02*
D03*
Y149500D02*
D03*
X850630Y159500D02*
D03*
Y149500D02*
D03*
X860630D02*
D03*
Y159500D02*
D03*
X1340630D02*
D03*
Y149500D02*
D03*
X1350630Y159500D02*
D03*
Y149500D02*
D03*
X1360630D02*
D03*
Y159500D02*
D03*
D135*
X350000Y517953D02*
D03*
Y540000D02*
D03*
X1693000Y509000D02*
D03*
Y531047D02*
D03*
X350000Y603000D02*
D03*
Y580953D02*
D03*
X105000Y645000D02*
D03*
Y622953D02*
D03*
Y502047D02*
D03*
Y480000D02*
D03*
D136*
X1508000Y659000D02*
D03*
Y694039D02*
D03*
D137*
X1200000Y510000D02*
D03*
X1239370D02*
D03*
D138*
X1645000Y185591D02*
D03*
Y165000D02*
D03*
X1204000Y694000D02*
D03*
Y714591D02*
D03*
D139*
X969000Y659000D02*
D03*
X991047D02*
D03*
X844000Y689000D02*
D03*
X866047D02*
D03*
X844000Y659000D02*
D03*
X866047D02*
D03*
X969000Y689000D02*
D03*
X991047D02*
D03*
D140*
X894000Y504000D02*
D03*
X929039D02*
D03*
X1019000D02*
D03*
X1054039D02*
D03*
D141*
X100000Y530000D02*
D03*
Y585000D02*
D03*
X1159000Y659000D02*
D03*
D142*
X57500Y470000D02*
D03*
Y615000D02*
D03*
X1560000Y245000D02*
D03*
D143*
X1660000Y135000D02*
D03*
X1680591D02*
D03*
D144*
X1690000Y310000D02*
D03*
Y405000D02*
D03*
D145*
X455000Y540000D02*
D03*
Y619000D02*
D03*
D146*
X493000Y82000D02*
D03*
X630000D02*
D03*
X606000Y235000D02*
D03*
X340000Y234000D02*
D03*
X470000Y231000D02*
D03*
X1657000Y45000D02*
D03*
X1634000D02*
D03*
X1628000D02*
D03*
X205000Y269000D02*
D03*
X115000D02*
D03*
X399000Y326000D02*
D03*
X390000Y336000D02*
D03*
X1405000Y490000D02*
D03*
X1421000Y311000D02*
D03*
X1420000Y594000D02*
D03*
X1428000Y301000D02*
D03*
Y559000D02*
D03*
X1435000Y294000D02*
D03*
Y514000D02*
D03*
X838000Y469000D02*
D03*
X855000D02*
D03*
X872000D02*
D03*
X887000D02*
D03*
X643000Y541000D02*
D03*
X921000Y369000D02*
D03*
X926000Y375000D02*
D03*
X931000Y381000D02*
D03*
X936000Y387000D02*
D03*
X750000Y463000D02*
D03*
X734000Y475000D02*
D03*
X165000Y463000D02*
D03*
X791000Y394000D02*
D03*
X796000Y402000D02*
D03*
X802000Y410000D02*
D03*
X807000Y417000D02*
D03*
X672000Y442000D02*
D03*
X667000Y433000D02*
D03*
X661000Y425000D02*
D03*
X678000Y449000D02*
D03*
X1365000Y477500D02*
D03*
X847500Y395000D02*
D03*
X840000Y407500D02*
D03*
X429000Y311000D02*
D03*
X627000Y301000D02*
D03*
X621000Y311000D02*
D03*
X438000Y301000D02*
D03*
X429000Y46000D02*
D03*
X438000Y42000D02*
D03*
X1436000Y120000D02*
D03*
X1431000Y115000D02*
D03*
X1499000Y8000D02*
D03*
X1529000Y21000D02*
D03*
X1589000Y175000D02*
D03*
X1559000Y165000D02*
D03*
X899000D02*
D03*
X908000Y175000D02*
D03*
X1622000Y134000D02*
D03*
Y128000D02*
D03*
X1423000Y134000D02*
D03*
X1409000Y128000D02*
D03*
X1299000Y320000D02*
D03*
X1638000D02*
D03*
X1291000Y407000D02*
D03*
X1301000Y255000D02*
D03*
X1290000Y265000D02*
D03*
X1467000Y304000D02*
D03*
X1462000Y311000D02*
D03*
X1356000Y395000D02*
D03*
X1366000Y375000D02*
D03*
X1346000Y421000D02*
D03*
X1334000Y440000D02*
D03*
X1234000Y271000D02*
D03*
X1246000Y239000D02*
D03*
X740000Y485000D02*
D03*
X745000Y456000D02*
D03*
X1129000Y245000D02*
D03*
X1097000Y154000D02*
D03*
X1068000Y135000D02*
D03*
X1272000D02*
D03*
X1068000Y432000D02*
D03*
X1097000Y443000D02*
D03*
X1159000Y145000D02*
D03*
X1136000Y684000D02*
D03*
X1281000Y154000D02*
D03*
X1276000Y145000D02*
D03*
X1326000Y185000D02*
D03*
X1320000Y195000D02*
D03*
X1314000Y205000D02*
D03*
X1307000Y215000D02*
D03*
X824000Y180000D02*
D03*
X814000Y735000D02*
D03*
X824000Y728000D02*
D03*
X814000Y190000D02*
D03*
X126000Y456000D02*
D03*
X725000Y295000D02*
D03*
X721000Y285000D02*
D03*
X713000Y265000D02*
D03*
X717000Y255000D02*
D03*
X776000Y105000D02*
D03*
Y51000D02*
D03*
X596000Y241000D02*
D03*
X330000Y242000D02*
D03*
X380000Y321000D02*
D03*
X374000Y331000D02*
D03*
X636000Y88000D02*
D03*
X518000D02*
D03*
X576000Y95000D02*
D03*
X569000Y105000D02*
D03*
X541000Y115000D02*
D03*
X543000Y125000D02*
D03*
X641000Y129000D02*
D03*
X646000Y124000D02*
D03*
X611000Y134000D02*
D03*
X616000Y138000D02*
D03*
X656000Y175000D02*
D03*
X651000Y169000D02*
D03*
X586000Y185000D02*
D03*
X580000Y195000D02*
D03*
X551000Y215000D02*
D03*
X556000Y205000D02*
D03*
X526000Y225000D02*
D03*
X967000Y125000D02*
D03*
X1426000Y104000D02*
D03*
X977000Y115000D02*
D03*
X987000Y104000D02*
D03*
X746000Y105000D02*
D03*
Y50000D02*
D03*
X666000Y85000D02*
D03*
X676000Y95000D02*
D03*
X916000Y65000D02*
D03*
X926000Y75000D02*
D03*
X1485000Y101000D02*
D03*
X1515000D02*
D03*
X1545000D02*
D03*
X1575000D02*
D03*
X1605000D02*
D03*
X1634000Y102000D02*
D03*
X1425000Y54000D02*
D03*
X1416000Y52000D02*
D03*
X195000Y275000D02*
D03*
X185000Y285000D02*
D03*
X175000Y295000D02*
D03*
X105000Y275000D02*
D03*
X95000Y285000D02*
D03*
X85000Y295000D02*
D03*
X185000Y475000D02*
D03*
X210000D02*
D03*
X180000Y495000D02*
D03*
X160000Y535000D02*
D03*
X112000Y540000D02*
D03*
X175000D02*
D03*
X205000Y550000D02*
D03*
X132500Y555000D02*
D03*
X92500D02*
D03*
X127500Y557500D02*
D03*
X100000Y570000D02*
D03*
X140000Y575000D02*
D03*
X202500Y602500D02*
D03*
X180000Y645000D02*
D03*
X185000Y655000D02*
D03*
X215000Y507500D02*
D03*
X240000Y517500D02*
D03*
X342000Y520000D02*
D03*
X230000Y542500D02*
D03*
X260000Y545000D02*
D03*
X373000Y549000D02*
D03*
X302000Y550000D02*
D03*
X335000D02*
D03*
X286000Y560000D02*
D03*
X336000D02*
D03*
X302000D02*
D03*
X295000Y563000D02*
D03*
X361000Y565000D02*
D03*
X235000Y567500D02*
D03*
X210000Y570000D02*
D03*
X335000D02*
D03*
X302000Y571000D02*
D03*
X232500Y597500D02*
D03*
X255000D02*
D03*
X343000Y600000D02*
D03*
X210000Y655000D02*
D03*
X1540000Y626000D02*
D03*
X1658000Y411000D02*
D03*
X1661000Y290000D02*
D03*
X1527000Y250000D02*
D03*
X1528000Y270000D02*
D03*
X1427500Y694500D02*
D03*
X1447500D02*
D03*
X1543000Y544000D02*
D03*
Y499000D02*
D03*
Y579000D02*
D03*
X1576389Y504000D02*
D03*
X1590500Y534000D02*
D03*
X1579000Y557000D02*
D03*
X1573000Y585000D02*
D03*
X1645000Y553000D02*
D03*
Y533000D02*
D03*
Y528000D02*
D03*
X1666000Y505000D02*
D03*
X1657000Y558000D02*
D03*
X1676000Y560000D02*
D03*
X1675000Y518000D02*
D03*
X1685000Y509000D02*
D03*
X874000Y549000D02*
D03*
X894000D02*
D03*
X866500Y516500D02*
D03*
X856500Y556500D02*
D03*
X884000Y549000D02*
D03*
X999000D02*
D03*
X1019000D02*
D03*
X991500Y516500D02*
D03*
X981500Y556500D02*
D03*
X1009000Y549000D02*
D03*
X1597500Y45000D02*
D03*
X1567500D02*
D03*
X1537500D02*
D03*
X1542500D02*
D03*
X1512500D02*
D03*
X1605000D02*
D03*
X1602500Y32500D02*
D03*
X1573550Y45000D02*
D03*
X1480000D02*
D03*
X1507500D02*
D03*
X1637500Y145000D02*
D03*
X1642500Y140000D02*
D03*
X1637500D02*
D03*
Y130000D02*
D03*
X1642500D02*
D03*
X1647500D02*
D03*
X1652500D02*
D03*
X1637500Y135000D02*
D03*
X1642500D02*
D03*
X1647500D02*
D03*
X1652500D02*
D03*
X1640000Y32500D02*
D03*
X1570000D02*
D03*
X1540000D02*
D03*
X1510000Y32501D02*
D03*
X1480000Y32500D02*
D03*
D147*
X1682000Y543000D02*
D03*
X1645000D02*
D03*
X1497000Y694000D02*
D03*
Y659000D02*
D03*
X1703000Y587000D02*
D03*
X934000Y516500D02*
D03*
X1059000Y519000D02*
D03*
X1044000Y632250D02*
D03*
X979000Y639000D02*
D03*
X854000D02*
D03*
X919000Y633900D02*
D03*
X894000Y516500D02*
D03*
X1019000Y519000D02*
D03*
X1209000Y679000D02*
D03*
X1199000D02*
D03*
Y669000D02*
D03*
X1209000D02*
D03*
Y659000D02*
D03*
X1199000D02*
D03*
D148*
X1695000Y150000D02*
D03*
D150*
X679630Y41000D02*
X680630Y40000D01*
X929630Y41000D02*
X930630Y40000D01*
X1429630Y41000D02*
X1430630Y40000D01*
M02*
