G04*
G04 #@! TF.GenerationSoftware,Altium Limited,Altium Designer,21.6.4 (81)*
G04*
G04 Layer_Color=32896*
%FSLAX25Y25*%
%MOIN*%
G70*
G04*
G04 #@! TF.SameCoordinates,CD5F86C8-859A-4174-9CB5-FF9077504482*
G04*
G04*
G04 #@! TF.FilePolarity,Positive*
G04*
G01*
G75*
%ADD11C,0.00787*%
%ADD14C,0.01000*%
%ADD16C,0.02000*%
D11*
X405000Y530000D02*
X415000D01*
Y630000D01*
X405000D02*
X415000D01*
X405000Y622500D02*
Y630000D01*
Y530000D02*
Y622500D01*
D14*
X1276000Y633250D02*
X1284000D01*
X1276000D02*
Y646750D01*
X1284000D01*
Y633250D02*
Y646750D01*
X1679000Y535750D02*
X1687000D01*
Y522250D02*
Y535750D01*
X1679000Y522250D02*
X1687000D01*
X1679000D02*
Y535750D01*
X326750Y561000D02*
Y569000D01*
X313250Y561000D02*
X326750D01*
X313250D02*
Y569000D01*
X326750D01*
X313250Y571000D02*
Y579000D01*
X326750D01*
Y571000D02*
Y579000D01*
X313250Y571000D02*
X326750D01*
X123250Y536000D02*
X136750D01*
Y544000D01*
X123250D02*
X136750D01*
X123250Y536000D02*
Y544000D01*
X326750Y551000D02*
Y559000D01*
X313250Y551000D02*
X326750D01*
X313250D02*
Y559000D01*
X326750D01*
X313250Y541000D02*
Y549000D01*
X326750D01*
Y541000D02*
Y549000D01*
X313250Y541000D02*
X326750D01*
X123250Y561000D02*
Y569000D01*
X136750D01*
Y561000D02*
Y569000D01*
X123250Y561000D02*
X136750D01*
Y571000D02*
Y579000D01*
X123250Y571000D02*
X136750D01*
X123250D02*
Y579000D01*
X136750D01*
X1657000Y532250D02*
Y545750D01*
X1649000D02*
X1657000D01*
X1649000Y532250D02*
Y545750D01*
Y532250D02*
X1657000D01*
X1659000D02*
Y545750D01*
Y532250D02*
X1667000D01*
Y545750D01*
X1659000D02*
X1667000D01*
X1673999Y298251D02*
Y311751D01*
X1665999D02*
X1673999D01*
X1665999Y298251D02*
Y311751D01*
Y298251D02*
X1673999D01*
X1674000Y393250D02*
Y406750D01*
X1666000D02*
X1674000D01*
X1666000Y393250D02*
Y406750D01*
Y393250D02*
X1674000D01*
X1501750Y41000D02*
Y49000D01*
X1488250Y41000D02*
X1501750D01*
X1488250D02*
Y49000D01*
X1501750D01*
X1531750Y41001D02*
Y49001D01*
X1518250Y41001D02*
X1531750D01*
X1518250D02*
Y49001D01*
X1531750D01*
X1561750Y41000D02*
Y49000D01*
X1548250Y41000D02*
X1561750D01*
X1548250D02*
Y49000D01*
X1561750D01*
X1591750Y41000D02*
Y49000D01*
X1578250Y41000D02*
X1591750D01*
X1578250D02*
Y49000D01*
X1591750D01*
X1549000Y373250D02*
Y386750D01*
X1541000D02*
X1549000D01*
X1541000Y373250D02*
Y386750D01*
Y373250D02*
X1549000D01*
X1504000D02*
Y386750D01*
X1496000D02*
X1504000D01*
X1496000Y373250D02*
Y386750D01*
Y373250D02*
X1504000D01*
X1140000Y702250D02*
Y715750D01*
Y702250D02*
X1148000D01*
Y715750D01*
X1140000D02*
X1148000D01*
X1140000Y680800D02*
Y694300D01*
Y680800D02*
X1148000D01*
Y694300D01*
X1140000D02*
X1148000D01*
X1621750Y41000D02*
Y49000D01*
X1608250Y41000D02*
X1621750D01*
X1608250D02*
Y49000D01*
X1621750D01*
X1653121Y41000D02*
Y49000D01*
X1639621Y41000D02*
X1653121D01*
X1639621D02*
Y49000D01*
X1653121D01*
X1496000Y441750D02*
X1504000D01*
Y428250D02*
Y441750D01*
X1496000Y428250D02*
X1504000D01*
X1496000D02*
Y441750D01*
Y456750D02*
X1504000D01*
Y443250D02*
Y456750D01*
X1496000Y443250D02*
X1504000D01*
X1496000D02*
Y456750D01*
X1541000Y441750D02*
X1549000D01*
Y428250D02*
Y441750D01*
X1541000Y428250D02*
X1549000D01*
X1541000D02*
Y441750D01*
Y456750D02*
X1549000D01*
Y443250D02*
Y456750D01*
X1541000Y443250D02*
X1549000D01*
X1541000D02*
Y456750D01*
X1351039Y648250D02*
Y661750D01*
Y648250D02*
X1359039D01*
Y661750D01*
X1351039D02*
X1359039D01*
X1411000D02*
X1419000D01*
Y648250D02*
Y661750D01*
X1411000Y648250D02*
X1419000D01*
X1411000D02*
Y661750D01*
X1226000Y656750D02*
X1234000D01*
Y643250D02*
Y656750D01*
X1226000Y643250D02*
X1234000D01*
X1226000D02*
Y656750D01*
X1286000D02*
X1294000D01*
Y643250D02*
Y656750D01*
X1286000Y643250D02*
X1294000D01*
X1286000D02*
Y656750D01*
X1246000Y633250D02*
X1254000D01*
X1246000D02*
Y646750D01*
X1254000D01*
Y633250D02*
Y646750D01*
X1306000Y633250D02*
X1314000D01*
X1306000D02*
Y646750D01*
X1314000D01*
Y633250D02*
Y646750D01*
X1316000Y656750D02*
X1324000D01*
Y643250D02*
Y656750D01*
X1316000Y643250D02*
X1324000D01*
X1316000D02*
Y656750D01*
X1256000D02*
X1264000D01*
Y643250D02*
Y656750D01*
X1256000Y643250D02*
X1264000D01*
X1256000D02*
Y656750D01*
X1336000Y633250D02*
X1344000D01*
X1336000D02*
Y646750D01*
X1344000D01*
Y633250D02*
Y646750D01*
X1282999Y630997D02*
X1277001D01*
Y627998D01*
X1278001Y626999D01*
X1280000D01*
X1281000Y627998D01*
Y630997D01*
Y628998D02*
X1282999Y626999D01*
X1281999Y624999D02*
X1282999Y624000D01*
Y622000D01*
X1281999Y621001D01*
X1278001D01*
X1277001Y622000D01*
Y624000D01*
X1278001Y624999D01*
X1279000D01*
X1280000Y624000D01*
Y621001D01*
X1278001Y619001D02*
X1277001Y618002D01*
Y616002D01*
X1278001Y615003D01*
X1279000D01*
X1280000Y616002D01*
Y617002D01*
Y616002D01*
X1281000Y615003D01*
X1281999D01*
X1282999Y616002D01*
Y618002D01*
X1281999Y619001D01*
X1685999Y553998D02*
X1680001D01*
Y550998D01*
X1681001Y549999D01*
X1683000D01*
X1684000Y550998D01*
Y553998D01*
Y551998D02*
X1685999Y549999D01*
Y547999D02*
Y546000D01*
Y547000D01*
X1680001D01*
X1681001Y547999D01*
Y543001D02*
X1680001Y542001D01*
Y540002D01*
X1681001Y539002D01*
X1682000D01*
X1683000Y540002D01*
Y541002D01*
Y540002D01*
X1684000Y539002D01*
X1684999D01*
X1685999Y540002D01*
Y542001D01*
X1684999Y543001D01*
X310498Y562001D02*
Y567999D01*
X307499D01*
X306499Y566999D01*
Y565000D01*
X307499Y564000D01*
X310498D01*
X308498D02*
X306499Y562001D01*
X304500D02*
X302500D01*
X303500D01*
Y567999D01*
X304500Y566999D01*
X299501Y567999D02*
X295502D01*
Y566999D01*
X299501Y563001D01*
Y562001D01*
X310498Y572001D02*
Y577999D01*
X307499D01*
X306499Y576999D01*
Y575000D01*
X307499Y574000D01*
X310498D01*
X308498D02*
X306499Y572001D01*
X304500D02*
X302500D01*
X303500D01*
Y577999D01*
X304500Y576999D01*
X299501D02*
X298501Y577999D01*
X296502D01*
X295502Y576999D01*
Y576000D01*
X296502Y575000D01*
X295502Y574000D01*
Y573001D01*
X296502Y572001D01*
X298501D01*
X299501Y573001D01*
Y574000D01*
X298501Y575000D01*
X299501Y576000D01*
Y576999D01*
X298501Y575000D02*
X296502D01*
X120997Y537001D02*
Y542999D01*
X117998D01*
X116999Y541999D01*
Y540000D01*
X117998Y539000D01*
X120997D01*
X118998D02*
X116999Y537001D01*
X111001D02*
X114999D01*
X111001Y541000D01*
Y541999D01*
X112000Y542999D01*
X114000D01*
X114999Y541999D01*
X105003Y542999D02*
X109001D01*
Y540000D01*
X107002Y541000D01*
X106002D01*
X105003Y540000D01*
Y538001D01*
X106002Y537001D01*
X108002D01*
X109001Y538001D01*
X310997Y542001D02*
Y547999D01*
X307998D01*
X306999Y546999D01*
Y545000D01*
X307998Y544000D01*
X310997D01*
X308998D02*
X306999Y542001D01*
X301001D02*
X304999D01*
X301001Y546000D01*
Y546999D01*
X302000Y547999D01*
X304000D01*
X304999Y546999D01*
X299001Y543001D02*
X298002Y542001D01*
X296002D01*
X295003Y543001D01*
Y546999D01*
X296002Y547999D01*
X298002D01*
X299001Y546999D01*
Y546000D01*
X298002Y545000D01*
X295003D01*
X310997Y552001D02*
Y557999D01*
X307998D01*
X306999Y556999D01*
Y555000D01*
X307998Y554000D01*
X310997D01*
X308998D02*
X306999Y552001D01*
X304999Y556999D02*
X304000Y557999D01*
X302000D01*
X301001Y556999D01*
Y556000D01*
X302000Y555000D01*
X303000D01*
X302000D01*
X301001Y554000D01*
Y553001D01*
X302000Y552001D01*
X304000D01*
X304999Y553001D01*
X299001Y556999D02*
X298002Y557999D01*
X296002D01*
X295003Y556999D01*
Y553001D01*
X296002Y552001D01*
X298002D01*
X299001Y553001D01*
Y556999D01*
X120997Y562001D02*
Y567999D01*
X117998D01*
X116999Y566999D01*
Y565000D01*
X117998Y564000D01*
X120997D01*
X118998D02*
X116999Y562001D01*
X114999Y566999D02*
X114000Y567999D01*
X112000D01*
X111001Y566999D01*
Y566000D01*
X112000Y565000D01*
X113000D01*
X112000D01*
X111001Y564000D01*
Y563001D01*
X112000Y562001D01*
X114000D01*
X114999Y563001D01*
X105003Y567999D02*
X107002Y566999D01*
X109001Y565000D01*
Y563001D01*
X108002Y562001D01*
X106002D01*
X105003Y563001D01*
Y564000D01*
X106002Y565000D01*
X109001D01*
X120997Y572001D02*
Y577999D01*
X117998D01*
X116999Y576999D01*
Y575000D01*
X117998Y574000D01*
X120997D01*
X118998D02*
X116999Y572001D01*
X114999Y576999D02*
X114000Y577999D01*
X112000D01*
X111001Y576999D01*
Y576000D01*
X112000Y575000D01*
X113000D01*
X112000D01*
X111001Y574000D01*
Y573001D01*
X112000Y572001D01*
X114000D01*
X114999Y573001D01*
X109001Y577999D02*
X105003D01*
Y576999D01*
X109001Y573001D01*
Y572001D01*
X1655999Y525998D02*
X1650001D01*
Y522999D01*
X1651001Y521999D01*
X1653000D01*
X1654000Y522999D01*
Y525998D01*
Y523998D02*
X1655999Y521999D01*
X1650001Y516001D02*
Y520000D01*
X1653000D01*
X1652000Y518000D01*
Y517001D01*
X1653000Y516001D01*
X1654999D01*
X1655999Y517001D01*
Y519000D01*
X1654999Y520000D01*
X1655999Y514002D02*
Y512002D01*
Y513002D01*
X1650001D01*
X1651001Y514002D01*
X1665999Y566997D02*
X1660001D01*
Y563998D01*
X1661001Y562999D01*
X1663000D01*
X1664000Y563998D01*
Y566997D01*
Y564998D02*
X1665999Y562999D01*
X1660001Y557001D02*
Y560999D01*
X1663000D01*
X1662000Y559000D01*
Y558000D01*
X1663000Y557001D01*
X1664999D01*
X1665999Y558000D01*
Y560000D01*
X1664999Y560999D01*
X1665999Y551003D02*
Y555001D01*
X1662000Y551003D01*
X1661001D01*
X1660001Y552002D01*
Y554002D01*
X1661001Y555001D01*
X1663999Y312997D02*
X1658001D01*
Y309998D01*
X1659001Y308999D01*
X1661000D01*
X1662000Y309998D01*
Y312997D01*
Y310998D02*
X1663999Y308999D01*
X1658001Y303001D02*
X1659001Y305000D01*
X1661000Y306999D01*
X1662999D01*
X1663999Y306000D01*
Y304000D01*
X1662999Y303001D01*
X1662000D01*
X1661000Y304000D01*
Y306999D01*
X1659001Y301001D02*
X1658001Y300002D01*
Y298002D01*
X1659001Y297003D01*
X1662999D01*
X1663999Y298002D01*
Y300002D01*
X1662999Y301001D01*
X1659001D01*
X1662999Y407997D02*
X1657001D01*
Y404998D01*
X1658001Y403999D01*
X1660000D01*
X1661000Y404998D01*
Y407997D01*
Y405998D02*
X1662999Y403999D01*
X1657001Y398001D02*
X1658001Y400000D01*
X1660000Y401999D01*
X1661999D01*
X1662999Y401000D01*
Y399000D01*
X1661999Y398001D01*
X1661000D01*
X1660000Y399000D01*
Y401999D01*
X1658001Y396001D02*
X1657001Y395002D01*
Y393002D01*
X1658001Y392003D01*
X1659000D01*
X1660000Y393002D01*
Y394002D01*
Y393002D01*
X1661000Y392003D01*
X1661999D01*
X1662999Y393002D01*
Y395002D01*
X1661999Y396001D01*
X1501200Y52500D02*
Y58498D01*
X1498201D01*
X1497201Y57498D01*
Y55499D01*
X1498201Y54499D01*
X1501200D01*
X1499201D02*
X1497201Y52500D01*
X1491203Y58498D02*
X1493203Y57498D01*
X1495202Y55499D01*
Y53500D01*
X1494202Y52500D01*
X1492203D01*
X1491203Y53500D01*
Y54499D01*
X1492203Y55499D01*
X1495202D01*
X1489204Y58498D02*
X1485205D01*
Y57498D01*
X1489204Y53500D01*
Y52500D01*
X1531200D02*
Y58498D01*
X1528201D01*
X1527201Y57498D01*
Y55499D01*
X1528201Y54499D01*
X1531200D01*
X1529201D02*
X1527201Y52500D01*
X1521203Y58498D02*
X1523203Y57498D01*
X1525202Y55499D01*
Y53500D01*
X1524202Y52500D01*
X1522203D01*
X1521203Y53500D01*
Y54499D01*
X1522203Y55499D01*
X1525202D01*
X1519204Y57498D02*
X1518204Y58498D01*
X1516205D01*
X1515205Y57498D01*
Y56499D01*
X1516205Y55499D01*
X1515205Y54499D01*
Y53500D01*
X1516205Y52500D01*
X1518204D01*
X1519204Y53500D01*
Y54499D01*
X1518204Y55499D01*
X1519204Y56499D01*
Y57498D01*
X1518204Y55499D02*
X1516205D01*
X1561200Y52500D02*
Y58498D01*
X1558201D01*
X1557201Y57498D01*
Y55499D01*
X1558201Y54499D01*
X1561200D01*
X1559201D02*
X1557201Y52500D01*
X1551203Y58498D02*
X1553203Y57498D01*
X1555202Y55499D01*
Y53500D01*
X1554202Y52500D01*
X1552203D01*
X1551203Y53500D01*
Y54499D01*
X1552203Y55499D01*
X1555202D01*
X1549204Y53500D02*
X1548204Y52500D01*
X1546205D01*
X1545205Y53500D01*
Y57498D01*
X1546205Y58498D01*
X1548204D01*
X1549204Y57498D01*
Y56499D01*
X1548204Y55499D01*
X1545205D01*
X1591250Y52500D02*
Y58498D01*
X1588251D01*
X1587251Y57498D01*
Y55499D01*
X1588251Y54499D01*
X1591250D01*
X1589251D02*
X1587251Y52500D01*
X1585252Y58498D02*
X1581253D01*
Y57498D01*
X1585252Y53500D01*
Y52500D01*
X1579254Y57498D02*
X1578254Y58498D01*
X1576255D01*
X1575255Y57498D01*
Y53500D01*
X1576255Y52500D01*
X1578254D01*
X1579254Y53500D01*
Y57498D01*
X1538999Y387997D02*
X1533001D01*
Y384998D01*
X1534001Y383999D01*
X1536000D01*
X1537000Y384998D01*
Y387997D01*
Y385998D02*
X1538999Y383999D01*
X1533001Y381999D02*
Y378001D01*
X1534001D01*
X1537999Y381999D01*
X1538999D01*
Y372003D02*
Y376001D01*
X1535000Y372003D01*
X1534001D01*
X1533001Y373002D01*
Y375002D01*
X1534001Y376001D01*
X1492999Y387997D02*
X1487001D01*
Y384998D01*
X1488001Y383999D01*
X1490000D01*
X1491000Y384998D01*
Y387997D01*
Y385998D02*
X1492999Y383999D01*
X1487001Y381999D02*
Y378001D01*
X1488001D01*
X1491999Y381999D01*
X1492999D01*
X1488001Y376001D02*
X1487001Y375002D01*
Y373002D01*
X1488001Y372003D01*
X1489000D01*
X1490000Y373002D01*
Y374002D01*
Y373002D01*
X1491000Y372003D01*
X1491999D01*
X1492999Y373002D01*
Y375002D01*
X1491999Y376001D01*
X1146999Y733997D02*
X1141001D01*
Y730998D01*
X1142001Y729999D01*
X1144000D01*
X1145000Y730998D01*
Y733997D01*
Y731998D02*
X1146999Y729999D01*
X1141001Y727999D02*
Y724001D01*
X1142001D01*
X1145999Y727999D01*
X1146999D01*
Y719002D02*
X1141001D01*
X1144000Y722001D01*
Y718003D01*
X1146999Y677997D02*
X1141001D01*
Y674998D01*
X1142001Y673999D01*
X1144000D01*
X1145000Y674998D01*
Y677997D01*
Y675998D02*
X1146999Y673999D01*
X1141001Y671999D02*
Y668001D01*
X1142001D01*
X1145999Y671999D01*
X1146999D01*
X1141001Y662003D02*
Y666001D01*
X1144000D01*
X1143000Y664002D01*
Y663002D01*
X1144000Y662003D01*
X1145999D01*
X1146999Y663002D01*
Y665002D01*
X1145999Y666001D01*
X1621200Y52500D02*
Y58498D01*
X1618201D01*
X1617201Y57498D01*
Y55499D01*
X1618201Y54499D01*
X1621200D01*
X1619201D02*
X1617201Y52500D01*
X1615202Y58498D02*
X1611203D01*
Y57498D01*
X1615202Y53500D01*
Y52500D01*
X1605205Y58498D02*
X1607204Y57498D01*
X1609204Y55499D01*
Y53500D01*
X1608204Y52500D01*
X1606205D01*
X1605205Y53500D01*
Y54499D01*
X1606205Y55499D01*
X1609204D01*
X1652600Y52500D02*
Y58498D01*
X1649601D01*
X1648601Y57498D01*
Y55499D01*
X1649601Y54499D01*
X1652600D01*
X1650601D02*
X1648601Y52500D01*
X1646602Y58498D02*
X1642603D01*
Y57498D01*
X1646602Y53500D01*
Y52500D01*
X1640604Y58498D02*
X1636605D01*
Y57498D01*
X1640604Y53500D01*
Y52500D01*
X1502999Y425997D02*
X1497001D01*
Y422998D01*
X1498001Y421999D01*
X1500000D01*
X1501000Y422998D01*
Y425997D01*
Y423998D02*
X1502999Y421999D01*
X1498001Y419999D02*
X1497001Y419000D01*
Y417000D01*
X1498001Y416001D01*
X1499000D01*
X1500000Y417000D01*
X1501000Y416001D01*
X1501999D01*
X1502999Y417000D01*
Y419000D01*
X1501999Y419999D01*
X1501000D01*
X1500000Y419000D01*
X1499000Y419999D01*
X1498001D01*
X1500000Y419000D02*
Y417000D01*
X1498001Y414001D02*
X1497001Y413002D01*
Y411002D01*
X1498001Y410003D01*
X1501999D01*
X1502999Y411002D01*
Y413002D01*
X1501999Y414001D01*
X1498001D01*
X1502999Y472998D02*
X1497001D01*
Y469999D01*
X1498001Y468999D01*
X1500000D01*
X1501000Y469999D01*
Y472998D01*
Y470998D02*
X1502999Y468999D01*
X1498001Y467000D02*
X1497001Y466000D01*
Y464001D01*
X1498001Y463001D01*
X1499000D01*
X1500000Y464001D01*
X1501000Y463001D01*
X1501999D01*
X1502999Y464001D01*
Y466000D01*
X1501999Y467000D01*
X1501000D01*
X1500000Y466000D01*
X1499000Y467000D01*
X1498001D01*
X1500000Y466000D02*
Y464001D01*
X1502999Y461002D02*
Y459002D01*
Y460002D01*
X1497001D01*
X1498001Y461002D01*
X1547999Y425997D02*
X1542001D01*
Y422998D01*
X1543001Y421999D01*
X1545000D01*
X1546000Y422998D01*
Y425997D01*
Y423998D02*
X1547999Y421999D01*
X1543001Y419999D02*
X1542001Y419000D01*
Y417000D01*
X1543001Y416001D01*
X1544000D01*
X1545000Y417000D01*
X1546000Y416001D01*
X1546999D01*
X1547999Y417000D01*
Y419000D01*
X1546999Y419999D01*
X1546000D01*
X1545000Y419000D01*
X1544000Y419999D01*
X1543001D01*
X1545000Y419000D02*
Y417000D01*
X1547999Y410003D02*
Y414001D01*
X1544000Y410003D01*
X1543001D01*
X1542001Y411002D01*
Y413002D01*
X1543001Y414001D01*
X1547999Y474997D02*
X1542001D01*
Y471998D01*
X1543001Y470999D01*
X1545000D01*
X1546000Y471998D01*
Y474997D01*
Y472998D02*
X1547999Y470999D01*
X1543001Y468999D02*
X1542001Y468000D01*
Y466000D01*
X1543001Y465001D01*
X1544000D01*
X1545000Y466000D01*
X1546000Y465001D01*
X1546999D01*
X1547999Y466000D01*
Y468000D01*
X1546999Y468999D01*
X1546000D01*
X1545000Y468000D01*
X1544000Y468999D01*
X1543001D01*
X1545000Y468000D02*
Y466000D01*
X1543001Y463001D02*
X1542001Y462002D01*
Y460002D01*
X1543001Y459003D01*
X1544000D01*
X1545000Y460002D01*
Y461002D01*
Y460002D01*
X1546000Y459003D01*
X1546999D01*
X1547999Y460002D01*
Y462002D01*
X1546999Y463001D01*
X1357999Y679997D02*
X1352001D01*
Y676998D01*
X1353001Y675999D01*
X1355000D01*
X1356000Y676998D01*
Y679997D01*
Y677998D02*
X1357999Y675999D01*
X1353001Y673999D02*
X1352001Y673000D01*
Y671000D01*
X1353001Y670001D01*
X1354000D01*
X1355000Y671000D01*
X1356000Y670001D01*
X1356999D01*
X1357999Y671000D01*
Y673000D01*
X1356999Y673999D01*
X1356000D01*
X1355000Y673000D01*
X1354000Y673999D01*
X1353001D01*
X1355000Y673000D02*
Y671000D01*
X1357999Y665002D02*
X1352001D01*
X1355000Y668001D01*
Y664003D01*
X1426999Y663997D02*
X1421001D01*
Y660998D01*
X1422001Y659999D01*
X1424000D01*
X1425000Y660998D01*
Y663997D01*
Y661998D02*
X1426999Y659999D01*
X1422001Y657999D02*
X1421001Y657000D01*
Y655000D01*
X1422001Y654001D01*
X1423000D01*
X1424000Y655000D01*
X1425000Y654001D01*
X1425999D01*
X1426999Y655000D01*
Y657000D01*
X1425999Y657999D01*
X1425000D01*
X1424000Y657000D01*
X1423000Y657999D01*
X1422001D01*
X1424000Y657000D02*
Y655000D01*
X1421001Y648003D02*
Y652001D01*
X1424000D01*
X1423000Y650002D01*
Y649002D01*
X1424000Y648003D01*
X1425999D01*
X1426999Y649002D01*
Y651002D01*
X1425999Y652001D01*
X1232999Y674997D02*
X1227001D01*
Y671998D01*
X1228001Y670999D01*
X1230000D01*
X1231000Y671998D01*
Y674997D01*
Y672998D02*
X1232999Y670999D01*
X1228001Y668999D02*
X1227001Y668000D01*
Y666000D01*
X1228001Y665001D01*
X1229000D01*
X1230000Y666000D01*
X1231000Y665001D01*
X1231999D01*
X1232999Y666000D01*
Y668000D01*
X1231999Y668999D01*
X1231000D01*
X1230000Y668000D01*
X1229000Y668999D01*
X1228001D01*
X1230000Y668000D02*
Y666000D01*
X1227001Y659003D02*
X1228001Y661002D01*
X1230000Y663001D01*
X1231999D01*
X1232999Y662002D01*
Y660002D01*
X1231999Y659003D01*
X1231000D01*
X1230000Y660002D01*
Y663001D01*
X1292999Y674997D02*
X1287001D01*
Y671998D01*
X1288001Y670999D01*
X1290000D01*
X1291000Y671998D01*
Y674997D01*
Y672998D02*
X1292999Y670999D01*
X1288001Y668999D02*
X1287001Y668000D01*
Y666000D01*
X1288001Y665001D01*
X1289000D01*
X1290000Y666000D01*
X1291000Y665001D01*
X1291999D01*
X1292999Y666000D01*
Y668000D01*
X1291999Y668999D01*
X1291000D01*
X1290000Y668000D01*
X1289000Y668999D01*
X1288001D01*
X1290000Y668000D02*
Y666000D01*
X1287001Y663001D02*
Y659003D01*
X1288001D01*
X1291999Y663001D01*
X1292999D01*
X1252999Y630997D02*
X1247001D01*
Y627998D01*
X1248001Y626999D01*
X1250000D01*
X1251000Y627998D01*
Y630997D01*
Y628998D02*
X1252999Y626999D01*
X1248001Y624999D02*
X1247001Y624000D01*
Y622000D01*
X1248001Y621001D01*
X1249000D01*
X1250000Y622000D01*
X1251000Y621001D01*
X1251999D01*
X1252999Y622000D01*
Y624000D01*
X1251999Y624999D01*
X1251000D01*
X1250000Y624000D01*
X1249000Y624999D01*
X1248001D01*
X1250000Y624000D02*
Y622000D01*
X1248001Y619001D02*
X1247001Y618002D01*
Y616002D01*
X1248001Y615003D01*
X1249000D01*
X1250000Y616002D01*
X1251000Y615003D01*
X1251999D01*
X1252999Y616002D01*
Y618002D01*
X1251999Y619001D01*
X1251000D01*
X1250000Y618002D01*
X1249000Y619001D01*
X1248001D01*
X1250000Y618002D02*
Y616002D01*
X1312999Y630997D02*
X1307001D01*
Y627998D01*
X1308001Y626999D01*
X1310000D01*
X1311000Y627998D01*
Y630997D01*
Y628998D02*
X1312999Y626999D01*
X1308001Y624999D02*
X1307001Y624000D01*
Y622000D01*
X1308001Y621001D01*
X1309000D01*
X1310000Y622000D01*
X1311000Y621001D01*
X1311999D01*
X1312999Y622000D01*
Y624000D01*
X1311999Y624999D01*
X1311000D01*
X1310000Y624000D01*
X1309000Y624999D01*
X1308001D01*
X1310000Y624000D02*
Y622000D01*
X1311999Y619001D02*
X1312999Y618002D01*
Y616002D01*
X1311999Y615003D01*
X1308001D01*
X1307001Y616002D01*
Y618002D01*
X1308001Y619001D01*
X1309000D01*
X1310000Y618002D01*
Y615003D01*
X1322999Y674997D02*
X1317001D01*
Y671998D01*
X1318001Y670999D01*
X1320000D01*
X1321000Y671998D01*
Y674997D01*
Y672998D02*
X1322999Y670999D01*
X1321999Y668999D02*
X1322999Y668000D01*
Y666000D01*
X1321999Y665001D01*
X1318001D01*
X1317001Y666000D01*
Y668000D01*
X1318001Y668999D01*
X1319000D01*
X1320000Y668000D01*
Y665001D01*
X1318001Y663001D02*
X1317001Y662002D01*
Y660002D01*
X1318001Y659003D01*
X1321999D01*
X1322999Y660002D01*
Y662002D01*
X1321999Y663001D01*
X1318001D01*
X1263038Y672765D02*
X1257040D01*
Y669766D01*
X1258040Y668767D01*
X1260039D01*
X1261039Y669766D01*
Y672765D01*
Y670766D02*
X1263038Y668767D01*
X1262039Y666767D02*
X1263038Y665768D01*
Y663768D01*
X1262039Y662769D01*
X1258040D01*
X1257040Y663768D01*
Y665768D01*
X1258040Y666767D01*
X1259040D01*
X1260039Y665768D01*
Y662769D01*
X1263038Y660769D02*
Y658770D01*
Y659770D01*
X1257040D01*
X1258040Y660769D01*
X1342999Y630997D02*
X1337001D01*
Y627998D01*
X1338001Y626999D01*
X1340000D01*
X1341000Y627998D01*
Y630997D01*
Y628998D02*
X1342999Y626999D01*
X1341999Y624999D02*
X1342999Y624000D01*
Y622000D01*
X1341999Y621001D01*
X1338001D01*
X1337001Y622000D01*
Y624000D01*
X1338001Y624999D01*
X1339000D01*
X1340000Y624000D01*
Y621001D01*
X1342999Y615003D02*
Y619001D01*
X1339000Y615003D01*
X1338001D01*
X1337001Y616002D01*
Y618002D01*
X1338001Y619001D01*
D16*
X1410500Y705000D02*
G03*
X1410500Y705000I-1500J0D01*
G01*
X1044500Y719000D02*
G03*
X1044500Y719000I-1500J0D01*
G01*
X914500D02*
G03*
X914500Y719000I-1500J0D01*
G01*
X1561500Y399000D02*
G03*
X1561500Y399000I-1500J0D01*
G01*
X1516500D02*
G03*
X1516500Y399000I-1500J0D01*
G01*
Y416000D02*
G03*
X1516500Y416000I-1500J0D01*
G01*
X1561500D02*
G03*
X1561500Y416000I-1500J0D01*
G01*
M02*
