%TF.GenerationSoftware,Altium Limited,Altium Designer,21.6.4 (81)*%
G04 Layer_Color=0*
%FSLAX26Y26*%
%MOIN*%
%TF.SameCoordinates,892991E7-994B-4F78-B437-02A20B6E2807*%
%TF.FilePolarity,Positive*%
%TF.FileFunction,Profile,NP*%
%TF.Part,Single*%
G01*
G75*
%TA.AperFunction,Profile*%
%ADD164C,0.001000*%
G36*
X7635000Y5000000D02*
Y4993598D01*
X7637498Y4981040D01*
X7642398Y4969211D01*
X7649511Y4958565D01*
X7658565Y4949511D01*
X7669211Y4942398D01*
X7681040Y4937498D01*
X7693598Y4935000D01*
X7700000D01*
X7706402D01*
X7718960Y4937498D01*
X7730789Y4942398D01*
X7741435Y4949511D01*
X7750489Y4958565D01*
X7757602Y4969211D01*
X7762502Y4981040D01*
X7765000Y4993598D01*
Y5000000D01*
Y5006402D01*
X7762502Y5018960D01*
X7757602Y5030789D01*
X7750489Y5041435D01*
X7741435Y5050489D01*
X7730789Y5057602D01*
X7718960Y5062502D01*
X7706402Y5065000D01*
X7700000D01*
X7693598D01*
X7681040Y5062502D01*
X7669211Y5057602D01*
X7658565Y5050489D01*
X7649511Y5041435D01*
X7642398Y5030789D01*
X7637498Y5018960D01*
X7635000Y5006402D01*
Y5000000D01*
D01*
D02*
G37*
G36*
Y6400000D02*
Y6393598D01*
X7637498Y6381040D01*
X7642398Y6369211D01*
X7649511Y6358565D01*
X7658565Y6349511D01*
X7669211Y6342398D01*
X7681040Y6337498D01*
X7693598Y6335000D01*
X7700000D01*
X7706402D01*
X7718960Y6337498D01*
X7730789Y6342398D01*
X7741435Y6349511D01*
X7750489Y6358565D01*
X7757602Y6369211D01*
X7762502Y6381040D01*
X7765000Y6393598D01*
Y6400000D01*
Y6406402D01*
X7762502Y6418960D01*
X7757602Y6430789D01*
X7750489Y6441435D01*
X7741435Y6450489D01*
X7730789Y6457602D01*
X7718960Y6462502D01*
X7706402Y6465000D01*
X7700000D01*
X7693598D01*
X7681040Y6462502D01*
X7669211Y6457602D01*
X7658565Y6450489D01*
X7649511Y6441435D01*
X7642398Y6430789D01*
X7637498Y6418960D01*
X7635000Y6406402D01*
Y6400000D01*
D01*
D02*
G37*
G36*
X6535000Y5000000D02*
Y4993598D01*
X6537498Y4981040D01*
X6542398Y4969211D01*
X6549511Y4958565D01*
X6558565Y4949511D01*
X6569211Y4942398D01*
X6581040Y4937498D01*
X6593598Y4935000D01*
X6600000D01*
X6606402D01*
X6618960Y4937498D01*
X6630789Y4942398D01*
X6641435Y4949511D01*
X6650489Y4958565D01*
X6657602Y4969211D01*
X6662502Y4981040D01*
X6665000Y4993598D01*
Y5000000D01*
Y5006402D01*
X6662502Y5018960D01*
X6657602Y5030789D01*
X6650489Y5041435D01*
X6641435Y5050489D01*
X6630789Y5057602D01*
X6618960Y5062502D01*
X6606402Y5065000D01*
X6600000D01*
X6593598D01*
X6581040Y5062502D01*
X6569211Y5057602D01*
X6558565Y5050489D01*
X6549511Y5041435D01*
X6542398Y5030789D01*
X6537498Y5018960D01*
X6535000Y5006402D01*
Y5000000D01*
D01*
D02*
G37*
G36*
Y6400000D02*
Y6393598D01*
X6537498Y6381040D01*
X6542398Y6369211D01*
X6549511Y6358565D01*
X6558565Y6349511D01*
X6569211Y6342398D01*
X6581040Y6337498D01*
X6593598Y6335000D01*
X6600000D01*
X6606402D01*
X6618960Y6337498D01*
X6630789Y6342398D01*
X6641435Y6349511D01*
X6650489Y6358565D01*
X6657602Y6369211D01*
X6662502Y6381040D01*
X6665000Y6393598D01*
Y6400000D01*
Y6406402D01*
X6662502Y6418960D01*
X6657602Y6430789D01*
X6650489Y6441435D01*
X6641435Y6450489D01*
X6630789Y6457602D01*
X6618960Y6462502D01*
X6606402Y6465000D01*
X6600000D01*
X6593598D01*
X6581040Y6462502D01*
X6569211Y6457602D01*
X6558565Y6450489D01*
X6549511Y6441435D01*
X6542398Y6430789D01*
X6537498Y6418960D01*
X6535000Y6406402D01*
Y6400000D01*
D01*
D02*
G37*
G36*
X5169289Y3500000D02*
Y3493796D01*
X5166869Y3481626D01*
X5162120Y3470163D01*
X5155227Y3459846D01*
X5146453Y3451073D01*
X5136136Y3444179D01*
X5124673Y3439431D01*
X5112503Y3437010D01*
X5106299D01*
X5100095D01*
X5087926Y3439431D01*
X5076462Y3444179D01*
X5066145Y3451073D01*
X5057372Y3459846D01*
X5050478Y3470163D01*
X5045730Y3481626D01*
X5043309Y3493796D01*
Y3500000D01*
Y3506204D01*
X5045730Y3518374D01*
X5050478Y3529837D01*
X5057372Y3540154D01*
X5066145Y3548928D01*
X5076462Y3555821D01*
X5087926Y3560569D01*
X5100095Y3562990D01*
X5106299D01*
X5112503D01*
X5124673Y3560569D01*
X5136136Y3555821D01*
X5146453Y3548928D01*
X5155227Y3540154D01*
X5162120Y3529837D01*
X5166869Y3518374D01*
X5169289Y3506204D01*
Y3500000D01*
D01*
D02*
G37*
G36*
X5769289Y1500000D02*
Y1493796D01*
X5766869Y1481627D01*
X5762120Y1470163D01*
X5755227Y1459846D01*
X5746453Y1451072D01*
X5736136Y1444179D01*
X5724673Y1439431D01*
X5712503Y1437010D01*
X5706299D01*
X5700095D01*
X5687926Y1439431D01*
X5676462Y1444179D01*
X5666145Y1451072D01*
X5657372Y1459846D01*
X5650478Y1470163D01*
X5645730Y1481627D01*
X5643309Y1493796D01*
Y1500000D01*
Y1506204D01*
X5645730Y1518374D01*
X5650478Y1529837D01*
X5657372Y1540154D01*
X5666145Y1548928D01*
X5676462Y1555821D01*
X5687926Y1560569D01*
X5700095Y1562990D01*
X5706299D01*
X5712503D01*
X5724673Y1560569D01*
X5736136Y1555821D01*
X5746453Y1548928D01*
X5755227Y1540154D01*
X5762120Y1529837D01*
X5766869Y1518374D01*
X5769289Y1506204D01*
Y1500000D01*
D01*
D02*
G37*
G36*
X5169289Y550000D02*
Y543796D01*
X5166869Y531626D01*
X5162120Y520163D01*
X5155227Y509846D01*
X5146453Y501072D01*
X5136136Y494179D01*
X5124673Y489431D01*
X5112503Y487010D01*
X5106299D01*
X5100095D01*
X5087926Y489431D01*
X5076462Y494179D01*
X5066145Y501072D01*
X5057372Y509846D01*
X5050478Y520163D01*
X5045730Y531626D01*
X5043309Y543796D01*
Y550000D01*
Y556204D01*
X5045730Y568374D01*
X5050478Y579837D01*
X5057372Y590154D01*
X5066145Y598928D01*
X5076462Y605821D01*
X5087926Y610569D01*
X5100095Y612990D01*
X5106299D01*
X5112503D01*
X5124673Y610569D01*
X5136136Y605821D01*
X5146453Y598928D01*
X5155227Y590154D01*
X5162120Y579837D01*
X5166869Y568374D01*
X5169289Y556204D01*
Y550000D01*
D01*
D02*
G37*
G36*
X7069289Y3550000D02*
Y3543796D01*
X7066869Y3531626D01*
X7062120Y3520163D01*
X7055227Y3509846D01*
X7046453Y3501073D01*
X7036136Y3494179D01*
X7024673Y3489431D01*
X7012503Y3487010D01*
X7006299D01*
X7000095D01*
X6987926Y3489431D01*
X6976462Y3494179D01*
X6966145Y3501073D01*
X6957372Y3509846D01*
X6950478Y3520163D01*
X6945730Y3531626D01*
X6943309Y3543796D01*
Y3550000D01*
Y3556204D01*
X6945730Y3568374D01*
X6950478Y3579837D01*
X6957372Y3590154D01*
X6966145Y3598928D01*
X6976462Y3605821D01*
X6987926Y3610569D01*
X7000095Y3612990D01*
X7006299D01*
X7012503D01*
X7024673Y3610569D01*
X7036136Y3605821D01*
X7046453Y3598928D01*
X7055227Y3590154D01*
X7062120Y3579837D01*
X7066869Y3568374D01*
X7069289Y3556204D01*
Y3550000D01*
D01*
D02*
G37*
G36*
X6869289Y1500000D02*
Y1493796D01*
X6866869Y1481627D01*
X6862120Y1470163D01*
X6855227Y1459846D01*
X6846453Y1451072D01*
X6836136Y1444179D01*
X6824673Y1439431D01*
X6812503Y1437010D01*
X6806299D01*
X6800095D01*
X6787926Y1439431D01*
X6776462Y1444179D01*
X6766145Y1451072D01*
X6757372Y1459846D01*
X6750478Y1470163D01*
X6745730Y1481627D01*
X6743309Y1493796D01*
Y1500000D01*
Y1506204D01*
X6745730Y1518374D01*
X6750478Y1529837D01*
X6757372Y1540154D01*
X6766145Y1548928D01*
X6776462Y1555821D01*
X6787926Y1560569D01*
X6800095Y1562990D01*
X6806299D01*
X6812503D01*
X6824673Y1560569D01*
X6836136Y1555821D01*
X6846453Y1548928D01*
X6855227Y1540154D01*
X6862120Y1529837D01*
X6866869Y1518374D01*
X6869289Y1506204D01*
Y1500000D01*
D01*
D02*
G37*
G36*
X7069289Y300000D02*
Y293796D01*
X7066869Y281627D01*
X7062120Y270163D01*
X7055227Y259846D01*
X7046453Y251072D01*
X7036136Y244179D01*
X7024673Y239431D01*
X7012503Y237010D01*
X7006299D01*
X7000095D01*
X6987926Y239431D01*
X6976462Y244179D01*
X6966145Y251072D01*
X6957372Y259846D01*
X6950478Y270163D01*
X6945730Y281627D01*
X6943309Y293796D01*
Y300000D01*
Y306204D01*
X6945730Y318374D01*
X6950478Y329837D01*
X6957372Y340154D01*
X6966145Y348928D01*
X6976462Y355821D01*
X6987926Y360569D01*
X7000095Y362990D01*
X7006299D01*
X7012503D01*
X7024673Y360569D01*
X7036136Y355821D01*
X7046453Y348928D01*
X7055227Y340154D01*
X7062120Y329837D01*
X7066869Y318374D01*
X7069289Y306204D01*
Y300000D01*
D01*
D02*
G37*
G36*
X7669289Y3500000D02*
Y3493796D01*
X7666869Y3481626D01*
X7662120Y3470163D01*
X7655227Y3459846D01*
X7646453Y3451073D01*
X7636136Y3444179D01*
X7624673Y3439431D01*
X7612503Y3437010D01*
X7606299D01*
X7600095D01*
X7587926Y3439431D01*
X7576462Y3444179D01*
X7566145Y3451073D01*
X7557372Y3459846D01*
X7550478Y3470163D01*
X7545730Y3481626D01*
X7543309Y3493796D01*
Y3500000D01*
Y3506204D01*
X7545730Y3518374D01*
X7550478Y3529837D01*
X7557372Y3540154D01*
X7566145Y3548928D01*
X7576462Y3555821D01*
X7587926Y3560569D01*
X7600095Y3562990D01*
X7606299D01*
X7612503D01*
X7624673Y3560569D01*
X7636136Y3555821D01*
X7646453Y3548928D01*
X7655227Y3540154D01*
X7662120Y3529837D01*
X7666869Y3518374D01*
X7669289Y3506204D01*
Y3500000D01*
D01*
D02*
G37*
G36*
X8269289Y1500000D02*
Y1493796D01*
X8266869Y1481627D01*
X8262120Y1470163D01*
X8255227Y1459846D01*
X8246453Y1451072D01*
X8236136Y1444179D01*
X8224673Y1439431D01*
X8212503Y1437010D01*
X8206299D01*
X8200095D01*
X8187926Y1439431D01*
X8176462Y1444179D01*
X8166145Y1451072D01*
X8157372Y1459846D01*
X8150478Y1470163D01*
X8145730Y1481627D01*
X8143309Y1493796D01*
Y1500000D01*
Y1506204D01*
X8145730Y1518374D01*
X8150478Y1529837D01*
X8157372Y1540154D01*
X8166145Y1548928D01*
X8176462Y1555821D01*
X8187926Y1560569D01*
X8200095Y1562990D01*
X8206299D01*
X8212503D01*
X8224673Y1560569D01*
X8236136Y1555821D01*
X8246453Y1548928D01*
X8255227Y1540154D01*
X8262120Y1529837D01*
X8266869Y1518374D01*
X8269289Y1506204D01*
Y1500000D01*
D01*
D02*
G37*
G36*
X7669289Y550000D02*
Y543796D01*
X7666869Y531626D01*
X7662120Y520163D01*
X7655227Y509846D01*
X7646453Y501072D01*
X7636136Y494179D01*
X7624673Y489431D01*
X7612503Y487010D01*
X7606299D01*
X7600095D01*
X7587926Y489431D01*
X7576462Y494179D01*
X7566145Y501072D01*
X7557372Y509846D01*
X7550478Y520163D01*
X7545730Y531626D01*
X7543309Y543796D01*
Y550000D01*
Y556204D01*
X7545730Y568374D01*
X7550478Y579837D01*
X7557372Y590154D01*
X7566145Y598928D01*
X7576462Y605821D01*
X7587926Y610569D01*
X7600095Y612990D01*
X7606299D01*
X7612503D01*
X7624673Y610569D01*
X7636136Y605821D01*
X7646453Y598928D01*
X7655227Y590154D01*
X7662120Y579837D01*
X7666869Y568374D01*
X7669289Y556204D01*
Y550000D01*
D01*
D02*
G37*
G36*
X9569289Y3550000D02*
Y3543796D01*
X9566869Y3531626D01*
X9562120Y3520163D01*
X9555227Y3509846D01*
X9546453Y3501073D01*
X9536136Y3494179D01*
X9524673Y3489431D01*
X9512503Y3487010D01*
X9506299D01*
X9500095D01*
X9487926Y3489431D01*
X9476462Y3494179D01*
X9466146Y3501073D01*
X9457372Y3509846D01*
X9450478Y3520163D01*
X9445730Y3531626D01*
X9443309Y3543796D01*
Y3550000D01*
Y3556204D01*
X9445730Y3568374D01*
X9450478Y3579837D01*
X9457372Y3590154D01*
X9466146Y3598928D01*
X9476462Y3605821D01*
X9487926Y3610569D01*
X9500095Y3612990D01*
X9506299D01*
X9512503D01*
X9524673Y3610569D01*
X9536136Y3605821D01*
X9546453Y3598928D01*
X9555227Y3590154D01*
X9562120Y3579837D01*
X9566869Y3568374D01*
X9569289Y3556204D01*
Y3550000D01*
D01*
D02*
G37*
G36*
X9369289Y1500000D02*
Y1493796D01*
X9366869Y1481627D01*
X9362120Y1470163D01*
X9355227Y1459846D01*
X9346453Y1451072D01*
X9336136Y1444179D01*
X9324673Y1439431D01*
X9312503Y1437010D01*
X9306299D01*
X9300095D01*
X9287926Y1439431D01*
X9276462Y1444179D01*
X9266146Y1451072D01*
X9257372Y1459846D01*
X9250478Y1470163D01*
X9245730Y1481627D01*
X9243309Y1493796D01*
Y1500000D01*
Y1506204D01*
X9245730Y1518374D01*
X9250478Y1529837D01*
X9257372Y1540154D01*
X9266146Y1548928D01*
X9276462Y1555821D01*
X9287926Y1560569D01*
X9300095Y1562990D01*
X9306299D01*
X9312503D01*
X9324673Y1560569D01*
X9336136Y1555821D01*
X9346453Y1548928D01*
X9355227Y1540154D01*
X9362120Y1529837D01*
X9366869Y1518374D01*
X9369289Y1506204D01*
Y1500000D01*
D01*
D02*
G37*
G36*
X9569289Y300000D02*
Y293796D01*
X9566869Y281627D01*
X9562120Y270163D01*
X9555227Y259846D01*
X9546453Y251072D01*
X9536136Y244179D01*
X9524673Y239431D01*
X9512503Y237010D01*
X9506299D01*
X9500095D01*
X9487926Y239431D01*
X9476462Y244179D01*
X9466146Y251072D01*
X9457372Y259846D01*
X9450478Y270163D01*
X9445730Y281627D01*
X9443309Y293796D01*
Y300000D01*
Y306204D01*
X9445730Y318374D01*
X9450478Y329837D01*
X9457372Y340154D01*
X9466146Y348928D01*
X9476462Y355821D01*
X9487926Y360569D01*
X9500095Y362990D01*
X9506299D01*
X9512503D01*
X9524673Y360569D01*
X9536136Y355821D01*
X9546453Y348928D01*
X9555227Y340154D01*
X9562120Y329837D01*
X9566869Y318374D01*
X9569289Y306204D01*
Y300000D01*
D01*
D02*
G37*
G36*
X12669289Y3500000D02*
Y3493796D01*
X12666869Y3481626D01*
X12662120Y3470163D01*
X12655227Y3459846D01*
X12646453Y3451073D01*
X12636136Y3444179D01*
X12624673Y3439431D01*
X12612503Y3437010D01*
X12606299D01*
X12600095D01*
X12587926Y3439431D01*
X12576462Y3444179D01*
X12566146Y3451073D01*
X12557372Y3459846D01*
X12550478Y3470163D01*
X12545730Y3481626D01*
X12543309Y3493796D01*
Y3500000D01*
Y3506204D01*
X12545730Y3518374D01*
X12550478Y3529837D01*
X12557372Y3540154D01*
X12566146Y3548928D01*
X12576462Y3555821D01*
X12587926Y3560569D01*
X12600095Y3562990D01*
X12606299D01*
X12612503D01*
X12624673Y3560569D01*
X12636136Y3555821D01*
X12646453Y3548928D01*
X12655227Y3540154D01*
X12662120Y3529837D01*
X12666869Y3518374D01*
X12669289Y3506204D01*
Y3500000D01*
D01*
D02*
G37*
G36*
X13269289Y1500000D02*
Y1493796D01*
X13266869Y1481627D01*
X13262120Y1470163D01*
X13255227Y1459846D01*
X13246453Y1451072D01*
X13236136Y1444179D01*
X13224673Y1439431D01*
X13212503Y1437010D01*
X13206299D01*
X13200095D01*
X13187926Y1439431D01*
X13176462Y1444179D01*
X13166146Y1451072D01*
X13157372Y1459846D01*
X13150478Y1470163D01*
X13145730Y1481627D01*
X13143309Y1493796D01*
Y1500000D01*
Y1506204D01*
X13145730Y1518374D01*
X13150478Y1529837D01*
X13157372Y1540154D01*
X13166146Y1548928D01*
X13176462Y1555821D01*
X13187926Y1560569D01*
X13200095Y1562990D01*
X13206299D01*
X13212503D01*
X13224673Y1560569D01*
X13236136Y1555821D01*
X13246453Y1548928D01*
X13255227Y1540154D01*
X13262120Y1529837D01*
X13266869Y1518374D01*
X13269289Y1506204D01*
Y1500000D01*
D01*
D02*
G37*
G36*
X12669289Y550000D02*
Y543796D01*
X12666869Y531626D01*
X12662120Y520163D01*
X12655227Y509846D01*
X12646453Y501072D01*
X12636136Y494179D01*
X12624673Y489431D01*
X12612503Y487010D01*
X12606299D01*
X12600095D01*
X12587926Y489431D01*
X12576462Y494179D01*
X12566146Y501072D01*
X12557372Y509846D01*
X12550478Y520163D01*
X12545730Y531626D01*
X12543309Y543796D01*
Y550000D01*
Y556204D01*
X12545730Y568374D01*
X12550478Y579837D01*
X12557372Y590154D01*
X12566146Y598928D01*
X12576462Y605821D01*
X12587926Y610569D01*
X12600095Y612990D01*
X12606299D01*
X12612503D01*
X12624673Y610569D01*
X12636136Y605821D01*
X12646453Y598928D01*
X12655227Y590154D01*
X12662120Y579837D01*
X12666869Y568374D01*
X12669289Y556204D01*
Y550000D01*
D01*
D02*
G37*
G36*
X14569289Y3550000D02*
Y3543796D01*
X14566869Y3531626D01*
X14562120Y3520163D01*
X14555227Y3509846D01*
X14546453Y3501073D01*
X14536136Y3494179D01*
X14524673Y3489431D01*
X14512503Y3487010D01*
X14506299D01*
X14500095D01*
X14487926Y3489431D01*
X14476462Y3494179D01*
X14466146Y3501073D01*
X14457372Y3509846D01*
X14450478Y3520163D01*
X14445730Y3531626D01*
X14443309Y3543796D01*
Y3550000D01*
Y3556204D01*
X14445730Y3568374D01*
X14450478Y3579837D01*
X14457372Y3590154D01*
X14466146Y3598928D01*
X14476462Y3605821D01*
X14487926Y3610569D01*
X14500095Y3612990D01*
X14506299D01*
X14512503D01*
X14524673Y3610569D01*
X14536136Y3605821D01*
X14546453Y3598928D01*
X14555227Y3590154D01*
X14562120Y3579837D01*
X14566869Y3568374D01*
X14569289Y3556204D01*
Y3550000D01*
D01*
D02*
G37*
G36*
X14369289Y1500000D02*
Y1493796D01*
X14366869Y1481627D01*
X14362120Y1470163D01*
X14355227Y1459846D01*
X14346453Y1451072D01*
X14336136Y1444179D01*
X14324673Y1439431D01*
X14312503Y1437010D01*
X14306299D01*
X14300095D01*
X14287926Y1439431D01*
X14276462Y1444179D01*
X14266146Y1451072D01*
X14257372Y1459846D01*
X14250478Y1470163D01*
X14245730Y1481627D01*
X14243309Y1493796D01*
Y1500000D01*
Y1506204D01*
X14245730Y1518374D01*
X14250478Y1529837D01*
X14257372Y1540154D01*
X14266146Y1548928D01*
X14276462Y1555821D01*
X14287926Y1560569D01*
X14300095Y1562990D01*
X14306299D01*
X14312503D01*
X14324673Y1560569D01*
X14336136Y1555821D01*
X14346453Y1548928D01*
X14355227Y1540154D01*
X14362120Y1529837D01*
X14366869Y1518374D01*
X14369289Y1506204D01*
Y1500000D01*
D01*
D02*
G37*
G36*
X14569289Y300000D02*
Y293796D01*
X14566869Y281627D01*
X14562120Y270163D01*
X14555227Y259846D01*
X14546453Y251072D01*
X14536136Y244179D01*
X14524673Y239431D01*
X14512503Y237010D01*
X14506299D01*
X14500095D01*
X14487926Y239431D01*
X14476462Y244179D01*
X14466146Y251072D01*
X14457372Y259846D01*
X14450478Y270163D01*
X14445730Y281627D01*
X14443309Y293796D01*
Y300000D01*
Y306204D01*
X14445730Y318374D01*
X14450478Y329837D01*
X14457372Y340154D01*
X14466146Y348928D01*
X14476462Y355821D01*
X14487926Y360569D01*
X14500095Y362990D01*
X14506299D01*
X14512503D01*
X14524673Y360569D01*
X14536136Y355821D01*
X14546453Y348928D01*
X14555227Y340154D01*
X14562120Y329837D01*
X14566869Y318374D01*
X14569289Y306204D01*
Y300000D01*
D01*
D02*
G37*
D164*
X0Y0D02*
Y7500000D01*
X17250000Y7499999D01*
X17250000Y-0D01*
X0Y0D01*
%TF.MD5,7c6239791487af0e9a4b6d589b2550c9*%
M02*
