%TF.GenerationSoftware,Altium Limited,Altium Designer,21.6.4 (81)*%
G04 Layer_Physical_Order=1*
G04 Layer_Color=255*
%FSLAX26Y26*%
%MOIN*%
%TF.SameCoordinates,892991E7-994B-4F78-B437-02A20B6E2807*%
%TF.FilePolarity,Positive*%
%TF.FileFunction,Copper,L1,Top,Signal*%
%TF.Part,Single*%
G01*
G75*
%TA.AperFunction,SMDPad,CuDef*%
%ADD10R,0.039370X0.023622*%
%ADD11R,0.051181X0.027559*%
G04:AMPARAMS|DCode=12|XSize=77.559mil|YSize=23.228mil|CornerRadius=2.904mil|HoleSize=0mil|Usage=FLASHONLY|Rotation=0.000|XOffset=0mil|YOffset=0mil|HoleType=Round|Shape=RoundedRectangle|*
%AMROUNDEDRECTD12*
21,1,0.077559,0.017421,0,0,0.0*
21,1,0.071752,0.023228,0,0,0.0*
1,1,0.005807,0.035876,-0.008711*
1,1,0.005807,-0.035876,-0.008711*
1,1,0.005807,-0.035876,0.008711*
1,1,0.005807,0.035876,0.008711*
%
%ADD12ROUNDEDRECTD12*%
%ADD13R,0.057087X0.023622*%
%ADD14R,0.046457X0.022835*%
%ADD15R,0.097211X0.024493*%
G04:AMPARAMS|DCode=16|XSize=97.211mil|YSize=24.493mil|CornerRadius=12.247mil|HoleSize=0mil|Usage=FLASHONLY|Rotation=0.000|XOffset=0mil|YOffset=0mil|HoleType=Round|Shape=RoundedRectangle|*
%AMROUNDEDRECTD16*
21,1,0.097211,0.000000,0,0,0.0*
21,1,0.072718,0.024493,0,0,0.0*
1,1,0.024493,0.036359,0.000000*
1,1,0.024493,-0.036359,0.000000*
1,1,0.024493,-0.036359,0.000000*
1,1,0.024493,0.036359,0.000000*
%
%ADD16ROUNDEDRECTD16*%
%ADD17R,0.065284X0.043523*%
%ADD18R,0.059055X0.059055*%
%ADD19R,0.098425X0.098425*%
%TA.AperFunction,ConnectorPad*%
%ADD20R,0.061024X0.059055*%
G04:AMPARAMS|DCode=21|XSize=15.748mil|YSize=53.15mil|CornerRadius=3.937mil|HoleSize=0mil|Usage=FLASHONLY|Rotation=90.000|XOffset=0mil|YOffset=0mil|HoleType=Round|Shape=RoundedRectangle|*
%AMROUNDEDRECTD21*
21,1,0.015748,0.045276,0,0,90.0*
21,1,0.007874,0.053150,0,0,90.0*
1,1,0.007874,0.022638,0.003937*
1,1,0.007874,0.022638,-0.003937*
1,1,0.007874,-0.022638,-0.003937*
1,1,0.007874,-0.022638,0.003937*
%
%ADD21ROUNDEDRECTD21*%
%TA.AperFunction,SMDPad,CuDef*%
G04:AMPARAMS|DCode=22|XSize=55mil|YSize=43mil|CornerRadius=7.955mil|HoleSize=0mil|Usage=FLASHONLY|Rotation=90.000|XOffset=0mil|YOffset=0mil|HoleType=Round|Shape=RoundedRectangle|*
%AMROUNDEDRECTD22*
21,1,0.055000,0.027090,0,0,90.0*
21,1,0.039090,0.043000,0,0,90.0*
1,1,0.015910,0.013545,0.019545*
1,1,0.015910,0.013545,-0.019545*
1,1,0.015910,-0.013545,-0.019545*
1,1,0.015910,-0.013545,0.019545*
%
%ADD22ROUNDEDRECTD22*%
G04:AMPARAMS|DCode=23|XSize=35mil|YSize=34mil|CornerRadius=5.95mil|HoleSize=0mil|Usage=FLASHONLY|Rotation=270.000|XOffset=0mil|YOffset=0mil|HoleType=Round|Shape=RoundedRectangle|*
%AMROUNDEDRECTD23*
21,1,0.035000,0.022100,0,0,270.0*
21,1,0.023100,0.034000,0,0,270.0*
1,1,0.011900,-0.011050,-0.011550*
1,1,0.011900,-0.011050,0.011550*
1,1,0.011900,0.011050,0.011550*
1,1,0.011900,0.011050,-0.011550*
%
%ADD23ROUNDEDRECTD23*%
%ADD24R,0.055118X0.078740*%
G04:AMPARAMS|DCode=25|XSize=35mil|YSize=34mil|CornerRadius=5.95mil|HoleSize=0mil|Usage=FLASHONLY|Rotation=180.000|XOffset=0mil|YOffset=0mil|HoleType=Round|Shape=RoundedRectangle|*
%AMROUNDEDRECTD25*
21,1,0.035000,0.022100,0,0,180.0*
21,1,0.023100,0.034000,0,0,180.0*
1,1,0.011900,-0.011550,0.011050*
1,1,0.011900,0.011550,0.011050*
1,1,0.011900,0.011550,-0.011050*
1,1,0.011900,-0.011550,-0.011050*
%
%ADD25ROUNDEDRECTD25*%
%ADD26R,0.023622X0.039370*%
G04:AMPARAMS|DCode=27|XSize=55mil|YSize=43mil|CornerRadius=7.955mil|HoleSize=0mil|Usage=FLASHONLY|Rotation=180.000|XOffset=0mil|YOffset=0mil|HoleType=Round|Shape=RoundedRectangle|*
%AMROUNDEDRECTD27*
21,1,0.055000,0.027090,0,0,180.0*
21,1,0.039090,0.043000,0,0,180.0*
1,1,0.015910,-0.019545,0.013545*
1,1,0.015910,0.019545,0.013545*
1,1,0.015910,0.019545,-0.013545*
1,1,0.015910,-0.019545,-0.013545*
%
%ADD27ROUNDEDRECTD27*%
%TA.AperFunction,NonConductor*%
%ADD28C,0.008000*%
%TA.AperFunction,Conductor*%
%ADD29C,0.008000*%
%ADD30C,0.010000*%
%ADD31C,0.030000*%
%ADD32C,0.020000*%
%ADD33C,0.050000*%
%TA.AperFunction,NonConductor*%
%ADD34R,0.061024X0.047244*%
%TA.AperFunction,SMDPad,CuDef*%
%ADD35R,0.043307X0.035433*%
%TA.AperFunction,ComponentPad*%
%ADD36C,0.060000*%
%ADD37R,0.060000X0.060000*%
%ADD38C,0.081102*%
%ADD39C,0.075000*%
%ADD40R,0.075000X0.075000*%
%ADD41C,0.236220*%
%ADD42C,0.047244*%
%ADD43C,0.090551*%
%ADD44C,0.056221*%
%ADD45R,0.056221X0.056221*%
%ADD46C,0.070000*%
%ADD47R,0.070000X0.070000*%
%ADD48C,0.244095*%
%ADD49C,0.118110*%
%ADD50R,0.062992X0.062992*%
%ADD51C,0.062992*%
%ADD52R,0.059055X0.059055*%
%ADD53C,0.059055*%
%ADD54C,0.074000*%
%ADD55C,0.130000*%
G04:AMPARAMS|DCode=56|XSize=37.402mil|YSize=61.024mil|CornerRadius=18.701mil|HoleSize=0mil|Usage=FLASHONLY|Rotation=270.000|XOffset=0mil|YOffset=0mil|HoleType=Round|Shape=RoundedRectangle|*
%AMROUNDEDRECTD56*
21,1,0.037402,0.023622,0,0,270.0*
21,1,0.000000,0.061024,0,0,270.0*
1,1,0.037402,-0.011811,0.000000*
1,1,0.037402,-0.011811,0.000000*
1,1,0.037402,0.011811,0.000000*
1,1,0.037402,0.011811,0.000000*
%
%ADD56ROUNDEDRECTD56*%
G04:AMPARAMS|DCode=57|XSize=49.213mil|YSize=37.402mil|CornerRadius=18.701mil|HoleSize=0mil|Usage=FLASHONLY|Rotation=270.000|XOffset=0mil|YOffset=0mil|HoleType=Round|Shape=RoundedRectangle|*
%AMROUNDEDRECTD57*
21,1,0.049213,0.000000,0,0,270.0*
21,1,0.011811,0.037402,0,0,270.0*
1,1,0.037402,0.000000,-0.005906*
1,1,0.037402,0.000000,0.005906*
1,1,0.037402,0.000000,0.005906*
1,1,0.037402,0.000000,-0.005906*
%
%ADD57ROUNDEDRECTD57*%
%ADD58O,0.089600X0.056000*%
%ADD59C,0.125980*%
G04:AMPARAMS|DCode=60|XSize=66mil|YSize=66mil|CornerRadius=0mil|HoleSize=0mil|Usage=FLASHONLY|Rotation=0.000|XOffset=0mil|YOffset=0mil|HoleType=Round|Shape=Octagon|*
%AMOCTAGOND60*
4,1,8,0.033000,-0.016500,0.033000,0.016500,0.016500,0.033000,-0.016500,0.033000,-0.033000,0.016500,-0.033000,-0.016500,-0.016500,-0.033000,0.016500,-0.033000,0.033000,-0.016500,0.0*
%
%ADD60OCTAGOND60*%

G04:AMPARAMS|DCode=61|XSize=61.02mil|YSize=61.02mil|CornerRadius=0mil|HoleSize=0mil|Usage=FLASHONLY|Rotation=90.000|XOffset=0mil|YOffset=0mil|HoleType=Round|Shape=Octagon|*
%AMOCTAGOND61*
4,1,8,0.015255,0.030510,-0.015255,0.030510,-0.030510,0.015255,-0.030510,-0.015255,-0.015255,-0.030510,0.015255,-0.030510,0.030510,-0.015255,0.030510,0.015255,0.015255,0.030510,0.0*
%
%ADD61OCTAGOND61*%

G04:AMPARAMS|DCode=62|XSize=61.02mil|YSize=61.02mil|CornerRadius=0mil|HoleSize=0mil|Usage=FLASHONLY|Rotation=0.000|XOffset=0mil|YOffset=0mil|HoleType=Round|Shape=Octagon|*
%AMOCTAGOND62*
4,1,8,0.030510,-0.015255,0.030510,0.015255,0.015255,0.030510,-0.015255,0.030510,-0.030510,0.015255,-0.030510,-0.015255,-0.015255,-0.030510,0.015255,-0.030510,0.030510,-0.015255,0.0*
%
%ADD62OCTAGOND62*%

%TA.AperFunction,SMDPad,CuDef*%
%ADD63R,0.062992X0.137795*%
%ADD64R,0.086614X0.173228*%
%TA.AperFunction,ComponentPad*%
%ADD65C,0.137795*%
%TA.AperFunction,SMDPad,CuDef*%
%ADD66R,0.137795X0.070079*%
%ADD67R,0.137795X0.062992*%
%ADD68R,0.173228X0.086614*%
%TA.AperFunction,ComponentPad*%
%ADD69R,0.062992X0.062992*%
%ADD70R,0.060000X0.060000*%
%TA.AperFunction,SMDPad,CuDef*%
%ADD71R,0.070079X0.137795*%
%TA.AperFunction,ComponentPad*%
%ADD72R,0.075000X0.075000*%
%TA.AperFunction,WasherPad*%
%ADD73C,0.150000*%
%TA.AperFunction,ViaPad*%
%ADD74C,0.020000*%
%ADD75C,0.050000*%
%ADD76C,0.040000*%
G36*
X16674999Y1250000D02*
X16325001D01*
Y1725000D01*
X16674999D01*
Y1250000D01*
D02*
G37*
G36*
X12140000Y6540000D02*
X11940000D01*
Y7015000D01*
X12140000D01*
Y6540000D01*
D02*
G37*
%LPC*%
G36*
X16528898Y1695039D02*
X16455000D01*
Y1655000D01*
X16528898D01*
Y1695039D01*
D02*
G37*
G36*
X16445000D02*
X16371101D01*
Y1655000D01*
X16445000D01*
Y1695039D01*
D02*
G37*
G36*
X16528898Y1645000D02*
X16455000D01*
Y1604961D01*
X16528898D01*
Y1645000D01*
D02*
G37*
G36*
X16445000D02*
X16371101D01*
Y1604961D01*
X16445000D01*
Y1645000D01*
D02*
G37*
G36*
X16645039Y1428898D02*
X16605000D01*
Y1355000D01*
X16645039D01*
Y1428898D01*
D02*
G37*
G36*
X16594999D02*
X16554960D01*
Y1355000D01*
X16594999D01*
Y1428898D01*
D02*
G37*
G36*
X16645039Y1345000D02*
X16605000D01*
Y1271102D01*
X16645039D01*
Y1345000D01*
D02*
G37*
G36*
X16594999D02*
X16554960D01*
Y1271102D01*
X16594999D01*
Y1345000D01*
D02*
G37*
G36*
X12118898Y6985039D02*
X12045000D01*
Y6945000D01*
X12118898D01*
Y6985039D01*
D02*
G37*
G36*
X12035000D02*
X11961102D01*
Y6945000D01*
X12035000D01*
Y6985039D01*
D02*
G37*
G36*
X12118898Y6935000D02*
X12045000D01*
Y6894961D01*
X12118898D01*
Y6935000D01*
D02*
G37*
G36*
X12035000D02*
X11961102D01*
Y6894961D01*
X12035000D01*
Y6935000D01*
D02*
G37*
%LPD*%
D10*
X1652756Y6400000D02*
D03*
X1747244Y6437401D02*
D03*
Y6362598D02*
D03*
X15832756Y5127402D02*
D03*
Y5052599D02*
D03*
X15927244Y5090000D02*
D03*
X15782756Y5927402D02*
D03*
Y5852599D02*
D03*
X15877244Y5890000D02*
D03*
X1952756Y5400000D02*
D03*
X2047244Y5437401D02*
D03*
Y5362598D02*
D03*
X2004976Y5875000D02*
D03*
Y5949803D02*
D03*
X1910488Y5912402D02*
D03*
X1002756Y5637402D02*
D03*
Y5562599D02*
D03*
X1097244Y5600000D02*
D03*
X1652756Y4900000D02*
D03*
X1747244Y4937401D02*
D03*
Y4862598D02*
D03*
D11*
X16513859Y5529500D02*
D03*
Y5479500D02*
D03*
Y5429500D02*
D03*
Y5379500D02*
D03*
Y5329500D02*
D03*
Y5279500D02*
D03*
Y5229500D02*
D03*
X16746141Y5529500D02*
D03*
Y5479500D02*
D03*
Y5429500D02*
D03*
Y5379500D02*
D03*
Y5329500D02*
D03*
Y5279500D02*
D03*
Y5229500D02*
D03*
D12*
X15002559Y2675000D02*
D03*
Y2625000D02*
D03*
Y2575000D02*
D03*
Y2525000D02*
D03*
X15197441D02*
D03*
Y2575000D02*
D03*
Y2625000D02*
D03*
Y2675000D02*
D03*
D13*
X1407284Y5400000D02*
D03*
Y5450000D02*
D03*
Y5500000D02*
D03*
Y5550000D02*
D03*
Y5600000D02*
D03*
Y5650000D02*
D03*
Y5700000D02*
D03*
X1192717Y5400000D02*
D03*
Y5450000D02*
D03*
Y5500000D02*
D03*
Y5550000D02*
D03*
Y5600000D02*
D03*
Y5650000D02*
D03*
Y5700000D02*
D03*
D14*
X3300000Y5450000D02*
D03*
Y5500000D02*
D03*
Y5550000D02*
D03*
Y5600000D02*
D03*
Y5650000D02*
D03*
Y5700000D02*
D03*
Y5750000D02*
D03*
X3090551D02*
D03*
Y5700000D02*
D03*
Y5650000D02*
D03*
Y5600000D02*
D03*
Y5550000D02*
D03*
Y5500000D02*
D03*
Y5450000D02*
D03*
D15*
X2359953Y5900000D02*
D03*
X2404976Y5375000D02*
D03*
D16*
X2359953Y5850000D02*
D03*
Y5800000D02*
D03*
Y5750000D02*
D03*
X2550000D02*
D03*
Y5800000D02*
D03*
Y5850000D02*
D03*
Y5900000D02*
D03*
X2595024Y5375000D02*
D03*
Y5325000D02*
D03*
Y5275000D02*
D03*
Y5225000D02*
D03*
X2404976D02*
D03*
Y5275000D02*
D03*
Y5325000D02*
D03*
D17*
X15760000Y6360250D02*
D03*
Y6259749D02*
D03*
X15980000Y6740250D02*
D03*
Y6639749D02*
D03*
X16080000Y6740250D02*
D03*
Y6639749D02*
D03*
X15490000Y6360250D02*
D03*
Y6259749D02*
D03*
X15580000Y6360250D02*
D03*
Y6259749D02*
D03*
X15670000Y6360250D02*
D03*
Y6259749D02*
D03*
D18*
X16500000Y881102D02*
D03*
Y1018898D02*
D03*
X15000000Y881102D02*
D03*
Y1018898D02*
D03*
X15600000D02*
D03*
Y881102D02*
D03*
X15300000D02*
D03*
Y1018898D02*
D03*
X15900000Y881102D02*
D03*
Y1018898D02*
D03*
X16200001Y881102D02*
D03*
Y1018898D02*
D03*
D19*
X15866220Y6906535D02*
D03*
Y6473465D02*
D03*
X15393780D02*
D03*
Y6906535D02*
D03*
D20*
X17170000Y1360630D02*
D03*
Y1439370D02*
D03*
D21*
X17063702Y1451181D02*
D03*
Y1425591D02*
D03*
Y1400000D02*
D03*
Y1374409D02*
D03*
Y1348819D02*
D03*
D22*
X2008500Y6550000D02*
D03*
X1941500D02*
D03*
X14894500Y5140000D02*
D03*
X14965500D02*
D03*
X15715500Y5040000D02*
D03*
X15644500D02*
D03*
Y5140000D02*
D03*
X15715500D02*
D03*
X14894500Y5590000D02*
D03*
X14965500D02*
D03*
X15665500Y5840000D02*
D03*
X15594500D02*
D03*
X14894500Y5940000D02*
D03*
X14965500D02*
D03*
X1535500Y4700000D02*
D03*
X1464500D02*
D03*
Y4800000D02*
D03*
X1535500D02*
D03*
X3464500Y5650000D02*
D03*
X3535500D02*
D03*
X2235500Y5150000D02*
D03*
X2164500D02*
D03*
X2235500Y5250000D02*
D03*
X2164500D02*
D03*
X2214500Y4850000D02*
D03*
X2285500D02*
D03*
X1464500Y6300000D02*
D03*
X1535500D02*
D03*
X1464500Y6400000D02*
D03*
X1535500D02*
D03*
X2225976Y5675000D02*
D03*
X2154976D02*
D03*
Y5775000D02*
D03*
X2225976D02*
D03*
X15594500Y5940000D02*
D03*
X15665500D02*
D03*
X1464500Y6200000D02*
D03*
X1535500D02*
D03*
Y4900000D02*
D03*
X1464500D02*
D03*
X2285500Y6350000D02*
D03*
X2214500D02*
D03*
X3535500Y5550000D02*
D03*
X3464500D02*
D03*
X14408500Y6945000D02*
D03*
X14341500D02*
D03*
X1941500Y4750000D02*
D03*
X2008500D02*
D03*
D23*
X2229976Y5865500D02*
D03*
Y5924500D02*
D03*
X2250000Y5370500D02*
D03*
Y5429500D02*
D03*
D24*
X16390945Y312205D02*
D03*
Y587795D02*
D03*
X16509054Y312205D02*
D03*
Y587795D02*
D03*
X14890945Y312205D02*
D03*
Y587795D02*
D03*
X15009055Y312205D02*
D03*
Y587795D02*
D03*
X15309055Y587801D02*
D03*
Y312211D02*
D03*
X15190945Y587801D02*
D03*
Y312211D02*
D03*
X15490945Y312205D02*
D03*
Y587795D02*
D03*
X15609055Y312205D02*
D03*
Y587795D02*
D03*
X15790945Y312205D02*
D03*
Y587795D02*
D03*
X15909055Y312205D02*
D03*
Y587795D02*
D03*
X16090944Y312208D02*
D03*
Y587798D02*
D03*
X16209055Y312208D02*
D03*
Y587798D02*
D03*
D25*
X16500500Y5640000D02*
D03*
X16559500D02*
D03*
D26*
X16892597Y5892756D02*
D03*
X16967402D02*
D03*
X16930000Y5987244D02*
D03*
X1612598Y5402756D02*
D03*
X1687401D02*
D03*
X1650000Y5497244D02*
D03*
X15842598Y5392756D02*
D03*
X15917401D02*
D03*
X15880000Y5487244D02*
D03*
D27*
X15630000Y5504500D02*
D03*
Y5575500D02*
D03*
X15730000Y5504500D02*
D03*
Y5575500D02*
D03*
X16830000Y5504500D02*
D03*
Y5575500D02*
D03*
X15980000Y5925500D02*
D03*
Y5854500D02*
D03*
X16930000Y5575500D02*
D03*
Y5504500D02*
D03*
X16730000Y5125500D02*
D03*
Y5054500D02*
D03*
X2750000Y5414500D02*
D03*
Y5485500D02*
D03*
X2150000Y5435500D02*
D03*
Y5364500D02*
D03*
X2750000Y5264500D02*
D03*
Y5335500D02*
D03*
X1500000Y5485500D02*
D03*
Y5414500D02*
D03*
X8740000Y5223500D02*
D03*
Y5156500D02*
D03*
X10440000Y6190000D02*
D03*
Y6257000D02*
D03*
X9190000Y6206500D02*
D03*
Y6273500D02*
D03*
X8840000Y5623500D02*
D03*
Y5556500D02*
D03*
X10590000Y5623500D02*
D03*
Y5556500D02*
D03*
X8740000Y6273500D02*
D03*
Y6206500D02*
D03*
X9990000Y6273500D02*
D03*
Y6206500D02*
D03*
X9340000Y5623500D02*
D03*
Y5556500D02*
D03*
X9890000Y6206500D02*
D03*
Y6273500D02*
D03*
X8640000Y6206500D02*
D03*
Y6273500D02*
D03*
X9990000Y5223500D02*
D03*
Y5156500D02*
D03*
X10090000Y5623500D02*
D03*
Y5556500D02*
D03*
X2704976Y5939500D02*
D03*
Y6010500D02*
D03*
X2104976Y5960500D02*
D03*
Y5889500D02*
D03*
X2704976Y5789500D02*
D03*
Y5860500D02*
D03*
X9140000Y5554500D02*
D03*
Y5625500D02*
D03*
X8640000Y5554500D02*
D03*
Y5625500D02*
D03*
X9990000D02*
D03*
Y5554500D02*
D03*
X9890000D02*
D03*
Y5625500D02*
D03*
X10440000Y6404500D02*
D03*
Y6475500D02*
D03*
X10390000Y5554500D02*
D03*
Y5625500D02*
D03*
X10190000Y5554500D02*
D03*
Y5625500D02*
D03*
X8940000Y5554500D02*
D03*
Y5625500D02*
D03*
X8740000D02*
D03*
Y5554500D02*
D03*
X9190000Y6404500D02*
D03*
Y6475500D02*
D03*
X16280001Y5404500D02*
D03*
Y5475500D02*
D03*
X16180000D02*
D03*
Y5404500D02*
D03*
X14900000Y935500D02*
D03*
Y864500D02*
D03*
X15500000D02*
D03*
Y935500D02*
D03*
X15200000D02*
D03*
Y864500D02*
D03*
X15800000Y935500D02*
D03*
Y864500D02*
D03*
X16700001Y3014500D02*
D03*
Y3085500D02*
D03*
Y2785500D02*
D03*
Y2714500D02*
D03*
Y4035500D02*
D03*
Y3964500D02*
D03*
X16600000Y4035500D02*
D03*
Y3964500D02*
D03*
X15350000Y2564500D02*
D03*
Y2635500D02*
D03*
X16100000Y935500D02*
D03*
Y864500D02*
D03*
X16400000Y935500D02*
D03*
Y864500D02*
D03*
D28*
X5106299Y1800000D02*
X5116299D01*
X5106299Y2300000D02*
Y2305000D01*
Y1700000D02*
X5116299D01*
X5106299Y3160000D02*
X5136299D01*
X5106299Y2560000D02*
X5131299D01*
X5106299Y2860000D02*
X5131299Y2850000D01*
X7606299Y2300000D02*
Y2305000D01*
Y1700000D02*
X7616299D01*
X7606299Y3160000D02*
X7636299D01*
X12606299Y1800000D02*
X12616299D01*
X12606299Y2300000D02*
Y2305000D01*
Y1700000D02*
X12616299D01*
X12606299Y3160000D02*
X12636299D01*
X12606299Y2560000D02*
X12631299D01*
X12606299Y2860000D02*
X12631299Y2850000D01*
D29*
X5206299Y400000D02*
Y430000D01*
X7606299Y1800000D02*
X7616299D01*
X7606299Y2560000D02*
X7631299D01*
X7706299Y400000D02*
Y430000D01*
X12706299Y400000D02*
Y430000D01*
X16234039Y450003D02*
X16279997D01*
X16280001Y450000D01*
X7870000Y5200000D02*
X8380000Y4690000D01*
X8010000Y5400000D02*
X8720000Y4690000D01*
X5850000Y5750000D02*
Y5850000D01*
X5900000Y5700000D02*
X7100000D01*
X5850000Y5750000D02*
X5900000Y5700000D01*
X5050000Y5560000D02*
Y5850000D01*
Y5560000D02*
X5113000Y5497000D01*
X6893000D01*
X7190000Y5200000D01*
X8060000Y5500000D02*
X8870000Y4690000D01*
X8370000Y5340000D02*
X9390000Y4320000D01*
X8370000Y5340000D02*
Y5740000D01*
X9390000Y4320000D02*
X10680000D01*
X7480000Y5500000D02*
X8060000D01*
X8470000Y5840000D02*
X8730000D01*
X8370000Y5740000D02*
X8470000Y5840000D01*
X7180000Y5800000D02*
X7480000Y5500000D01*
X6300000Y5800000D02*
X7180000D01*
X6250000Y5850000D02*
X6300000Y5800000D01*
X7400000Y5400000D02*
X8010000D01*
X7100000Y5700000D02*
X7400000Y5400000D01*
X7190000Y5200000D02*
X7870000D01*
X3580000Y3690000D02*
X9210000D01*
X3510000Y3750000D02*
X9260000D01*
X2870000Y3810000D02*
X9310000D01*
X2830000Y3870000D02*
X9360000D01*
X3550000Y3660000D02*
X3580000Y3690000D01*
X3450000D02*
X3510000Y3750000D01*
X2800000Y3740000D02*
X2870000Y3810000D01*
X2700000Y3740000D02*
X2830000Y3870000D01*
X14230000Y1340000D02*
X16219999D01*
X14090000Y1280000D02*
X16219999D01*
X10970000Y1540000D02*
X12810000D01*
X9970000Y4430000D02*
X10970000D01*
X7616299Y1800000D02*
X8240000D01*
X7606299D02*
X7616299D01*
X8240000D02*
X8240000Y1800000D01*
X3550000Y3600000D02*
Y3660000D01*
X3450000Y3600000D02*
Y3690000D01*
X2800000Y3600000D02*
Y3740000D01*
X2700000Y3600000D02*
Y3740000D01*
X8730000Y5840000D02*
X8783000Y5893000D01*
Y5933000D02*
X8790000Y5940000D01*
X8783000Y5893000D02*
Y5933000D01*
X9680000Y4720000D02*
X9970000Y4430000D01*
X9680000Y4720000D02*
Y5760000D01*
X9770000Y5850000D01*
X10010000D01*
X10040000Y5880000D02*
Y5940000D01*
X10010000Y5850000D02*
X10040000Y5880000D01*
X16234039Y450003D02*
Y587798D01*
Y312208D02*
Y450003D01*
D30*
X7606299Y2860000D02*
X7631299Y2850000D01*
X8400000Y4075000D02*
X12125000D01*
X12950000Y4900000D02*
X14050000D01*
X12125000Y4075000D02*
X12950000Y4900000D01*
X12250000Y3950000D02*
X13075000Y4775000D01*
X8475000Y3950000D02*
X12250000D01*
X13075000Y4775000D02*
X13650000D01*
X11290000Y2450000D02*
X11291913Y2451913D01*
X12598212D02*
X12606299Y2460000D01*
X11291913Y2451913D02*
X12598212D01*
X7780000Y2400000D02*
X9380000D01*
X7720000Y2460000D02*
X7780000Y2400000D01*
X7290858Y2450000D02*
X7300858Y2460000D01*
X7720000D01*
X6860000Y2450000D02*
X7290858D01*
X5240000Y2510000D02*
X6800000Y2510000D01*
X5190000Y2460000D02*
X5240000Y2510000D01*
X5106299Y2460000D02*
X5190000D01*
X5560000Y346299D02*
X5606299Y300000D01*
X5500000Y650000D02*
X5560000Y590000D01*
Y346299D02*
Y590000D01*
X3280000Y970000D02*
X3610000D01*
X3680000Y900000D01*
X3250000Y940000D02*
X3280000Y970000D01*
X3370000Y930000D02*
X3540000D01*
X3350000Y910000D02*
X3370000Y930000D01*
X3540000D02*
X3650000Y820000D01*
X4930000D01*
X5150000Y850000D02*
X5180000Y820000D01*
X6300000D01*
X5010000Y850000D02*
X5150000D01*
X4960000Y900000D02*
X5010000Y850000D01*
X5380000Y1450000D02*
X5540000Y1290000D01*
X4840000Y1530000D02*
X4920000Y1450000D01*
X5380000D01*
X5410000Y1500000D02*
X5570000Y1340000D01*
X4890000Y1570000D02*
X4960000Y1500000D01*
X5410000D01*
X3400000Y2340000D02*
X3400858D01*
X3410858Y2350000D02*
X6060000D01*
X3400858Y2340000D02*
X3410858Y2350000D01*
X920000Y2310000D02*
X4700000D01*
X850000Y2240000D02*
X920000Y2310000D01*
X16509054Y450000D02*
X16570000D01*
X3430000Y6000000D02*
X3500000D01*
X3420000Y5200000D02*
X3500000D01*
X16400000Y325000D02*
Y573757D01*
X16509054Y312205D02*
Y450000D01*
Y587795D01*
X1002756Y5562599D02*
X1057402D01*
X1070000Y5550000D01*
X1192717D01*
X14740000Y2100000D02*
X14920000Y2280000D01*
X16299999D02*
X16379999Y2360000D01*
X14920000Y2280000D02*
X16299999D01*
X14893858Y941642D02*
Y966142D01*
Y941642D02*
X14900000Y935500D01*
X14850000Y1010000D02*
X14893858Y966142D01*
X14800000Y810000D02*
X15334142D01*
X14760000Y850000D02*
X14800000Y810000D01*
X6660000Y850000D02*
X14760000D01*
X14740000Y520000D02*
Y590000D01*
X14800000Y650000D02*
X16520000D01*
X14740000Y590000D02*
X14800000Y650000D01*
X14050000Y1210000D02*
X14349142D01*
X14010000Y1250000D02*
X14050000Y1210000D01*
X9670000Y1250000D02*
X14010000D01*
X14250858Y540000D02*
X14260858Y550000D01*
X14620000D01*
X14250000Y540000D02*
X14250858D01*
X14620000Y550000D02*
X14760000Y690000D01*
X1150000Y2690000D02*
X2050000D01*
X3990000Y3260000D02*
X3990000Y3260000D01*
X3610000Y3260000D02*
X3990000D01*
X3990000Y3260000D02*
X3990000Y3260000D01*
X5106299D01*
X3550000Y3200000D02*
X3610000Y3260000D01*
X3560000Y3360000D02*
X3900000D01*
X3900000Y3360000D01*
X3900000Y3360000D01*
X5106299D01*
X3450000Y3250000D02*
X3560000Y3360000D01*
X12520000Y3110000D02*
X14210000D01*
X14200000Y5940000D02*
X14894500D01*
X12530000Y3010000D02*
X14280000D01*
Y5590000D02*
X14894500D01*
X12480000Y2850000D02*
X12540000Y2910000D01*
X12690000D02*
X12720000Y2940000D01*
X12540000Y2910000D02*
X12690000D01*
X12720000Y2940000D02*
X14350000D01*
Y5140000D02*
X14894500D01*
X7940000Y5300000D02*
X8550000Y4690000D01*
X7290000Y5300000D02*
X7940000D01*
X5040000Y5410000D02*
X6430000D01*
X4400000Y6050000D02*
X5040000Y5410000D01*
X5500000Y5600000D02*
X6990000D01*
X5450000Y5650000D02*
X5500000Y5600000D01*
X6990000D02*
X7290000Y5300000D01*
X5450000Y5650000D02*
Y5850000D01*
X4100000Y6050000D02*
X4400000D01*
X4100000Y5950000D02*
X4350000D01*
X4950000Y5350000D02*
X6550000D01*
X4350000Y5950000D02*
X4950000Y5350000D01*
X1650000Y4630000D02*
X7500000D01*
X3880000Y4750000D02*
X7340000D01*
X3730000Y4900000D02*
X3880000Y4750000D01*
X2210000Y3940000D02*
X7910000D01*
X2120000Y4020000D02*
X7960000D01*
X2070000Y4100000D02*
X8020000D01*
X2010000Y4170000D02*
X8070000D01*
X1390000Y4420000D02*
X6720000D01*
X1450000Y4330000D02*
X6670000D01*
X1520000Y4250000D02*
X6610000D01*
X2050000Y3780000D02*
X2210000Y3940000D01*
X1950000Y3850000D02*
X2120000Y4020000D01*
X1850000Y3880000D02*
X2070000Y4100000D01*
X1750000Y3910000D02*
X2010000Y4170000D01*
X1150000Y3880000D02*
X1520000Y4250000D01*
X950000Y3980000D02*
X1390000Y4420000D01*
X1050000Y3930000D02*
X1450000Y4330000D01*
X850000Y4010000D02*
X1330000Y4490000D01*
X6780000D01*
X1050000Y3600000D02*
Y3930000D01*
X1150000Y3600000D02*
Y3880000D01*
X5270000Y120000D02*
X5355858Y205858D01*
Y344142D01*
X930000Y120000D02*
X5270000D01*
X950000Y250000D02*
X1020000Y180000D01*
X5240000D02*
X5306299Y246299D01*
X1020000Y180000D02*
X5240000D01*
X850000Y200000D02*
X930000Y120000D01*
X4290000Y3110000D02*
X6210000D01*
X4380000Y3010000D02*
X6270000D01*
X2650000Y350000D02*
X2760000Y460000D01*
X4290000D01*
X2750000Y350000D02*
X2820000Y420000D01*
X4380000D01*
X14349142Y1210000D02*
X14359142Y1200000D01*
X14360000D01*
X9770000Y1150000D02*
X14310000D01*
X14700000Y730000D02*
X15960000D01*
X14620000Y650000D02*
X14700000Y730000D01*
X9160000Y650000D02*
X14620000D01*
X9260000Y750000D02*
X14620000D01*
X14640000Y770000D02*
X15674142D01*
X14620000Y750000D02*
X14640000Y770000D01*
X14450000Y410000D02*
X14630000D01*
X14740000Y520000D01*
X16219999Y690000D02*
X16280001Y750000D01*
X14760000Y690000D02*
X16219999D01*
X15960000Y730000D02*
X15980000Y750000D01*
X15674142Y770000D02*
X15680000Y775858D01*
Y1000000D01*
X15334142Y810000D02*
X15380000Y855858D01*
X15283398Y864500D02*
X15300000Y881102D01*
X15380000Y855858D02*
Y1000000D01*
X14900000Y864500D02*
X14983398D01*
X15200000D02*
X15283398D01*
X14983398D02*
X15000000Y881102D01*
X6760000Y950000D02*
X14610000D01*
X14750000Y1090000D01*
X14928898D01*
X15000000Y1018898D01*
X6810000Y160000D02*
X15240000D01*
X15290000Y210000D01*
X6760000D02*
X6810000Y160000D01*
X6770000Y90000D02*
X14979142D01*
X6660000Y200000D02*
X6770000Y90000D01*
X14979142D02*
X14989142Y80000D01*
X14990000D01*
X9080000Y1750000D02*
X15890000D01*
X8990000Y1650000D02*
X15590000D01*
X12990000Y3200000D02*
X16379999D01*
X12910000Y4070000D02*
X16340000D01*
X16500000Y4230000D01*
X16930000D01*
X17070000Y4090000D01*
X17010000Y3750000D02*
X17070000Y3810000D01*
Y4090000D01*
X16900000Y3750000D02*
X17010000D01*
X13010000Y2550000D02*
X14660000D01*
X14685000Y2575000D01*
X15002559D01*
X12900000Y2650000D02*
X14700000D01*
X14725000Y2625000D01*
X15002559D01*
X14410000Y2170000D02*
X14720000D01*
X14890000Y2340000D02*
X16270000D01*
X14720000Y2170000D02*
X14890000Y2340000D01*
X14370000Y2130000D02*
X14410000Y2170000D01*
X14370000Y2040000D02*
Y2130000D01*
Y2040000D02*
X14410000Y2000000D01*
X14506299D01*
Y2100000D02*
X14740000D01*
X13560000Y3950000D02*
X15320000D01*
X15520000Y3750000D01*
X15600000D01*
X13660000D02*
X15150000D01*
X13460000Y4210000D02*
X15320000D01*
X15510000Y4400000D02*
X15600000D01*
X15320000Y4210000D02*
X15510000Y4400000D01*
X13340000D02*
X15150000D01*
X13455000Y2710000D02*
X13495000Y2750000D01*
X14720000D01*
X12340000Y2710000D02*
X13455000D01*
X14720000Y2750000D02*
X14795000Y2675000D01*
X15002559D01*
X13456353Y2390000D02*
X13516353Y2450000D01*
X12460000Y2390000D02*
X13456353D01*
X13516353Y2450000D02*
X14720000D01*
X14795000Y2525000D01*
X15002559D01*
X4030000Y4850000D02*
X7400000D01*
X1260000Y4560000D02*
X7450000D01*
X9430000Y2450000D02*
X11290000D01*
X9380000Y2400000D02*
X9430000Y2450000D01*
X6800000Y2510000D02*
X6860000Y2450000D01*
X6920000Y2550000D02*
X7170000D01*
X6860000Y2610000D02*
X6920000Y2550000D01*
X10680000Y1350000D02*
X12720000D01*
X11590000Y1450000D02*
X12760000D01*
X12460000Y3050000D02*
X12520000Y3110000D01*
X12470000Y2950000D02*
X12530000Y3010000D01*
X7770000Y3040000D02*
X7780000Y3050000D01*
X12460000D01*
X7606299Y2960000D02*
X7623099D01*
X7703099Y3040000D01*
X7770000D01*
X7713099Y2950000D02*
X12470000D01*
X7623099Y2860000D02*
X7713099Y2950000D01*
X7606299Y2860000D02*
X7623099D01*
X7713099Y2850000D02*
X12480000D01*
X7623099Y2760000D02*
X7713099Y2850000D01*
X7606299Y2760000D02*
X7623099D01*
X7073099Y1850000D02*
X13260000D01*
X7073099Y1950000D02*
X13200000D01*
X7073099Y2050000D02*
X13140000D01*
X7073099Y2150000D02*
X13070000D01*
X7023099Y2100000D02*
X7073099Y2150000D01*
X7006299Y2100000D02*
X7023099D01*
X7006299Y2000000D02*
X7023099D01*
X7073099Y2050000D01*
X7023099Y1900000D02*
X7073099Y1950000D01*
X7006299Y1900000D02*
X7023099D01*
X7006299Y1800000D02*
X7023099D01*
X7073099Y1850000D01*
X7606299Y1900000D02*
X8140000D01*
X8140000Y1900000D01*
Y7350000D02*
X10220000D01*
X8240000Y7280000D02*
X8960000D01*
X10290000Y7190000D02*
Y7280000D01*
X10220000Y7350000D02*
X10290000Y7280000D01*
X8960000D02*
X8990000Y7250000D01*
Y7190000D02*
Y7250000D01*
X3900000Y4980000D02*
Y5470000D01*
Y4980000D02*
X4030000Y4850000D01*
X3780000Y5590000D02*
X3900000Y5470000D01*
X3720000Y5590000D02*
X3780000D01*
X6840000Y2910000D02*
X6880000Y2950000D01*
X2840000Y2910000D02*
X6840000D01*
X6880000Y2950000D02*
X7250000D01*
X2800000D02*
X2840000Y2910000D01*
X2800000Y2950000D02*
Y3050000D01*
X2760000Y2810000D02*
X6860000D01*
X2700000Y2870000D02*
X2760000Y2810000D01*
X6900000Y2850000D02*
X7210000D01*
X6860000Y2810000D02*
X6900000Y2850000D01*
X2700000Y2870000D02*
Y3050000D01*
X2790000Y2710000D02*
X6870000D01*
X2700000Y2620000D02*
X2790000Y2710000D01*
X6930000Y2650000D02*
X7130000D01*
X6870000Y2710000D02*
X6930000Y2650000D01*
X2700000Y2500000D02*
Y2620000D01*
X2800000Y2570000D02*
X2840000Y2610000D01*
X6860000D01*
X2800000Y2500000D02*
Y2570000D01*
X2050000Y3600000D02*
Y3780000D01*
X1950000Y3600000D02*
Y3850000D01*
X1850000Y3600000D02*
Y3880000D01*
X1750000Y3600000D02*
Y3910000D01*
X7460000Y1050000D02*
X7760000D01*
X7772706Y500000D02*
X9506299D01*
X7762706Y510000D02*
X7772706Y500000D01*
X7760000Y510000D02*
X7762706D01*
X850000Y3600000D02*
Y4010000D01*
X950000Y3600000D02*
Y3980000D01*
X3300000Y2420000D02*
X3300858D01*
X3310858Y2410000D01*
X5960000D01*
X5440000Y3260000D02*
X7606299D01*
X3800000Y3210000D02*
X5390000D01*
X5440000Y3260000D01*
X7558688Y3330000D02*
X7588688Y3360000D01*
X7606299D01*
X5160000Y3310000D02*
X5180000Y3330000D01*
X7558688D01*
X3740000Y3310000D02*
X5160000D01*
X3550000Y3050000D02*
Y3200000D01*
X3450000Y3050000D02*
Y3250000D01*
X2750000Y1570000D02*
X4890000D01*
X2650000Y1670000D02*
X2750000Y1570000D01*
X4920000Y1350000D02*
X5390000D01*
X3390000Y1480000D02*
X4790000D01*
X4920000Y1350000D01*
X2120000Y2000000D02*
X4790000D01*
X4840000Y1950000D02*
X5800000D01*
X4790000Y2000000D02*
X4840000Y1950000D01*
X4720000Y1960000D02*
X4830000Y1850000D01*
X2190000Y1960000D02*
X4720000D01*
X4830000Y1850000D02*
X5860000D01*
X3700000Y1010000D02*
X3740000Y970000D01*
X4980000D01*
X990000Y1010000D02*
X3700000D01*
X3680000Y900000D02*
X4960000D01*
X4980000Y970000D02*
X5000000Y950000D01*
X5760000D01*
X5180000Y880000D02*
X6360000D01*
X3350000Y850000D02*
Y910000D01*
X950000Y970000D02*
X990000Y1010000D01*
X3250000Y850000D02*
Y940000D01*
X850000Y1020000D02*
X880000Y1050000D01*
X5690000D01*
X950000Y850000D02*
Y970000D01*
X850000Y850000D02*
Y1020000D01*
X920000Y1150000D02*
X5410000D01*
X1000000Y1250000D02*
X5430000D01*
X950000Y1300000D02*
X1000000Y1250000D01*
X950000Y1300000D02*
Y1350000D01*
X850000Y1220000D02*
X920000Y1150000D01*
X850000Y1220000D02*
Y1350000D01*
X3300000Y1530000D02*
X4840000D01*
X3250000Y1480000D02*
X3300000Y1530000D01*
X3250000Y1350000D02*
Y1480000D01*
X5540000Y1290000D02*
X6410000D01*
X5500000Y1240000D02*
X6460000D01*
X5390000Y1350000D02*
X5500000Y1240000D01*
X3350000Y1350000D02*
Y1440000D01*
X3390000Y1480000D01*
X5620000Y1380000D02*
X6160000D01*
X2750000Y1720000D02*
Y1850000D01*
X4940000Y1610000D02*
X5000000Y1550000D01*
X5450000D02*
X5620000Y1380000D01*
X2750000Y1720000D02*
X2860000Y1610000D01*
X4940000D01*
X5000000Y1550000D02*
X5450000D01*
X5570000Y1340000D02*
X6110000D01*
X2650000Y1670000D02*
Y1850000D01*
X3250000Y1730000D02*
X3330000Y1650000D01*
X5300000D02*
X5340000Y1690000D01*
X3330000Y1650000D02*
X5300000D01*
X3380000Y1750000D02*
X6560000D01*
X5340000Y1690000D02*
X6510000D01*
X3250000Y1730000D02*
Y1850000D01*
X3350000Y1780000D02*
X3380000Y1750000D01*
X3350000Y1780000D02*
Y1850000D01*
X2150000Y1920000D02*
X2190000Y1960000D01*
X2150000Y1850000D02*
Y1920000D01*
X2050000Y1930000D02*
X2120000Y2000000D01*
X1590000Y2050000D02*
X5560000D01*
X1550000Y2010000D02*
X1590000Y2050000D01*
X2050000Y1850000D02*
Y1930000D01*
X1500000Y2150000D02*
X5510000D01*
X1550000Y1850000D02*
Y2010000D01*
X1450000Y2100000D02*
X1500000Y2150000D01*
X1450000Y1850000D02*
Y2100000D01*
X1040000Y2250000D02*
X5260000D01*
X950000Y2160000D02*
X1040000Y2250000D01*
X950000Y1850000D02*
Y2160000D01*
X850000Y1850000D02*
Y2240000D01*
X5606299Y400000D02*
Y683701D01*
X5540000Y750000D02*
X5606299Y683701D01*
X1450000Y500000D02*
X1700000Y750000D01*
X5540000D01*
X1450000Y350000D02*
Y500000D01*
X9870000Y1040000D02*
X9870858D01*
X9880858Y1050000D02*
X14249142D01*
X9870858Y1040000D02*
X9880858Y1050000D01*
X14249142D02*
X14259142Y1040000D01*
X14260000D01*
X7006299Y500000D02*
X7460000D01*
X7460000Y500000D01*
X7780000Y700000D02*
X9506299D01*
X7073099Y750000D02*
X7730000D01*
X7780000Y700000D01*
X7770000Y600000D02*
X9506299D01*
X7720000Y650000D02*
X7770000Y600000D01*
X7073099Y650000D02*
X7720000D01*
X7023099Y600000D02*
X7073099Y650000D01*
X7006299Y600000D02*
X7023099D01*
X7006299Y700000D02*
X7023099D01*
X7073099Y750000D01*
X16520000Y650000D02*
X16570000Y700000D01*
X15361102Y1018898D02*
X15380000Y1000000D01*
X15300000Y1018898D02*
X15361102D01*
X15600000D02*
X15661102D01*
X15680000Y1000000D01*
X15980000Y750000D02*
Y1000000D01*
X15961102Y1018898D02*
X15980000Y1000000D01*
X15900000Y1018898D02*
X15961102D01*
X16201101Y1020000D02*
X16260000D01*
X16200001Y1018898D02*
X16201101Y1020000D01*
X16260000D02*
X16280001Y1000000D01*
X15150000Y1010000D02*
X15185294Y974706D01*
Y950206D02*
Y974706D01*
Y950206D02*
X15200000Y935500D01*
X15485294Y950206D02*
X15500000Y935500D01*
X15450000Y1010000D02*
X15485294Y974706D01*
Y950206D02*
Y974706D01*
X15785294Y950206D02*
X15800000Y935500D01*
X15750000Y1010000D02*
X15785294Y974706D01*
Y950206D02*
Y974706D01*
X16085295Y950206D02*
X16100000Y935500D01*
X16085295Y950206D02*
Y974706D01*
X16049999Y1010000D02*
X16085295Y974706D01*
X16385294Y950206D02*
Y974706D01*
Y950206D02*
X16400000Y935500D01*
X16340000Y1020000D02*
X16385294Y974706D01*
X16280001Y750000D02*
Y1000000D01*
X16570000Y700000D02*
Y1000000D01*
X16551102Y1018898D02*
X16570000Y1000000D01*
X16500000Y1018898D02*
X16551102D01*
X14180000Y500000D02*
X14360000D01*
X14450000Y410000D01*
X14160000Y520000D02*
X14180000Y500000D01*
X6606299Y400000D02*
X6660000Y346299D01*
Y200000D02*
Y346299D01*
X6760000Y210000D02*
Y346299D01*
X6706299Y400000D02*
X6760000Y346299D01*
X1700000Y650000D02*
X5500000D01*
X1550000Y500000D02*
X1700000Y650000D01*
X1550000Y350000D02*
Y500000D01*
X5306299Y393701D02*
Y400000D01*
Y393701D02*
X5355858Y344142D01*
X850000Y200000D02*
Y350000D01*
X5306299Y246299D02*
Y300000D01*
X950000Y250000D02*
Y350000D01*
X1050000Y2750000D02*
X1950000D01*
X950000Y2850000D02*
X1850000D01*
X850000Y2950000D02*
X1750000D01*
X1700000Y6200000D02*
X1747244Y6247244D01*
Y6362598D01*
Y6437401D02*
X1784696D01*
X1797294Y6450000D01*
X1747244Y6362598D02*
X1837402D01*
X1797294Y6450000D02*
X1800000D01*
X1850000D01*
X1837402Y6362598D02*
X1850000Y6350000D01*
X1535500Y6300000D02*
Y6400000D01*
X1652756D01*
X1535500Y6200000D02*
X1700000D01*
X1000000Y5300000D02*
Y5450000D01*
X1747244Y4747244D02*
Y4862598D01*
X1535500Y4700000D02*
X1700000D01*
X1747244Y4747244D01*
X1120000Y5400000D02*
X1192717D01*
X1407284Y5367717D02*
Y5400000D01*
Y5367717D02*
X1450000Y5325000D01*
X1535500Y4800000D02*
Y4900000D01*
X1652756D01*
X1600000Y5350000D02*
Y5352706D01*
X1612598Y5365304D01*
Y5402756D01*
X1450000Y5325000D02*
X1926378D01*
X1690157Y5400000D02*
X1750000D01*
X1747244Y4937401D02*
X1784696D01*
X1797294Y4950000D01*
X1747244Y4862598D02*
X1839370D01*
X1797294Y4950000D02*
X1800000D01*
X1851968D01*
X1839370Y4862598D02*
X1851968Y4850000D01*
X925000Y5550000D02*
X927706D01*
X940304Y5562599D01*
X1002756D01*
X1000000Y5640158D02*
X1002756Y5637402D01*
X1000000Y5450000D02*
X1050000Y5500000D01*
X1192717D01*
X1097244Y5600000D02*
X1192717D01*
X1250000D01*
X1275000Y5575000D01*
X1325000Y5475000D02*
Y5550000D01*
Y5625000D01*
Y5475000D02*
X1350000Y5450000D01*
X1325000Y5625000D02*
X1350000Y5650000D01*
X1325000Y5550000D02*
X1407284D01*
X1350000Y5450000D02*
X1407284D01*
X1000000Y5640158D02*
Y5700000D01*
Y5750000D02*
Y5850000D01*
Y5750000D02*
X1100000Y5650000D01*
X1192717D01*
X1350000D02*
X1407284D01*
X1400000Y5747294D02*
Y5750000D01*
Y5747294D02*
X1407284Y5740011D01*
Y5700000D02*
Y5740011D01*
Y5500000D02*
X1414094Y5493189D01*
X1407284Y5450000D02*
X1424016D01*
X1430827Y5443189D01*
Y5441173D02*
Y5443189D01*
X1414094Y5493189D02*
X1449811D01*
X1430827Y5441173D02*
X1457500Y5414500D01*
X1449811Y5493189D02*
X1457500Y5485500D01*
X1500000D01*
X1457500Y5414500D02*
X1500000D01*
Y5485500D02*
X1643189D01*
X1407284Y5600000D02*
X1800000D01*
X1643189Y5485500D02*
X1650000Y5492311D01*
Y5497244D01*
X1687401Y5402756D02*
X1690157Y5400000D01*
X1800000Y5600000D02*
X1910488Y5710488D01*
X2008500Y4750000D02*
Y4908500D01*
X2100000Y4850000D02*
X2214500D01*
X2008500Y4908500D02*
X2050000Y4950000D01*
X2100000D01*
X2150000Y5075000D02*
Y5077706D01*
X2164500Y5092206D01*
Y5150000D01*
X2008500Y4750000D02*
X2100000D01*
X1850000D02*
X1941500D01*
X2285500Y4850000D02*
X3680000D01*
X3730000Y4900000D01*
X2400000Y5177706D02*
X2404976Y5182682D01*
X2400000Y5175000D02*
Y5177706D01*
X2000000Y5250000D02*
X2164500D01*
X2235500D02*
Y5254401D01*
X1950000Y5300000D02*
X2000000Y5250000D01*
X1950000Y5300000D02*
Y5348622D01*
X1926378Y5325000D02*
X1950000Y5348622D01*
X2047244Y5362598D02*
X2048195Y5363549D01*
X2149049D01*
X2150000Y5364500D01*
X1950000Y5348622D02*
Y5397244D01*
X1952756Y5400000D01*
X2047244Y5437401D02*
X2050000Y5440157D01*
X2150000Y5435500D02*
Y5500000D01*
X2050000Y5440157D02*
Y5500000D01*
X2150000D02*
X2210000Y5560000D01*
X2140431Y5689545D02*
X2154976Y5675000D01*
X2113161Y5689545D02*
X2140431D01*
X2102706Y5700000D02*
X2113161Y5689545D01*
X2235500Y5150000D02*
Y5250000D01*
X2404976Y5182682D02*
Y5225000D01*
X2235500Y5254401D02*
X2251775Y5270676D01*
X2256176D01*
X2260500Y5275000D01*
X2404976D01*
X2475000Y5325000D02*
X2525000Y5275000D01*
X2325000Y5325000D02*
X2404976D01*
X2475000D01*
X2282000Y5368000D02*
X2325000Y5325000D01*
X2252500Y5368000D02*
X2282000D01*
X2250000Y5370500D02*
X2252500Y5368000D01*
X2368618Y5375000D02*
X2404976D01*
X2320531Y5423087D02*
X2368618Y5375000D01*
X2301913Y5423087D02*
X2320531D01*
X2300000Y5425000D02*
X2301913Y5423087D01*
X2297294Y5425000D02*
X2300000D01*
X2292794Y5429500D02*
X2297294Y5425000D01*
X2250000Y5429500D02*
X2292794D01*
X2210000Y5560000D02*
X2820000D01*
X2350000Y5675000D02*
Y5677706D01*
X2359953Y5687659D01*
X2100000Y5700000D02*
X2102706D01*
X1910488Y5710488D02*
Y5814512D01*
X1950000Y5775000D02*
X2154976D01*
X1910488Y5814512D02*
X1950000Y5775000D01*
X1910488Y5814512D02*
Y5912402D01*
X2004976Y5875000D02*
X2012851D01*
X2027351Y5889500D01*
X2104976D01*
X2004976Y5949803D02*
Y6004976D01*
X2104976Y5960500D02*
Y6044976D01*
X2004976Y6004976D02*
X2025000Y6025000D01*
X2098032Y6450000D02*
X2100000Y6451968D01*
Y6550000D01*
X1850000D02*
X1941500D01*
X2008500D02*
X2100000D01*
X2359953Y5687659D02*
Y5750000D01*
X2225976Y5675000D02*
Y5775000D01*
Y5779401D01*
X2246576Y5800000D01*
X2359953D01*
X2479976D02*
X2550000D01*
X2429976Y5850000D02*
X2479976Y5800000D01*
X2288538Y5850000D02*
X2359953D01*
X2429976D01*
X2273038Y5865500D02*
X2288538Y5850000D01*
X2229976Y5865500D02*
X2273038D01*
X2359953Y5900000D02*
Y5940047D01*
X2229976Y5924500D02*
Y5925000D01*
X2279976Y5975000D01*
X2325000D02*
X2359953Y5940047D01*
X2279976Y5975000D02*
X2325000D01*
X2104976Y6044976D02*
X2180000Y6120000D01*
X2098032Y6350000D02*
X2214500D01*
X2742273Y5272227D02*
X2750000Y5264500D01*
X2597797Y5272227D02*
X2742273D01*
X2595024Y5275000D02*
X2597797Y5272227D01*
X2525000Y5275000D02*
X2595024D01*
Y5325000D02*
X2597797Y5327773D01*
X2742273D01*
X2750000Y5335500D01*
Y5414500D01*
X2920000Y5430000D02*
X2980000Y5370000D01*
X2595024Y5375000D02*
Y5442318D01*
X2600000Y5447294D01*
Y5450000D01*
X2635500Y5485500D01*
X2750000D01*
X3020000Y5500000D02*
X3090551D01*
Y5550000D01*
X2820000Y5560000D02*
X2860000Y5600000D01*
X3730000Y4900000D02*
Y5490000D01*
X2980000Y5370000D02*
X3270000D01*
X3300000Y5400000D01*
Y5450000D01*
X3500000Y5420472D02*
Y5508500D01*
X3300000Y5500000D02*
X3350000D01*
X3458500Y5550000D02*
X3500000Y5508500D01*
X3535500Y5550000D02*
X3680000D01*
X3300000D02*
X3458500D01*
X3680000D02*
X3720000Y5590000D01*
X3300000Y5600000D02*
X3360000D01*
X3020000D02*
X3090551D01*
X3022706Y5710000D02*
X3032706Y5700000D01*
X2950000Y5630000D02*
Y5790000D01*
X3020000Y5710000D02*
X3022706D01*
X2920000Y5430000D02*
Y6070000D01*
X2697249Y5797227D02*
X2704976Y5789500D01*
X2552773Y5797227D02*
X2697249D01*
X2550000Y5800000D02*
X2552773Y5797227D01*
X2950000Y5790000D02*
X2980000Y5820000D01*
X2550000Y5850000D02*
X2552773Y5852773D01*
X2697249D01*
X2704976Y5860500D01*
Y5939500D01*
X2550000Y5900000D02*
Y5975000D01*
X2585500Y6010500D01*
X2704976D01*
X2870000Y6120000D02*
X2920000Y6070000D01*
X2180000Y6120000D02*
X2870000D01*
X2285500Y6350000D02*
X3650000D01*
X3300000Y5650000D02*
X3464500D01*
X3535500D02*
X3610000D01*
X3464500D02*
Y5656000D01*
X3500000Y5691500D01*
X3090551Y5650000D02*
Y5700000D01*
X3032706D02*
X3090551D01*
X3300000D02*
X3350000D01*
X3500000Y5691500D02*
Y5779528D01*
X3300000Y5750000D02*
Y5790000D01*
X3270000Y5820000D02*
X3300000Y5790000D01*
X2980000Y5820000D02*
X3270000D01*
X3720000Y5590000D02*
Y6280000D01*
X3650000Y6350000D02*
X3720000Y6280000D01*
X15009055Y587795D02*
Y599606D01*
Y450000D02*
Y587795D01*
X14620000Y3110000D02*
X16420000Y3110000D01*
X16490000Y3180000D01*
Y3854500D01*
X16595598Y3964500D02*
X16600000D01*
X16579325Y3948225D02*
X16595598Y3964500D01*
X16579325Y3943824D02*
Y3948225D01*
X16490000Y3854500D02*
X16579325Y3943824D01*
X14670000Y3040000D02*
X16469999Y3040000D01*
X16389999Y2900000D02*
X16610001D01*
X16330000Y2840000D02*
X16389999Y2900000D01*
X16330000Y2400000D02*
Y2840000D01*
X16469999Y3040000D02*
X16559999Y3130000D01*
X16700001Y2785500D02*
Y3014500D01*
X16559999Y3130000D02*
Y3770000D01*
X16639999Y3850000D02*
X16900000D01*
X16559999Y3770000D02*
X16639999Y3850000D01*
X16600000Y3964500D02*
X16700001D01*
X16580000Y4110000D02*
X16600000Y4090000D01*
Y4035500D02*
Y4090000D01*
X16707251Y3957250D02*
X16892750D01*
X16900000Y3950000D01*
X16700001Y3964500D02*
X16707251Y3957250D01*
X16700001Y4035500D02*
X16885500D01*
X16900000Y4050000D01*
X16892750Y3657250D02*
X16900000Y3650000D01*
X16592751Y4042750D02*
X16600000Y4035500D01*
X16270000Y2340000D02*
X16330000Y2400000D01*
X16379999Y2360000D02*
Y2750000D01*
X16415501Y2785500D02*
X16700001D01*
X16379999Y2750000D02*
X16415501Y2785500D01*
X15197441Y2525000D02*
X15197803Y2524637D01*
X15245363D01*
X15270000Y2500000D01*
X15197441Y2675000D02*
X15255000D01*
X15280000Y2700000D01*
X15592750Y2642750D02*
X15600000Y2650000D01*
X15350000Y2635500D02*
X15357250Y2642750D01*
X15592750D01*
X15344750Y2630250D02*
X15350000Y2635500D01*
X15197441Y2625000D02*
X15202691Y2630250D01*
X15344750D01*
X15270916Y2575000D02*
X15281416Y2564500D01*
X15350000D01*
X15197441Y2575000D02*
X15270916D01*
X15357250Y2557250D02*
X15592750D01*
X15600000Y2550000D01*
X15350000Y2564500D02*
X15357250Y2557250D01*
X14275000Y6945000D02*
X14341500D01*
X14408500D02*
X14475000D01*
X16400000Y864500D02*
X16483398D01*
X16500000Y881102D01*
X15500000Y864500D02*
X15583398D01*
X15600000Y881102D01*
X17000000Y5520000D02*
Y5650000D01*
X16930000Y5504500D02*
X16984501D01*
X17000000Y5520000D01*
X16892597Y5757402D02*
X17000000Y5650000D01*
X16924000Y5575500D02*
X16930000D01*
X16844675Y5519176D02*
X16867676D01*
X16924000Y5575500D01*
X16746141Y5529500D02*
X16757954D01*
X16620001Y5420000D02*
Y5700000D01*
X16748087Y5141775D02*
Y5178087D01*
X16731812Y5125500D02*
X16748087Y5141775D01*
Y5178087D02*
X16750000Y5180000D01*
X16730000Y5125500D02*
X16731812D01*
X16850000Y5090000D02*
X16930000D01*
X16660000Y5050000D02*
X16664499Y5054500D01*
X16730000D01*
X16930000Y5305996D02*
Y5310472D01*
X16903503Y5279500D02*
X16930000Y5305996D01*
X16280001Y5475500D02*
X16282000Y5477500D01*
X15917401Y5355108D02*
Y5392756D01*
X15905000Y5342706D02*
X15917401Y5355108D01*
X16090000Y5120000D02*
Y5370000D01*
X16059999Y5090000D02*
X16090000Y5120000D01*
X16180000Y5475500D02*
X16280001D01*
X16124500Y5404500D02*
X16180000D01*
X16090000Y5370000D02*
X16124500Y5404500D01*
X16180000Y5280000D02*
Y5404500D01*
Y5280000D02*
X16230499Y5229500D01*
X16639500Y5279500D02*
X16746141D01*
X16750000Y5180000D02*
Y5225642D01*
X16746141Y5229500D02*
X16750000Y5225642D01*
X16513859Y5229500D02*
X16589500D01*
X16639500Y5279500D01*
X16230499Y5229500D02*
X16513859D01*
X16450251Y5279750D02*
X16513609D01*
X16450001Y5330000D02*
X16450251Y5329750D01*
X16513609D02*
X16513859Y5329500D01*
X16450251Y5329750D02*
X16513609D01*
Y5279750D02*
X16513859Y5279500D01*
X16450001Y5280000D02*
X16450251Y5279750D01*
X16500500Y5538280D02*
Y5640000D01*
X16568087Y5581913D02*
X16570000Y5580000D01*
X16500500Y5538280D02*
X16509029Y5529750D01*
X16513609D01*
X16568087Y5581913D02*
Y5631413D01*
X16559500Y5640000D02*
X16568087Y5631413D01*
X16590000Y5730000D02*
X16620001Y5700000D01*
X15920000Y5730000D02*
X16590000D01*
X16513609Y5529750D02*
X16513859Y5529500D01*
X16450001Y5530000D02*
X16450251Y5529750D01*
X16509029D01*
X16282000Y5477500D02*
X16511858D01*
X16513859Y5479500D01*
X16364500Y5404500D02*
X16389999Y5430000D01*
X16746141Y5279500D02*
X16903503D01*
X16579500Y5379500D02*
X16620001Y5420000D01*
X16513859Y5379500D02*
X16579500D01*
X16280001Y5404500D02*
X16364500D01*
X16389999Y5430000D02*
X16450001D01*
X15787294Y5570000D02*
X15790000D01*
X15652244Y5392756D02*
X15842598D01*
X15796766Y5504500D02*
X15814022Y5487244D01*
X15730000Y5504500D02*
X15796766D01*
X15814022Y5487244D02*
X15880000D01*
X15630000Y5415000D02*
Y5504500D01*
Y5415000D02*
X15652244Y5392756D01*
X15905000Y5340000D02*
Y5342706D01*
X16047745Y5987244D02*
X16930000D01*
X15986000Y5925500D02*
X16047745Y5987244D01*
X16892597Y5757402D02*
Y5892756D01*
X15428031Y5840000D02*
X15430000Y5838032D01*
Y5790000D02*
Y5838032D01*
X15428031Y5940000D02*
X15594500D01*
X15728098Y5127402D02*
X15832756D01*
X15715500Y5140000D02*
X15728098Y5127402D01*
X15927244Y5090000D02*
X16059999D01*
X15715500Y5040000D02*
X15763892D01*
X15430000Y5140000D02*
X15644500D01*
Y5040000D02*
Y5140000D01*
X16784500Y5575500D02*
X16830000D01*
X16760000Y5600000D02*
X16784500Y5575500D01*
X15781457Y5851299D02*
X15782756Y5852599D01*
X15731299Y5851299D02*
X15781457D01*
X15678098Y5927402D02*
X15782756D01*
X15781794Y5575500D02*
X15787294Y5570000D01*
X15630000Y5575500D02*
X15730000D01*
X15781794D01*
X15920618Y5854500D02*
X15980000D01*
Y5925500D02*
X15986000D01*
X15880000Y5487244D02*
Y5690000D01*
X15428031Y5490000D02*
X15430000Y5488032D01*
X15428031Y5590000D02*
X15480000D01*
X15505000Y5565000D01*
Y5540000D02*
X15540500Y5504500D01*
X15505000Y5540000D02*
Y5565000D01*
X15430000Y5440000D02*
Y5488032D01*
X15540500Y5504500D02*
X15630000D01*
X15763892Y5040000D02*
X15812283D01*
X15824882Y5052599D02*
X15832756D01*
X15812283Y5040000D02*
X15824882Y5052599D01*
X15730000Y5850000D02*
X15731299Y5851299D01*
X15594500Y5840000D02*
Y5940000D01*
X15727294Y5850000D02*
X15730000D01*
X15717294Y5840000D02*
X15727294Y5850000D01*
X15665500Y5840000D02*
X15717294D01*
X15665500Y5940000D02*
X15678098Y5927402D01*
X16757954Y5529500D02*
X16782953Y5504500D01*
X16830000D01*
X16844675Y5519176D01*
X15430000Y4990000D02*
Y5040000D01*
X15885118Y5890000D02*
X15920618Y5854500D01*
X15877244Y5890000D02*
X15885118D01*
X15880000Y5690000D02*
X15920000Y5730000D01*
X8940000Y5490000D02*
Y5554500D01*
X8731500Y5165000D02*
X8740000Y5156500D01*
X8665000Y5165000D02*
X8731500D01*
X8629500Y5565000D02*
X8640000Y5554500D01*
X8565000Y5565000D02*
X8629500D01*
X8840000Y5490000D02*
Y5556500D01*
X9990000Y5490000D02*
Y5554500D01*
Y5223500D02*
Y5490000D01*
X10190000D02*
Y5554500D01*
X9981500Y5165000D02*
X9990000Y5156500D01*
X9915000Y5165000D02*
X9981500D01*
X9879500Y5565000D02*
X9890000Y5554500D01*
X9815000Y5565000D02*
X9879500D01*
X10090000Y5490000D02*
Y5556500D01*
X15909055Y450000D02*
Y587795D01*
Y312205D02*
Y450000D01*
X15975000D01*
X15609055D02*
Y587795D01*
Y312205D02*
Y450000D01*
X15675000D01*
X15309055Y450006D02*
Y587801D01*
Y312211D02*
Y450006D01*
X15374994D01*
X15375000Y450000D01*
X16115931Y587798D02*
X16125000Y578729D01*
X16115931Y312208D02*
X16125000Y321278D01*
Y578729D01*
X16040501Y312205D02*
X16120464D01*
X16025000Y325000D02*
X16027706D01*
X16040501Y312205D01*
X15009055D02*
Y450000D01*
X15075000D01*
X16100000Y864500D02*
X16183397D01*
X16200001Y881102D01*
X15800000Y864500D02*
X15883398D01*
X15900000Y881102D01*
X16807087Y1348819D02*
X17063702D01*
X16805906Y1350000D02*
X16807087Y1348819D01*
X15790945Y312205D02*
Y587795D01*
X15712795Y312205D02*
X15790945D01*
X15700000Y325000D02*
X15712795Y312205D01*
X15490945D02*
Y587795D01*
X15412795Y312205D02*
X15490945D01*
X15400000Y325000D02*
X15412795Y312205D01*
X15190945Y312211D02*
Y587801D01*
X15112795Y312211D02*
X15190945D01*
X15100000Y325006D02*
X15112795Y312211D01*
X14800000Y325000D02*
X14812795Y312205D01*
X14890945D01*
Y587795D01*
D31*
X13229921Y6450000D02*
X13300000D01*
X13180000Y6499921D02*
X13229921Y6450000D01*
X13180000Y6499921D02*
Y6760000D01*
X12990000Y6950000D02*
X13180000Y6760000D01*
X12990000Y6950000D02*
Y7040000D01*
X12860000Y6500000D02*
X12910000Y6450000D01*
X13000000D01*
X12860000Y6500000D02*
Y6800000D01*
X12890000Y6830000D02*
Y7040000D01*
X12860000Y6800000D02*
X12890000Y6830000D01*
X12695278Y6454722D02*
X12700000Y6450000D01*
X12599997Y6454722D02*
X12695278D01*
X12550000Y6504719D02*
X12599997Y6454722D01*
X12550000Y6504719D02*
Y6710000D01*
X12610000Y6770000D01*
X12680000D01*
X12790000Y6880000D02*
Y7040000D01*
X12680000Y6770000D02*
X12790000Y6880000D01*
X12331293Y6450000D02*
X12400000D01*
X12270000Y6511293D02*
X12331293Y6450000D01*
X12270000Y6511293D02*
Y6730000D01*
X12400000Y6860000D01*
X12630000D01*
X12690000Y6920000D01*
Y7040000D01*
X575000Y5000000D02*
X1033504D01*
X575000Y4800000D02*
X1050000D01*
X1033504Y5000000D02*
X1050000Y5016496D01*
Y5020472D01*
X16225000Y6700000D02*
Y6795000D01*
Y6370000D02*
Y6700000D01*
X16080000Y6740250D02*
X16184750D01*
X15980000D02*
X16080000D01*
X16184750D02*
X16225000Y6700000D01*
X16696535Y6390000D02*
X16930000D01*
X16600000Y6486535D02*
X16696535Y6390000D01*
X15866220Y6906535D02*
X16113464D01*
X16225000Y6795000D01*
Y6370000D02*
X16325001Y6270000D01*
X16434647D01*
X14970000Y6940000D02*
X14970394Y6940394D01*
X15080000D01*
D32*
X13219332Y5900000D02*
X13300000D01*
X13180709Y5938624D02*
X13219332Y5900000D01*
X13180709Y5938624D02*
Y6311713D01*
X13218996Y6350000D01*
X13300000D01*
X12880709Y5949291D02*
X12930000Y5900000D01*
X13000000D01*
X12880709Y5949291D02*
Y6311713D01*
X12918996Y6350000D01*
X13000000D01*
X12629921Y5900000D02*
X12700000D01*
X12590000Y5939921D02*
X12629921Y5900000D01*
X12590000Y5939921D02*
Y6297090D01*
X12642910Y6350000D02*
X12700000D01*
X12590000Y6297090D02*
X12642910Y6350000D01*
X12320000Y5900000D02*
X12400000D01*
X12270000Y5950000D02*
X12320000Y5900000D01*
X12270000Y5950000D02*
Y6280000D01*
X12340000Y6350000D01*
X12400000D01*
X10590000Y5190000D02*
Y5556500D01*
Y5073307D02*
Y5190000D01*
X9340000Y5165000D02*
Y5556500D01*
Y5073307D02*
Y5165000D01*
X12011858Y7145905D02*
X12040000D01*
X11986818Y7120866D02*
X12011858Y7145905D01*
X11734646Y7025000D02*
X11919094D01*
X11986818Y7092724D02*
Y7120866D01*
X11919094Y7025000D02*
X11986818Y7092724D01*
X14000000Y5900000D02*
X14050000D01*
X13950000Y5950000D02*
X14000000Y5900000D01*
X13950000Y5950000D02*
Y6425000D01*
X13579921Y5900000D02*
X13650000D01*
X13550000Y5929921D02*
X13579921Y5900000D01*
X14000000Y6550000D02*
X14050000D01*
X13950000Y6600000D02*
X14000000Y6550000D01*
X13950000Y6600000D02*
Y7050000D01*
X13579921Y6450000D02*
X13650000D01*
X13550000Y5929921D02*
Y6420079D01*
X13579921Y6450000D01*
X13950000Y6425000D02*
X13975000Y6450000D01*
X14050000D01*
X13750000Y6575000D02*
Y7050000D01*
X13725000Y6550000D02*
X13750000Y6575000D01*
X13650000Y6550000D02*
X13725000D01*
X9190000Y5940000D02*
Y6206500D01*
X8640000Y5990000D02*
X8690000Y5940000D01*
X8890000D02*
Y6015000D01*
X15150000Y4510824D02*
X15181969Y4542792D01*
Y5040000D01*
X15150000Y4500000D02*
Y4510824D01*
X1447000Y6182500D02*
X1453000D01*
X1464500Y6194000D01*
Y6200000D01*
Y6300000D01*
X575000Y4700000D02*
X1464500D01*
X1050000Y4800000D02*
X1175000D01*
X1464500Y4700000D02*
Y4800000D01*
X1175000D02*
X1275000Y4900000D01*
X1464500D01*
X575000Y6150000D02*
X860000D01*
X575000Y6250000D02*
X1029528D01*
X575000Y6450000D02*
X1050000D01*
X860000Y6150000D02*
X910000Y6100000D01*
X1029528Y6250000D02*
X1050000Y6229528D01*
X1154528D01*
X910000Y6100000D02*
X1364500D01*
X1154528Y6229528D02*
X1325000Y6400000D01*
X1464500D01*
X1364500Y6100000D02*
X1447000Y6182500D01*
X15400000Y6260000D02*
X15400251Y6259749D01*
X15490000D01*
X15080000Y6590000D02*
X15277244D01*
X15393780Y6473465D01*
X15980000Y6639749D02*
X16080000D01*
X15909749D02*
X15980000D01*
X15870000Y6477244D02*
Y6600000D01*
X15866220Y6473465D02*
X15870000Y6477244D01*
Y6600000D02*
X15909749Y6639749D01*
X15760000Y6259749D02*
X15839749D01*
X15670000D02*
X15760000D01*
X15580000D02*
X15670000D01*
X15490000D02*
X15580000D01*
X15866220Y6286221D02*
Y6473465D01*
X15839749Y6259749D02*
X15866220Y6286221D01*
X15670000Y6360250D02*
X15760000D01*
X15580000D02*
X15670000D01*
X15490000D02*
X15580000D01*
X15419750D02*
X15490000D01*
X15393780Y6386221D02*
Y6473465D01*
Y6386221D02*
X15419750Y6360250D01*
X16797546Y3000000D02*
X16900000D01*
X16783047Y3014500D02*
X16797546Y3000000D01*
X16700001Y3014500D02*
X16783047D01*
X11634646Y6925000D02*
X11734646Y7025000D01*
X16450001Y5430000D02*
X16450500Y5429500D01*
X16746141D02*
X16809500D01*
X16746141Y5329500D02*
Y5379500D01*
Y5429500D01*
X16450500D02*
X16513859D01*
X16930000Y5987244D02*
Y6290000D01*
X17007244Y5892756D02*
X17030001Y5870000D01*
X16967402Y5892756D02*
X17007244D01*
X15181969Y5040000D02*
X15255000D01*
X14965500Y5140000D02*
X15181969D01*
X15180000Y5490000D02*
X15255000D01*
X15181654Y5838346D02*
X15231654D01*
X15180000Y5840000D02*
X15181654Y5838346D01*
X15231654D02*
X15255000Y5815000D01*
Y5490000D02*
Y5815000D01*
Y5040000D02*
Y5490000D01*
X14970000Y6590000D02*
X15080000D01*
X14965500Y5940000D02*
X15180000D01*
X14965500Y5590000D02*
X15180000D01*
X8740000Y5490000D02*
Y5554500D01*
Y5223500D02*
Y5490000D01*
X8640000Y5625500D02*
Y5740000D01*
X8740000Y5625500D02*
Y5740000D01*
X8840000Y5623500D02*
Y5740000D01*
X8940000Y5625500D02*
Y5740000D01*
X9140000Y5625500D02*
Y5740000D01*
X9340000Y5623500D02*
Y5740000D01*
X9306693Y5040000D02*
X9340000Y5073307D01*
X9290394Y5040000D02*
X9306693D01*
X9140000Y5554500D02*
X9141000Y5555500D01*
X9339000D01*
X9340000Y5556500D01*
X10190000Y5625500D02*
Y5740000D01*
X9890000Y5625500D02*
Y5740000D01*
X9990000Y5625500D02*
Y5740000D01*
X10090000Y5623500D02*
Y5740000D01*
X10390000Y5625500D02*
Y5740000D01*
X10590000Y5623500D02*
Y5740000D01*
X10556693Y5040000D02*
X10590000Y5073307D01*
X10540394Y5040000D02*
X10556693D01*
X10589000Y5555500D02*
X10590000Y5556500D01*
X10390000Y5554500D02*
X10391000Y5555500D01*
X10589000D01*
X10290000Y6540000D02*
X10354500Y6475500D01*
X10440000D01*
X9190000Y6339000D02*
Y6404500D01*
Y6273500D02*
Y6339000D01*
X9740000Y6390000D02*
X9790000D01*
X9840000D01*
X10440000Y6322500D02*
Y6404500D01*
Y6257000D02*
Y6322500D01*
X8490000Y6390000D02*
X8540000D01*
X8590000D01*
X10440000Y5940000D02*
Y6190000D01*
X10140000Y6240000D02*
X10290000D01*
Y6140000D02*
Y6240000D01*
X10340000Y5940000D02*
Y6090000D01*
X10290000Y6140000D02*
X10340000Y6090000D01*
X10140000Y5940000D02*
Y6040000D01*
X10040000Y6065000D02*
X10115000D01*
X10140000Y6040000D01*
X9990000Y6115000D02*
Y6206500D01*
Y6115000D02*
X10040000Y6065000D01*
X9890000Y5990000D02*
X9940000Y5940000D01*
X9890000Y5990000D02*
Y6206500D01*
Y6273500D02*
Y6340000D01*
X9840000Y6390000D02*
X9890000Y6340000D01*
X9690000Y6440000D02*
X9740000Y6390000D01*
X9690000Y6440000D02*
Y6590000D01*
Y6890000D01*
X9910472D02*
X10115000D01*
X10190000Y6965000D01*
Y7190000D01*
X9910472Y6590000D02*
Y6890000D01*
Y6444528D02*
Y6590000D01*
Y6444528D02*
X9990000Y6365000D01*
Y6273500D02*
Y6365000D01*
X8640000Y5990000D02*
Y6206500D01*
X8740000Y6165000D02*
X8890000Y6015000D01*
X8740000Y6165000D02*
Y6206500D01*
X8440000Y6590000D02*
Y6890000D01*
Y6440000D02*
Y6590000D01*
Y6440000D02*
X8490000Y6390000D01*
X8590000D02*
X8640000Y6340000D01*
Y6273500D02*
Y6340000D01*
X9040000Y6540000D02*
X9104500Y6475500D01*
X9190000D01*
X9040000Y6240000D02*
X9090000Y6190000D01*
Y5940000D02*
Y6190000D01*
X8890000Y6240000D02*
X9040000D01*
X8740000Y6273500D02*
Y6390000D01*
X8660472Y6469528D02*
Y6590000D01*
Y6469528D02*
X8740000Y6390000D01*
X8660472Y6590000D02*
Y6890000D01*
X8840000D01*
X8890000Y6940000D01*
Y7190000D01*
X8940000Y5040000D02*
Y5215000D01*
X9040000Y5315000D01*
Y5740000D01*
X10190000Y5215000D02*
X10290000Y5315000D01*
X10190000Y5040000D02*
Y5215000D01*
X10290000Y5315000D02*
Y5740000D01*
X16950001Y1500000D02*
X16998819Y1451181D01*
X17063702D01*
X16700001Y2714500D02*
X16707251Y2707250D01*
X16892750D01*
X16900000Y2700000D01*
X16885500Y3085500D02*
X16900000Y3100000D01*
X16700001Y3085500D02*
X16885500D01*
X16456299Y1862205D02*
X16743702D01*
X16450001Y1855906D02*
X16456299Y1862205D01*
X16450001Y1450000D02*
Y1650000D01*
X16574961Y1408898D02*
X16600000Y1383858D01*
X16491102Y1408898D02*
X16574961D01*
X16450001Y1450000D02*
X16491102Y1408898D01*
X16600000Y1350000D02*
Y1383858D01*
D33*
X4850000Y6050000D02*
Y6650000D01*
Y6050000D02*
X4950000Y5950000D01*
X4850000Y6650000D02*
X5166535Y6966535D01*
X5700000D02*
X5933465D01*
X6100000Y6000000D02*
Y6800000D01*
X5933465Y6966535D02*
X6100000Y6800000D01*
X6150000Y5950000D02*
X6250000D01*
X6100000Y6000000D02*
X6150000Y5950000D01*
X5166535Y6966535D02*
X5534646D01*
X4950000Y5950000D02*
X5050000D01*
X5300000Y6400000D02*
X5534646Y6634646D01*
Y6750000D01*
X5300000Y6000000D02*
Y6400000D01*
X5350000Y5950000D02*
X5450000D01*
X5300000Y6000000D02*
X5350000Y5950000D01*
X5700000Y6020627D02*
Y6750000D01*
Y6020627D02*
X5770627Y5950000D01*
X5850000D01*
D34*
X17170000Y1285828D02*
D03*
Y1514173D02*
D03*
D35*
X2098032Y6350000D02*
D03*
Y6450000D02*
D03*
X1850000Y6350000D02*
D03*
Y6450000D02*
D03*
X15430000Y5040000D02*
D03*
Y5140000D02*
D03*
X15181969Y5040000D02*
D03*
Y5140000D02*
D03*
X15428031Y5490000D02*
D03*
Y5590000D02*
D03*
X15180000Y5490000D02*
D03*
Y5590000D02*
D03*
X15428031Y5840000D02*
D03*
Y5940000D02*
D03*
X15180000Y5840000D02*
D03*
Y5940000D02*
D03*
X1851968Y4950000D02*
D03*
Y4850000D02*
D03*
X2100000Y4950000D02*
D03*
Y4850000D02*
D03*
D36*
X3650000Y2500000D02*
D03*
X3550000D02*
D03*
X3450000D02*
D03*
X13750000Y7050000D02*
D03*
X13850000D02*
D03*
X13950000D02*
D03*
X575000Y4800000D02*
D03*
Y4900000D02*
D03*
Y5000000D02*
D03*
Y6450000D02*
D03*
Y6350000D02*
D03*
Y6250000D02*
D03*
X3450000Y1850000D02*
D03*
X3350000D02*
D03*
X3250000D02*
D03*
X850000D02*
D03*
X950000D02*
D03*
X1050000D02*
D03*
X1450000D02*
D03*
X1550000D02*
D03*
X1650000D02*
D03*
X2050000D02*
D03*
X2150000D02*
D03*
X2250000D02*
D03*
X2650000D02*
D03*
X2750000D02*
D03*
X2850000D02*
D03*
X3250000Y1350000D02*
D03*
X3350000D02*
D03*
X3450000D02*
D03*
X1050000Y350000D02*
D03*
X950000D02*
D03*
X850000D02*
D03*
X1650000D02*
D03*
X1550000D02*
D03*
X1450000D02*
D03*
X2250000D02*
D03*
X2150000D02*
D03*
X2050000D02*
D03*
X2850000D02*
D03*
X2750000D02*
D03*
X2650000D02*
D03*
X850000Y1350000D02*
D03*
X950000D02*
D03*
X1050000D02*
D03*
X850000Y850000D02*
D03*
X950000D02*
D03*
X1050000D02*
D03*
X3250000Y350000D02*
D03*
X3350000D02*
D03*
X3450000D02*
D03*
X3250000Y850000D02*
D03*
X3350000D02*
D03*
X3450000D02*
D03*
X7450000Y6800000D02*
D03*
X7550000D02*
D03*
X7650000D02*
D03*
X2700000Y2500000D02*
D03*
X2800000D02*
D03*
X2900000D02*
D03*
X2700000Y3050000D02*
D03*
X2800000D02*
D03*
X2900000D02*
D03*
X2700000Y3600000D02*
D03*
X2800000D02*
D03*
X2900000D02*
D03*
X3650000D02*
D03*
X3550000D02*
D03*
X3450000D02*
D03*
X3650000Y3050000D02*
D03*
X3550000D02*
D03*
X3450000D02*
D03*
X10090000Y7190000D02*
D03*
X10190000D02*
D03*
X10290000D02*
D03*
X8790000D02*
D03*
X8890000D02*
D03*
X8990000D02*
D03*
X15600000Y2550000D02*
D03*
Y2650000D02*
D03*
Y2750000D02*
D03*
Y3850000D02*
D03*
Y3750000D02*
D03*
Y3650000D02*
D03*
X15150000D02*
D03*
Y3750000D02*
D03*
Y3850000D02*
D03*
Y4300000D02*
D03*
Y4400000D02*
D03*
Y4500000D02*
D03*
X15600000Y4300000D02*
D03*
Y4400000D02*
D03*
Y4500000D02*
D03*
D37*
X3350000Y2500000D02*
D03*
X3150000Y1850000D02*
D03*
X750000D02*
D03*
X1350000D02*
D03*
X1950000D02*
D03*
X2550000D02*
D03*
X3150000Y1350000D02*
D03*
X750000Y350000D02*
D03*
X1350000D02*
D03*
X1950000D02*
D03*
X2550000D02*
D03*
X750000Y1350000D02*
D03*
Y850000D02*
D03*
X3150000Y350000D02*
D03*
Y850000D02*
D03*
X7350000Y6800000D02*
D03*
X2600000Y2500000D02*
D03*
Y3050000D02*
D03*
Y3600000D02*
D03*
X3350000D02*
D03*
Y3050000D02*
D03*
D38*
X1292126Y3174016D02*
D03*
X17024015Y2557874D02*
D03*
Y3507874D02*
D03*
X1292126Y3724016D02*
D03*
Y2624016D02*
D03*
X2192126Y3724016D02*
D03*
Y2624016D02*
D03*
X13132126Y7164016D02*
D03*
X2192126Y3174016D02*
D03*
D39*
X1250000Y3050000D02*
D03*
X1150000D02*
D03*
X1050000D02*
D03*
X950000D02*
D03*
X850000D02*
D03*
X16900000Y3000000D02*
D03*
Y2900000D02*
D03*
Y2800000D02*
D03*
Y2700000D02*
D03*
Y2600000D02*
D03*
Y3550000D02*
D03*
Y3650000D02*
D03*
Y3750000D02*
D03*
Y3850000D02*
D03*
Y3950000D02*
D03*
X850000Y3600000D02*
D03*
X950000D02*
D03*
X1050000D02*
D03*
X1150000D02*
D03*
X1250000D02*
D03*
X850000Y2500000D02*
D03*
X950000D02*
D03*
X1050000D02*
D03*
X1150000D02*
D03*
X1250000D02*
D03*
X2150000Y3600000D02*
D03*
X2050000D02*
D03*
X1950000D02*
D03*
X1850000D02*
D03*
X1750000D02*
D03*
Y2500000D02*
D03*
X1850000D02*
D03*
X1950000D02*
D03*
X2050000D02*
D03*
X2150000D02*
D03*
X13090000Y7040000D02*
D03*
X12990000D02*
D03*
X12890000D02*
D03*
X12790000D02*
D03*
X12690000D02*
D03*
X1750000Y3050000D02*
D03*
X1850000D02*
D03*
X1950000D02*
D03*
X2050000D02*
D03*
X2150000D02*
D03*
D40*
X750000D02*
D03*
Y3600000D02*
D03*
Y2500000D02*
D03*
X1650000Y3600000D02*
D03*
Y2500000D02*
D03*
X12590000Y7040000D02*
D03*
X1650000Y3050000D02*
D03*
D41*
X12000000Y400000D02*
D03*
Y2683465D02*
D03*
X10070866Y400000D02*
D03*
Y2683465D02*
D03*
D42*
X10140000Y6240000D02*
D03*
Y6540000D02*
D03*
X10290000Y6240000D02*
D03*
Y6540000D02*
D03*
X9040000Y6240000D02*
D03*
Y6540000D02*
D03*
X8890000Y6240000D02*
D03*
Y6540000D02*
D03*
D43*
X16850393Y2258661D02*
D03*
Y1741339D02*
D03*
D44*
X16743702Y2137795D02*
D03*
Y2039370D02*
D03*
Y1960630D02*
D03*
D45*
Y1862205D02*
D03*
D46*
X10590000Y5740000D02*
D03*
X10540000Y5940000D02*
D03*
X10490000Y5740000D02*
D03*
X10440000Y5940000D02*
D03*
X10390000Y5740000D02*
D03*
X10340000Y5940000D02*
D03*
X10290000Y5740000D02*
D03*
X10240000Y5940000D02*
D03*
X10190000Y5740000D02*
D03*
X10140000Y5940000D02*
D03*
X10090000Y5740000D02*
D03*
X10040000Y5940000D02*
D03*
X9990000Y5740000D02*
D03*
X9940000Y5940000D02*
D03*
X9340000Y5740000D02*
D03*
X9290000Y5940000D02*
D03*
X9240000Y5740000D02*
D03*
X9190000Y5940000D02*
D03*
X9140000Y5740000D02*
D03*
X9090000Y5940000D02*
D03*
X9040000Y5740000D02*
D03*
X8990000Y5940000D02*
D03*
X8940000Y5740000D02*
D03*
X8890000Y5940000D02*
D03*
X8840000Y5740000D02*
D03*
X8790000Y5940000D02*
D03*
X8740000Y5740000D02*
D03*
X8690000Y5940000D02*
D03*
D47*
X9890000Y5740000D02*
D03*
X8640000D02*
D03*
D48*
X300000Y300000D02*
D03*
Y7200000D02*
D03*
X16950001Y7220000D02*
D03*
Y300000D02*
D03*
D49*
X5534646Y6966535D02*
D03*
X5700000D02*
D03*
Y6750000D02*
D03*
X5534646D02*
D03*
X11634646Y7141535D02*
D03*
X11800000D02*
D03*
Y6925000D02*
D03*
X11634646D02*
D03*
X16434647Y6486535D02*
D03*
X16600000D02*
D03*
Y6270000D02*
D03*
X16434647D02*
D03*
D50*
X12700000Y6350000D02*
D03*
Y5800000D02*
D03*
X16930000Y6290000D02*
D03*
X13650000Y6450000D02*
D03*
X14050000D02*
D03*
X13650000Y5800000D02*
D03*
X14050000D02*
D03*
X5450000Y5850000D02*
D03*
X5850000D02*
D03*
X6250000D02*
D03*
X5050000D02*
D03*
X12400000Y6350000D02*
D03*
X13000000D02*
D03*
X13300000D02*
D03*
X12400000Y5800000D02*
D03*
X13000000D02*
D03*
X13300000D02*
D03*
D51*
X12700000Y6450000D02*
D03*
Y6550000D02*
D03*
Y6000000D02*
D03*
Y5900000D02*
D03*
X16930000Y6390000D02*
D03*
Y6490000D02*
D03*
X800000Y5300000D02*
D03*
X900000D02*
D03*
Y5850000D02*
D03*
X800000D02*
D03*
X11790000Y6590000D02*
D03*
X11690000D02*
D03*
X13650000Y6650000D02*
D03*
Y6550000D02*
D03*
X14050000Y6650000D02*
D03*
Y6550000D02*
D03*
X13650000Y5900000D02*
D03*
Y6000000D02*
D03*
X14050000Y5900000D02*
D03*
Y6000000D02*
D03*
X5450000Y5950000D02*
D03*
Y6050000D02*
D03*
X5850000Y5950000D02*
D03*
Y6050000D02*
D03*
X6250000Y5950000D02*
D03*
Y6050000D02*
D03*
X5050000Y5950000D02*
D03*
Y6050000D02*
D03*
X12400000Y6450000D02*
D03*
Y6550000D02*
D03*
X13000000Y6450000D02*
D03*
Y6550000D02*
D03*
X13300000Y6450000D02*
D03*
Y6550000D02*
D03*
X12400000Y5900000D02*
D03*
Y6000000D02*
D03*
X13000000D02*
D03*
Y5900000D02*
D03*
X13300000Y6000000D02*
D03*
Y5900000D02*
D03*
D52*
X4100000Y6250000D02*
D03*
D53*
Y6150000D02*
D03*
Y5950000D02*
D03*
Y5850000D02*
D03*
Y5750000D02*
D03*
Y5650000D02*
D03*
Y5550000D02*
D03*
Y5450000D02*
D03*
Y5350000D02*
D03*
Y6050000D02*
D03*
D54*
X6550000Y6150000D02*
D03*
Y6050000D02*
D03*
Y5950000D02*
D03*
Y5850000D02*
D03*
Y5750000D02*
D03*
Y5650000D02*
D03*
Y5550000D02*
D03*
Y5450000D02*
D03*
Y5350000D02*
D03*
Y5250000D02*
D03*
X7750000Y5150000D02*
D03*
Y5250000D02*
D03*
Y5350000D02*
D03*
Y5450000D02*
D03*
Y5550000D02*
D03*
Y5650000D02*
D03*
Y5750000D02*
D03*
D55*
X7700000Y6400000D02*
D03*
Y5000000D02*
D03*
X6600000Y6400000D02*
D03*
Y5000000D02*
D03*
D56*
X17170000Y1262205D02*
D03*
Y1537795D02*
D03*
D57*
X17063702Y1301575D02*
D03*
Y1498425D02*
D03*
D58*
X5106299Y1200000D02*
D03*
Y1300000D02*
D03*
Y1400000D02*
D03*
Y1600000D02*
D03*
Y1100000D02*
D03*
Y3260000D02*
D03*
Y3360000D02*
D03*
Y3160000D02*
D03*
Y3060000D02*
D03*
Y700000D02*
D03*
Y800000D02*
D03*
Y900000D02*
D03*
Y1000000D02*
D03*
Y2300000D02*
D03*
Y2960000D02*
D03*
Y2660000D02*
D03*
Y2460000D02*
D03*
Y2560000D02*
D03*
Y2860000D02*
D03*
Y2760000D02*
D03*
Y2000000D02*
D03*
Y1700000D02*
D03*
Y1800000D02*
D03*
Y1900000D02*
D03*
Y2100000D02*
D03*
Y2200000D02*
D03*
X7006299Y3000000D02*
D03*
Y2900000D02*
D03*
Y2800000D02*
D03*
Y2700000D02*
D03*
Y2600000D02*
D03*
Y2500000D02*
D03*
Y2400000D02*
D03*
Y2300000D02*
D03*
Y1200000D02*
D03*
Y1400000D02*
D03*
Y2100000D02*
D03*
Y1900000D02*
D03*
Y1600000D02*
D03*
Y1800000D02*
D03*
Y1700000D02*
D03*
Y1500000D02*
D03*
Y2000000D02*
D03*
Y1100000D02*
D03*
Y1000000D02*
D03*
Y900000D02*
D03*
Y800000D02*
D03*
Y700000D02*
D03*
Y600000D02*
D03*
Y500000D02*
D03*
X7606299Y1200000D02*
D03*
Y1300000D02*
D03*
Y1400000D02*
D03*
Y1600000D02*
D03*
Y1100000D02*
D03*
Y3260000D02*
D03*
Y3360000D02*
D03*
Y3160000D02*
D03*
Y3060000D02*
D03*
Y700000D02*
D03*
Y800000D02*
D03*
Y900000D02*
D03*
Y1000000D02*
D03*
Y2300000D02*
D03*
Y2960000D02*
D03*
Y2660000D02*
D03*
Y2460000D02*
D03*
Y2560000D02*
D03*
Y2860000D02*
D03*
Y2760000D02*
D03*
Y2000000D02*
D03*
Y1700000D02*
D03*
Y1800000D02*
D03*
Y1900000D02*
D03*
Y2100000D02*
D03*
Y2200000D02*
D03*
X9506299Y3000000D02*
D03*
Y2900000D02*
D03*
Y2800000D02*
D03*
Y2700000D02*
D03*
Y2600000D02*
D03*
Y2500000D02*
D03*
Y2400000D02*
D03*
Y2300000D02*
D03*
Y1200000D02*
D03*
Y1400000D02*
D03*
Y2100000D02*
D03*
Y1900000D02*
D03*
Y1600000D02*
D03*
Y1800000D02*
D03*
Y1700000D02*
D03*
Y1500000D02*
D03*
Y2000000D02*
D03*
Y1100000D02*
D03*
Y1000000D02*
D03*
Y900000D02*
D03*
Y800000D02*
D03*
Y700000D02*
D03*
Y600000D02*
D03*
Y500000D02*
D03*
X12606299Y1200000D02*
D03*
Y1300000D02*
D03*
Y1400000D02*
D03*
Y1600000D02*
D03*
Y1100000D02*
D03*
Y3260000D02*
D03*
Y3360000D02*
D03*
Y3160000D02*
D03*
Y3060000D02*
D03*
Y700000D02*
D03*
Y800000D02*
D03*
Y900000D02*
D03*
Y1000000D02*
D03*
Y2300000D02*
D03*
Y2960000D02*
D03*
Y2660000D02*
D03*
Y2460000D02*
D03*
Y2560000D02*
D03*
Y2860000D02*
D03*
Y2760000D02*
D03*
Y2000000D02*
D03*
Y1700000D02*
D03*
Y1800000D02*
D03*
Y1900000D02*
D03*
Y2100000D02*
D03*
Y2200000D02*
D03*
X14506299Y3000000D02*
D03*
Y2900000D02*
D03*
Y2800000D02*
D03*
Y2700000D02*
D03*
Y2600000D02*
D03*
Y2500000D02*
D03*
Y2400000D02*
D03*
Y2300000D02*
D03*
Y1200000D02*
D03*
Y1400000D02*
D03*
Y2100000D02*
D03*
Y1900000D02*
D03*
Y1600000D02*
D03*
Y1800000D02*
D03*
Y1700000D02*
D03*
Y1500000D02*
D03*
Y2000000D02*
D03*
Y1100000D02*
D03*
Y1000000D02*
D03*
Y900000D02*
D03*
Y800000D02*
D03*
Y700000D02*
D03*
Y600000D02*
D03*
Y500000D02*
D03*
D59*
X5706299Y1500000D02*
D03*
X5106299Y550000D02*
D03*
Y3500000D02*
D03*
X7006299Y3550000D02*
D03*
Y300000D02*
D03*
X6806299Y1500000D02*
D03*
X8206299D02*
D03*
X7606299Y550000D02*
D03*
Y3500000D02*
D03*
X9506299Y3550000D02*
D03*
Y300000D02*
D03*
X9306299Y1500000D02*
D03*
X13206299D02*
D03*
X12606299Y550000D02*
D03*
Y3500000D02*
D03*
X14506299Y3550000D02*
D03*
Y300000D02*
D03*
X14306299Y1500000D02*
D03*
D60*
X5106299Y300000D02*
D03*
Y400000D02*
D03*
X5606299Y300000D02*
D03*
X5706299Y400000D02*
D03*
X5806299D02*
D03*
Y300000D02*
D03*
X5206299Y400000D02*
D03*
Y300000D02*
D03*
X5306299Y400000D02*
D03*
Y300000D02*
D03*
X5406299Y400000D02*
D03*
Y300000D02*
D03*
X5506299Y400000D02*
D03*
Y300000D02*
D03*
X5606299Y400000D02*
D03*
X5706299Y300000D02*
D03*
X6306299Y400000D02*
D03*
X6406299D02*
D03*
Y300000D02*
D03*
X6506299Y400000D02*
D03*
Y300000D02*
D03*
X6606299Y400000D02*
D03*
Y300000D02*
D03*
X6706299Y400000D02*
D03*
Y300000D02*
D03*
X6806299Y400000D02*
D03*
Y300000D02*
D03*
X6306299D02*
D03*
X5906299Y400000D02*
D03*
Y300000D02*
D03*
X6006299Y400000D02*
D03*
Y300000D02*
D03*
X6106299Y400000D02*
D03*
Y300000D02*
D03*
X6206299Y400000D02*
D03*
Y300000D02*
D03*
X7606299D02*
D03*
Y400000D02*
D03*
X8106299Y300000D02*
D03*
X8206299Y400000D02*
D03*
X8306299D02*
D03*
Y300000D02*
D03*
X7706299Y400000D02*
D03*
Y300000D02*
D03*
X7806299Y400000D02*
D03*
Y300000D02*
D03*
X7906299Y400000D02*
D03*
Y300000D02*
D03*
X8006299Y400000D02*
D03*
Y300000D02*
D03*
X8106299Y400000D02*
D03*
X8206299Y300000D02*
D03*
X8806299Y400000D02*
D03*
X8906299D02*
D03*
Y300000D02*
D03*
X9006299Y400000D02*
D03*
Y300000D02*
D03*
X9106299Y400000D02*
D03*
Y300000D02*
D03*
X9206299Y400000D02*
D03*
Y300000D02*
D03*
X9306299Y400000D02*
D03*
Y300000D02*
D03*
X8806299D02*
D03*
X8406299Y400000D02*
D03*
Y300000D02*
D03*
X8506299Y400000D02*
D03*
Y300000D02*
D03*
X8606299Y400000D02*
D03*
Y300000D02*
D03*
X8706299Y400000D02*
D03*
Y300000D02*
D03*
X12606299D02*
D03*
Y400000D02*
D03*
X13106299Y300000D02*
D03*
X13206299Y400000D02*
D03*
X13306299D02*
D03*
Y300000D02*
D03*
X12706299Y400000D02*
D03*
Y300000D02*
D03*
X12806299Y400000D02*
D03*
Y300000D02*
D03*
X12906299Y400000D02*
D03*
Y300000D02*
D03*
X13006299Y400000D02*
D03*
Y300000D02*
D03*
X13106299Y400000D02*
D03*
X13206299Y300000D02*
D03*
X13806299Y400000D02*
D03*
X13906299D02*
D03*
Y300000D02*
D03*
X14006299Y400000D02*
D03*
Y300000D02*
D03*
X14106299Y400000D02*
D03*
Y300000D02*
D03*
X14206299Y400000D02*
D03*
Y300000D02*
D03*
X14306299Y400000D02*
D03*
Y300000D02*
D03*
X13806299D02*
D03*
X13406299Y400000D02*
D03*
Y300000D02*
D03*
X13506299Y400000D02*
D03*
Y300000D02*
D03*
X13606299Y400000D02*
D03*
Y300000D02*
D03*
X13706299Y400000D02*
D03*
Y300000D02*
D03*
D61*
X5336299Y3280000D02*
D03*
X5236299Y3380000D02*
D03*
X5336299D02*
D03*
X5236299Y3480000D02*
D03*
X5336299D02*
D03*
X5236299Y3280000D02*
D03*
X7836299D02*
D03*
X7736299Y3380000D02*
D03*
X7836299D02*
D03*
X7736299Y3480000D02*
D03*
X7836299D02*
D03*
X7736299Y3280000D02*
D03*
X12836299D02*
D03*
X12736299Y3380000D02*
D03*
X12836299D02*
D03*
X12736299Y3480000D02*
D03*
X12836299D02*
D03*
X12736299Y3280000D02*
D03*
D62*
X5906299Y1595000D02*
D03*
Y1495000D02*
D03*
X6006299Y1595000D02*
D03*
Y1495000D02*
D03*
X6106299D02*
D03*
Y1595000D02*
D03*
X8406299D02*
D03*
Y1495000D02*
D03*
X8506299Y1595000D02*
D03*
Y1495000D02*
D03*
X8606299D02*
D03*
Y1595000D02*
D03*
X13406299D02*
D03*
Y1495000D02*
D03*
X13506299Y1595000D02*
D03*
Y1495000D02*
D03*
X13606299D02*
D03*
Y1595000D02*
D03*
D63*
X3500000Y5179528D02*
D03*
Y5400000D02*
D03*
X16930000Y5090000D02*
D03*
Y5310472D02*
D03*
X3500000Y6030000D02*
D03*
Y5809528D02*
D03*
X1050000Y6450000D02*
D03*
Y6229528D02*
D03*
Y5020472D02*
D03*
Y4800000D02*
D03*
D64*
X15080000Y6590000D02*
D03*
Y6940394D02*
D03*
D65*
X12000000Y5100000D02*
D03*
X12393701D02*
D03*
D66*
X16450001Y1855906D02*
D03*
Y1650000D02*
D03*
X12040000Y6940000D02*
D03*
Y7145905D02*
D03*
D67*
X9690000Y6590000D02*
D03*
X9910472D02*
D03*
X8440000Y6890000D02*
D03*
X8660472D02*
D03*
X8440000Y6590000D02*
D03*
X8660472D02*
D03*
X9690000Y6890000D02*
D03*
X9910472D02*
D03*
D68*
X8940000Y5040000D02*
D03*
X9290394D02*
D03*
X10190000D02*
D03*
X10540394D02*
D03*
D69*
X1000000Y5300000D02*
D03*
Y5850000D02*
D03*
X11590000Y6590000D02*
D03*
D70*
X575000Y4700000D02*
D03*
Y6150000D02*
D03*
X15600000Y2450000D02*
D03*
D71*
X16600000Y1350000D02*
D03*
X16805906D02*
D03*
D72*
X16900000Y3100000D02*
D03*
Y4050000D02*
D03*
D73*
X4550000Y5400000D02*
D03*
Y6190000D02*
D03*
D74*
X4930000Y820000D02*
D03*
X6300000D02*
D03*
X6060000Y2350000D02*
D03*
X3400000Y2340000D02*
D03*
X4700000Y2310000D02*
D03*
X16570000Y450000D02*
D03*
X16340000D02*
D03*
X16280001D02*
D03*
X2050000Y2690000D02*
D03*
X1150000D02*
D03*
X3990000Y3260000D02*
D03*
X3900000Y3360000D02*
D03*
X14050000Y4900000D02*
D03*
X14210000Y3110000D02*
D03*
X14200000Y5940000D02*
D03*
X14280000Y3010000D02*
D03*
Y5590000D02*
D03*
X14350000Y2940000D02*
D03*
Y5140000D02*
D03*
X8380000Y4690000D02*
D03*
X8550000D02*
D03*
X8720000D02*
D03*
X8870000D02*
D03*
X6430000Y5410000D02*
D03*
X9210000Y3690000D02*
D03*
X9260000Y3750000D02*
D03*
X9310000Y3810000D02*
D03*
X9360000Y3870000D02*
D03*
X7500000Y4630000D02*
D03*
X7340000Y4750000D02*
D03*
X1650000Y4630000D02*
D03*
X7910000Y3940000D02*
D03*
X7960000Y4020000D02*
D03*
X8020000Y4100000D02*
D03*
X8070000Y4170000D02*
D03*
X6720000Y4420000D02*
D03*
X6670000Y4330000D02*
D03*
X6610000Y4250000D02*
D03*
X6780000Y4490000D02*
D03*
X13650000Y4775000D02*
D03*
X8475000Y3950000D02*
D03*
X8400000Y4075000D02*
D03*
X4290000Y3110000D02*
D03*
X6270000Y3010000D02*
D03*
X6210000Y3110000D02*
D03*
X4380000Y3010000D02*
D03*
X4290000Y460000D02*
D03*
X4380000Y420000D02*
D03*
X14360000Y1200000D02*
D03*
X14310000Y1150000D02*
D03*
X14990000Y80000D02*
D03*
X15290000Y210000D02*
D03*
X15890000Y1750000D02*
D03*
X15590000Y1650000D02*
D03*
X8990000D02*
D03*
X9080000Y1750000D02*
D03*
X16219999Y1340000D02*
D03*
Y1280000D02*
D03*
X14230000Y1340000D02*
D03*
X14090000Y1280000D02*
D03*
X12990000Y3200000D02*
D03*
X16379999D02*
D03*
X12910000Y4070000D02*
D03*
X13010000Y2550000D02*
D03*
X12900000Y2650000D02*
D03*
X14670000Y3040000D02*
D03*
X14620000Y3110000D02*
D03*
X13560000Y3950000D02*
D03*
X13660000Y3750000D02*
D03*
X13460000Y4210000D02*
D03*
X13340000Y4400000D02*
D03*
X12340000Y2710000D02*
D03*
X12460000Y2390000D02*
D03*
X7400000Y4850000D02*
D03*
X7450000Y4560000D02*
D03*
X11290000Y2450000D02*
D03*
X10970000Y1540000D02*
D03*
X10680000Y1350000D02*
D03*
X12720000D02*
D03*
X10680000Y4320000D02*
D03*
X10970000Y4430000D02*
D03*
X11590000Y1450000D02*
D03*
X11360000Y6840000D02*
D03*
X12810000Y1540000D02*
D03*
X12760000Y1450000D02*
D03*
X13260000Y1850000D02*
D03*
X13200000Y1950000D02*
D03*
X13140000Y2050000D02*
D03*
X13070000Y2150000D02*
D03*
X8240000Y1800000D02*
D03*
X8140000Y7350000D02*
D03*
X8240000Y7280000D02*
D03*
X8140000Y1900000D02*
D03*
X1260000Y4560000D02*
D03*
X7250000Y2950000D02*
D03*
X7210000Y2850000D02*
D03*
X7130000Y2650000D02*
D03*
X7170000Y2550000D02*
D03*
X7760000Y1050000D02*
D03*
Y510000D02*
D03*
X5960000Y2410000D02*
D03*
X3300000Y2420000D02*
D03*
X3800000Y3210000D02*
D03*
X3740000Y3310000D02*
D03*
X6360000Y880000D02*
D03*
X5180000D02*
D03*
X5760000Y950000D02*
D03*
X5690000Y1050000D02*
D03*
X5410000Y1150000D02*
D03*
X5430000Y1250000D02*
D03*
X6410000Y1290000D02*
D03*
X6460000Y1240000D02*
D03*
X6110000Y1340000D02*
D03*
X6160000Y1380000D02*
D03*
X6560000Y1750000D02*
D03*
X6510000Y1690000D02*
D03*
X5860000Y1850000D02*
D03*
X5800000Y1950000D02*
D03*
X5510000Y2150000D02*
D03*
X5560000Y2050000D02*
D03*
X5260000Y2250000D02*
D03*
X9670000Y1250000D02*
D03*
X14260000Y1040000D02*
D03*
X9770000Y1150000D02*
D03*
X9870000Y1040000D02*
D03*
X7460000Y1050000D02*
D03*
Y500000D02*
D03*
X6660000Y850000D02*
D03*
X6760000Y950000D02*
D03*
X9160000Y650000D02*
D03*
X9260000Y750000D02*
D03*
X14850000Y1010000D02*
D03*
X15150000D02*
D03*
X15450000D02*
D03*
X15750000D02*
D03*
X16049999D02*
D03*
X16340000Y1020000D02*
D03*
X14250000Y540000D02*
D03*
X14160000Y520000D02*
D03*
X1950000Y2750000D02*
D03*
X1850000Y2850000D02*
D03*
X1750000Y2950000D02*
D03*
X1050000Y2750000D02*
D03*
X950000Y2850000D02*
D03*
X850000Y2950000D02*
D03*
X1850000Y4750000D02*
D03*
X2100000D02*
D03*
X1800000Y4950000D02*
D03*
X1600000Y5350000D02*
D03*
X1120000Y5400000D02*
D03*
X1750000D02*
D03*
X2050000Y5500000D02*
D03*
X1325000Y5550000D02*
D03*
X925000D02*
D03*
X1275000Y5575000D02*
D03*
X1000000Y5700000D02*
D03*
X1400000Y5750000D02*
D03*
X2025000Y6025000D02*
D03*
X1800000Y6450000D02*
D03*
X1850000Y6550000D02*
D03*
X2150000Y5075000D02*
D03*
X2400000Y5175000D02*
D03*
X3420000Y5200000D02*
D03*
X2300000Y5425000D02*
D03*
X2600000Y5450000D02*
D03*
X3730000Y5490000D02*
D03*
X3020000Y5500000D02*
D03*
X3350000D02*
D03*
X2860000Y5600000D02*
D03*
X3360000D02*
D03*
X3020000D02*
D03*
X2950000Y5630000D02*
D03*
X3610000Y5650000D02*
D03*
X2350000Y5675000D02*
D03*
X2100000Y5700000D02*
D03*
X3350000D02*
D03*
X3020000Y5710000D02*
D03*
X2325000Y5975000D02*
D03*
X2550000D02*
D03*
X3430000Y6000000D02*
D03*
X2100000Y6550000D02*
D03*
X15400000Y6260000D02*
D03*
X16580000Y4110000D02*
D03*
X16610001Y2900000D02*
D03*
X15270000Y2500000D02*
D03*
X15280000Y2700000D02*
D03*
X14275000Y6945000D02*
D03*
X14475000D02*
D03*
X15430000Y5440000D02*
D03*
Y4990000D02*
D03*
Y5790000D02*
D03*
X15763892Y5040000D02*
D03*
X15905000Y5340000D02*
D03*
X15790000Y5570000D02*
D03*
X15730000Y5850000D02*
D03*
X16450001Y5530000D02*
D03*
Y5330000D02*
D03*
Y5280000D02*
D03*
X16660000Y5050000D02*
D03*
X16570000Y5580000D02*
D03*
X16760000Y5600000D02*
D03*
X16750000Y5180000D02*
D03*
X16850000Y5090000D02*
D03*
X8740000Y5490000D02*
D03*
X8940000D02*
D03*
X8665000Y5165000D02*
D03*
X8565000Y5565000D02*
D03*
X8840000Y5490000D02*
D03*
X9990000D02*
D03*
X10190000D02*
D03*
X9915000Y5165000D02*
D03*
X9815000Y5565000D02*
D03*
X10090000Y5490000D02*
D03*
X15975000Y450000D02*
D03*
X15675000D02*
D03*
X15375000D02*
D03*
X15425000D02*
D03*
X15125000D02*
D03*
X16049999D02*
D03*
X16025000Y325000D02*
D03*
X15735500Y450000D02*
D03*
X14800000D02*
D03*
X15075000D02*
D03*
X16375000Y1450000D02*
D03*
X16424999Y1400000D02*
D03*
X16375000D02*
D03*
Y1300000D02*
D03*
X16424999D02*
D03*
X16475000D02*
D03*
X16525000D02*
D03*
X16375000Y1350000D02*
D03*
X16424999D02*
D03*
X16475000D02*
D03*
X16525000D02*
D03*
X16400000Y325000D02*
D03*
X15700000D02*
D03*
X15400000D02*
D03*
X15100000Y325006D02*
D03*
X14800000Y325000D02*
D03*
D75*
X16820000Y5430000D02*
D03*
X16450001D02*
D03*
X14970000Y6940000D02*
D03*
Y6590000D02*
D03*
X17030001Y5870000D02*
D03*
X9340000Y5165000D02*
D03*
X10590000Y5190000D02*
D03*
X10440000Y6322500D02*
D03*
X9790000Y6390000D02*
D03*
X8540000D02*
D03*
X9190000Y6339000D02*
D03*
X8940000Y5165000D02*
D03*
X10190000Y5190000D02*
D03*
X12090000Y6790000D02*
D03*
X11990000D02*
D03*
Y6690000D02*
D03*
X12090000D02*
D03*
Y6590000D02*
D03*
X11990000D02*
D03*
D76*
X16950001Y1500000D02*
D03*
%TF.MD5,94eca7cc2ce7cc10b3b5a3d890d3f0d3*%
M02*
