%TF.GenerationSoftware,Altium Limited,Altium Designer,21.6.4 (81)*%
G04 Layer_Color=255*
%FSLAX26Y26*%
%MOIN*%
%TF.SameCoordinates,892991E7-994B-4F78-B437-02A20B6E2807*%
%TF.FilePolarity,Positive*%
%TF.FileFunction,Pads,Top*%
%TF.Part,Single*%
G01*
G75*
%TA.AperFunction,SMDPad,CuDef*%
%ADD10R,0.039370X0.023622*%
%ADD11R,0.051181X0.027559*%
G04:AMPARAMS|DCode=12|XSize=77.559mil|YSize=23.228mil|CornerRadius=2.904mil|HoleSize=0mil|Usage=FLASHONLY|Rotation=0.000|XOffset=0mil|YOffset=0mil|HoleType=Round|Shape=RoundedRectangle|*
%AMROUNDEDRECTD12*
21,1,0.077559,0.017421,0,0,0.0*
21,1,0.071752,0.023228,0,0,0.0*
1,1,0.005807,0.035876,-0.008711*
1,1,0.005807,-0.035876,-0.008711*
1,1,0.005807,-0.035876,0.008711*
1,1,0.005807,0.035876,0.008711*
%
%ADD12ROUNDEDRECTD12*%
%ADD13R,0.057087X0.023622*%
%ADD14R,0.046457X0.022835*%
%ADD15R,0.097211X0.024493*%
G04:AMPARAMS|DCode=16|XSize=97.211mil|YSize=24.493mil|CornerRadius=12.247mil|HoleSize=0mil|Usage=FLASHONLY|Rotation=0.000|XOffset=0mil|YOffset=0mil|HoleType=Round|Shape=RoundedRectangle|*
%AMROUNDEDRECTD16*
21,1,0.097211,0.000000,0,0,0.0*
21,1,0.072718,0.024493,0,0,0.0*
1,1,0.024493,0.036359,0.000000*
1,1,0.024493,-0.036359,0.000000*
1,1,0.024493,-0.036359,0.000000*
1,1,0.024493,0.036359,0.000000*
%
%ADD16ROUNDEDRECTD16*%
%ADD17R,0.065284X0.043523*%
%ADD18R,0.059055X0.059055*%
%ADD19R,0.098425X0.098425*%
%TA.AperFunction,ConnectorPad*%
%ADD20R,0.061024X0.059055*%
G04:AMPARAMS|DCode=21|XSize=15.748mil|YSize=53.15mil|CornerRadius=3.937mil|HoleSize=0mil|Usage=FLASHONLY|Rotation=90.000|XOffset=0mil|YOffset=0mil|HoleType=Round|Shape=RoundedRectangle|*
%AMROUNDEDRECTD21*
21,1,0.015748,0.045276,0,0,90.0*
21,1,0.007874,0.053150,0,0,90.0*
1,1,0.007874,0.022638,0.003937*
1,1,0.007874,0.022638,-0.003937*
1,1,0.007874,-0.022638,-0.003937*
1,1,0.007874,-0.022638,0.003937*
%
%ADD21ROUNDEDRECTD21*%
%TA.AperFunction,SMDPad,CuDef*%
G04:AMPARAMS|DCode=22|XSize=55mil|YSize=43mil|CornerRadius=7.955mil|HoleSize=0mil|Usage=FLASHONLY|Rotation=90.000|XOffset=0mil|YOffset=0mil|HoleType=Round|Shape=RoundedRectangle|*
%AMROUNDEDRECTD22*
21,1,0.055000,0.027090,0,0,90.0*
21,1,0.039090,0.043000,0,0,90.0*
1,1,0.015910,0.013545,0.019545*
1,1,0.015910,0.013545,-0.019545*
1,1,0.015910,-0.013545,-0.019545*
1,1,0.015910,-0.013545,0.019545*
%
%ADD22ROUNDEDRECTD22*%
G04:AMPARAMS|DCode=23|XSize=35mil|YSize=34mil|CornerRadius=5.95mil|HoleSize=0mil|Usage=FLASHONLY|Rotation=270.000|XOffset=0mil|YOffset=0mil|HoleType=Round|Shape=RoundedRectangle|*
%AMROUNDEDRECTD23*
21,1,0.035000,0.022100,0,0,270.0*
21,1,0.023100,0.034000,0,0,270.0*
1,1,0.011900,-0.011050,-0.011550*
1,1,0.011900,-0.011050,0.011550*
1,1,0.011900,0.011050,0.011550*
1,1,0.011900,0.011050,-0.011550*
%
%ADD23ROUNDEDRECTD23*%
%ADD24R,0.055118X0.078740*%
G04:AMPARAMS|DCode=25|XSize=35mil|YSize=34mil|CornerRadius=5.95mil|HoleSize=0mil|Usage=FLASHONLY|Rotation=180.000|XOffset=0mil|YOffset=0mil|HoleType=Round|Shape=RoundedRectangle|*
%AMROUNDEDRECTD25*
21,1,0.035000,0.022100,0,0,180.0*
21,1,0.023100,0.034000,0,0,180.0*
1,1,0.011900,-0.011550,0.011050*
1,1,0.011900,0.011550,0.011050*
1,1,0.011900,0.011550,-0.011050*
1,1,0.011900,-0.011550,-0.011050*
%
%ADD25ROUNDEDRECTD25*%
%ADD26R,0.023622X0.039370*%
G04:AMPARAMS|DCode=27|XSize=55mil|YSize=43mil|CornerRadius=7.955mil|HoleSize=0mil|Usage=FLASHONLY|Rotation=180.000|XOffset=0mil|YOffset=0mil|HoleType=Round|Shape=RoundedRectangle|*
%AMROUNDEDRECTD27*
21,1,0.055000,0.027090,0,0,180.0*
21,1,0.039090,0.043000,0,0,180.0*
1,1,0.015910,-0.019545,0.013545*
1,1,0.015910,0.019545,0.013545*
1,1,0.015910,0.019545,-0.013545*
1,1,0.015910,-0.019545,-0.013545*
%
%ADD27ROUNDEDRECTD27*%
%ADD35R,0.043307X0.035433*%
%TA.AperFunction,ComponentPad*%
%ADD36C,0.060000*%
%ADD37R,0.060000X0.060000*%
%ADD38C,0.081102*%
%ADD39C,0.075000*%
%ADD40R,0.075000X0.075000*%
%ADD41C,0.236220*%
%ADD42C,0.047244*%
%ADD43C,0.090551*%
%ADD44C,0.056221*%
%ADD45R,0.056221X0.056221*%
%ADD46C,0.070000*%
%ADD47R,0.070000X0.070000*%
%ADD48C,0.244095*%
%ADD49C,0.118110*%
%ADD50R,0.062992X0.062992*%
%ADD51C,0.062992*%
%ADD52R,0.059055X0.059055*%
%ADD53C,0.059055*%
%ADD54C,0.074000*%
%ADD55C,0.130000*%
G04:AMPARAMS|DCode=56|XSize=37.402mil|YSize=61.024mil|CornerRadius=18.701mil|HoleSize=0mil|Usage=FLASHONLY|Rotation=270.000|XOffset=0mil|YOffset=0mil|HoleType=Round|Shape=RoundedRectangle|*
%AMROUNDEDRECTD56*
21,1,0.037402,0.023622,0,0,270.0*
21,1,0.000000,0.061024,0,0,270.0*
1,1,0.037402,-0.011811,0.000000*
1,1,0.037402,-0.011811,0.000000*
1,1,0.037402,0.011811,0.000000*
1,1,0.037402,0.011811,0.000000*
%
%ADD56ROUNDEDRECTD56*%
G04:AMPARAMS|DCode=57|XSize=49.213mil|YSize=37.402mil|CornerRadius=18.701mil|HoleSize=0mil|Usage=FLASHONLY|Rotation=270.000|XOffset=0mil|YOffset=0mil|HoleType=Round|Shape=RoundedRectangle|*
%AMROUNDEDRECTD57*
21,1,0.049213,0.000000,0,0,270.0*
21,1,0.011811,0.037402,0,0,270.0*
1,1,0.037402,0.000000,-0.005906*
1,1,0.037402,0.000000,0.005906*
1,1,0.037402,0.000000,0.005906*
1,1,0.037402,0.000000,-0.005906*
%
%ADD57ROUNDEDRECTD57*%
%ADD58O,0.089600X0.056000*%
%ADD59C,0.125980*%
G04:AMPARAMS|DCode=60|XSize=66mil|YSize=66mil|CornerRadius=0mil|HoleSize=0mil|Usage=FLASHONLY|Rotation=0.000|XOffset=0mil|YOffset=0mil|HoleType=Round|Shape=Octagon|*
%AMOCTAGOND60*
4,1,8,0.033000,-0.016500,0.033000,0.016500,0.016500,0.033000,-0.016500,0.033000,-0.033000,0.016500,-0.033000,-0.016500,-0.016500,-0.033000,0.016500,-0.033000,0.033000,-0.016500,0.0*
%
%ADD60OCTAGOND60*%

G04:AMPARAMS|DCode=61|XSize=61.02mil|YSize=61.02mil|CornerRadius=0mil|HoleSize=0mil|Usage=FLASHONLY|Rotation=90.000|XOffset=0mil|YOffset=0mil|HoleType=Round|Shape=Octagon|*
%AMOCTAGOND61*
4,1,8,0.015255,0.030510,-0.015255,0.030510,-0.030510,0.015255,-0.030510,-0.015255,-0.015255,-0.030510,0.015255,-0.030510,0.030510,-0.015255,0.030510,0.015255,0.015255,0.030510,0.0*
%
%ADD61OCTAGOND61*%

G04:AMPARAMS|DCode=62|XSize=61.02mil|YSize=61.02mil|CornerRadius=0mil|HoleSize=0mil|Usage=FLASHONLY|Rotation=0.000|XOffset=0mil|YOffset=0mil|HoleType=Round|Shape=Octagon|*
%AMOCTAGOND62*
4,1,8,0.030510,-0.015255,0.030510,0.015255,0.015255,0.030510,-0.015255,0.030510,-0.030510,0.015255,-0.030510,-0.015255,-0.015255,-0.030510,0.015255,-0.030510,0.030510,-0.015255,0.0*
%
%ADD62OCTAGOND62*%

%TA.AperFunction,SMDPad,CuDef*%
%ADD63R,0.062992X0.137795*%
%ADD64R,0.086614X0.173228*%
%TA.AperFunction,ComponentPad*%
%ADD65C,0.137795*%
%TA.AperFunction,SMDPad,CuDef*%
%ADD66R,0.137795X0.070079*%
%ADD67R,0.137795X0.062992*%
%ADD68R,0.173228X0.086614*%
%TA.AperFunction,ComponentPad*%
%ADD69R,0.062992X0.062992*%
%ADD70R,0.060000X0.060000*%
%TA.AperFunction,SMDPad,CuDef*%
%ADD71R,0.070079X0.137795*%
%TA.AperFunction,ComponentPad*%
%ADD72R,0.075000X0.075000*%
%TA.AperFunction,WasherPad*%
%ADD73C,0.150000*%
D10*
X1652756Y6400000D02*
D03*
X1747244Y6437401D02*
D03*
Y6362598D02*
D03*
X15832756Y5127402D02*
D03*
Y5052599D02*
D03*
X15927244Y5090000D02*
D03*
X15782756Y5927402D02*
D03*
Y5852599D02*
D03*
X15877244Y5890000D02*
D03*
X1952756Y5400000D02*
D03*
X2047244Y5437401D02*
D03*
Y5362598D02*
D03*
X2004976Y5875000D02*
D03*
Y5949803D02*
D03*
X1910488Y5912402D02*
D03*
X1002756Y5637402D02*
D03*
Y5562599D02*
D03*
X1097244Y5600000D02*
D03*
X1652756Y4900000D02*
D03*
X1747244Y4937401D02*
D03*
Y4862598D02*
D03*
D11*
X16513859Y5529500D02*
D03*
Y5479500D02*
D03*
Y5429500D02*
D03*
Y5379500D02*
D03*
Y5329500D02*
D03*
Y5279500D02*
D03*
Y5229500D02*
D03*
X16746141Y5529500D02*
D03*
Y5479500D02*
D03*
Y5429500D02*
D03*
Y5379500D02*
D03*
Y5329500D02*
D03*
Y5279500D02*
D03*
Y5229500D02*
D03*
D12*
X15002559Y2675000D02*
D03*
Y2625000D02*
D03*
Y2575000D02*
D03*
Y2525000D02*
D03*
X15197441D02*
D03*
Y2575000D02*
D03*
Y2625000D02*
D03*
Y2675000D02*
D03*
D13*
X1407284Y5400000D02*
D03*
Y5450000D02*
D03*
Y5500000D02*
D03*
Y5550000D02*
D03*
Y5600000D02*
D03*
Y5650000D02*
D03*
Y5700000D02*
D03*
X1192717Y5400000D02*
D03*
Y5450000D02*
D03*
Y5500000D02*
D03*
Y5550000D02*
D03*
Y5600000D02*
D03*
Y5650000D02*
D03*
Y5700000D02*
D03*
D14*
X3300000Y5450000D02*
D03*
Y5500000D02*
D03*
Y5550000D02*
D03*
Y5600000D02*
D03*
Y5650000D02*
D03*
Y5700000D02*
D03*
Y5750000D02*
D03*
X3090551D02*
D03*
Y5700000D02*
D03*
Y5650000D02*
D03*
Y5600000D02*
D03*
Y5550000D02*
D03*
Y5500000D02*
D03*
Y5450000D02*
D03*
D15*
X2359953Y5900000D02*
D03*
X2404976Y5375000D02*
D03*
D16*
X2359953Y5850000D02*
D03*
Y5800000D02*
D03*
Y5750000D02*
D03*
X2550000D02*
D03*
Y5800000D02*
D03*
Y5850000D02*
D03*
Y5900000D02*
D03*
X2595024Y5375000D02*
D03*
Y5325000D02*
D03*
Y5275000D02*
D03*
Y5225000D02*
D03*
X2404976D02*
D03*
Y5275000D02*
D03*
Y5325000D02*
D03*
D17*
X15760000Y6360250D02*
D03*
Y6259749D02*
D03*
X15980000Y6740250D02*
D03*
Y6639749D02*
D03*
X16080000Y6740250D02*
D03*
Y6639749D02*
D03*
X15490000Y6360250D02*
D03*
Y6259749D02*
D03*
X15580000Y6360250D02*
D03*
Y6259749D02*
D03*
X15670000Y6360250D02*
D03*
Y6259749D02*
D03*
D18*
X16500000Y881102D02*
D03*
Y1018898D02*
D03*
X15000000Y881102D02*
D03*
Y1018898D02*
D03*
X15600000D02*
D03*
Y881102D02*
D03*
X15300000D02*
D03*
Y1018898D02*
D03*
X15900000Y881102D02*
D03*
Y1018898D02*
D03*
X16200001Y881102D02*
D03*
Y1018898D02*
D03*
D19*
X15866220Y6906535D02*
D03*
Y6473465D02*
D03*
X15393780D02*
D03*
Y6906535D02*
D03*
D20*
X17170000Y1360630D02*
D03*
Y1439370D02*
D03*
D21*
X17063702Y1451181D02*
D03*
Y1425591D02*
D03*
Y1400000D02*
D03*
Y1374409D02*
D03*
Y1348819D02*
D03*
D22*
X2008500Y6550000D02*
D03*
X1941500D02*
D03*
X14894500Y5140000D02*
D03*
X14965500D02*
D03*
X15715500Y5040000D02*
D03*
X15644500D02*
D03*
Y5140000D02*
D03*
X15715500D02*
D03*
X14894500Y5590000D02*
D03*
X14965500D02*
D03*
X15665500Y5840000D02*
D03*
X15594500D02*
D03*
X14894500Y5940000D02*
D03*
X14965500D02*
D03*
X1535500Y4700000D02*
D03*
X1464500D02*
D03*
Y4800000D02*
D03*
X1535500D02*
D03*
X3464500Y5650000D02*
D03*
X3535500D02*
D03*
X2235500Y5150000D02*
D03*
X2164500D02*
D03*
X2235500Y5250000D02*
D03*
X2164500D02*
D03*
X2214500Y4850000D02*
D03*
X2285500D02*
D03*
X1464500Y6300000D02*
D03*
X1535500D02*
D03*
X1464500Y6400000D02*
D03*
X1535500D02*
D03*
X2225976Y5675000D02*
D03*
X2154976D02*
D03*
Y5775000D02*
D03*
X2225976D02*
D03*
X15594500Y5940000D02*
D03*
X15665500D02*
D03*
X1464500Y6200000D02*
D03*
X1535500D02*
D03*
Y4900000D02*
D03*
X1464500D02*
D03*
X2285500Y6350000D02*
D03*
X2214500D02*
D03*
X3535500Y5550000D02*
D03*
X3464500D02*
D03*
X14408500Y6945000D02*
D03*
X14341500D02*
D03*
X1941500Y4750000D02*
D03*
X2008500D02*
D03*
D23*
X2229976Y5865500D02*
D03*
Y5924500D02*
D03*
X2250000Y5370500D02*
D03*
Y5429500D02*
D03*
D24*
X16390945Y312205D02*
D03*
Y587795D02*
D03*
X16509054Y312205D02*
D03*
Y587795D02*
D03*
X14890945Y312205D02*
D03*
Y587795D02*
D03*
X15009055Y312205D02*
D03*
Y587795D02*
D03*
X15309055Y587801D02*
D03*
Y312211D02*
D03*
X15190945Y587801D02*
D03*
Y312211D02*
D03*
X15490945Y312205D02*
D03*
Y587795D02*
D03*
X15609055Y312205D02*
D03*
Y587795D02*
D03*
X15790945Y312205D02*
D03*
Y587795D02*
D03*
X15909055Y312205D02*
D03*
Y587795D02*
D03*
X16090944Y312208D02*
D03*
Y587798D02*
D03*
X16209055Y312208D02*
D03*
Y587798D02*
D03*
D25*
X16500500Y5640000D02*
D03*
X16559500D02*
D03*
D26*
X16892597Y5892756D02*
D03*
X16967402D02*
D03*
X16930000Y5987244D02*
D03*
X1612598Y5402756D02*
D03*
X1687401D02*
D03*
X1650000Y5497244D02*
D03*
X15842598Y5392756D02*
D03*
X15917401D02*
D03*
X15880000Y5487244D02*
D03*
D27*
X15630000Y5504500D02*
D03*
Y5575500D02*
D03*
X15730000Y5504500D02*
D03*
Y5575500D02*
D03*
X16830000Y5504500D02*
D03*
Y5575500D02*
D03*
X15980000Y5925500D02*
D03*
Y5854500D02*
D03*
X16930000Y5575500D02*
D03*
Y5504500D02*
D03*
X16730000Y5125500D02*
D03*
Y5054500D02*
D03*
X2750000Y5414500D02*
D03*
Y5485500D02*
D03*
X2150000Y5435500D02*
D03*
Y5364500D02*
D03*
X2750000Y5264500D02*
D03*
Y5335500D02*
D03*
X1500000Y5485500D02*
D03*
Y5414500D02*
D03*
X8740000Y5223500D02*
D03*
Y5156500D02*
D03*
X10440000Y6190000D02*
D03*
Y6257000D02*
D03*
X9190000Y6206500D02*
D03*
Y6273500D02*
D03*
X8840000Y5623500D02*
D03*
Y5556500D02*
D03*
X10590000Y5623500D02*
D03*
Y5556500D02*
D03*
X8740000Y6273500D02*
D03*
Y6206500D02*
D03*
X9990000Y6273500D02*
D03*
Y6206500D02*
D03*
X9340000Y5623500D02*
D03*
Y5556500D02*
D03*
X9890000Y6206500D02*
D03*
Y6273500D02*
D03*
X8640000Y6206500D02*
D03*
Y6273500D02*
D03*
X9990000Y5223500D02*
D03*
Y5156500D02*
D03*
X10090000Y5623500D02*
D03*
Y5556500D02*
D03*
X2704976Y5939500D02*
D03*
Y6010500D02*
D03*
X2104976Y5960500D02*
D03*
Y5889500D02*
D03*
X2704976Y5789500D02*
D03*
Y5860500D02*
D03*
X9140000Y5554500D02*
D03*
Y5625500D02*
D03*
X8640000Y5554500D02*
D03*
Y5625500D02*
D03*
X9990000D02*
D03*
Y5554500D02*
D03*
X9890000D02*
D03*
Y5625500D02*
D03*
X10440000Y6404500D02*
D03*
Y6475500D02*
D03*
X10390000Y5554500D02*
D03*
Y5625500D02*
D03*
X10190000Y5554500D02*
D03*
Y5625500D02*
D03*
X8940000Y5554500D02*
D03*
Y5625500D02*
D03*
X8740000D02*
D03*
Y5554500D02*
D03*
X9190000Y6404500D02*
D03*
Y6475500D02*
D03*
X16280001Y5404500D02*
D03*
Y5475500D02*
D03*
X16180000D02*
D03*
Y5404500D02*
D03*
X14900000Y935500D02*
D03*
Y864500D02*
D03*
X15500000D02*
D03*
Y935500D02*
D03*
X15200000D02*
D03*
Y864500D02*
D03*
X15800000Y935500D02*
D03*
Y864500D02*
D03*
X16700001Y3014500D02*
D03*
Y3085500D02*
D03*
Y2785500D02*
D03*
Y2714500D02*
D03*
Y4035500D02*
D03*
Y3964500D02*
D03*
X16600000Y4035500D02*
D03*
Y3964500D02*
D03*
X15350000Y2564500D02*
D03*
Y2635500D02*
D03*
X16100000Y935500D02*
D03*
Y864500D02*
D03*
X16400000Y935500D02*
D03*
Y864500D02*
D03*
D35*
X2098032Y6350000D02*
D03*
Y6450000D02*
D03*
X1850000Y6350000D02*
D03*
Y6450000D02*
D03*
X15430000Y5040000D02*
D03*
Y5140000D02*
D03*
X15181969Y5040000D02*
D03*
Y5140000D02*
D03*
X15428031Y5490000D02*
D03*
Y5590000D02*
D03*
X15180000Y5490000D02*
D03*
Y5590000D02*
D03*
X15428031Y5840000D02*
D03*
Y5940000D02*
D03*
X15180000Y5840000D02*
D03*
Y5940000D02*
D03*
X1851968Y4950000D02*
D03*
Y4850000D02*
D03*
X2100000Y4950000D02*
D03*
Y4850000D02*
D03*
D36*
X3650000Y2500000D02*
D03*
X3550000D02*
D03*
X3450000D02*
D03*
X13750000Y7050000D02*
D03*
X13850000D02*
D03*
X13950000D02*
D03*
X575000Y4800000D02*
D03*
Y4900000D02*
D03*
Y5000000D02*
D03*
Y6450000D02*
D03*
Y6350000D02*
D03*
Y6250000D02*
D03*
X3450000Y1850000D02*
D03*
X3350000D02*
D03*
X3250000D02*
D03*
X850000D02*
D03*
X950000D02*
D03*
X1050000D02*
D03*
X1450000D02*
D03*
X1550000D02*
D03*
X1650000D02*
D03*
X2050000D02*
D03*
X2150000D02*
D03*
X2250000D02*
D03*
X2650000D02*
D03*
X2750000D02*
D03*
X2850000D02*
D03*
X3250000Y1350000D02*
D03*
X3350000D02*
D03*
X3450000D02*
D03*
X1050000Y350000D02*
D03*
X950000D02*
D03*
X850000D02*
D03*
X1650000D02*
D03*
X1550000D02*
D03*
X1450000D02*
D03*
X2250000D02*
D03*
X2150000D02*
D03*
X2050000D02*
D03*
X2850000D02*
D03*
X2750000D02*
D03*
X2650000D02*
D03*
X850000Y1350000D02*
D03*
X950000D02*
D03*
X1050000D02*
D03*
X850000Y850000D02*
D03*
X950000D02*
D03*
X1050000D02*
D03*
X3250000Y350000D02*
D03*
X3350000D02*
D03*
X3450000D02*
D03*
X3250000Y850000D02*
D03*
X3350000D02*
D03*
X3450000D02*
D03*
X7450000Y6800000D02*
D03*
X7550000D02*
D03*
X7650000D02*
D03*
X2700000Y2500000D02*
D03*
X2800000D02*
D03*
X2900000D02*
D03*
X2700000Y3050000D02*
D03*
X2800000D02*
D03*
X2900000D02*
D03*
X2700000Y3600000D02*
D03*
X2800000D02*
D03*
X2900000D02*
D03*
X3650000D02*
D03*
X3550000D02*
D03*
X3450000D02*
D03*
X3650000Y3050000D02*
D03*
X3550000D02*
D03*
X3450000D02*
D03*
X10090000Y7190000D02*
D03*
X10190000D02*
D03*
X10290000D02*
D03*
X8790000D02*
D03*
X8890000D02*
D03*
X8990000D02*
D03*
X15600000Y2550000D02*
D03*
Y2650000D02*
D03*
Y2750000D02*
D03*
Y3850000D02*
D03*
Y3750000D02*
D03*
Y3650000D02*
D03*
X15150000D02*
D03*
Y3750000D02*
D03*
Y3850000D02*
D03*
Y4300000D02*
D03*
Y4400000D02*
D03*
Y4500000D02*
D03*
X15600000Y4300000D02*
D03*
Y4400000D02*
D03*
Y4500000D02*
D03*
D37*
X3350000Y2500000D02*
D03*
X3150000Y1850000D02*
D03*
X750000D02*
D03*
X1350000D02*
D03*
X1950000D02*
D03*
X2550000D02*
D03*
X3150000Y1350000D02*
D03*
X750000Y350000D02*
D03*
X1350000D02*
D03*
X1950000D02*
D03*
X2550000D02*
D03*
X750000Y1350000D02*
D03*
Y850000D02*
D03*
X3150000Y350000D02*
D03*
Y850000D02*
D03*
X7350000Y6800000D02*
D03*
X2600000Y2500000D02*
D03*
Y3050000D02*
D03*
Y3600000D02*
D03*
X3350000D02*
D03*
Y3050000D02*
D03*
D38*
X1292126Y3174016D02*
D03*
X17024015Y2557874D02*
D03*
Y3507874D02*
D03*
X1292126Y3724016D02*
D03*
Y2624016D02*
D03*
X2192126Y3724016D02*
D03*
Y2624016D02*
D03*
X13132126Y7164016D02*
D03*
X2192126Y3174016D02*
D03*
D39*
X1250000Y3050000D02*
D03*
X1150000D02*
D03*
X1050000D02*
D03*
X950000D02*
D03*
X850000D02*
D03*
X16900000Y3000000D02*
D03*
Y2900000D02*
D03*
Y2800000D02*
D03*
Y2700000D02*
D03*
Y2600000D02*
D03*
Y3550000D02*
D03*
Y3650000D02*
D03*
Y3750000D02*
D03*
Y3850000D02*
D03*
Y3950000D02*
D03*
X850000Y3600000D02*
D03*
X950000D02*
D03*
X1050000D02*
D03*
X1150000D02*
D03*
X1250000D02*
D03*
X850000Y2500000D02*
D03*
X950000D02*
D03*
X1050000D02*
D03*
X1150000D02*
D03*
X1250000D02*
D03*
X2150000Y3600000D02*
D03*
X2050000D02*
D03*
X1950000D02*
D03*
X1850000D02*
D03*
X1750000D02*
D03*
Y2500000D02*
D03*
X1850000D02*
D03*
X1950000D02*
D03*
X2050000D02*
D03*
X2150000D02*
D03*
X13090000Y7040000D02*
D03*
X12990000D02*
D03*
X12890000D02*
D03*
X12790000D02*
D03*
X12690000D02*
D03*
X1750000Y3050000D02*
D03*
X1850000D02*
D03*
X1950000D02*
D03*
X2050000D02*
D03*
X2150000D02*
D03*
D40*
X750000D02*
D03*
Y3600000D02*
D03*
Y2500000D02*
D03*
X1650000Y3600000D02*
D03*
Y2500000D02*
D03*
X12590000Y7040000D02*
D03*
X1650000Y3050000D02*
D03*
D41*
X12000000Y400000D02*
D03*
Y2683465D02*
D03*
X10070866Y400000D02*
D03*
Y2683465D02*
D03*
D42*
X10140000Y6240000D02*
D03*
Y6540000D02*
D03*
X10290000Y6240000D02*
D03*
Y6540000D02*
D03*
X9040000Y6240000D02*
D03*
Y6540000D02*
D03*
X8890000Y6240000D02*
D03*
Y6540000D02*
D03*
D43*
X16850393Y2258661D02*
D03*
Y1741339D02*
D03*
D44*
X16743702Y2137795D02*
D03*
Y2039370D02*
D03*
Y1960630D02*
D03*
D45*
Y1862205D02*
D03*
D46*
X10590000Y5740000D02*
D03*
X10540000Y5940000D02*
D03*
X10490000Y5740000D02*
D03*
X10440000Y5940000D02*
D03*
X10390000Y5740000D02*
D03*
X10340000Y5940000D02*
D03*
X10290000Y5740000D02*
D03*
X10240000Y5940000D02*
D03*
X10190000Y5740000D02*
D03*
X10140000Y5940000D02*
D03*
X10090000Y5740000D02*
D03*
X10040000Y5940000D02*
D03*
X9990000Y5740000D02*
D03*
X9940000Y5940000D02*
D03*
X9340000Y5740000D02*
D03*
X9290000Y5940000D02*
D03*
X9240000Y5740000D02*
D03*
X9190000Y5940000D02*
D03*
X9140000Y5740000D02*
D03*
X9090000Y5940000D02*
D03*
X9040000Y5740000D02*
D03*
X8990000Y5940000D02*
D03*
X8940000Y5740000D02*
D03*
X8890000Y5940000D02*
D03*
X8840000Y5740000D02*
D03*
X8790000Y5940000D02*
D03*
X8740000Y5740000D02*
D03*
X8690000Y5940000D02*
D03*
D47*
X9890000Y5740000D02*
D03*
X8640000D02*
D03*
D48*
X300000Y300000D02*
D03*
Y7200000D02*
D03*
X16950001Y7220000D02*
D03*
Y300000D02*
D03*
D49*
X5534646Y6966535D02*
D03*
X5700000D02*
D03*
Y6750000D02*
D03*
X5534646D02*
D03*
X11634646Y7141535D02*
D03*
X11800000D02*
D03*
Y6925000D02*
D03*
X11634646D02*
D03*
X16434647Y6486535D02*
D03*
X16600000D02*
D03*
Y6270000D02*
D03*
X16434647D02*
D03*
D50*
X12700000Y6350000D02*
D03*
Y5800000D02*
D03*
X16930000Y6290000D02*
D03*
X13650000Y6450000D02*
D03*
X14050000D02*
D03*
X13650000Y5800000D02*
D03*
X14050000D02*
D03*
X5450000Y5850000D02*
D03*
X5850000D02*
D03*
X6250000D02*
D03*
X5050000D02*
D03*
X12400000Y6350000D02*
D03*
X13000000D02*
D03*
X13300000D02*
D03*
X12400000Y5800000D02*
D03*
X13000000D02*
D03*
X13300000D02*
D03*
D51*
X12700000Y6450000D02*
D03*
Y6550000D02*
D03*
Y6000000D02*
D03*
Y5900000D02*
D03*
X16930000Y6390000D02*
D03*
Y6490000D02*
D03*
X800000Y5300000D02*
D03*
X900000D02*
D03*
Y5850000D02*
D03*
X800000D02*
D03*
X11790000Y6590000D02*
D03*
X11690000D02*
D03*
X13650000Y6650000D02*
D03*
Y6550000D02*
D03*
X14050000Y6650000D02*
D03*
Y6550000D02*
D03*
X13650000Y5900000D02*
D03*
Y6000000D02*
D03*
X14050000Y5900000D02*
D03*
Y6000000D02*
D03*
X5450000Y5950000D02*
D03*
Y6050000D02*
D03*
X5850000Y5950000D02*
D03*
Y6050000D02*
D03*
X6250000Y5950000D02*
D03*
Y6050000D02*
D03*
X5050000Y5950000D02*
D03*
Y6050000D02*
D03*
X12400000Y6450000D02*
D03*
Y6550000D02*
D03*
X13000000Y6450000D02*
D03*
Y6550000D02*
D03*
X13300000Y6450000D02*
D03*
Y6550000D02*
D03*
X12400000Y5900000D02*
D03*
Y6000000D02*
D03*
X13000000D02*
D03*
Y5900000D02*
D03*
X13300000Y6000000D02*
D03*
Y5900000D02*
D03*
D52*
X4100000Y6250000D02*
D03*
D53*
Y6150000D02*
D03*
Y5950000D02*
D03*
Y5850000D02*
D03*
Y5750000D02*
D03*
Y5650000D02*
D03*
Y5550000D02*
D03*
Y5450000D02*
D03*
Y5350000D02*
D03*
Y6050000D02*
D03*
D54*
X6550000Y6150000D02*
D03*
Y6050000D02*
D03*
Y5950000D02*
D03*
Y5850000D02*
D03*
Y5750000D02*
D03*
Y5650000D02*
D03*
Y5550000D02*
D03*
Y5450000D02*
D03*
Y5350000D02*
D03*
Y5250000D02*
D03*
X7750000Y5150000D02*
D03*
Y5250000D02*
D03*
Y5350000D02*
D03*
Y5450000D02*
D03*
Y5550000D02*
D03*
Y5650000D02*
D03*
Y5750000D02*
D03*
D55*
X7700000Y6400000D02*
D03*
Y5000000D02*
D03*
X6600000Y6400000D02*
D03*
Y5000000D02*
D03*
D56*
X17170000Y1262205D02*
D03*
Y1537795D02*
D03*
D57*
X17063702Y1301575D02*
D03*
Y1498425D02*
D03*
D58*
X5106299Y1200000D02*
D03*
Y1300000D02*
D03*
Y1400000D02*
D03*
Y1600000D02*
D03*
Y1100000D02*
D03*
Y3260000D02*
D03*
Y3360000D02*
D03*
Y3160000D02*
D03*
Y3060000D02*
D03*
Y700000D02*
D03*
Y800000D02*
D03*
Y900000D02*
D03*
Y1000000D02*
D03*
Y2300000D02*
D03*
Y2960000D02*
D03*
Y2660000D02*
D03*
Y2460000D02*
D03*
Y2560000D02*
D03*
Y2860000D02*
D03*
Y2760000D02*
D03*
Y2000000D02*
D03*
Y1700000D02*
D03*
Y1800000D02*
D03*
Y1900000D02*
D03*
Y2100000D02*
D03*
Y2200000D02*
D03*
X7006299Y3000000D02*
D03*
Y2900000D02*
D03*
Y2800000D02*
D03*
Y2700000D02*
D03*
Y2600000D02*
D03*
Y2500000D02*
D03*
Y2400000D02*
D03*
Y2300000D02*
D03*
Y1200000D02*
D03*
Y1400000D02*
D03*
Y2100000D02*
D03*
Y1900000D02*
D03*
Y1600000D02*
D03*
Y1800000D02*
D03*
Y1700000D02*
D03*
Y1500000D02*
D03*
Y2000000D02*
D03*
Y1100000D02*
D03*
Y1000000D02*
D03*
Y900000D02*
D03*
Y800000D02*
D03*
Y700000D02*
D03*
Y600000D02*
D03*
Y500000D02*
D03*
X7606299Y1200000D02*
D03*
Y1300000D02*
D03*
Y1400000D02*
D03*
Y1600000D02*
D03*
Y1100000D02*
D03*
Y3260000D02*
D03*
Y3360000D02*
D03*
Y3160000D02*
D03*
Y3060000D02*
D03*
Y700000D02*
D03*
Y800000D02*
D03*
Y900000D02*
D03*
Y1000000D02*
D03*
Y2300000D02*
D03*
Y2960000D02*
D03*
Y2660000D02*
D03*
Y2460000D02*
D03*
Y2560000D02*
D03*
Y2860000D02*
D03*
Y2760000D02*
D03*
Y2000000D02*
D03*
Y1700000D02*
D03*
Y1800000D02*
D03*
Y1900000D02*
D03*
Y2100000D02*
D03*
Y2200000D02*
D03*
X9506299Y3000000D02*
D03*
Y2900000D02*
D03*
Y2800000D02*
D03*
Y2700000D02*
D03*
Y2600000D02*
D03*
Y2500000D02*
D03*
Y2400000D02*
D03*
Y2300000D02*
D03*
Y1200000D02*
D03*
Y1400000D02*
D03*
Y2100000D02*
D03*
Y1900000D02*
D03*
Y1600000D02*
D03*
Y1800000D02*
D03*
Y1700000D02*
D03*
Y1500000D02*
D03*
Y2000000D02*
D03*
Y1100000D02*
D03*
Y1000000D02*
D03*
Y900000D02*
D03*
Y800000D02*
D03*
Y700000D02*
D03*
Y600000D02*
D03*
Y500000D02*
D03*
X12606299Y1200000D02*
D03*
Y1300000D02*
D03*
Y1400000D02*
D03*
Y1600000D02*
D03*
Y1100000D02*
D03*
Y3260000D02*
D03*
Y3360000D02*
D03*
Y3160000D02*
D03*
Y3060000D02*
D03*
Y700000D02*
D03*
Y800000D02*
D03*
Y900000D02*
D03*
Y1000000D02*
D03*
Y2300000D02*
D03*
Y2960000D02*
D03*
Y2660000D02*
D03*
Y2460000D02*
D03*
Y2560000D02*
D03*
Y2860000D02*
D03*
Y2760000D02*
D03*
Y2000000D02*
D03*
Y1700000D02*
D03*
Y1800000D02*
D03*
Y1900000D02*
D03*
Y2100000D02*
D03*
Y2200000D02*
D03*
X14506299Y3000000D02*
D03*
Y2900000D02*
D03*
Y2800000D02*
D03*
Y2700000D02*
D03*
Y2600000D02*
D03*
Y2500000D02*
D03*
Y2400000D02*
D03*
Y2300000D02*
D03*
Y1200000D02*
D03*
Y1400000D02*
D03*
Y2100000D02*
D03*
Y1900000D02*
D03*
Y1600000D02*
D03*
Y1800000D02*
D03*
Y1700000D02*
D03*
Y1500000D02*
D03*
Y2000000D02*
D03*
Y1100000D02*
D03*
Y1000000D02*
D03*
Y900000D02*
D03*
Y800000D02*
D03*
Y700000D02*
D03*
Y600000D02*
D03*
Y500000D02*
D03*
D59*
X5706299Y1500000D02*
D03*
X5106299Y550000D02*
D03*
Y3500000D02*
D03*
X7006299Y3550000D02*
D03*
Y300000D02*
D03*
X6806299Y1500000D02*
D03*
X8206299D02*
D03*
X7606299Y550000D02*
D03*
Y3500000D02*
D03*
X9506299Y3550000D02*
D03*
Y300000D02*
D03*
X9306299Y1500000D02*
D03*
X13206299D02*
D03*
X12606299Y550000D02*
D03*
Y3500000D02*
D03*
X14506299Y3550000D02*
D03*
Y300000D02*
D03*
X14306299Y1500000D02*
D03*
D60*
X5106299Y300000D02*
D03*
Y400000D02*
D03*
X5606299Y300000D02*
D03*
X5706299Y400000D02*
D03*
X5806299D02*
D03*
Y300000D02*
D03*
X5206299Y400000D02*
D03*
Y300000D02*
D03*
X5306299Y400000D02*
D03*
Y300000D02*
D03*
X5406299Y400000D02*
D03*
Y300000D02*
D03*
X5506299Y400000D02*
D03*
Y300000D02*
D03*
X5606299Y400000D02*
D03*
X5706299Y300000D02*
D03*
X6306299Y400000D02*
D03*
X6406299D02*
D03*
Y300000D02*
D03*
X6506299Y400000D02*
D03*
Y300000D02*
D03*
X6606299Y400000D02*
D03*
Y300000D02*
D03*
X6706299Y400000D02*
D03*
Y300000D02*
D03*
X6806299Y400000D02*
D03*
Y300000D02*
D03*
X6306299D02*
D03*
X5906299Y400000D02*
D03*
Y300000D02*
D03*
X6006299Y400000D02*
D03*
Y300000D02*
D03*
X6106299Y400000D02*
D03*
Y300000D02*
D03*
X6206299Y400000D02*
D03*
Y300000D02*
D03*
X7606299D02*
D03*
Y400000D02*
D03*
X8106299Y300000D02*
D03*
X8206299Y400000D02*
D03*
X8306299D02*
D03*
Y300000D02*
D03*
X7706299Y400000D02*
D03*
Y300000D02*
D03*
X7806299Y400000D02*
D03*
Y300000D02*
D03*
X7906299Y400000D02*
D03*
Y300000D02*
D03*
X8006299Y400000D02*
D03*
Y300000D02*
D03*
X8106299Y400000D02*
D03*
X8206299Y300000D02*
D03*
X8806299Y400000D02*
D03*
X8906299D02*
D03*
Y300000D02*
D03*
X9006299Y400000D02*
D03*
Y300000D02*
D03*
X9106299Y400000D02*
D03*
Y300000D02*
D03*
X9206299Y400000D02*
D03*
Y300000D02*
D03*
X9306299Y400000D02*
D03*
Y300000D02*
D03*
X8806299D02*
D03*
X8406299Y400000D02*
D03*
Y300000D02*
D03*
X8506299Y400000D02*
D03*
Y300000D02*
D03*
X8606299Y400000D02*
D03*
Y300000D02*
D03*
X8706299Y400000D02*
D03*
Y300000D02*
D03*
X12606299D02*
D03*
Y400000D02*
D03*
X13106299Y300000D02*
D03*
X13206299Y400000D02*
D03*
X13306299D02*
D03*
Y300000D02*
D03*
X12706299Y400000D02*
D03*
Y300000D02*
D03*
X12806299Y400000D02*
D03*
Y300000D02*
D03*
X12906299Y400000D02*
D03*
Y300000D02*
D03*
X13006299Y400000D02*
D03*
Y300000D02*
D03*
X13106299Y400000D02*
D03*
X13206299Y300000D02*
D03*
X13806299Y400000D02*
D03*
X13906299D02*
D03*
Y300000D02*
D03*
X14006299Y400000D02*
D03*
Y300000D02*
D03*
X14106299Y400000D02*
D03*
Y300000D02*
D03*
X14206299Y400000D02*
D03*
Y300000D02*
D03*
X14306299Y400000D02*
D03*
Y300000D02*
D03*
X13806299D02*
D03*
X13406299Y400000D02*
D03*
Y300000D02*
D03*
X13506299Y400000D02*
D03*
Y300000D02*
D03*
X13606299Y400000D02*
D03*
Y300000D02*
D03*
X13706299Y400000D02*
D03*
Y300000D02*
D03*
D61*
X5336299Y3280000D02*
D03*
X5236299Y3380000D02*
D03*
X5336299D02*
D03*
X5236299Y3480000D02*
D03*
X5336299D02*
D03*
X5236299Y3280000D02*
D03*
X7836299D02*
D03*
X7736299Y3380000D02*
D03*
X7836299D02*
D03*
X7736299Y3480000D02*
D03*
X7836299D02*
D03*
X7736299Y3280000D02*
D03*
X12836299D02*
D03*
X12736299Y3380000D02*
D03*
X12836299D02*
D03*
X12736299Y3480000D02*
D03*
X12836299D02*
D03*
X12736299Y3280000D02*
D03*
D62*
X5906299Y1595000D02*
D03*
Y1495000D02*
D03*
X6006299Y1595000D02*
D03*
Y1495000D02*
D03*
X6106299D02*
D03*
Y1595000D02*
D03*
X8406299D02*
D03*
Y1495000D02*
D03*
X8506299Y1595000D02*
D03*
Y1495000D02*
D03*
X8606299D02*
D03*
Y1595000D02*
D03*
X13406299D02*
D03*
Y1495000D02*
D03*
X13506299Y1595000D02*
D03*
Y1495000D02*
D03*
X13606299D02*
D03*
Y1595000D02*
D03*
D63*
X3500000Y5179528D02*
D03*
Y5400000D02*
D03*
X16930000Y5090000D02*
D03*
Y5310472D02*
D03*
X3500000Y6030000D02*
D03*
Y5809528D02*
D03*
X1050000Y6450000D02*
D03*
Y6229528D02*
D03*
Y5020472D02*
D03*
Y4800000D02*
D03*
D64*
X15080000Y6590000D02*
D03*
Y6940394D02*
D03*
D65*
X12000000Y5100000D02*
D03*
X12393701D02*
D03*
D66*
X16450001Y1855906D02*
D03*
Y1650000D02*
D03*
X12040000Y6940000D02*
D03*
Y7145905D02*
D03*
D67*
X9690000Y6590000D02*
D03*
X9910472D02*
D03*
X8440000Y6890000D02*
D03*
X8660472D02*
D03*
X8440000Y6590000D02*
D03*
X8660472D02*
D03*
X9690000Y6890000D02*
D03*
X9910472D02*
D03*
D68*
X8940000Y5040000D02*
D03*
X9290394D02*
D03*
X10190000D02*
D03*
X10540394D02*
D03*
D69*
X1000000Y5300000D02*
D03*
Y5850000D02*
D03*
X11590000Y6590000D02*
D03*
D70*
X575000Y4700000D02*
D03*
Y6150000D02*
D03*
X15600000Y2450000D02*
D03*
D71*
X16600000Y1350000D02*
D03*
X16805906D02*
D03*
D72*
X16900000Y3100000D02*
D03*
Y4050000D02*
D03*
D73*
X4550000Y5400000D02*
D03*
Y6190000D02*
D03*
%TF.MD5,c832a245cc2eb377bda7b68f4079b7ac*%
M02*
