%TF.GenerationSoftware,Altium Limited,Altium Designer,21.6.4 (81)*%
G04 Layer_Color=32896*
%FSLAX26Y26*%
%MOIN*%
%TF.SameCoordinates,892991E7-994B-4F78-B437-02A20B6E2807*%
%TF.FilePolarity,Positive*%
%TF.FileFunction,Legend,Bot*%
%TF.Part,Single*%
G01*
G75*
%TA.AperFunction,NonConductor*%
%ADD82C,0.020000*%
%ADD83C,0.010000*%
%ADD84C,0.007874*%
D82*
X14105000Y7050000D02*
G03*
X14105000Y7050000I-15000J0D01*
G01*
X10445000Y7190000D02*
G03*
X10445000Y7190000I-15000J0D01*
G01*
X9145000D02*
G03*
X9145000Y7190000I-15000J0D01*
G01*
X15615000Y3990000D02*
G03*
X15615000Y3990000I-15000J0D01*
G01*
X15165000D02*
G03*
X15165000Y3990000I-15000J0D01*
G01*
Y4160000D02*
G03*
X15165000Y4160000I-15000J0D01*
G01*
X15615000D02*
G03*
X15615000Y4160000I-15000J0D01*
G01*
D83*
X12760000Y6332500D02*
X12840000D01*
X12760000D02*
Y6467500D01*
X12840000D01*
Y6332500D02*
Y6467500D01*
X16790001Y5357500D02*
X16870001D01*
Y5222500D02*
Y5357500D01*
X16790001Y5222500D02*
X16870001D01*
X16790001D02*
Y5357500D01*
X3267500Y5610000D02*
Y5690000D01*
X3132500Y5610000D02*
X3267500D01*
X3132500D02*
Y5690000D01*
X3267500D01*
X3132500Y5710000D02*
Y5790000D01*
X3267500D01*
Y5710000D02*
Y5790000D01*
X3132500Y5710000D02*
X3267500D01*
X1232500Y5360000D02*
X1367500D01*
Y5440000D01*
X1232500D02*
X1367500D01*
X1232500Y5360000D02*
Y5440000D01*
X3267500Y5510000D02*
Y5590000D01*
X3132500Y5510000D02*
X3267500D01*
X3132500D02*
Y5590000D01*
X3267500D01*
X3132500Y5410000D02*
Y5490000D01*
X3267500D01*
Y5410000D02*
Y5490000D01*
X3132500Y5410000D02*
X3267500D01*
X1232500Y5610000D02*
Y5690000D01*
X1367500D01*
Y5610000D02*
Y5690000D01*
X1232500Y5610000D02*
X1367500D01*
Y5710000D02*
Y5790000D01*
X1232500Y5710000D02*
X1367500D01*
X1232500D02*
Y5790000D01*
X1367500D01*
X16570000Y5322500D02*
Y5457500D01*
X16490000D02*
X16570000D01*
X16490000Y5322500D02*
Y5457500D01*
Y5322500D02*
X16570000D01*
X16590000D02*
Y5457500D01*
Y5322500D02*
X16670000D01*
Y5457500D01*
X16590000D02*
X16670000D01*
X16739994Y2982506D02*
Y3117506D01*
X16659994D02*
X16739994D01*
X16659994Y2982506D02*
Y3117506D01*
Y2982506D02*
X16739994D01*
X16740000Y3932500D02*
Y4067500D01*
X16660000D02*
X16740000D01*
X16660000Y3932500D02*
Y4067500D01*
Y3932500D02*
X16740000D01*
X15017500Y410000D02*
Y490000D01*
X14882500Y410000D02*
X15017500D01*
X14882500D02*
Y490000D01*
X15017500D01*
X15317500Y410011D02*
Y490011D01*
X15182500Y410011D02*
X15317500D01*
X15182500D02*
Y490011D01*
X15317500D01*
X15617500Y410000D02*
Y490000D01*
X15482500Y410000D02*
X15617500D01*
X15482500D02*
Y490000D01*
X15617500D01*
X15917500Y410000D02*
Y490000D01*
X15782500Y410000D02*
X15917500D01*
X15782500D02*
Y490000D01*
X15917500D01*
X15490000Y3732500D02*
Y3867500D01*
X15410000D02*
X15490000D01*
X15410000Y3732500D02*
Y3867500D01*
Y3732500D02*
X15490000D01*
X15040000D02*
Y3867500D01*
X14960000D02*
X15040000D01*
X14960000Y3732500D02*
Y3867500D01*
Y3732500D02*
X15040000D01*
X11400000Y7022500D02*
Y7157500D01*
Y7022500D02*
X11480000D01*
Y7157500D01*
X11400000D02*
X11480000D01*
X11400000Y6808000D02*
Y6943000D01*
Y6808000D02*
X11480000D01*
Y6943000D01*
X11400000D02*
X11480000D01*
X16217501Y410003D02*
Y490003D01*
X16082500Y410003D02*
X16217501D01*
X16082500D02*
Y490003D01*
X16217501D01*
X16531214Y410000D02*
Y490000D01*
X16396214Y410000D02*
X16531214D01*
X16396214D02*
Y490000D01*
X16531214D01*
X14960000Y4417500D02*
X15040000D01*
Y4282500D02*
Y4417500D01*
X14960000Y4282500D02*
X15040000D01*
X14960000D02*
Y4417500D01*
Y4567500D02*
X15040000D01*
Y4432500D02*
Y4567500D01*
X14960000Y4432500D02*
X15040000D01*
X14960000D02*
Y4567500D01*
X15410000Y4417500D02*
X15490000D01*
Y4282500D02*
Y4417500D01*
X15410000Y4282500D02*
X15490000D01*
X15410000D02*
Y4417500D01*
Y4567500D02*
X15490000D01*
Y4432500D02*
Y4567500D01*
X15410000Y4432500D02*
X15490000D01*
X15410000D02*
Y4567500D01*
X13510394Y6482500D02*
Y6617500D01*
Y6482500D02*
X13590394D01*
Y6617500D01*
X13510394D02*
X13590394D01*
X14110000D02*
X14190000D01*
Y6482500D02*
Y6617500D01*
X14110000Y6482500D02*
X14190000D01*
X14110000D02*
Y6617500D01*
X12260000Y6567500D02*
X12340000D01*
Y6432500D02*
Y6567500D01*
X12260000Y6432500D02*
X12340000D01*
X12260000D02*
Y6567500D01*
X12860000D02*
X12940000D01*
Y6432500D02*
Y6567500D01*
X12860000Y6432500D02*
X12940000D01*
X12860000D02*
Y6567500D01*
X12460000Y6332500D02*
X12540000D01*
X12460000D02*
Y6467500D01*
X12540000D01*
Y6332500D02*
Y6467500D01*
X13060000Y6332500D02*
X13140000D01*
X13060000D02*
Y6467500D01*
X13140000D01*
Y6332500D02*
Y6467500D01*
X13160000Y6567500D02*
X13240000D01*
Y6432500D02*
Y6567500D01*
X13160000Y6432500D02*
X13240000D01*
X13160000D02*
Y6567500D01*
X12560000D02*
X12640000D01*
Y6432500D02*
Y6567500D01*
X12560000Y6432500D02*
X12640000D01*
X12560000D02*
Y6567500D01*
X13360000Y6332500D02*
X13440000D01*
X13360000D02*
Y6467500D01*
X13440000D01*
Y6332500D02*
Y6467500D01*
X12829990Y6309974D02*
X12770010D01*
Y6279984D01*
X12780006Y6269987D01*
X12800000D01*
X12809997Y6279984D01*
Y6309974D01*
Y6289980D02*
X12829990Y6269987D01*
X12819993Y6249993D02*
X12829990Y6239997D01*
Y6220003D01*
X12819993Y6210006D01*
X12780006D01*
X12770010Y6220003D01*
Y6239997D01*
X12780006Y6249993D01*
X12790003D01*
X12800000Y6239997D01*
Y6210006D01*
X12780006Y6190013D02*
X12770010Y6180016D01*
Y6160023D01*
X12780006Y6150026D01*
X12790003D01*
X12800000Y6160023D01*
Y6170019D01*
Y6160023D01*
X12809997Y6150026D01*
X12819993D01*
X12829990Y6160023D01*
Y6180016D01*
X12819993Y6190013D01*
X16859989Y5539976D02*
X16800011D01*
Y5509985D01*
X16810005Y5499989D01*
X16830000D01*
X16839996Y5509985D01*
Y5539976D01*
Y5519982D02*
X16859989Y5499989D01*
Y5479995D02*
Y5460002D01*
Y5469998D01*
X16800011D01*
X16810005Y5479995D01*
Y5430011D02*
X16800011Y5420015D01*
Y5400021D01*
X16810005Y5390024D01*
X16820004D01*
X16830000Y5400021D01*
Y5410018D01*
Y5400021D01*
X16839996Y5390024D01*
X16849995D01*
X16859989Y5400021D01*
Y5420015D01*
X16849995Y5430011D01*
X3104976Y5620010D02*
Y5679990D01*
X3074985D01*
X3064989Y5669993D01*
Y5650000D01*
X3074985Y5640003D01*
X3104976D01*
X3084982D02*
X3064989Y5620010D01*
X3044995D02*
X3025002D01*
X3034998D01*
Y5679990D01*
X3044995Y5669993D01*
X2995011Y5679990D02*
X2955024D01*
Y5669993D01*
X2995011Y5630007D01*
Y5620010D01*
X3104976Y5720010D02*
Y5779990D01*
X3074985D01*
X3064989Y5769993D01*
Y5750000D01*
X3074985Y5740003D01*
X3104976D01*
X3084982D02*
X3064989Y5720010D01*
X3044995D02*
X3025002D01*
X3034998D01*
Y5779990D01*
X3044995Y5769993D01*
X2995011D02*
X2985015Y5779990D01*
X2965021D01*
X2955024Y5769993D01*
Y5759997D01*
X2965021Y5750000D01*
X2955024Y5740003D01*
Y5730007D01*
X2965021Y5720010D01*
X2985015D01*
X2995011Y5730007D01*
Y5740003D01*
X2985015Y5750000D01*
X2995011Y5759997D01*
Y5769993D01*
X2985015Y5750000D02*
X2965021D01*
X1209974Y5370010D02*
Y5429990D01*
X1179984D01*
X1169987Y5419993D01*
Y5400000D01*
X1179984Y5390003D01*
X1209974D01*
X1189981D02*
X1169987Y5370010D01*
X1110006D02*
X1149994D01*
X1110006Y5409997D01*
Y5419993D01*
X1120003Y5429990D01*
X1139997D01*
X1149994Y5419993D01*
X1050026Y5429990D02*
X1090013D01*
Y5400000D01*
X1070019Y5409997D01*
X1060023D01*
X1050026Y5400000D01*
Y5380007D01*
X1060023Y5370010D01*
X1080016D01*
X1090013Y5380007D01*
X3109974Y5420010D02*
Y5479990D01*
X3079984D01*
X3069987Y5469993D01*
Y5450000D01*
X3079984Y5440003D01*
X3109974D01*
X3089981D02*
X3069987Y5420010D01*
X3010006D02*
X3049994D01*
X3010006Y5459997D01*
Y5469993D01*
X3020003Y5479990D01*
X3039997D01*
X3049994Y5469993D01*
X2990013Y5430007D02*
X2980016Y5420010D01*
X2960023D01*
X2950026Y5430007D01*
Y5469993D01*
X2960023Y5479990D01*
X2980016D01*
X2990013Y5469993D01*
Y5459997D01*
X2980016Y5450000D01*
X2950026D01*
X3109974Y5520010D02*
Y5579990D01*
X3079984D01*
X3069987Y5569993D01*
Y5550000D01*
X3079984Y5540003D01*
X3109974D01*
X3089981D02*
X3069987Y5520010D01*
X3049994Y5569993D02*
X3039997Y5579990D01*
X3020003D01*
X3010006Y5569993D01*
Y5559997D01*
X3020003Y5550000D01*
X3030000D01*
X3020003D01*
X3010006Y5540003D01*
Y5530007D01*
X3020003Y5520010D01*
X3039997D01*
X3049994Y5530007D01*
X2990013Y5569993D02*
X2980016Y5579990D01*
X2960023D01*
X2950026Y5569993D01*
Y5530007D01*
X2960023Y5520010D01*
X2980016D01*
X2990013Y5530007D01*
Y5569993D01*
X1209974Y5620010D02*
Y5679990D01*
X1179984D01*
X1169987Y5669993D01*
Y5650000D01*
X1179984Y5640003D01*
X1209974D01*
X1189981D02*
X1169987Y5620010D01*
X1149994Y5669993D02*
X1139997Y5679990D01*
X1120003D01*
X1110006Y5669993D01*
Y5659997D01*
X1120003Y5650000D01*
X1130000D01*
X1120003D01*
X1110006Y5640003D01*
Y5630007D01*
X1120003Y5620010D01*
X1139997D01*
X1149994Y5630007D01*
X1050026Y5679990D02*
X1070019Y5669993D01*
X1090013Y5650000D01*
Y5630007D01*
X1080016Y5620010D01*
X1060023D01*
X1050026Y5630007D01*
Y5640003D01*
X1060023Y5650000D01*
X1090013D01*
X1209974Y5720010D02*
Y5779990D01*
X1179984D01*
X1169987Y5769993D01*
Y5750000D01*
X1179984Y5740003D01*
X1209974D01*
X1189981D02*
X1169987Y5720010D01*
X1149994Y5769993D02*
X1139997Y5779990D01*
X1120003D01*
X1110006Y5769993D01*
Y5759997D01*
X1120003Y5750000D01*
X1130000D01*
X1120003D01*
X1110006Y5740003D01*
Y5730007D01*
X1120003Y5720010D01*
X1139997D01*
X1149994Y5730007D01*
X1090013Y5779990D02*
X1050026D01*
Y5769993D01*
X1090013Y5730007D01*
Y5720010D01*
X16559990Y5259977D02*
X16500010D01*
Y5229987D01*
X16510006Y5219990D01*
X16530001D01*
X16539997Y5229987D01*
Y5259977D01*
Y5239984D02*
X16559990Y5219990D01*
X16500010Y5160010D02*
Y5199997D01*
X16530001D01*
X16520002Y5180003D01*
Y5170006D01*
X16530001Y5160010D01*
X16549994D01*
X16559990Y5170006D01*
Y5190000D01*
X16549994Y5199997D01*
X16559990Y5140016D02*
Y5120023D01*
Y5130019D01*
X16500010D01*
X16510006Y5140016D01*
X16659990Y5669974D02*
X16600010D01*
Y5639984D01*
X16610006Y5629987D01*
X16629999D01*
X16639997Y5639984D01*
Y5669974D01*
Y5649981D02*
X16659990Y5629987D01*
X16600010Y5570006D02*
Y5609993D01*
X16629999D01*
X16620003Y5590000D01*
Y5580003D01*
X16629999Y5570006D01*
X16649994D01*
X16659990Y5580003D01*
Y5599997D01*
X16649994Y5609993D01*
X16659990Y5510026D02*
Y5550013D01*
X16620003Y5510026D01*
X16610006D01*
X16600010Y5520023D01*
Y5540016D01*
X16610006Y5550013D01*
X16639990Y3129974D02*
X16580009D01*
Y3099984D01*
X16590006Y3089987D01*
X16610001D01*
X16619997Y3099984D01*
Y3129974D01*
Y3109981D02*
X16639990Y3089987D01*
X16580009Y3030006D02*
X16590006Y3050000D01*
X16610001Y3069994D01*
X16629993D01*
X16639990Y3059997D01*
Y3040003D01*
X16629993Y3030006D01*
X16619997D01*
X16610001Y3040003D01*
Y3069994D01*
X16590006Y3010013D02*
X16580009Y3000016D01*
Y2980023D01*
X16590006Y2970026D01*
X16629993D01*
X16639990Y2980023D01*
Y3000016D01*
X16629993Y3010013D01*
X16590006D01*
X16629990Y4079974D02*
X16570009D01*
Y4049984D01*
X16580006Y4039987D01*
X16600000D01*
X16609997Y4049984D01*
Y4079974D01*
Y4059981D02*
X16629990Y4039987D01*
X16570009Y3980006D02*
X16580006Y4000000D01*
X16600000Y4019994D01*
X16619993D01*
X16629990Y4009997D01*
Y3990003D01*
X16619993Y3980006D01*
X16609997D01*
X16600000Y3990003D01*
Y4019994D01*
X16580006Y3960013D02*
X16570009Y3950016D01*
Y3930023D01*
X16580006Y3920026D01*
X16590002D01*
X16600000Y3930023D01*
Y3940019D01*
Y3930023D01*
X16609997Y3920026D01*
X16619993D01*
X16629990Y3930023D01*
Y3950016D01*
X16619993Y3960013D01*
X15012000Y525000D02*
Y584981D01*
X14982010D01*
X14972013Y574984D01*
Y554990D01*
X14982010Y544994D01*
X15012000D01*
X14992006D02*
X14972013Y525000D01*
X14912032Y584981D02*
X14932026Y574984D01*
X14952019Y554990D01*
Y534997D01*
X14942023Y525000D01*
X14922029D01*
X14912032Y534997D01*
Y544994D01*
X14922029Y554990D01*
X14952019D01*
X14892039Y584981D02*
X14852052D01*
Y574984D01*
X14892039Y534997D01*
Y525000D01*
X15312000D02*
Y584981D01*
X15282010D01*
X15272013Y574984D01*
Y554990D01*
X15282010Y544994D01*
X15312000D01*
X15292006D02*
X15272013Y525000D01*
X15212032Y584981D02*
X15232026Y574984D01*
X15252019Y554990D01*
Y534997D01*
X15242023Y525000D01*
X15222029D01*
X15212032Y534997D01*
Y544994D01*
X15222029Y554990D01*
X15252019D01*
X15192039Y574984D02*
X15182042Y584981D01*
X15162049D01*
X15152052Y574984D01*
Y564987D01*
X15162049Y554990D01*
X15152052Y544994D01*
Y534997D01*
X15162049Y525000D01*
X15182042D01*
X15192039Y534997D01*
Y544994D01*
X15182042Y554990D01*
X15192039Y564987D01*
Y574984D01*
X15182042Y554990D02*
X15162049D01*
X15612000Y525000D02*
Y584981D01*
X15582010D01*
X15572013Y574984D01*
Y554990D01*
X15582010Y544994D01*
X15612000D01*
X15592006D02*
X15572013Y525000D01*
X15512032Y584981D02*
X15532026Y574984D01*
X15552019Y554990D01*
Y534997D01*
X15542023Y525000D01*
X15522029D01*
X15512032Y534997D01*
Y544994D01*
X15522029Y554990D01*
X15552019D01*
X15492039Y534997D02*
X15482042Y525000D01*
X15462049D01*
X15452052Y534997D01*
Y574984D01*
X15462049Y584981D01*
X15482042D01*
X15492039Y574984D01*
Y564987D01*
X15482042Y554990D01*
X15452052D01*
X15912500Y525000D02*
Y584981D01*
X15882510D01*
X15872513Y574984D01*
Y554990D01*
X15882510Y544994D01*
X15912500D01*
X15892506D02*
X15872513Y525000D01*
X15852519Y584981D02*
X15812532D01*
Y574984D01*
X15852519Y534997D01*
Y525000D01*
X15792539Y574984D02*
X15782542Y584981D01*
X15762549D01*
X15752552Y574984D01*
Y534997D01*
X15762549Y525000D01*
X15782542D01*
X15792539Y534997D01*
Y574984D01*
X15389990Y3879974D02*
X15330010D01*
Y3849984D01*
X15340006Y3839987D01*
X15360000D01*
X15369997Y3849984D01*
Y3879974D01*
Y3859981D02*
X15389990Y3839987D01*
X15330010Y3819993D02*
Y3780006D01*
X15340006D01*
X15379993Y3819993D01*
X15389990D01*
Y3720026D02*
Y3760013D01*
X15350003Y3720026D01*
X15340006D01*
X15330010Y3730023D01*
Y3750016D01*
X15340006Y3760013D01*
X14929990Y3879974D02*
X14870010D01*
Y3849984D01*
X14880006Y3839987D01*
X14900000D01*
X14909997Y3849984D01*
Y3879974D01*
Y3859981D02*
X14929990Y3839987D01*
X14870010Y3819993D02*
Y3780006D01*
X14880006D01*
X14919993Y3819993D01*
X14929990D01*
X14880006Y3760013D02*
X14870010Y3750016D01*
Y3730023D01*
X14880006Y3720026D01*
X14890003D01*
X14900000Y3730023D01*
Y3740019D01*
Y3730023D01*
X14909997Y3720026D01*
X14919993D01*
X14929990Y3730023D01*
Y3750016D01*
X14919993Y3760013D01*
X11469990Y7339974D02*
X11410010D01*
Y7309984D01*
X11420006Y7299987D01*
X11440000D01*
X11449997Y7309984D01*
Y7339974D01*
Y7319980D02*
X11469990Y7299987D01*
X11410010Y7279993D02*
Y7240006D01*
X11420006D01*
X11459993Y7279993D01*
X11469990D01*
Y7190023D02*
X11410010D01*
X11440000Y7220013D01*
Y7180026D01*
X11469990Y6779974D02*
X11410010D01*
Y6749984D01*
X11420006Y6739987D01*
X11440000D01*
X11449997Y6749984D01*
Y6779974D01*
Y6759980D02*
X11469990Y6739987D01*
X11410010Y6719993D02*
Y6680006D01*
X11420006D01*
X11459993Y6719993D01*
X11469990D01*
X11410010Y6620026D02*
Y6660013D01*
X11440000D01*
X11430003Y6640019D01*
Y6630023D01*
X11440000Y6620026D01*
X11459993D01*
X11469990Y6630023D01*
Y6650016D01*
X11459993Y6660013D01*
X16212000Y525000D02*
Y584981D01*
X16182011D01*
X16172012Y574984D01*
Y554990D01*
X16182011Y544994D01*
X16212000D01*
X16192005D02*
X16172012Y525000D01*
X16152020Y584981D02*
X16112032D01*
Y574984D01*
X16152020Y534997D01*
Y525000D01*
X16052052Y584981D02*
X16072044Y574984D01*
X16092039Y554990D01*
Y534997D01*
X16082043Y525000D01*
X16062050D01*
X16052052Y534997D01*
Y544994D01*
X16062050Y554990D01*
X16092039D01*
X16525999Y525000D02*
Y584981D01*
X16496010D01*
X16486013Y574984D01*
Y554990D01*
X16496010Y544994D01*
X16525999D01*
X16506006D02*
X16486013Y525000D01*
X16466019Y584981D02*
X16426031D01*
Y574984D01*
X16466019Y534997D01*
Y525000D01*
X16406038Y584981D02*
X16366053D01*
Y574984D01*
X16406038Y534997D01*
Y525000D01*
X15029990Y4259974D02*
X14970010D01*
Y4229984D01*
X14980006Y4219987D01*
X15000000D01*
X15009997Y4229984D01*
Y4259974D01*
Y4239980D02*
X15029990Y4219987D01*
X14980006Y4199993D02*
X14970010Y4189997D01*
Y4170003D01*
X14980006Y4160006D01*
X14990003D01*
X15000000Y4170003D01*
X15009997Y4160006D01*
X15019993D01*
X15029990Y4170003D01*
Y4189997D01*
X15019993Y4199993D01*
X15009997D01*
X15000000Y4189997D01*
X14990003Y4199993D01*
X14980006D01*
X15000000Y4189997D02*
Y4170003D01*
X14980006Y4140013D02*
X14970010Y4130016D01*
Y4110023D01*
X14980006Y4100026D01*
X15019993D01*
X15029990Y4110023D01*
Y4130016D01*
X15019993Y4140013D01*
X14980006D01*
X15029990Y4729977D02*
X14970010D01*
Y4699987D01*
X14980006Y4689990D01*
X15000000D01*
X15009997Y4699987D01*
Y4729977D01*
Y4709984D02*
X15029990Y4689990D01*
X14980006Y4669997D02*
X14970010Y4660000D01*
Y4640006D01*
X14980006Y4630010D01*
X14990003D01*
X15000000Y4640006D01*
X15009997Y4630010D01*
X15019993D01*
X15029990Y4640006D01*
Y4660000D01*
X15019993Y4669997D01*
X15009997D01*
X15000000Y4660000D01*
X14990003Y4669997D01*
X14980006D01*
X15000000Y4660000D02*
Y4640006D01*
X15029990Y4610016D02*
Y4590023D01*
Y4600019D01*
X14970010D01*
X14980006Y4610016D01*
X15479990Y4259974D02*
X15420010D01*
Y4229984D01*
X15430006Y4219987D01*
X15450000D01*
X15459997Y4229984D01*
Y4259974D01*
Y4239980D02*
X15479990Y4219987D01*
X15430006Y4199993D02*
X15420010Y4189997D01*
Y4170003D01*
X15430006Y4160006D01*
X15440003D01*
X15450000Y4170003D01*
X15459997Y4160006D01*
X15469993D01*
X15479990Y4170003D01*
Y4189997D01*
X15469993Y4199993D01*
X15459997D01*
X15450000Y4189997D01*
X15440003Y4199993D01*
X15430006D01*
X15450000Y4189997D02*
Y4170003D01*
X15479990Y4100026D02*
Y4140013D01*
X15440003Y4100026D01*
X15430006D01*
X15420010Y4110023D01*
Y4130016D01*
X15430006Y4140013D01*
X15479990Y4749974D02*
X15420010D01*
Y4719984D01*
X15430006Y4709987D01*
X15450000D01*
X15459997Y4719984D01*
Y4749974D01*
Y4729981D02*
X15479990Y4709987D01*
X15430006Y4689993D02*
X15420010Y4679997D01*
Y4660003D01*
X15430006Y4650006D01*
X15440003D01*
X15450000Y4660003D01*
X15459997Y4650006D01*
X15469994D01*
X15479990Y4660003D01*
Y4679997D01*
X15469994Y4689993D01*
X15459997D01*
X15450000Y4679997D01*
X15440003Y4689993D01*
X15430006D01*
X15450000Y4679997D02*
Y4660003D01*
X15430006Y4630013D02*
X15420010Y4620016D01*
Y4600023D01*
X15430006Y4590026D01*
X15440003D01*
X15450000Y4600023D01*
Y4610019D01*
Y4600023D01*
X15459997Y4590026D01*
X15469994D01*
X15479990Y4600023D01*
Y4620016D01*
X15469994Y4630013D01*
X13579990Y6799974D02*
X13520010D01*
Y6769984D01*
X13530006Y6759987D01*
X13550000D01*
X13559997Y6769984D01*
Y6799974D01*
Y6779980D02*
X13579990Y6759987D01*
X13530006Y6739993D02*
X13520010Y6729997D01*
Y6710003D01*
X13530006Y6700006D01*
X13540003D01*
X13550000Y6710003D01*
X13559997Y6700006D01*
X13569993D01*
X13579990Y6710003D01*
Y6729997D01*
X13569993Y6739993D01*
X13559997D01*
X13550000Y6729997D01*
X13540003Y6739993D01*
X13530006D01*
X13550000Y6729997D02*
Y6710003D01*
X13579990Y6650023D02*
X13520010D01*
X13550000Y6680013D01*
Y6640026D01*
X14269990Y6639974D02*
X14210010D01*
Y6609984D01*
X14220006Y6599987D01*
X14240000D01*
X14249997Y6609984D01*
Y6639974D01*
Y6619981D02*
X14269990Y6599987D01*
X14220006Y6579993D02*
X14210010Y6569997D01*
Y6550003D01*
X14220006Y6540006D01*
X14230003D01*
X14240000Y6550003D01*
X14249997Y6540006D01*
X14259994D01*
X14269990Y6550003D01*
Y6569997D01*
X14259994Y6579993D01*
X14249997D01*
X14240000Y6569997D01*
X14230003Y6579993D01*
X14220006D01*
X14240000Y6569997D02*
Y6550003D01*
X14210010Y6480026D02*
Y6520013D01*
X14240000D01*
X14230003Y6500019D01*
Y6490023D01*
X14240000Y6480026D01*
X14259994D01*
X14269990Y6490023D01*
Y6510016D01*
X14259994Y6520013D01*
X12329990Y6749974D02*
X12270010D01*
Y6719984D01*
X12280006Y6709987D01*
X12300000D01*
X12309997Y6719984D01*
Y6749974D01*
Y6729980D02*
X12329990Y6709987D01*
X12280006Y6689993D02*
X12270010Y6679997D01*
Y6660003D01*
X12280006Y6650006D01*
X12290003D01*
X12300000Y6660003D01*
X12309997Y6650006D01*
X12319993D01*
X12329990Y6660003D01*
Y6679997D01*
X12319993Y6689993D01*
X12309997D01*
X12300000Y6679997D01*
X12290003Y6689993D01*
X12280006D01*
X12300000Y6679997D02*
Y6660003D01*
X12270010Y6590026D02*
X12280006Y6610019D01*
X12300000Y6630013D01*
X12319993D01*
X12329990Y6620016D01*
Y6600023D01*
X12319993Y6590026D01*
X12309997D01*
X12300000Y6600023D01*
Y6630013D01*
X12929990Y6749974D02*
X12870010D01*
Y6719984D01*
X12880006Y6709987D01*
X12900000D01*
X12909997Y6719984D01*
Y6749974D01*
Y6729980D02*
X12929990Y6709987D01*
X12880006Y6689993D02*
X12870010Y6679997D01*
Y6660003D01*
X12880006Y6650006D01*
X12890003D01*
X12900000Y6660003D01*
X12909997Y6650006D01*
X12919993D01*
X12929990Y6660003D01*
Y6679997D01*
X12919993Y6689993D01*
X12909997D01*
X12900000Y6679997D01*
X12890003Y6689993D01*
X12880006D01*
X12900000Y6679997D02*
Y6660003D01*
X12870010Y6630013D02*
Y6590026D01*
X12880006D01*
X12919993Y6630013D01*
X12929990D01*
X12529990Y6309974D02*
X12470010D01*
Y6279984D01*
X12480006Y6269987D01*
X12500000D01*
X12509997Y6279984D01*
Y6309974D01*
Y6289980D02*
X12529990Y6269987D01*
X12480006Y6249993D02*
X12470010Y6239997D01*
Y6220003D01*
X12480006Y6210006D01*
X12490003D01*
X12500000Y6220003D01*
X12509997Y6210006D01*
X12519993D01*
X12529990Y6220003D01*
Y6239997D01*
X12519993Y6249993D01*
X12509997D01*
X12500000Y6239997D01*
X12490003Y6249993D01*
X12480006D01*
X12500000Y6239997D02*
Y6220003D01*
X12480006Y6190013D02*
X12470010Y6180016D01*
Y6160023D01*
X12480006Y6150026D01*
X12490003D01*
X12500000Y6160023D01*
X12509997Y6150026D01*
X12519993D01*
X12529990Y6160023D01*
Y6180016D01*
X12519993Y6190013D01*
X12509997D01*
X12500000Y6180016D01*
X12490003Y6190013D01*
X12480006D01*
X12500000Y6180016D02*
Y6160023D01*
X13129990Y6309974D02*
X13070010D01*
Y6279984D01*
X13080006Y6269987D01*
X13100000D01*
X13109997Y6279984D01*
Y6309974D01*
Y6289980D02*
X13129990Y6269987D01*
X13080006Y6249993D02*
X13070010Y6239997D01*
Y6220003D01*
X13080006Y6210006D01*
X13090003D01*
X13100000Y6220003D01*
X13109997Y6210006D01*
X13119993D01*
X13129990Y6220003D01*
Y6239997D01*
X13119993Y6249993D01*
X13109997D01*
X13100000Y6239997D01*
X13090003Y6249993D01*
X13080006D01*
X13100000Y6239997D02*
Y6220003D01*
X13119993Y6190013D02*
X13129990Y6180016D01*
Y6160023D01*
X13119993Y6150026D01*
X13080006D01*
X13070010Y6160023D01*
Y6180016D01*
X13080006Y6190013D01*
X13090003D01*
X13100000Y6180016D01*
Y6150026D01*
X13229990Y6749974D02*
X13170010D01*
Y6719984D01*
X13180006Y6709987D01*
X13200000D01*
X13209997Y6719984D01*
Y6749974D01*
Y6729980D02*
X13229990Y6709987D01*
X13219993Y6689993D02*
X13229990Y6679997D01*
Y6660003D01*
X13219993Y6650006D01*
X13180006D01*
X13170010Y6660003D01*
Y6679997D01*
X13180006Y6689993D01*
X13190003D01*
X13200000Y6679997D01*
Y6650006D01*
X13180006Y6630013D02*
X13170010Y6620016D01*
Y6600023D01*
X13180006Y6590026D01*
X13219993D01*
X13229990Y6600023D01*
Y6620016D01*
X13219993Y6630013D01*
X13180006D01*
X12630384Y6727654D02*
X12570403D01*
Y6697664D01*
X12580400Y6687667D01*
X12600394D01*
X12610390Y6697664D01*
Y6727654D01*
Y6707661D02*
X12630384Y6687667D01*
X12620387Y6667674D02*
X12630384Y6657677D01*
Y6637684D01*
X12620387Y6627687D01*
X12580400D01*
X12570403Y6637684D01*
Y6657677D01*
X12580400Y6667674D01*
X12590397D01*
X12600394Y6657677D01*
Y6627687D01*
X12630384Y6607693D02*
Y6587700D01*
Y6597696D01*
X12570403D01*
X12580400Y6607693D01*
X13429990Y6309974D02*
X13370010D01*
Y6279984D01*
X13380006Y6269987D01*
X13400000D01*
X13409997Y6279984D01*
Y6309974D01*
Y6289980D02*
X13429990Y6269987D01*
X13419993Y6249993D02*
X13429990Y6239997D01*
Y6220003D01*
X13419993Y6210006D01*
X13380006D01*
X13370010Y6220003D01*
Y6239997D01*
X13380006Y6249993D01*
X13390003D01*
X13400000Y6239997D01*
Y6210006D01*
X13429990Y6150026D02*
Y6190013D01*
X13390003Y6150026D01*
X13380006D01*
X13370010Y6160023D01*
Y6180016D01*
X13380006Y6190013D01*
D84*
X4050000Y5300000D02*
X4150000D01*
Y6300000D01*
X4050000D02*
X4150000D01*
X4050000Y6225000D02*
Y6300000D01*
Y5300000D02*
Y6225000D01*
%TF.MD5,f6cee25c83c40e17507d5b8c362575f5*%
M02*
