%TF.GenerationSoftware,Altium Limited,Altium Designer,21.6.4 (81)*%
G04 Layer_Color=16711935*
%FSLAX26Y26*%
%MOIN*%
%TF.SameCoordinates,892991E7-994B-4F78-B437-02A20B6E2807*%
%TF.FilePolarity,Negative*%
%TF.FileFunction,Soldermask,Bot*%
%TF.Part,Single*%
G01*
G75*
%TA.AperFunction,ComponentPad*%
%ADD36C,0.060000*%
%ADD46C,0.070000*%
%ADD47R,0.070000X0.070000*%
%TA.AperFunction,SMDPad,CuDef*%
G04:AMPARAMS|DCode=85|XSize=59mil|YSize=47mil|CornerRadius=9.955mil|HoleSize=0mil|Usage=FLASHONLY|Rotation=0.000|XOffset=0mil|YOffset=0mil|HoleType=Round|Shape=RoundedRectangle|*
%AMROUNDEDRECTD85*
21,1,0.059000,0.027090,0,0,0.0*
21,1,0.039090,0.047000,0,0,0.0*
1,1,0.019910,0.019545,-0.013545*
1,1,0.019910,-0.019545,-0.013545*
1,1,0.019910,-0.019545,0.013545*
1,1,0.019910,0.019545,0.013545*
%
%ADD85ROUNDEDRECTD85*%
G04:AMPARAMS|DCode=86|XSize=59mil|YSize=47mil|CornerRadius=9.955mil|HoleSize=0mil|Usage=FLASHONLY|Rotation=90.000|XOffset=0mil|YOffset=0mil|HoleType=Round|Shape=RoundedRectangle|*
%AMROUNDEDRECTD86*
21,1,0.059000,0.027090,0,0,90.0*
21,1,0.039090,0.047000,0,0,90.0*
1,1,0.019910,0.013545,0.019545*
1,1,0.019910,0.013545,-0.019545*
1,1,0.019910,-0.013545,-0.019545*
1,1,0.019910,-0.013545,0.019545*
%
%ADD86ROUNDEDRECTD86*%
%ADD87R,0.047307X0.039433*%
%TA.AperFunction,ComponentPad*%
%ADD88C,0.064000*%
%ADD89R,0.064000X0.064000*%
%ADD90C,0.085102*%
%ADD91C,0.079000*%
%ADD92R,0.079000X0.079000*%
%ADD93C,0.240220*%
%ADD94C,0.051244*%
%ADD95C,0.094551*%
%ADD96C,0.060221*%
%ADD97R,0.060221X0.060221*%
%ADD98C,0.249606*%
%ADD99C,0.122110*%
%ADD100R,0.066992X0.066992*%
%ADD101C,0.066992*%
%ADD102R,0.063055X0.063055*%
%ADD103C,0.063055*%
%ADD104C,0.078000*%
%ADD105C,0.134000*%
G04:AMPARAMS|DCode=106|XSize=41.339mil|YSize=64.961mil|CornerRadius=20.669mil|HoleSize=0mil|Usage=FLASHONLY|Rotation=270.000|XOffset=0mil|YOffset=0mil|HoleType=Round|Shape=RoundedRectangle|*
%AMROUNDEDRECTD106*
21,1,0.041339,0.023622,0,0,270.0*
21,1,0.000000,0.064961,0,0,270.0*
1,1,0.041339,-0.011811,0.000000*
1,1,0.041339,-0.011811,0.000000*
1,1,0.041339,0.011811,0.000000*
1,1,0.041339,0.011811,0.000000*
%
%ADD106ROUNDEDRECTD106*%
G04:AMPARAMS|DCode=107|XSize=53.15mil|YSize=41.339mil|CornerRadius=20.669mil|HoleSize=0mil|Usage=FLASHONLY|Rotation=270.000|XOffset=0mil|YOffset=0mil|HoleType=Round|Shape=RoundedRectangle|*
%AMROUNDEDRECTD107*
21,1,0.053150,0.000000,0,0,270.0*
21,1,0.011811,0.041339,0,0,270.0*
1,1,0.041339,0.000000,-0.005906*
1,1,0.041339,0.000000,0.005906*
1,1,0.041339,0.000000,0.005906*
1,1,0.041339,0.000000,-0.005906*
%
%ADD107ROUNDEDRECTD107*%
%ADD108O,0.093600X0.060000*%
%ADD109C,0.129980*%
G04:AMPARAMS|DCode=110|XSize=70mil|YSize=70mil|CornerRadius=0mil|HoleSize=0mil|Usage=FLASHONLY|Rotation=0.000|XOffset=0mil|YOffset=0mil|HoleType=Round|Shape=Octagon|*
%AMOCTAGOND110*
4,1,8,0.035000,-0.017500,0.035000,0.017500,0.017500,0.035000,-0.017500,0.035000,-0.035000,0.017500,-0.035000,-0.017500,-0.017500,-0.035000,0.017500,-0.035000,0.035000,-0.017500,0.0*
%
%ADD110OCTAGOND110*%

G04:AMPARAMS|DCode=111|XSize=65.02mil|YSize=65.02mil|CornerRadius=0mil|HoleSize=0mil|Usage=FLASHONLY|Rotation=90.000|XOffset=0mil|YOffset=0mil|HoleType=Round|Shape=Octagon|*
%AMOCTAGOND111*
4,1,8,0.016255,0.032510,-0.016255,0.032510,-0.032510,0.016255,-0.032510,-0.016255,-0.016255,-0.032510,0.016255,-0.032510,0.032510,-0.016255,0.032510,0.016255,0.016255,0.032510,0.0*
%
%ADD111OCTAGOND111*%

G04:AMPARAMS|DCode=112|XSize=65.02mil|YSize=65.02mil|CornerRadius=0mil|HoleSize=0mil|Usage=FLASHONLY|Rotation=0.000|XOffset=0mil|YOffset=0mil|HoleType=Round|Shape=Octagon|*
%AMOCTAGOND112*
4,1,8,0.032510,-0.016255,0.032510,0.016255,0.016255,0.032510,-0.016255,0.032510,-0.032510,0.016255,-0.032510,-0.016255,-0.016255,-0.032510,0.016255,-0.032510,0.032510,-0.016255,0.0*
%
%ADD112OCTAGOND112*%

%TA.AperFunction,SMDPad,CuDef*%
%ADD113R,0.066992X0.141795*%
%ADD114R,0.090614X0.177228*%
%TA.AperFunction,ComponentPad*%
%ADD115C,0.141795*%
%TA.AperFunction,SMDPad,CuDef*%
%ADD116R,0.141795X0.074079*%
%ADD117R,0.141795X0.066992*%
%ADD118R,0.177228X0.090614*%
%TA.AperFunction,ComponentPad*%
%ADD119R,0.066992X0.066992*%
%ADD120R,0.064000X0.064000*%
%TA.AperFunction,SMDPad,CuDef*%
%ADD121R,0.074079X0.141795*%
%TA.AperFunction,ComponentPad*%
%ADD122R,0.079000X0.079000*%
%TA.AperFunction,WasherPad*%
%ADD123C,0.154000*%
%TA.AperFunction,ViaPad*%
%ADD124C,0.024000*%
%ADD125C,0.054000*%
%ADD126C,0.044000*%
D36*
X13750000Y7050000D02*
D03*
X13850000D02*
D03*
X13950000D02*
D03*
X10090000Y7190000D02*
D03*
X10190000D02*
D03*
X10290000D02*
D03*
X8790000D02*
D03*
X8890000D02*
D03*
X8990000D02*
D03*
X15600000Y3850000D02*
D03*
Y3750000D02*
D03*
Y3650000D02*
D03*
X15150000D02*
D03*
Y3750000D02*
D03*
Y3850000D02*
D03*
Y4300000D02*
D03*
Y4400000D02*
D03*
Y4500000D02*
D03*
X15600000Y4300000D02*
D03*
Y4400000D02*
D03*
Y4500000D02*
D03*
D46*
X10590000Y5740000D02*
D03*
X10540000Y5940000D02*
D03*
X10490000Y5740000D02*
D03*
X10440000Y5940000D02*
D03*
X10390000Y5740000D02*
D03*
X10340000Y5940000D02*
D03*
X10290000Y5740000D02*
D03*
X10240000Y5940000D02*
D03*
X10190000Y5740000D02*
D03*
X10140000Y5940000D02*
D03*
X10090000Y5740000D02*
D03*
X10040000Y5940000D02*
D03*
X9990000Y5740000D02*
D03*
X9940000Y5940000D02*
D03*
X9340000Y5740000D02*
D03*
X9290000Y5940000D02*
D03*
X9240000Y5740000D02*
D03*
X9190000Y5940000D02*
D03*
X9140000Y5740000D02*
D03*
X9090000Y5940000D02*
D03*
X9040000Y5740000D02*
D03*
X8990000Y5940000D02*
D03*
X8940000Y5740000D02*
D03*
X8890000Y5940000D02*
D03*
X8840000Y5740000D02*
D03*
X8790000Y5940000D02*
D03*
X8740000Y5740000D02*
D03*
X8690000Y5940000D02*
D03*
D47*
X9890000Y5740000D02*
D03*
X8640000D02*
D03*
D85*
X12800000Y6435500D02*
D03*
Y6364500D02*
D03*
X16830000Y5254500D02*
D03*
Y5325500D02*
D03*
X16530001Y5354500D02*
D03*
Y5425500D02*
D03*
X16629999D02*
D03*
Y5354500D02*
D03*
X16699995Y3014506D02*
D03*
Y3085506D02*
D03*
X16700001Y3964500D02*
D03*
Y4035500D02*
D03*
X15450000Y3764500D02*
D03*
Y3835500D02*
D03*
X15000000Y3764500D02*
D03*
Y3835500D02*
D03*
X11440000Y7125500D02*
D03*
Y7054500D02*
D03*
Y6911000D02*
D03*
Y6840000D02*
D03*
X15000000Y4314500D02*
D03*
Y4385500D02*
D03*
Y4464500D02*
D03*
Y4535500D02*
D03*
X15450000Y4314500D02*
D03*
Y4385500D02*
D03*
Y4464500D02*
D03*
Y4535500D02*
D03*
X13550394Y6585500D02*
D03*
Y6514500D02*
D03*
X14150000D02*
D03*
Y6585500D02*
D03*
X12300000Y6464500D02*
D03*
Y6535500D02*
D03*
X12900000Y6464500D02*
D03*
Y6535500D02*
D03*
X12500000Y6435500D02*
D03*
Y6364500D02*
D03*
X13100000Y6435500D02*
D03*
Y6364500D02*
D03*
X13200000Y6464500D02*
D03*
Y6535500D02*
D03*
X12600000Y6464500D02*
D03*
Y6535500D02*
D03*
X13400000Y6435500D02*
D03*
Y6364500D02*
D03*
D86*
X3164500Y5650000D02*
D03*
X3235500D02*
D03*
Y5750000D02*
D03*
X3164500D02*
D03*
X1264500Y5400000D02*
D03*
X1335500D02*
D03*
X3164500Y5550000D02*
D03*
X3235500D02*
D03*
Y5450000D02*
D03*
X3164500D02*
D03*
X1335500Y5650000D02*
D03*
X1264500D02*
D03*
Y5750000D02*
D03*
X1335500D02*
D03*
X14914500Y450000D02*
D03*
X14985500D02*
D03*
X15214500Y450011D02*
D03*
X15285500D02*
D03*
X15514500Y450000D02*
D03*
X15585500D02*
D03*
X15814500D02*
D03*
X15885500D02*
D03*
X16114500Y450003D02*
D03*
X16185499D02*
D03*
X16428213Y450000D02*
D03*
X16499212D02*
D03*
D87*
X2098032Y6350000D02*
D03*
Y6450000D02*
D03*
X1850000Y6350000D02*
D03*
Y6450000D02*
D03*
X15430000Y5040000D02*
D03*
Y5140000D02*
D03*
X15181969Y5040000D02*
D03*
Y5140000D02*
D03*
X15428031Y5490000D02*
D03*
Y5590000D02*
D03*
X15180000Y5490000D02*
D03*
Y5590000D02*
D03*
X15428031Y5840000D02*
D03*
Y5940000D02*
D03*
X15180000Y5840000D02*
D03*
Y5940000D02*
D03*
X1851968Y4950000D02*
D03*
Y4850000D02*
D03*
X2100000Y4950000D02*
D03*
Y4850000D02*
D03*
D88*
X3650000Y2500000D02*
D03*
X3550000D02*
D03*
X3450000D02*
D03*
X575000Y4800000D02*
D03*
Y4900000D02*
D03*
Y5000000D02*
D03*
Y6450000D02*
D03*
Y6350000D02*
D03*
Y6250000D02*
D03*
X3450000Y1850000D02*
D03*
X3350000D02*
D03*
X3250000D02*
D03*
X850000D02*
D03*
X950000D02*
D03*
X1050000D02*
D03*
X1450000D02*
D03*
X1550000D02*
D03*
X1650000D02*
D03*
X2050000D02*
D03*
X2150000D02*
D03*
X2250000D02*
D03*
X2650000D02*
D03*
X2750000D02*
D03*
X2850000D02*
D03*
X3250000Y1350000D02*
D03*
X3350000D02*
D03*
X3450000D02*
D03*
X1050000Y350000D02*
D03*
X950000D02*
D03*
X850000D02*
D03*
X1650000D02*
D03*
X1550000D02*
D03*
X1450000D02*
D03*
X2250000D02*
D03*
X2150000D02*
D03*
X2050000D02*
D03*
X2850000D02*
D03*
X2750000D02*
D03*
X2650000D02*
D03*
X850000Y1350000D02*
D03*
X950000D02*
D03*
X1050000D02*
D03*
X850000Y850000D02*
D03*
X950000D02*
D03*
X1050000D02*
D03*
X3250000Y350000D02*
D03*
X3350000D02*
D03*
X3450000D02*
D03*
X3250000Y850000D02*
D03*
X3350000D02*
D03*
X3450000D02*
D03*
X7450000Y6800000D02*
D03*
X7550000D02*
D03*
X7650000D02*
D03*
X2700000Y2500000D02*
D03*
X2800000D02*
D03*
X2900000D02*
D03*
X2700000Y3050000D02*
D03*
X2800000D02*
D03*
X2900000D02*
D03*
X2700000Y3600000D02*
D03*
X2800000D02*
D03*
X2900000D02*
D03*
X3650000D02*
D03*
X3550000D02*
D03*
X3450000D02*
D03*
X3650000Y3050000D02*
D03*
X3550000D02*
D03*
X3450000D02*
D03*
X15600000Y2550000D02*
D03*
Y2650000D02*
D03*
Y2750000D02*
D03*
D89*
X3350000Y2500000D02*
D03*
X3150000Y1850000D02*
D03*
X750000D02*
D03*
X1350000D02*
D03*
X1950000D02*
D03*
X2550000D02*
D03*
X3150000Y1350000D02*
D03*
X750000Y350000D02*
D03*
X1350000D02*
D03*
X1950000D02*
D03*
X2550000D02*
D03*
X750000Y1350000D02*
D03*
Y850000D02*
D03*
X3150000Y350000D02*
D03*
Y850000D02*
D03*
X7350000Y6800000D02*
D03*
X2600000Y2500000D02*
D03*
Y3050000D02*
D03*
Y3600000D02*
D03*
X3350000D02*
D03*
Y3050000D02*
D03*
D90*
X1292126Y3174016D02*
D03*
X17024015Y2557874D02*
D03*
Y3507874D02*
D03*
X1292126Y3724016D02*
D03*
Y2624016D02*
D03*
X2192126Y3724016D02*
D03*
Y2624016D02*
D03*
X13132126Y7164016D02*
D03*
X2192126Y3174016D02*
D03*
D91*
X1250000Y3050000D02*
D03*
X1150000D02*
D03*
X1050000D02*
D03*
X950000D02*
D03*
X850000D02*
D03*
X16900000Y3000000D02*
D03*
Y2900000D02*
D03*
Y2800000D02*
D03*
Y2700000D02*
D03*
Y2600000D02*
D03*
Y3550000D02*
D03*
Y3650000D02*
D03*
Y3750000D02*
D03*
Y3850000D02*
D03*
Y3950000D02*
D03*
X850000Y3600000D02*
D03*
X950000D02*
D03*
X1050000D02*
D03*
X1150000D02*
D03*
X1250000D02*
D03*
X850000Y2500000D02*
D03*
X950000D02*
D03*
X1050000D02*
D03*
X1150000D02*
D03*
X1250000D02*
D03*
X2150000Y3600000D02*
D03*
X2050000D02*
D03*
X1950000D02*
D03*
X1850000D02*
D03*
X1750000D02*
D03*
Y2500000D02*
D03*
X1850000D02*
D03*
X1950000D02*
D03*
X2050000D02*
D03*
X2150000D02*
D03*
X13090000Y7040000D02*
D03*
X12990000D02*
D03*
X12890000D02*
D03*
X12790000D02*
D03*
X12690000D02*
D03*
X1750000Y3050000D02*
D03*
X1850000D02*
D03*
X1950000D02*
D03*
X2050000D02*
D03*
X2150000D02*
D03*
D92*
X750000D02*
D03*
Y3600000D02*
D03*
Y2500000D02*
D03*
X1650000Y3600000D02*
D03*
Y2500000D02*
D03*
X12590000Y7040000D02*
D03*
X1650000Y3050000D02*
D03*
D93*
X12000000Y400000D02*
D03*
Y2683465D02*
D03*
X10070866Y400000D02*
D03*
Y2683465D02*
D03*
D94*
X10140000Y6240000D02*
D03*
Y6540000D02*
D03*
X10290000Y6240000D02*
D03*
Y6540000D02*
D03*
X9040000Y6240000D02*
D03*
Y6540000D02*
D03*
X8890000Y6240000D02*
D03*
Y6540000D02*
D03*
D95*
X16850393Y2258661D02*
D03*
Y1741339D02*
D03*
D96*
X16743702Y2137795D02*
D03*
Y2039370D02*
D03*
Y1960630D02*
D03*
D97*
Y1862205D02*
D03*
D98*
X300000Y300000D02*
D03*
Y7200000D02*
D03*
X16950001Y7220000D02*
D03*
Y300000D02*
D03*
D99*
X5534646Y6966535D02*
D03*
X5700000D02*
D03*
Y6750000D02*
D03*
X5534646D02*
D03*
X11634646Y7141535D02*
D03*
X11800000D02*
D03*
Y6925000D02*
D03*
X11634646D02*
D03*
X16434647Y6486535D02*
D03*
X16600000D02*
D03*
Y6270000D02*
D03*
X16434647D02*
D03*
D100*
X12700000Y6350000D02*
D03*
Y5800000D02*
D03*
X16930000Y6290000D02*
D03*
X13650000Y6450000D02*
D03*
X14050000D02*
D03*
X13650000Y5800000D02*
D03*
X14050000D02*
D03*
X5450000Y5850000D02*
D03*
X5850000D02*
D03*
X6250000D02*
D03*
X5050000D02*
D03*
X12400000Y6350000D02*
D03*
X13000000D02*
D03*
X13300000D02*
D03*
X12400000Y5800000D02*
D03*
X13000000D02*
D03*
X13300000D02*
D03*
D101*
X12700000Y6450000D02*
D03*
Y6550000D02*
D03*
Y6000000D02*
D03*
Y5900000D02*
D03*
X16930000Y6390000D02*
D03*
Y6490000D02*
D03*
X800000Y5300000D02*
D03*
X900000D02*
D03*
Y5850000D02*
D03*
X800000D02*
D03*
X11790000Y6590000D02*
D03*
X11690000D02*
D03*
X13650000Y6650000D02*
D03*
Y6550000D02*
D03*
X14050000Y6650000D02*
D03*
Y6550000D02*
D03*
X13650000Y5900000D02*
D03*
Y6000000D02*
D03*
X14050000Y5900000D02*
D03*
Y6000000D02*
D03*
X5450000Y5950000D02*
D03*
Y6050000D02*
D03*
X5850000Y5950000D02*
D03*
Y6050000D02*
D03*
X6250000Y5950000D02*
D03*
Y6050000D02*
D03*
X5050000Y5950000D02*
D03*
Y6050000D02*
D03*
X12400000Y6450000D02*
D03*
Y6550000D02*
D03*
X13000000Y6450000D02*
D03*
Y6550000D02*
D03*
X13300000Y6450000D02*
D03*
Y6550000D02*
D03*
X12400000Y5900000D02*
D03*
Y6000000D02*
D03*
X13000000D02*
D03*
Y5900000D02*
D03*
X13300000Y6000000D02*
D03*
Y5900000D02*
D03*
D102*
X4100000Y6250000D02*
D03*
D103*
Y6150000D02*
D03*
Y5950000D02*
D03*
Y5850000D02*
D03*
Y5750000D02*
D03*
Y5650000D02*
D03*
Y5550000D02*
D03*
Y5450000D02*
D03*
Y5350000D02*
D03*
Y6050000D02*
D03*
D104*
X6550000Y6150000D02*
D03*
Y6050000D02*
D03*
Y5950000D02*
D03*
Y5850000D02*
D03*
Y5750000D02*
D03*
Y5650000D02*
D03*
Y5550000D02*
D03*
Y5450000D02*
D03*
Y5350000D02*
D03*
Y5250000D02*
D03*
X7750000Y5150000D02*
D03*
Y5250000D02*
D03*
Y5350000D02*
D03*
Y5450000D02*
D03*
Y5550000D02*
D03*
Y5650000D02*
D03*
Y5750000D02*
D03*
D105*
X7700000Y6400000D02*
D03*
Y5000000D02*
D03*
X6600000Y6400000D02*
D03*
Y5000000D02*
D03*
D106*
X17170000Y1262205D02*
D03*
Y1537795D02*
D03*
D107*
X17063702Y1301575D02*
D03*
Y1498425D02*
D03*
D108*
X5106299Y1200000D02*
D03*
Y1300000D02*
D03*
Y1400000D02*
D03*
Y1600000D02*
D03*
Y1100000D02*
D03*
Y3260000D02*
D03*
Y3360000D02*
D03*
Y3160000D02*
D03*
Y3060000D02*
D03*
Y700000D02*
D03*
Y800000D02*
D03*
Y900000D02*
D03*
Y1000000D02*
D03*
Y2300000D02*
D03*
Y2960000D02*
D03*
Y2660000D02*
D03*
Y2460000D02*
D03*
Y2560000D02*
D03*
Y2860000D02*
D03*
Y2760000D02*
D03*
Y2000000D02*
D03*
Y1700000D02*
D03*
Y1800000D02*
D03*
Y1900000D02*
D03*
Y2100000D02*
D03*
Y2200000D02*
D03*
X7006299Y3000000D02*
D03*
Y2900000D02*
D03*
Y2800000D02*
D03*
Y2700000D02*
D03*
Y2600000D02*
D03*
Y2500000D02*
D03*
Y2400000D02*
D03*
Y2300000D02*
D03*
Y1200000D02*
D03*
Y1400000D02*
D03*
Y2100000D02*
D03*
Y1900000D02*
D03*
Y1600000D02*
D03*
Y1800000D02*
D03*
Y1700000D02*
D03*
Y1500000D02*
D03*
Y2000000D02*
D03*
Y1100000D02*
D03*
Y1000000D02*
D03*
Y900000D02*
D03*
Y800000D02*
D03*
Y700000D02*
D03*
Y600000D02*
D03*
Y500000D02*
D03*
X7606299Y1200000D02*
D03*
Y1300000D02*
D03*
Y1400000D02*
D03*
Y1600000D02*
D03*
Y1100000D02*
D03*
Y3260000D02*
D03*
Y3360000D02*
D03*
Y3160000D02*
D03*
Y3060000D02*
D03*
Y700000D02*
D03*
Y800000D02*
D03*
Y900000D02*
D03*
Y1000000D02*
D03*
Y2300000D02*
D03*
Y2960000D02*
D03*
Y2660000D02*
D03*
Y2460000D02*
D03*
Y2560000D02*
D03*
Y2860000D02*
D03*
Y2760000D02*
D03*
Y2000000D02*
D03*
Y1700000D02*
D03*
Y1800000D02*
D03*
Y1900000D02*
D03*
Y2100000D02*
D03*
Y2200000D02*
D03*
X9506299Y3000000D02*
D03*
Y2900000D02*
D03*
Y2800000D02*
D03*
Y2700000D02*
D03*
Y2600000D02*
D03*
Y2500000D02*
D03*
Y2400000D02*
D03*
Y2300000D02*
D03*
Y1200000D02*
D03*
Y1400000D02*
D03*
Y2100000D02*
D03*
Y1900000D02*
D03*
Y1600000D02*
D03*
Y1800000D02*
D03*
Y1700000D02*
D03*
Y1500000D02*
D03*
Y2000000D02*
D03*
Y1100000D02*
D03*
Y1000000D02*
D03*
Y900000D02*
D03*
Y800000D02*
D03*
Y700000D02*
D03*
Y600000D02*
D03*
Y500000D02*
D03*
X12606299Y1200000D02*
D03*
Y1300000D02*
D03*
Y1400000D02*
D03*
Y1600000D02*
D03*
Y1100000D02*
D03*
Y3260000D02*
D03*
Y3360000D02*
D03*
Y3160000D02*
D03*
Y3060000D02*
D03*
Y700000D02*
D03*
Y800000D02*
D03*
Y900000D02*
D03*
Y1000000D02*
D03*
Y2300000D02*
D03*
Y2960000D02*
D03*
Y2660000D02*
D03*
Y2460000D02*
D03*
Y2560000D02*
D03*
Y2860000D02*
D03*
Y2760000D02*
D03*
Y2000000D02*
D03*
Y1700000D02*
D03*
Y1800000D02*
D03*
Y1900000D02*
D03*
Y2100000D02*
D03*
Y2200000D02*
D03*
X14506299Y3000000D02*
D03*
Y2900000D02*
D03*
Y2800000D02*
D03*
Y2700000D02*
D03*
Y2600000D02*
D03*
Y2500000D02*
D03*
Y2400000D02*
D03*
Y2300000D02*
D03*
Y1200000D02*
D03*
Y1400000D02*
D03*
Y2100000D02*
D03*
Y1900000D02*
D03*
Y1600000D02*
D03*
Y1800000D02*
D03*
Y1700000D02*
D03*
Y1500000D02*
D03*
Y2000000D02*
D03*
Y1100000D02*
D03*
Y1000000D02*
D03*
Y900000D02*
D03*
Y800000D02*
D03*
Y700000D02*
D03*
Y600000D02*
D03*
Y500000D02*
D03*
D109*
X5706299Y1500000D02*
D03*
X5106299Y550000D02*
D03*
Y3500000D02*
D03*
X7006299Y3550000D02*
D03*
Y300000D02*
D03*
X6806299Y1500000D02*
D03*
X8206299D02*
D03*
X7606299Y550000D02*
D03*
Y3500000D02*
D03*
X9506299Y3550000D02*
D03*
Y300000D02*
D03*
X9306299Y1500000D02*
D03*
X13206299D02*
D03*
X12606299Y550000D02*
D03*
Y3500000D02*
D03*
X14506299Y3550000D02*
D03*
Y300000D02*
D03*
X14306299Y1500000D02*
D03*
D110*
X5106299Y300000D02*
D03*
Y400000D02*
D03*
X5606299Y300000D02*
D03*
X5706299Y400000D02*
D03*
X5806299D02*
D03*
Y300000D02*
D03*
X5206299Y400000D02*
D03*
Y300000D02*
D03*
X5306299Y400000D02*
D03*
Y300000D02*
D03*
X5406299Y400000D02*
D03*
Y300000D02*
D03*
X5506299Y400000D02*
D03*
Y300000D02*
D03*
X5606299Y400000D02*
D03*
X5706299Y300000D02*
D03*
X6306299Y400000D02*
D03*
X6406299D02*
D03*
Y300000D02*
D03*
X6506299Y400000D02*
D03*
Y300000D02*
D03*
X6606299Y400000D02*
D03*
Y300000D02*
D03*
X6706299Y400000D02*
D03*
Y300000D02*
D03*
X6806299Y400000D02*
D03*
Y300000D02*
D03*
X6306299D02*
D03*
X5906299Y400000D02*
D03*
Y300000D02*
D03*
X6006299Y400000D02*
D03*
Y300000D02*
D03*
X6106299Y400000D02*
D03*
Y300000D02*
D03*
X6206299Y400000D02*
D03*
Y300000D02*
D03*
X7606299D02*
D03*
Y400000D02*
D03*
X8106299Y300000D02*
D03*
X8206299Y400000D02*
D03*
X8306299D02*
D03*
Y300000D02*
D03*
X7706299Y400000D02*
D03*
Y300000D02*
D03*
X7806299Y400000D02*
D03*
Y300000D02*
D03*
X7906299Y400000D02*
D03*
Y300000D02*
D03*
X8006299Y400000D02*
D03*
Y300000D02*
D03*
X8106299Y400000D02*
D03*
X8206299Y300000D02*
D03*
X8806299Y400000D02*
D03*
X8906299D02*
D03*
Y300000D02*
D03*
X9006299Y400000D02*
D03*
Y300000D02*
D03*
X9106299Y400000D02*
D03*
Y300000D02*
D03*
X9206299Y400000D02*
D03*
Y300000D02*
D03*
X9306299Y400000D02*
D03*
Y300000D02*
D03*
X8806299D02*
D03*
X8406299Y400000D02*
D03*
Y300000D02*
D03*
X8506299Y400000D02*
D03*
Y300000D02*
D03*
X8606299Y400000D02*
D03*
Y300000D02*
D03*
X8706299Y400000D02*
D03*
Y300000D02*
D03*
X12606299D02*
D03*
Y400000D02*
D03*
X13106299Y300000D02*
D03*
X13206299Y400000D02*
D03*
X13306299D02*
D03*
Y300000D02*
D03*
X12706299Y400000D02*
D03*
Y300000D02*
D03*
X12806299Y400000D02*
D03*
Y300000D02*
D03*
X12906299Y400000D02*
D03*
Y300000D02*
D03*
X13006299Y400000D02*
D03*
Y300000D02*
D03*
X13106299Y400000D02*
D03*
X13206299Y300000D02*
D03*
X13806299Y400000D02*
D03*
X13906299D02*
D03*
Y300000D02*
D03*
X14006299Y400000D02*
D03*
Y300000D02*
D03*
X14106299Y400000D02*
D03*
Y300000D02*
D03*
X14206299Y400000D02*
D03*
Y300000D02*
D03*
X14306299Y400000D02*
D03*
Y300000D02*
D03*
X13806299D02*
D03*
X13406299Y400000D02*
D03*
Y300000D02*
D03*
X13506299Y400000D02*
D03*
Y300000D02*
D03*
X13606299Y400000D02*
D03*
Y300000D02*
D03*
X13706299Y400000D02*
D03*
Y300000D02*
D03*
D111*
X5336299Y3280000D02*
D03*
X5236299Y3380000D02*
D03*
X5336299D02*
D03*
X5236299Y3480000D02*
D03*
X5336299D02*
D03*
X5236299Y3280000D02*
D03*
X7836299D02*
D03*
X7736299Y3380000D02*
D03*
X7836299D02*
D03*
X7736299Y3480000D02*
D03*
X7836299D02*
D03*
X7736299Y3280000D02*
D03*
X12836299D02*
D03*
X12736299Y3380000D02*
D03*
X12836299D02*
D03*
X12736299Y3480000D02*
D03*
X12836299D02*
D03*
X12736299Y3280000D02*
D03*
D112*
X5906299Y1595000D02*
D03*
Y1495000D02*
D03*
X6006299Y1595000D02*
D03*
Y1495000D02*
D03*
X6106299D02*
D03*
Y1595000D02*
D03*
X8406299D02*
D03*
Y1495000D02*
D03*
X8506299Y1595000D02*
D03*
Y1495000D02*
D03*
X8606299D02*
D03*
Y1595000D02*
D03*
X13406299D02*
D03*
Y1495000D02*
D03*
X13506299Y1595000D02*
D03*
Y1495000D02*
D03*
X13606299D02*
D03*
Y1595000D02*
D03*
D113*
X3500000Y5179528D02*
D03*
Y5400000D02*
D03*
X16930000Y5090000D02*
D03*
Y5310472D02*
D03*
X3500000Y6030000D02*
D03*
Y5809528D02*
D03*
X1050000Y6450000D02*
D03*
Y6229528D02*
D03*
Y5020472D02*
D03*
Y4800000D02*
D03*
D114*
X15080000Y6590000D02*
D03*
Y6940394D02*
D03*
D115*
X12000000Y5100000D02*
D03*
X12393701D02*
D03*
D116*
X16450001Y1855906D02*
D03*
Y1650000D02*
D03*
X12040000Y6940000D02*
D03*
Y7145905D02*
D03*
D117*
X9690000Y6590000D02*
D03*
X9910472D02*
D03*
X8440000Y6890000D02*
D03*
X8660472D02*
D03*
X8440000Y6590000D02*
D03*
X8660472D02*
D03*
X9690000Y6890000D02*
D03*
X9910472D02*
D03*
D118*
X8940000Y5040000D02*
D03*
X9290394D02*
D03*
X10190000D02*
D03*
X10540394D02*
D03*
D119*
X1000000Y5300000D02*
D03*
Y5850000D02*
D03*
X11590000Y6590000D02*
D03*
D120*
X575000Y4700000D02*
D03*
Y6150000D02*
D03*
X15600000Y2450000D02*
D03*
D121*
X16600000Y1350000D02*
D03*
X16805906D02*
D03*
D122*
X16900000Y3100000D02*
D03*
Y4050000D02*
D03*
D123*
X4550000Y5400000D02*
D03*
Y6190000D02*
D03*
D124*
X4930000Y820000D02*
D03*
X6300000D02*
D03*
X6060000Y2350000D02*
D03*
X3400000Y2340000D02*
D03*
X4700000Y2310000D02*
D03*
X16570000Y450000D02*
D03*
X16340000D02*
D03*
X16280001D02*
D03*
X2050000Y2690000D02*
D03*
X1150000D02*
D03*
X3990000Y3260000D02*
D03*
X3900000Y3360000D02*
D03*
X14050000Y4900000D02*
D03*
X14210000Y3110000D02*
D03*
X14200000Y5940000D02*
D03*
X14280000Y3010000D02*
D03*
Y5590000D02*
D03*
X14350000Y2940000D02*
D03*
Y5140000D02*
D03*
X8380000Y4690000D02*
D03*
X8550000D02*
D03*
X8720000D02*
D03*
X8870000D02*
D03*
X6430000Y5410000D02*
D03*
X9210000Y3690000D02*
D03*
X9260000Y3750000D02*
D03*
X9310000Y3810000D02*
D03*
X9360000Y3870000D02*
D03*
X7500000Y4630000D02*
D03*
X7340000Y4750000D02*
D03*
X1650000Y4630000D02*
D03*
X7910000Y3940000D02*
D03*
X7960000Y4020000D02*
D03*
X8020000Y4100000D02*
D03*
X8070000Y4170000D02*
D03*
X6720000Y4420000D02*
D03*
X6670000Y4330000D02*
D03*
X6610000Y4250000D02*
D03*
X6780000Y4490000D02*
D03*
X13650000Y4775000D02*
D03*
X8475000Y3950000D02*
D03*
X8400000Y4075000D02*
D03*
X4290000Y3110000D02*
D03*
X6270000Y3010000D02*
D03*
X6210000Y3110000D02*
D03*
X4380000Y3010000D02*
D03*
X4290000Y460000D02*
D03*
X4380000Y420000D02*
D03*
X14360000Y1200000D02*
D03*
X14310000Y1150000D02*
D03*
X14990000Y80000D02*
D03*
X15290000Y210000D02*
D03*
X15890000Y1750000D02*
D03*
X15590000Y1650000D02*
D03*
X8990000D02*
D03*
X9080000Y1750000D02*
D03*
X16219999Y1340000D02*
D03*
Y1280000D02*
D03*
X14230000Y1340000D02*
D03*
X14090000Y1280000D02*
D03*
X12990000Y3200000D02*
D03*
X16379999D02*
D03*
X12910000Y4070000D02*
D03*
X13010000Y2550000D02*
D03*
X12900000Y2650000D02*
D03*
X14670000Y3040000D02*
D03*
X14620000Y3110000D02*
D03*
X13560000Y3950000D02*
D03*
X13660000Y3750000D02*
D03*
X13460000Y4210000D02*
D03*
X13340000Y4400000D02*
D03*
X12340000Y2710000D02*
D03*
X12460000Y2390000D02*
D03*
X7400000Y4850000D02*
D03*
X7450000Y4560000D02*
D03*
X11290000Y2450000D02*
D03*
X10970000Y1540000D02*
D03*
X10680000Y1350000D02*
D03*
X12720000D02*
D03*
X10680000Y4320000D02*
D03*
X10970000Y4430000D02*
D03*
X11590000Y1450000D02*
D03*
X11360000Y6840000D02*
D03*
X12810000Y1540000D02*
D03*
X12760000Y1450000D02*
D03*
X13260000Y1850000D02*
D03*
X13200000Y1950000D02*
D03*
X13140000Y2050000D02*
D03*
X13070000Y2150000D02*
D03*
X8240000Y1800000D02*
D03*
X8140000Y7350000D02*
D03*
X8240000Y7280000D02*
D03*
X8140000Y1900000D02*
D03*
X1260000Y4560000D02*
D03*
X7250000Y2950000D02*
D03*
X7210000Y2850000D02*
D03*
X7130000Y2650000D02*
D03*
X7170000Y2550000D02*
D03*
X7760000Y1050000D02*
D03*
Y510000D02*
D03*
X5960000Y2410000D02*
D03*
X3300000Y2420000D02*
D03*
X3800000Y3210000D02*
D03*
X3740000Y3310000D02*
D03*
X6360000Y880000D02*
D03*
X5180000D02*
D03*
X5760000Y950000D02*
D03*
X5690000Y1050000D02*
D03*
X5410000Y1150000D02*
D03*
X5430000Y1250000D02*
D03*
X6410000Y1290000D02*
D03*
X6460000Y1240000D02*
D03*
X6110000Y1340000D02*
D03*
X6160000Y1380000D02*
D03*
X6560000Y1750000D02*
D03*
X6510000Y1690000D02*
D03*
X5860000Y1850000D02*
D03*
X5800000Y1950000D02*
D03*
X5510000Y2150000D02*
D03*
X5560000Y2050000D02*
D03*
X5260000Y2250000D02*
D03*
X9670000Y1250000D02*
D03*
X14260000Y1040000D02*
D03*
X9770000Y1150000D02*
D03*
X9870000Y1040000D02*
D03*
X7460000Y1050000D02*
D03*
Y500000D02*
D03*
X6660000Y850000D02*
D03*
X6760000Y950000D02*
D03*
X9160000Y650000D02*
D03*
X9260000Y750000D02*
D03*
X14850000Y1010000D02*
D03*
X15150000D02*
D03*
X15450000D02*
D03*
X15750000D02*
D03*
X16049999D02*
D03*
X16340000Y1020000D02*
D03*
X14250000Y540000D02*
D03*
X14160000Y520000D02*
D03*
X1950000Y2750000D02*
D03*
X1850000Y2850000D02*
D03*
X1750000Y2950000D02*
D03*
X1050000Y2750000D02*
D03*
X950000Y2850000D02*
D03*
X850000Y2950000D02*
D03*
X1850000Y4750000D02*
D03*
X2100000D02*
D03*
X1800000Y4950000D02*
D03*
X1600000Y5350000D02*
D03*
X1120000Y5400000D02*
D03*
X1750000D02*
D03*
X2050000Y5500000D02*
D03*
X1325000Y5550000D02*
D03*
X925000D02*
D03*
X1275000Y5575000D02*
D03*
X1000000Y5700000D02*
D03*
X1400000Y5750000D02*
D03*
X2025000Y6025000D02*
D03*
X1800000Y6450000D02*
D03*
X1850000Y6550000D02*
D03*
X2150000Y5075000D02*
D03*
X2400000Y5175000D02*
D03*
X3420000Y5200000D02*
D03*
X2300000Y5425000D02*
D03*
X2600000Y5450000D02*
D03*
X3730000Y5490000D02*
D03*
X3020000Y5500000D02*
D03*
X3350000D02*
D03*
X2860000Y5600000D02*
D03*
X3360000D02*
D03*
X3020000D02*
D03*
X2950000Y5630000D02*
D03*
X3610000Y5650000D02*
D03*
X2350000Y5675000D02*
D03*
X2100000Y5700000D02*
D03*
X3350000D02*
D03*
X3020000Y5710000D02*
D03*
X2325000Y5975000D02*
D03*
X2550000D02*
D03*
X3430000Y6000000D02*
D03*
X2100000Y6550000D02*
D03*
X15400000Y6260000D02*
D03*
X16580000Y4110000D02*
D03*
X16610001Y2900000D02*
D03*
X15270000Y2500000D02*
D03*
X15280000Y2700000D02*
D03*
X14275000Y6945000D02*
D03*
X14475000D02*
D03*
X15430000Y5440000D02*
D03*
Y4990000D02*
D03*
Y5790000D02*
D03*
X15763892Y5040000D02*
D03*
X15905000Y5340000D02*
D03*
X15790000Y5570000D02*
D03*
X15730000Y5850000D02*
D03*
X16450001Y5530000D02*
D03*
Y5330000D02*
D03*
Y5280000D02*
D03*
X16660000Y5050000D02*
D03*
X16570000Y5580000D02*
D03*
X16760000Y5600000D02*
D03*
X16750000Y5180000D02*
D03*
X16850000Y5090000D02*
D03*
X8740000Y5490000D02*
D03*
X8940000D02*
D03*
X8665000Y5165000D02*
D03*
X8565000Y5565000D02*
D03*
X8840000Y5490000D02*
D03*
X9990000D02*
D03*
X10190000D02*
D03*
X9915000Y5165000D02*
D03*
X9815000Y5565000D02*
D03*
X10090000Y5490000D02*
D03*
X15975000Y450000D02*
D03*
X15675000D02*
D03*
X15375000D02*
D03*
X15425000D02*
D03*
X15125000D02*
D03*
X16049999D02*
D03*
X16025000Y325000D02*
D03*
X15735500Y450000D02*
D03*
X14800000D02*
D03*
X15075000D02*
D03*
X16375000Y1450000D02*
D03*
X16424999Y1400000D02*
D03*
X16375000D02*
D03*
Y1300000D02*
D03*
X16424999D02*
D03*
X16475000D02*
D03*
X16525000D02*
D03*
X16375000Y1350000D02*
D03*
X16424999D02*
D03*
X16475000D02*
D03*
X16525000D02*
D03*
X16400000Y325000D02*
D03*
X15700000D02*
D03*
X15400000D02*
D03*
X15100000Y325006D02*
D03*
X14800000Y325000D02*
D03*
D125*
X16820000Y5430000D02*
D03*
X16450001D02*
D03*
X14970000Y6940000D02*
D03*
Y6590000D02*
D03*
X17030001Y5870000D02*
D03*
X9340000Y5165000D02*
D03*
X10590000Y5190000D02*
D03*
X10440000Y6322500D02*
D03*
X9790000Y6390000D02*
D03*
X8540000D02*
D03*
X9190000Y6339000D02*
D03*
X8940000Y5165000D02*
D03*
X10190000Y5190000D02*
D03*
X12090000Y6790000D02*
D03*
X11990000D02*
D03*
Y6690000D02*
D03*
X12090000D02*
D03*
Y6590000D02*
D03*
X11990000D02*
D03*
D126*
X16950001Y1500000D02*
D03*
%TF.MD5,3f1181b1572f46f502ac898bf1e1faf1*%
M02*
