%TF.GenerationSoftware,Altium Limited,Altium Designer,21.6.4 (81)*%
G04 Layer_Color=32896*
%FSLAX26Y26*%
%MOIN*%
%TF.SameCoordinates,892991E7-994B-4F78-B437-02A20B6E2807*%
%TF.FilePolarity,Positive*%
%TF.FileFunction,Other,Bottom_Assembly*%
%TF.Part,Single*%
G01*
G75*
%TA.AperFunction,NonConductor*%
%ADD159C,0.004250*%
D159*
X5573813Y1213757D02*
Y1227919D01*
X5580894Y1235000D01*
X5609218D01*
X5616299Y1227919D01*
Y1213757D01*
X5609218Y1206676D01*
X5580894D01*
X5573813Y1213757D01*
X5616299Y1192514D02*
X5573813D01*
X5616299Y1164190D01*
X5573813D01*
X5781299Y2925000D02*
X5738813D01*
Y2903757D01*
X5745894Y2896676D01*
X5760056D01*
X5767137Y2903757D01*
Y2925000D01*
Y2910838D02*
X5781299Y2896676D01*
X5738813Y2882514D02*
X5781299Y2854190D01*
X5738813D02*
X5781299Y2882514D01*
X5648813Y2925000D02*
Y2896676D01*
Y2910838D01*
X5691299D01*
X5648813Y2882514D02*
X5691299Y2854190D01*
X5648813D02*
X5691299Y2882514D01*
X5433813Y2905000D02*
X5476299D01*
Y2876676D01*
X6761299Y3155000D02*
X6718813D01*
Y3133757D01*
X6725894Y3126676D01*
X6740056D01*
X6747137Y3133757D01*
Y3155000D01*
X6725894Y3084190D02*
X6718813Y3091271D01*
Y3105433D01*
X6725894Y3112514D01*
X6754218D01*
X6761299Y3105433D01*
Y3091271D01*
X6754218Y3084190D01*
X6761299Y3041703D02*
Y3070028D01*
X6732975Y3041703D01*
X6725894D01*
X6718813Y3048784D01*
Y3062947D01*
X6725894Y3070028D01*
X6766299Y3430000D02*
X6723813D01*
Y3408757D01*
X6730894Y3401676D01*
X6745056D01*
X6752137Y3408757D01*
Y3430000D01*
X6730894Y3359190D02*
X6723813Y3366271D01*
Y3380433D01*
X6730894Y3387514D01*
X6759218D01*
X6766299Y3380433D01*
Y3366271D01*
X6759218Y3359190D01*
X6766299Y3345028D02*
Y3330865D01*
Y3337947D01*
X6723813D01*
X6730894Y3345028D01*
X6766299Y3430000D02*
X6723813D01*
Y3408757D01*
X6730894Y3401676D01*
X6745056D01*
X6752137Y3408757D01*
Y3430000D01*
X6730894Y3359190D02*
X6723813Y3366271D01*
Y3380433D01*
X6730894Y3387514D01*
X6759218D01*
X6766299Y3380433D01*
Y3366271D01*
X6759218Y3359190D01*
X6766299Y3345028D02*
Y3330865D01*
Y3337947D01*
X6723813D01*
X6730894Y3345028D01*
X6761299Y3155000D02*
X6718813D01*
Y3133757D01*
X6725894Y3126676D01*
X6740056D01*
X6747137Y3133757D01*
Y3155000D01*
X6725894Y3084190D02*
X6718813Y3091271D01*
Y3105433D01*
X6725894Y3112514D01*
X6754218D01*
X6761299Y3105433D01*
Y3091271D01*
X6754218Y3084190D01*
X6761299Y3041703D02*
Y3070028D01*
X6732975Y3041703D01*
X6725894D01*
X6718813Y3048784D01*
Y3062947D01*
X6725894Y3070028D01*
X5433813Y2905000D02*
X5476299D01*
Y2876676D01*
X5648813Y2925000D02*
Y2896676D01*
Y2910838D01*
X5691299D01*
X5648813Y2882514D02*
X5691299Y2854190D01*
X5648813D02*
X5691299Y2882514D01*
X5781299Y2925000D02*
X5738813D01*
Y2903757D01*
X5745894Y2896676D01*
X5760056D01*
X5767137Y2903757D01*
Y2925000D01*
Y2910838D02*
X5781299Y2896676D01*
X5738813Y2882514D02*
X5781299Y2854190D01*
X5738813D02*
X5781299Y2882514D01*
X5573813Y1213757D02*
Y1227919D01*
X5580894Y1235000D01*
X5609218D01*
X5616299Y1227919D01*
Y1213757D01*
X5609218Y1206676D01*
X5580894D01*
X5573813Y1213757D01*
X5616299Y1192514D02*
X5573813D01*
X5616299Y1164190D01*
X5573813D01*
X8073813Y1213757D02*
Y1227919D01*
X8080894Y1235000D01*
X8109218D01*
X8116299Y1227919D01*
Y1213757D01*
X8109218Y1206676D01*
X8080894D01*
X8073813Y1213757D01*
X8116299Y1192514D02*
X8073813D01*
X8116299Y1164190D01*
X8073813D01*
X8281299Y2925000D02*
X8238813D01*
Y2903757D01*
X8245894Y2896676D01*
X8260056D01*
X8267137Y2903757D01*
Y2925000D01*
Y2910838D02*
X8281299Y2896676D01*
X8238813Y2882514D02*
X8281299Y2854190D01*
X8238813D02*
X8281299Y2882514D01*
X8148813Y2925000D02*
Y2896676D01*
Y2910838D01*
X8191299D01*
X8148813Y2882514D02*
X8191299Y2854190D01*
X8148813D02*
X8191299Y2882514D01*
X7933813Y2905000D02*
X7976299D01*
Y2876676D01*
X9261299Y3155000D02*
X9218813D01*
Y3133757D01*
X9225894Y3126676D01*
X9240056D01*
X9247137Y3133757D01*
Y3155000D01*
X9225894Y3084190D02*
X9218813Y3091271D01*
Y3105433D01*
X9225894Y3112514D01*
X9254218D01*
X9261299Y3105433D01*
Y3091271D01*
X9254218Y3084190D01*
X9261299Y3041703D02*
Y3070028D01*
X9232975Y3041703D01*
X9225894D01*
X9218813Y3048784D01*
Y3062947D01*
X9225894Y3070028D01*
X9266299Y3430000D02*
X9223813D01*
Y3408757D01*
X9230894Y3401676D01*
X9245056D01*
X9252137Y3408757D01*
Y3430000D01*
X9230894Y3359190D02*
X9223813Y3366271D01*
Y3380433D01*
X9230894Y3387514D01*
X9259218D01*
X9266299Y3380433D01*
Y3366271D01*
X9259218Y3359190D01*
X9266299Y3345028D02*
Y3330865D01*
Y3337947D01*
X9223813D01*
X9230894Y3345028D01*
X9266299Y3430000D02*
X9223813D01*
Y3408757D01*
X9230894Y3401676D01*
X9245056D01*
X9252137Y3408757D01*
Y3430000D01*
X9230894Y3359190D02*
X9223813Y3366271D01*
Y3380433D01*
X9230894Y3387514D01*
X9259218D01*
X9266299Y3380433D01*
Y3366271D01*
X9259218Y3359190D01*
X9266299Y3345028D02*
Y3330865D01*
Y3337947D01*
X9223813D01*
X9230894Y3345028D01*
X9261299Y3155000D02*
X9218813D01*
Y3133757D01*
X9225894Y3126676D01*
X9240056D01*
X9247137Y3133757D01*
Y3155000D01*
X9225894Y3084190D02*
X9218813Y3091271D01*
Y3105433D01*
X9225894Y3112514D01*
X9254218D01*
X9261299Y3105433D01*
Y3091271D01*
X9254218Y3084190D01*
X9261299Y3041703D02*
Y3070028D01*
X9232975Y3041703D01*
X9225894D01*
X9218813Y3048784D01*
Y3062947D01*
X9225894Y3070028D01*
X7933813Y2905000D02*
X7976299D01*
Y2876676D01*
X8148813Y2925000D02*
Y2896676D01*
Y2910838D01*
X8191299D01*
X8148813Y2882514D02*
X8191299Y2854190D01*
X8148813D02*
X8191299Y2882514D01*
X8281299Y2925000D02*
X8238813D01*
Y2903757D01*
X8245894Y2896676D01*
X8260056D01*
X8267137Y2903757D01*
Y2925000D01*
Y2910838D02*
X8281299Y2896676D01*
X8238813Y2882514D02*
X8281299Y2854190D01*
X8238813D02*
X8281299Y2882514D01*
X8073813Y1213757D02*
Y1227919D01*
X8080894Y1235000D01*
X8109218D01*
X8116299Y1227919D01*
Y1213757D01*
X8109218Y1206676D01*
X8080894D01*
X8073813Y1213757D01*
X8116299Y1192514D02*
X8073813D01*
X8116299Y1164190D01*
X8073813D01*
X13073813Y1213757D02*
Y1227919D01*
X13080894Y1235000D01*
X13109218D01*
X13116299Y1227919D01*
Y1213757D01*
X13109218Y1206676D01*
X13080894D01*
X13073813Y1213757D01*
X13116299Y1192514D02*
X13073813D01*
X13116299Y1164190D01*
X13073813D01*
X13281299Y2925000D02*
X13238813D01*
Y2903757D01*
X13245894Y2896676D01*
X13260056D01*
X13267137Y2903757D01*
Y2925000D01*
Y2910838D02*
X13281299Y2896676D01*
X13238813Y2882514D02*
X13281299Y2854190D01*
X13238813D02*
X13281299Y2882514D01*
X13148813Y2925000D02*
Y2896676D01*
Y2910838D01*
X13191299D01*
X13148813Y2882514D02*
X13191299Y2854190D01*
X13148813D02*
X13191299Y2882514D01*
X12933813Y2905000D02*
X12976299D01*
Y2876676D01*
X14261299Y3155000D02*
X14218813D01*
Y3133757D01*
X14225894Y3126676D01*
X14240056D01*
X14247137Y3133757D01*
Y3155000D01*
X14225894Y3084190D02*
X14218813Y3091271D01*
Y3105433D01*
X14225894Y3112514D01*
X14254218D01*
X14261299Y3105433D01*
Y3091271D01*
X14254218Y3084190D01*
X14261299Y3041703D02*
Y3070028D01*
X14232975Y3041703D01*
X14225894D01*
X14218813Y3048784D01*
Y3062947D01*
X14225894Y3070028D01*
X14266299Y3430000D02*
X14223813D01*
Y3408757D01*
X14230894Y3401676D01*
X14245056D01*
X14252137Y3408757D01*
Y3430000D01*
X14230894Y3359190D02*
X14223813Y3366271D01*
Y3380433D01*
X14230894Y3387514D01*
X14259218D01*
X14266299Y3380433D01*
Y3366271D01*
X14259218Y3359190D01*
X14266299Y3345028D02*
Y3330865D01*
Y3337947D01*
X14223813D01*
X14230894Y3345028D01*
X14266299Y3430000D02*
X14223813D01*
Y3408757D01*
X14230894Y3401676D01*
X14245056D01*
X14252137Y3408757D01*
Y3430000D01*
X14230894Y3359190D02*
X14223813Y3366271D01*
Y3380433D01*
X14230894Y3387514D01*
X14259218D01*
X14266299Y3380433D01*
Y3366271D01*
X14259218Y3359190D01*
X14266299Y3345028D02*
Y3330865D01*
Y3337947D01*
X14223813D01*
X14230894Y3345028D01*
X14261299Y3155000D02*
X14218813D01*
Y3133757D01*
X14225894Y3126676D01*
X14240056D01*
X14247137Y3133757D01*
Y3155000D01*
X14225894Y3084190D02*
X14218813Y3091271D01*
Y3105433D01*
X14225894Y3112514D01*
X14254218D01*
X14261299Y3105433D01*
Y3091271D01*
X14254218Y3084190D01*
X14261299Y3041703D02*
Y3070028D01*
X14232975Y3041703D01*
X14225894D01*
X14218813Y3048784D01*
Y3062947D01*
X14225894Y3070028D01*
X12933813Y2905000D02*
X12976299D01*
Y2876676D01*
X13148813Y2925000D02*
Y2896676D01*
Y2910838D01*
X13191299D01*
X13148813Y2882514D02*
X13191299Y2854190D01*
X13148813D02*
X13191299Y2882514D01*
X13281299Y2925000D02*
X13238813D01*
Y2903757D01*
X13245894Y2896676D01*
X13260056D01*
X13267137Y2903757D01*
Y2925000D01*
Y2910838D02*
X13281299Y2896676D01*
X13238813Y2882514D02*
X13281299Y2854190D01*
X13238813D02*
X13281299Y2882514D01*
X13073813Y1213757D02*
Y1227919D01*
X13080894Y1235000D01*
X13109218D01*
X13116299Y1227919D01*
Y1213757D01*
X13109218Y1206676D01*
X13080894D01*
X13073813Y1213757D01*
X13116299Y1192514D02*
X13073813D01*
X13116299Y1164190D01*
X13073813D01*
%TF.MD5,9c9cb2a1e37cf3516da03b5fecd48a08*%
M02*
