%TF.GenerationSoftware,Altium Limited,Altium Designer,21.6.4 (81)*%
G04 Layer_Color=16711935*
%FSLAX26Y26*%
%MOIN*%
%TF.SameCoordinates,892991E7-994B-4F78-B437-02A20B6E2807*%
%TF.FilePolarity,Positive*%
%TF.FileFunction,Other,Top_3D_Models*%
%TF.Part,Single*%
G01*
G75*
%TA.AperFunction,NonConductor*%
%ADD84C,0.007874*%
%ADD131C,0.005000*%
%ADD160C,0.003937*%
%ADD162C,0.000000*%
%ADD163C,0.001000*%
D84*
X3353937Y2715354D02*
G03*
X3353937Y2715354I-3937J0D01*
G01*
X635827Y3050000D02*
G03*
X635827Y3050000I-3937J0D01*
G01*
X14928937Y2698228D02*
G03*
X14928937Y2698228I-3937J0D01*
G01*
X15948898Y6906535D02*
G03*
X15948898Y6906535I-3937J0D01*
G01*
X363583Y4700000D02*
G03*
X363583Y4700000I-3937J0D01*
G01*
Y6150000D02*
G03*
X363583Y6150000I-3937J0D01*
G01*
X3153937Y2065354D02*
G03*
X3153937Y2065354I-3937J0D01*
G01*
X753937D02*
G03*
X753937Y2065354I-3937J0D01*
G01*
X1353937D02*
G03*
X1353937Y2065354I-3937J0D01*
G01*
X1953937D02*
G03*
X1953937Y2065354I-3937J0D01*
G01*
X2553937D02*
G03*
X2553937Y2065354I-3937J0D01*
G01*
X3153937Y1565354D02*
G03*
X3153937Y1565354I-3937J0D01*
G01*
X753937Y565354D02*
G03*
X753937Y565354I-3937J0D01*
G01*
X1353937D02*
G03*
X1353937Y565354I-3937J0D01*
G01*
X1953937D02*
G03*
X1953937Y565354I-3937J0D01*
G01*
X2553937D02*
G03*
X2553937Y565354I-3937J0D01*
G01*
X753937Y1565354D02*
G03*
X753937Y1565354I-3937J0D01*
G01*
Y1065354D02*
G03*
X753937Y1065354I-3937J0D01*
G01*
X3153937Y565354D02*
G03*
X3153937Y565354I-3937J0D01*
G01*
Y1065354D02*
G03*
X3153937Y1065354I-3937J0D01*
G01*
X7353937Y7015354D02*
G03*
X7353937Y7015354I-3937J0D01*
G01*
X2603937Y2715354D02*
G03*
X2603937Y2715354I-3937J0D01*
G01*
Y3265354D02*
G03*
X2603937Y3265354I-3937J0D01*
G01*
Y3815354D02*
G03*
X2603937Y3815354I-3937J0D01*
G01*
X3353937D02*
G03*
X3353937Y3815354I-3937J0D01*
G01*
Y3265354D02*
G03*
X3353937Y3265354I-3937J0D01*
G01*
X16903936Y3218110D02*
G03*
X16903936Y3218110I-3937J0D01*
G01*
Y4168110D02*
G03*
X16903936Y4168110I-3937J0D01*
G01*
X635827Y3600000D02*
G03*
X635827Y3600000I-3937J0D01*
G01*
Y2500000D02*
G03*
X635827Y2500000I-3937J0D01*
G01*
X1535827Y3600000D02*
G03*
X1535827Y3600000I-3937J0D01*
G01*
Y2500000D02*
G03*
X1535827Y2500000I-3937J0D01*
G01*
X12475827Y7040000D02*
G03*
X12475827Y7040000I-3937J0D01*
G01*
X1535827Y3050000D02*
G03*
X1535827Y3050000I-3937J0D01*
G01*
X15388583Y2450000D02*
G03*
X15388583Y2450000I-3937J0D01*
G01*
D131*
X3257874Y2362992D02*
X3742126D01*
Y2675984D01*
X3257874D02*
X3742126D01*
X3257874Y2362992D02*
Y2675984D01*
X657874Y2912992D02*
X1342126D01*
X657874D02*
Y3225984D01*
X1342126D01*
Y2912992D02*
Y3225984D01*
X15021260Y2698425D02*
X15178740D01*
X15021260Y2501575D02*
X15178740D01*
X15021260D02*
Y2698425D01*
X15178740Y2501575D02*
Y2698425D01*
X15895748Y6443937D02*
Y6936063D01*
X15364252Y6443937D02*
X15895748D01*
X15364252D02*
Y6936063D01*
X15895748D01*
X16361418Y361417D02*
Y538583D01*
X16538584D01*
Y361417D02*
Y538583D01*
X16361418Y361417D02*
X16538584D01*
X399016Y4607874D02*
X712008D01*
X399016D02*
Y5092126D01*
X712008D01*
Y4607874D02*
Y5092126D01*
Y6057874D02*
Y6542126D01*
X399016D02*
X712008D01*
X399016Y6057874D02*
Y6542126D01*
Y6057874D02*
X712008D01*
X3057874Y1712992D02*
X3542126D01*
Y2025984D01*
X3057874D02*
X3542126D01*
X3057874Y1712992D02*
Y2025984D01*
X657874Y1712992D02*
Y2025984D01*
X1142126D01*
Y1712992D02*
Y2025984D01*
X657874Y1712992D02*
X1142126D01*
X1257874D02*
Y2025984D01*
X1742126D01*
Y1712992D02*
Y2025984D01*
X1257874Y1712992D02*
X1742126D01*
X1857874D02*
Y2025984D01*
X2342126D01*
Y1712992D02*
Y2025984D01*
X1857874Y1712992D02*
X2342126D01*
X2457874D02*
Y2025984D01*
X2942126D01*
Y1712992D02*
Y2025984D01*
X2457874Y1712992D02*
X2942126D01*
X3057874Y1212992D02*
Y1525984D01*
X3542126D01*
Y1212992D02*
Y1525984D01*
X3057874Y1212992D02*
X3542126D01*
X657874Y212992D02*
X1142126D01*
Y525984D01*
X657874D02*
X1142126D01*
X657874Y212992D02*
Y525984D01*
X1257874Y212992D02*
X1742126D01*
Y525984D01*
X1257874D02*
X1742126D01*
X1257874Y212992D02*
Y525984D01*
X1857874Y212992D02*
X2342126D01*
Y525984D01*
X1857874D02*
X2342126D01*
X1857874Y212992D02*
Y525984D01*
X2457874Y212992D02*
X2942126D01*
Y525984D01*
X2457874D02*
X2942126D01*
X2457874Y212992D02*
Y525984D01*
X657874Y1212992D02*
Y1525984D01*
X1142126D01*
Y1212992D02*
Y1525984D01*
X657874Y1212992D02*
X1142126D01*
X657874Y712992D02*
Y1025984D01*
X1142126D01*
Y712992D02*
Y1025984D01*
X657874Y712992D02*
X1142126D01*
X3057874Y212992D02*
Y525984D01*
X3542126D01*
Y212992D02*
Y525984D01*
X3057874Y212992D02*
X3542126D01*
X3057874Y712992D02*
Y1025984D01*
X3542126D01*
Y712992D02*
Y1025984D01*
X3057874Y712992D02*
X3542126D01*
X7257874Y6662992D02*
Y6975984D01*
X7742126D01*
Y6662992D02*
Y6975984D01*
X7257874Y6662992D02*
X7742126D01*
X2507874Y2362992D02*
Y2675984D01*
X2992126D01*
Y2362992D02*
Y2675984D01*
X2507874Y2362992D02*
X2992126D01*
X2507874Y2912992D02*
Y3225984D01*
X2992126D01*
Y2912992D02*
Y3225984D01*
X2507874Y2912992D02*
X2992126D01*
X2507874Y3462992D02*
Y3775984D01*
X2992126D01*
Y3462992D02*
Y3775984D01*
X2507874Y3462992D02*
X2992126D01*
X3257874D02*
X3742126D01*
Y3775984D01*
X3257874D02*
X3742126D01*
X3257874Y3462992D02*
Y3775984D01*
Y2912992D02*
X3742126D01*
Y3225984D01*
X3257874D02*
X3742126D01*
X3257874Y2912992D02*
Y3225984D01*
X14861417Y361417D02*
Y538583D01*
X15038583D01*
Y361417D02*
Y538583D01*
X14861417Y361417D02*
X15038583D01*
X15161417Y361423D02*
X15338583D01*
Y538589D01*
X15161417D02*
X15338583D01*
X15161417Y361423D02*
Y538589D01*
X15461417Y361417D02*
Y538583D01*
X15638583D01*
Y361417D02*
Y538583D01*
X15461417Y361417D02*
X15638583D01*
X15761417D02*
Y538583D01*
X15938583D01*
Y361417D02*
Y538583D01*
X15761417Y361417D02*
X15938583D01*
X16762993Y2507874D02*
X17075983D01*
Y3192126D01*
X16762993D02*
X17075983D01*
X16762993Y2507874D02*
Y3192126D01*
Y3457874D02*
Y4142126D01*
X17075983D01*
Y3457874D02*
Y4142126D01*
X16762993Y3457874D02*
X17075983D01*
X1342126Y3462992D02*
Y3775984D01*
X657874D02*
X1342126D01*
X657874Y3462992D02*
Y3775984D01*
Y3462992D02*
X1342126D01*
Y2362992D02*
Y2675984D01*
X657874D02*
X1342126D01*
X657874Y2362992D02*
Y2675984D01*
Y2362992D02*
X1342126D01*
X1557874Y3462992D02*
X2242126D01*
X1557874D02*
Y3775984D01*
X2242126D01*
Y3462992D02*
Y3775984D01*
Y2362992D02*
Y2675984D01*
X1557874D02*
X2242126D01*
X1557874Y2362992D02*
Y2675984D01*
Y2362992D02*
X2242126D01*
X12497874Y6902992D02*
X13182126D01*
X12497874D02*
Y7215984D01*
X13182126D01*
Y6902992D02*
Y7215984D01*
X2242126Y2912992D02*
Y3225984D01*
X1557874D02*
X2242126D01*
X1557874Y2912992D02*
Y3225984D01*
Y2912992D02*
X2242126D01*
X15424016Y2357874D02*
X15737008D01*
X15424016D02*
Y2842126D01*
X15737008D01*
Y2357874D02*
Y2842126D01*
X16061417Y361420D02*
Y538586D01*
X16238583D01*
Y361420D02*
Y538586D01*
X16061417Y361420D02*
X16238583D01*
D160*
X16594566Y5519264D02*
G03*
X16594566Y5519264I-19685J0D01*
G01*
X1362992Y5412205D02*
G03*
X1362992Y5412205I-19685J0D01*
G01*
X1672441Y6459055D02*
X1727559D01*
X1672441Y6340945D02*
X1727559D01*
X1672441D02*
Y6459055D01*
X1727559Y6340945D02*
Y6459055D01*
X16539450Y5204303D02*
Y5554697D01*
X16720551Y5204303D02*
Y5554697D01*
X16539450D02*
X16720551D01*
X16539450Y5204303D02*
X16720551D01*
X1378740Y5376772D02*
Y5723228D01*
X1221260Y5376772D02*
Y5723228D01*
Y5376772D02*
X1378740D01*
X1221260Y5723228D02*
X1378740D01*
X3116535Y5427756D02*
Y5772244D01*
X3274016D01*
Y5427756D02*
Y5772244D01*
X3116535Y5427756D02*
X3274016D01*
X12765748Y6242323D02*
Y6657677D01*
X12580709Y6242323D02*
Y6657677D01*
Y6242323D02*
X12765748D01*
X12580709Y6657677D02*
X12765748D01*
X12629921Y6242323D02*
Y6657677D01*
Y5692323D02*
Y6107677D01*
X12580709D02*
X12765748D01*
X12580709Y5692323D02*
X12765748D01*
X12580709D02*
Y6107677D01*
X12765748Y5692323D02*
Y6107677D01*
X15852441Y5030945D02*
Y5149055D01*
X15907559Y5030945D02*
Y5149055D01*
X15852441D02*
X15907559D01*
X15852441Y5030945D02*
X15907559D01*
X15802441Y5830945D02*
Y5949055D01*
X15857559Y5830945D02*
Y5949055D01*
X15802441D02*
X15857559D01*
X15802441Y5830945D02*
X15857559D01*
X16995749Y6182323D02*
Y6597677D01*
X16810709Y6182323D02*
Y6597677D01*
Y6182323D02*
X16995749D01*
X16810709Y6597677D02*
X16995749D01*
X16859921Y6182323D02*
Y6597677D01*
X16870945Y5912441D02*
X16989056D01*
X16870945Y5967559D02*
X16989056D01*
X16870945Y5912441D02*
Y5967559D01*
X16989056Y5912441D02*
Y5967559D01*
X1972441Y5459055D02*
X2027559D01*
X1972441Y5340945D02*
X2027559D01*
X1972441D02*
Y5459055D01*
X2027559Y5340945D02*
Y5459055D01*
X1590945Y5422441D02*
X1709055D01*
X1590945Y5477559D02*
X1709055D01*
X1590945Y5422441D02*
Y5477559D01*
X1709055Y5422441D02*
Y5477559D01*
X1985291Y5853346D02*
Y5971457D01*
X1930173Y5853346D02*
Y5971457D01*
Y5853346D02*
X1985291D01*
X1930173Y5971457D02*
X1985291D01*
X692323Y5229921D02*
X1107677D01*
X692323Y5180709D02*
Y5365748D01*
X1107677Y5180709D02*
Y5365748D01*
X692323Y5180709D02*
X1107677D01*
X692323Y5365748D02*
X1107677D01*
X692323Y5915748D02*
X1107677D01*
X692323Y5730709D02*
X1107677D01*
Y5915748D01*
X692323Y5730709D02*
Y5915748D01*
Y5779921D02*
X1107677D01*
X1022441Y5540945D02*
Y5659055D01*
X1077559Y5540945D02*
Y5659055D01*
X1022441D02*
X1077559D01*
X1022441Y5540945D02*
X1077559D01*
X11482323Y6660079D02*
X11897677D01*
Y6524252D02*
Y6709291D01*
X11482323Y6524252D02*
Y6709291D01*
X11897677D01*
X11482323Y6524252D02*
X11897677D01*
X15820945Y5412441D02*
X15939055D01*
X15820945Y5467559D02*
X15939055D01*
X15820945Y5412441D02*
Y5467559D01*
X15939055Y5412441D02*
Y5467559D01*
X1672441Y4959055D02*
X1727559D01*
X1672441Y4840945D02*
X1727559D01*
X1672441D02*
Y4959055D01*
X1727559Y4840945D02*
Y4959055D01*
X13579921Y6342323D02*
Y6757677D01*
X13530709D02*
X13715748D01*
X13530709Y6342323D02*
X13715748D01*
X13530709D02*
Y6757677D01*
X13715748Y6342323D02*
Y6757677D01*
X13979921Y6342323D02*
Y6757677D01*
X13930709D02*
X14115748D01*
X13930709Y6342323D02*
X14115748D01*
X13930709D02*
Y6757677D01*
X14115748Y6342323D02*
Y6757677D01*
X13715748Y5692323D02*
Y6107677D01*
X13530709Y5692323D02*
Y6107677D01*
Y5692323D02*
X13715748D01*
X13530709Y6107677D02*
X13715748D01*
X13579921Y5692323D02*
Y6107677D01*
X14115748Y5692323D02*
Y6107677D01*
X13930709Y5692323D02*
Y6107677D01*
Y5692323D02*
X14115748D01*
X13930709Y6107677D02*
X14115748D01*
X13979921Y5692323D02*
Y6107677D01*
X5515748Y5742323D02*
Y6157677D01*
X5330709Y5742323D02*
Y6157677D01*
Y5742323D02*
X5515748D01*
X5330709Y6157677D02*
X5515748D01*
X5379921Y5742323D02*
Y6157677D01*
X5915748Y5742323D02*
Y6157677D01*
X5730709Y5742323D02*
Y6157677D01*
Y5742323D02*
X5915748D01*
X5730709Y6157677D02*
X5915748D01*
X5779921Y5742323D02*
Y6157677D01*
X6315748Y5742323D02*
Y6157677D01*
X6130709Y5742323D02*
Y6157677D01*
Y5742323D02*
X6315748D01*
X6130709Y6157677D02*
X6315748D01*
X6179921Y5742323D02*
Y6157677D01*
X5115748Y5742323D02*
Y6157677D01*
X4930709Y5742323D02*
Y6157677D01*
Y5742323D02*
X5115748D01*
X4930709Y6157677D02*
X5115748D01*
X4979921Y5742323D02*
Y6157677D01*
X12465748Y6242323D02*
Y6657677D01*
X12280709Y6242323D02*
Y6657677D01*
Y6242323D02*
X12465748D01*
X12280709Y6657677D02*
X12465748D01*
X12329921Y6242323D02*
Y6657677D01*
X13065748Y6242323D02*
Y6657677D01*
X12880709Y6242323D02*
Y6657677D01*
Y6242323D02*
X13065748D01*
X12880709Y6657677D02*
X13065748D01*
X12929921Y6242323D02*
Y6657677D01*
X13365748Y6242323D02*
Y6657677D01*
X13180709Y6242323D02*
Y6657677D01*
Y6242323D02*
X13365748D01*
X13180709Y6657677D02*
X13365748D01*
X13229921Y6242323D02*
Y6657677D01*
X12465748Y5692323D02*
Y6107677D01*
X12280709Y5692323D02*
Y6107677D01*
Y5692323D02*
X12465748D01*
X12280709Y6107677D02*
X12465748D01*
X12329921Y5692323D02*
Y6107677D01*
X12929921Y5692323D02*
Y6107677D01*
X12880709D02*
X13065748D01*
X12880709Y5692323D02*
X13065748D01*
X12880709D02*
Y6107677D01*
X13065748Y5692323D02*
Y6107677D01*
X13229921Y5692323D02*
Y6107677D01*
X13180709D02*
X13365748D01*
X13180709Y5692323D02*
X13365748D01*
X13180709D02*
Y6107677D01*
X13365748Y5692323D02*
Y6107677D01*
D162*
X9860500Y5933710D02*
G03*
X9860500Y5933710I-8000J0D01*
G01*
X8610500D02*
G03*
X8610500Y5933710I-8000J0D01*
G01*
D163*
X9842500Y5923710D02*
Y6120710D01*
X10637500D01*
Y5923710D02*
Y6120710D01*
X9842500Y5923710D02*
X10637500D01*
X9842500Y6070710D02*
X10637500D01*
X14060000Y6930000D02*
Y7144000D01*
X13640000Y6930000D02*
X14060000D01*
X13640000D02*
Y7144000D01*
X14060000D01*
X10400000Y7070000D02*
Y7284000D01*
X9980000Y7070000D02*
X10400000D01*
X9980000D02*
Y7284000D01*
X10400000D01*
X9100000Y7070000D02*
Y7284000D01*
X8680000Y7070000D02*
X9100000D01*
X8680000D02*
Y7284000D01*
X9100000D01*
X8592500Y5923710D02*
Y6120710D01*
X9387500D01*
Y5923710D02*
Y6120710D01*
X8592500Y5923710D02*
X9387500D01*
X8592500Y6070710D02*
X9387500D01*
X15506000Y3540000D02*
Y3960000D01*
Y3540000D02*
X15720000D01*
Y3960000D01*
X15506000D02*
X15720000D01*
X15056000D02*
X15270000D01*
Y3540000D02*
Y3960000D01*
X15056000Y3540000D02*
X15270000D01*
X15056000D02*
Y3960000D01*
X15244000Y4190000D02*
Y4610000D01*
X15030000D02*
X15244000D01*
X15030000Y4190000D02*
Y4610000D01*
Y4190000D02*
X15244000D01*
X15694000D02*
Y4610000D01*
X15480000D02*
X15694000D01*
X15480000Y4190000D02*
Y4610000D01*
Y4190000D02*
X15694000D01*
X10221250Y6108202D02*
X10237911D01*
X10229581D01*
Y6083210D01*
X10246242D02*
Y6099871D01*
X10254573Y6108202D01*
X10262903Y6099871D01*
Y6083210D01*
Y6095706D01*
X10246242D01*
X10271234Y6108202D02*
Y6083210D01*
X10283730D01*
X10287895Y6087375D01*
Y6091541D01*
X10283730Y6095706D01*
X10271234D01*
X10283730D01*
X10287895Y6099871D01*
Y6104037D01*
X10283730Y6108202D01*
X10271234D01*
X8971250D02*
X8987911D01*
X8979581D01*
Y6083210D01*
X8996242D02*
Y6099871D01*
X9004573Y6108202D01*
X9012903Y6099871D01*
Y6083210D01*
Y6095706D01*
X8996242D01*
X9021234Y6108202D02*
Y6083210D01*
X9033730D01*
X9037895Y6087375D01*
Y6091541D01*
X9033730Y6095706D01*
X9021234D01*
X9033730D01*
X9037895Y6099871D01*
Y6104037D01*
X9033730Y6108202D01*
X9021234D01*
%TF.MD5,34ecf9a41f51dbea8b5210d7d36ddbf6*%
M02*
