%TF.GenerationSoftware,Altium Limited,Altium Designer,21.6.4 (81)*%
G04 Layer_Color=32896*
%FSLAX26Y26*%
%MOIN*%
%TF.SameCoordinates,892991E7-994B-4F78-B437-02A20B6E2807*%
%TF.FilePolarity,Positive*%
%TF.FileFunction,Other,Top_Assembly*%
%TF.Part,Single*%
G01*
G75*
%TA.AperFunction,NonConductor*%
%ADD84C,0.007874*%
G36*
X2488500Y5850698D02*
X2488755D01*
X2489046Y5850662D01*
X2489738Y5850516D01*
X2490502Y5850334D01*
X2491303Y5850043D01*
X2492104Y5849606D01*
X2492504Y5849351D01*
X2492868Y5849060D01*
X2492905Y5849024D01*
X2492941Y5848987D01*
X2493050Y5848878D01*
X2493160Y5848769D01*
X2493341Y5848587D01*
X2493487Y5848368D01*
X2493887Y5847859D01*
X2494288Y5847203D01*
X2494652Y5846403D01*
X2494979Y5845493D01*
X2495198Y5844474D01*
X2492104Y5844219D01*
Y5844255D01*
X2492068Y5844292D01*
X2492031Y5844510D01*
X2491922Y5844837D01*
X2491776Y5845238D01*
X2491631Y5845675D01*
X2491412Y5846111D01*
X2491157Y5846512D01*
X2490903Y5846840D01*
X2490830Y5846912D01*
X2490684Y5847058D01*
X2490430Y5847276D01*
X2490066Y5847531D01*
X2489592Y5847749D01*
X2489083Y5847968D01*
X2488464Y5848114D01*
X2487809Y5848186D01*
X2487554D01*
X2487263Y5848150D01*
X2486935Y5848077D01*
X2486498Y5847968D01*
X2486061Y5847822D01*
X2485625Y5847640D01*
X2485188Y5847349D01*
X2485115Y5847313D01*
X2484933Y5847167D01*
X2484678Y5846912D01*
X2484351Y5846548D01*
X2483987Y5846111D01*
X2483586Y5845602D01*
X2483222Y5844947D01*
X2482858Y5844219D01*
Y5844182D01*
X2482822Y5844109D01*
X2482785Y5844000D01*
X2482713Y5843855D01*
X2482676Y5843636D01*
X2482604Y5843382D01*
X2482531Y5843090D01*
X2482458Y5842726D01*
X2482349Y5842326D01*
X2482276Y5841889D01*
X2482203Y5841416D01*
X2482167Y5840906D01*
X2482094Y5840324D01*
X2482057Y5839742D01*
X2482021Y5839086D01*
Y5838431D01*
X2482057Y5838467D01*
X2482203Y5838686D01*
X2482458Y5838977D01*
X2482785Y5839341D01*
X2483149Y5839778D01*
X2483623Y5840178D01*
X2484132Y5840579D01*
X2484715Y5840943D01*
X2484751D01*
X2484787Y5840979D01*
X2485006Y5841088D01*
X2485334Y5841198D01*
X2485770Y5841380D01*
X2486280Y5841525D01*
X2486862Y5841634D01*
X2487481Y5841743D01*
X2488136Y5841780D01*
X2488427D01*
X2488646Y5841743D01*
X2488937Y5841707D01*
X2489228Y5841671D01*
X2489592Y5841598D01*
X2489956Y5841489D01*
X2490794Y5841234D01*
X2491230Y5841052D01*
X2491667Y5840797D01*
X2492104Y5840542D01*
X2492577Y5840251D01*
X2493014Y5839887D01*
X2493414Y5839487D01*
X2493451Y5839450D01*
X2493523Y5839377D01*
X2493633Y5839268D01*
X2493742Y5839086D01*
X2493924Y5838832D01*
X2494106Y5838577D01*
X2494288Y5838249D01*
X2494506Y5837885D01*
X2494725Y5837485D01*
X2494907Y5837048D01*
X2495089Y5836538D01*
X2495271Y5836029D01*
X2495380Y5835483D01*
X2495489Y5834864D01*
X2495562Y5834245D01*
X2495598Y5833590D01*
Y5833553D01*
Y5833481D01*
Y5833372D01*
Y5833190D01*
X2495562Y5832971D01*
Y5832753D01*
X2495453Y5832170D01*
X2495343Y5831479D01*
X2495162Y5830751D01*
X2494907Y5829950D01*
X2494543Y5829185D01*
Y5829149D01*
X2494506Y5829113D01*
X2494434Y5829003D01*
X2494361Y5828858D01*
X2494142Y5828494D01*
X2493815Y5828021D01*
X2493414Y5827511D01*
X2492941Y5827002D01*
X2492359Y5826492D01*
X2491740Y5826055D01*
X2491704D01*
X2491667Y5826019D01*
X2491558Y5825946D01*
X2491412Y5825909D01*
X2491048Y5825727D01*
X2490575Y5825546D01*
X2489956Y5825327D01*
X2489265Y5825181D01*
X2488500Y5825036D01*
X2487663Y5824999D01*
X2487481D01*
X2487299Y5825036D01*
X2487008D01*
X2486680Y5825072D01*
X2486316Y5825145D01*
X2485880Y5825254D01*
X2485443Y5825364D01*
X2484933Y5825509D01*
X2484423Y5825691D01*
X2483914Y5825909D01*
X2483368Y5826201D01*
X2482858Y5826528D01*
X2482349Y5826892D01*
X2481839Y5827329D01*
X2481366Y5827839D01*
X2481329Y5827875D01*
X2481257Y5827984D01*
X2481148Y5828130D01*
X2481002Y5828385D01*
X2480784Y5828712D01*
X2480602Y5829076D01*
X2480383Y5829550D01*
X2480165Y5830059D01*
X2479910Y5830678D01*
X2479691Y5831369D01*
X2479510Y5832134D01*
X2479327Y5832971D01*
X2479146Y5833917D01*
X2479036Y5834937D01*
X2478963Y5836029D01*
X2478927Y5837194D01*
Y5837230D01*
Y5837266D01*
Y5837376D01*
Y5837521D01*
X2478963Y5837885D01*
Y5838395D01*
X2479000Y5838977D01*
X2479073Y5839669D01*
X2479146Y5840433D01*
X2479255Y5841270D01*
X2479400Y5842108D01*
X2479582Y5843017D01*
X2479801Y5843891D01*
X2480055Y5844765D01*
X2480383Y5845602D01*
X2480747Y5846403D01*
X2481148Y5847167D01*
X2481621Y5847822D01*
X2481657Y5847859D01*
X2481730Y5847931D01*
X2481876Y5848077D01*
X2482057Y5848296D01*
X2482276Y5848514D01*
X2482567Y5848732D01*
X2482931Y5849024D01*
X2483295Y5849278D01*
X2483732Y5849533D01*
X2484205Y5849824D01*
X2484751Y5850043D01*
X2485297Y5850297D01*
X2485916Y5850480D01*
X2486571Y5850625D01*
X2487263Y5850698D01*
X2487991Y5850734D01*
X2488282D01*
X2488500Y5850698D01*
D02*
G37*
G36*
X2474778Y5836065D02*
Y5836029D01*
Y5835883D01*
Y5835701D01*
Y5835446D01*
X2474741Y5835119D01*
Y5834755D01*
X2474705Y5834318D01*
X2474668Y5833881D01*
X2474559Y5832898D01*
X2474414Y5831879D01*
X2474195Y5830896D01*
X2474050Y5830423D01*
X2473904Y5829986D01*
Y5829950D01*
X2473867Y5829877D01*
X2473795Y5829768D01*
X2473722Y5829622D01*
X2473503Y5829222D01*
X2473176Y5828712D01*
X2472739Y5828130D01*
X2472229Y5827547D01*
X2471574Y5826929D01*
X2470773Y5826383D01*
X2470737D01*
X2470664Y5826310D01*
X2470555Y5826274D01*
X2470373Y5826164D01*
X2470155Y5826055D01*
X2469863Y5825946D01*
X2469572Y5825837D01*
X2469208Y5825691D01*
X2468808Y5825546D01*
X2468371Y5825436D01*
X2467898Y5825327D01*
X2467352Y5825218D01*
X2466806Y5825145D01*
X2466224Y5825072D01*
X2464913Y5824999D01*
X2464586D01*
X2464331Y5825036D01*
X2464039D01*
X2463675Y5825072D01*
X2463275Y5825109D01*
X2462875Y5825145D01*
X2461965Y5825291D01*
X2460982Y5825509D01*
X2460035Y5825800D01*
X2459126Y5826201D01*
X2459089D01*
X2459016Y5826274D01*
X2458907Y5826346D01*
X2458762Y5826419D01*
X2458361Y5826710D01*
X2457888Y5827111D01*
X2457342Y5827620D01*
X2456832Y5828203D01*
X2456323Y5828931D01*
X2455922Y5829731D01*
Y5829768D01*
X2455886Y5829841D01*
X2455849Y5829986D01*
X2455777Y5830168D01*
X2455704Y5830387D01*
X2455631Y5830678D01*
X2455522Y5831006D01*
X2455449Y5831406D01*
X2455376Y5831843D01*
X2455267Y5832316D01*
X2455194Y5832825D01*
X2455122Y5833372D01*
X2455049Y5833990D01*
X2455012Y5834645D01*
X2454976Y5835337D01*
Y5836065D01*
Y5850625D01*
X2458325D01*
Y5836065D01*
Y5836029D01*
Y5835919D01*
Y5835738D01*
Y5835519D01*
X2458361Y5835264D01*
Y5834937D01*
X2458398Y5834245D01*
X2458470Y5833444D01*
X2458579Y5832644D01*
X2458725Y5831879D01*
X2458798Y5831551D01*
X2458907Y5831224D01*
X2458943Y5831151D01*
X2459016Y5830969D01*
X2459198Y5830714D01*
X2459417Y5830350D01*
X2459671Y5829986D01*
X2460035Y5829586D01*
X2460472Y5829185D01*
X2460982Y5828858D01*
X2461055Y5828822D01*
X2461237Y5828712D01*
X2461564Y5828603D01*
X2462001Y5828458D01*
X2462511Y5828275D01*
X2463166Y5828166D01*
X2463858Y5828057D01*
X2464622Y5828021D01*
X2464986D01*
X2465204Y5828057D01*
X2465532D01*
X2465860Y5828093D01*
X2466660Y5828239D01*
X2467534Y5828421D01*
X2468371Y5828712D01*
X2469172Y5829113D01*
X2469536Y5829368D01*
X2469863Y5829659D01*
X2469900Y5829695D01*
X2469936Y5829731D01*
X2470009Y5829841D01*
X2470118Y5829986D01*
X2470227Y5830205D01*
X2470373Y5830423D01*
X2470519Y5830751D01*
X2470664Y5831078D01*
X2470810Y5831479D01*
X2470919Y5831952D01*
X2471065Y5832498D01*
X2471174Y5833080D01*
X2471283Y5833735D01*
X2471356Y5834427D01*
X2471429Y5835228D01*
Y5836065D01*
Y5850625D01*
X2474778D01*
Y5836065D01*
D02*
G37*
G36*
X15773868Y6309964D02*
X15774232D01*
X15774596Y6309927D01*
X15775069Y6309891D01*
X15775542Y6309818D01*
X15776598Y6309636D01*
X15777763Y6309382D01*
X15778927Y6309017D01*
X15780056Y6308508D01*
X15780092Y6308471D01*
X15780201Y6308435D01*
X15780347Y6308362D01*
X15780529Y6308217D01*
X15780784Y6308071D01*
X15781075Y6307889D01*
X15781730Y6307416D01*
X15782458Y6306797D01*
X15783186Y6306069D01*
X15783914Y6305232D01*
X15784533Y6304249D01*
X15784569Y6304213D01*
X15784606Y6304104D01*
X15784679Y6303958D01*
X15784788Y6303776D01*
X15784897Y6303485D01*
X15785006Y6303194D01*
X15785152Y6302829D01*
X15785298Y6302429D01*
X15785443Y6301992D01*
X15785589Y6301519D01*
X15785807Y6300500D01*
X15785989Y6299335D01*
X15786062Y6298134D01*
Y6297770D01*
X15786025Y6297515D01*
X15785989Y6297188D01*
X15785953Y6296787D01*
X15785916Y6296387D01*
X15785807Y6295913D01*
X15785589Y6294931D01*
X15785261Y6293839D01*
X15785043Y6293293D01*
X15784788Y6292783D01*
X15784460Y6292274D01*
X15784133Y6291764D01*
X15784096Y6291727D01*
X15784060Y6291655D01*
X15783951Y6291509D01*
X15783769Y6291327D01*
X15783587Y6291145D01*
X15783332Y6290890D01*
X15783041Y6290636D01*
X15782749Y6290344D01*
X15782386Y6290053D01*
X15781949Y6289762D01*
X15781512Y6289434D01*
X15781039Y6289143D01*
X15780493Y6288888D01*
X15779947Y6288597D01*
X15779364Y6288379D01*
X15778709Y6288160D01*
X15777945Y6291436D01*
X15777981D01*
X15778054Y6291473D01*
X15778200Y6291546D01*
X15778381Y6291618D01*
X15778600Y6291691D01*
X15778891Y6291800D01*
X15779474Y6292092D01*
X15780129Y6292456D01*
X15780784Y6292892D01*
X15781403Y6293438D01*
X15781949Y6294021D01*
X15782022Y6294093D01*
X15782167Y6294312D01*
X15782349Y6294676D01*
X15782604Y6295149D01*
X15782822Y6295768D01*
X15783041Y6296459D01*
X15783186Y6297297D01*
X15783223Y6298207D01*
Y6298498D01*
X15783186Y6298680D01*
Y6298935D01*
X15783150Y6299226D01*
X15783041Y6299917D01*
X15782895Y6300682D01*
X15782640Y6301483D01*
X15782276Y6302320D01*
X15781803Y6303084D01*
Y6303121D01*
X15781730Y6303157D01*
X15781548Y6303412D01*
X15781257Y6303739D01*
X15780820Y6304140D01*
X15780274Y6304613D01*
X15779656Y6305050D01*
X15778891Y6305450D01*
X15778054Y6305814D01*
X15778017D01*
X15777945Y6305851D01*
X15777835Y6305887D01*
X15777654Y6305923D01*
X15777435Y6305996D01*
X15777180Y6306069D01*
X15776561Y6306178D01*
X15775834Y6306324D01*
X15775033Y6306470D01*
X15774159Y6306542D01*
X15773213Y6306579D01*
X15773176D01*
X15773067D01*
X15772885D01*
X15772667D01*
X15772412Y6306542D01*
X15772084D01*
X15771720Y6306506D01*
X15771320Y6306470D01*
X15770446Y6306360D01*
X15769500Y6306178D01*
X15768553Y6305960D01*
X15767607Y6305669D01*
X15767571D01*
X15767498Y6305632D01*
X15767389Y6305560D01*
X15767207Y6305487D01*
X15766770Y6305268D01*
X15766260Y6304941D01*
X15765678Y6304540D01*
X15765059Y6304031D01*
X15764513Y6303448D01*
X15764004Y6302757D01*
Y6302720D01*
X15763967Y6302648D01*
X15763894Y6302538D01*
X15763822Y6302393D01*
X15763749Y6302211D01*
X15763639Y6301992D01*
X15763421Y6301483D01*
X15763203Y6300828D01*
X15763021Y6300100D01*
X15762875Y6299299D01*
X15762839Y6298462D01*
Y6298207D01*
X15762875Y6297988D01*
Y6297734D01*
X15762912Y6297479D01*
X15763057Y6296824D01*
X15763239Y6296059D01*
X15763530Y6295295D01*
X15763931Y6294494D01*
X15764149Y6294093D01*
X15764440Y6293730D01*
X15764477Y6293693D01*
X15764513Y6293657D01*
X15764622Y6293547D01*
X15764731Y6293402D01*
X15764914Y6293256D01*
X15765132Y6293074D01*
X15765350Y6292856D01*
X15765641Y6292674D01*
X15765969Y6292456D01*
X15766333Y6292201D01*
X15766697Y6291982D01*
X15767134Y6291764D01*
X15767607Y6291582D01*
X15768117Y6291400D01*
X15768663Y6291218D01*
X15769245Y6291072D01*
X15768408Y6287724D01*
X15768371D01*
X15768226Y6287760D01*
X15768007Y6287833D01*
X15767716Y6287942D01*
X15767389Y6288051D01*
X15766988Y6288197D01*
X15766551Y6288379D01*
X15766078Y6288597D01*
X15765059Y6289107D01*
X15764040Y6289762D01*
X15763530Y6290162D01*
X15763021Y6290563D01*
X15762584Y6290999D01*
X15762147Y6291509D01*
X15762111Y6291546D01*
X15762038Y6291618D01*
X15761965Y6291800D01*
X15761819Y6291982D01*
X15761638Y6292274D01*
X15761456Y6292565D01*
X15761273Y6292965D01*
X15761092Y6293365D01*
X15760873Y6293839D01*
X15760691Y6294348D01*
X15760509Y6294894D01*
X15760327Y6295477D01*
X15760182Y6296096D01*
X15760109Y6296751D01*
X15760036Y6297442D01*
X15759999Y6298170D01*
Y6298571D01*
X15760036Y6298862D01*
Y6299190D01*
X15760072Y6299590D01*
X15760145Y6300027D01*
X15760218Y6300536D01*
X15760400Y6301592D01*
X15760691Y6302684D01*
X15761092Y6303776D01*
X15761346Y6304285D01*
X15761638Y6304795D01*
X15761674Y6304832D01*
X15761710Y6304904D01*
X15761819Y6305050D01*
X15761965Y6305195D01*
X15762111Y6305414D01*
X15762329Y6305669D01*
X15762584Y6305960D01*
X15762875Y6306251D01*
X15763203Y6306542D01*
X15763530Y6306870D01*
X15764368Y6307525D01*
X15765350Y6308144D01*
X15766442Y6308690D01*
X15766479D01*
X15766588Y6308763D01*
X15766770Y6308799D01*
X15766988Y6308908D01*
X15767280Y6308981D01*
X15767644Y6309090D01*
X15768044Y6309236D01*
X15768481Y6309345D01*
X15768954Y6309454D01*
X15769500Y6309600D01*
X15770628Y6309782D01*
X15771902Y6309927D01*
X15773213Y6310000D01*
X15773249D01*
X15773395D01*
X15773613D01*
X15773868Y6309964D01*
D02*
G37*
G36*
X15785625Y6274401D02*
Y6271890D01*
X15769318D01*
Y6268468D01*
X15766479D01*
Y6271890D01*
X15760436D01*
Y6274984D01*
X15766479D01*
Y6285940D01*
X15769318D01*
X15785625Y6274401D01*
D02*
G37*
G36*
X15779401Y6262899D02*
X15779474Y6262826D01*
X15779510Y6262680D01*
X15779619Y6262498D01*
X15779728Y6262280D01*
X15779874Y6262025D01*
X15780238Y6261406D01*
X15780638Y6260678D01*
X15781148Y6259950D01*
X15781730Y6259186D01*
X15782349Y6258422D01*
X15782386Y6258385D01*
X15782422Y6258349D01*
X15782531Y6258239D01*
X15782640Y6258094D01*
X15783004Y6257766D01*
X15783441Y6257329D01*
X15783951Y6256893D01*
X15784533Y6256419D01*
X15785115Y6256019D01*
X15785734Y6255655D01*
Y6253653D01*
X15760436D01*
Y6256747D01*
X15780129D01*
X15780092Y6256783D01*
X15779947Y6256966D01*
X15779728Y6257184D01*
X15779474Y6257548D01*
X15779146Y6257948D01*
X15778782Y6258458D01*
X15778381Y6259040D01*
X15777981Y6259695D01*
Y6259732D01*
X15777945Y6259768D01*
X15777799Y6259987D01*
X15777617Y6260351D01*
X15777399Y6260788D01*
X15777144Y6261297D01*
X15776889Y6261843D01*
X15776634Y6262389D01*
X15776416Y6262935D01*
X15779401D01*
Y6262899D01*
D02*
G37*
G36*
X2532760Y5325698D02*
X2533233Y5325625D01*
X2533815Y5325516D01*
X2534470Y5325334D01*
X2535126Y5325115D01*
X2535781Y5324824D01*
X2535817D01*
X2535854Y5324788D01*
X2536072Y5324679D01*
X2536399Y5324460D01*
X2536764Y5324206D01*
X2537200Y5323842D01*
X2537637Y5323441D01*
X2538074Y5322968D01*
X2538438Y5322422D01*
X2538474Y5322349D01*
X2538584Y5322167D01*
X2538729Y5321840D01*
X2538911Y5321439D01*
X2539093Y5320966D01*
X2539239Y5320420D01*
X2539348Y5319801D01*
X2539384Y5319182D01*
Y5319109D01*
Y5318891D01*
X2539348Y5318600D01*
X2539275Y5318199D01*
X2539166Y5317726D01*
X2538984Y5317217D01*
X2538765Y5316707D01*
X2538474Y5316198D01*
X2538438Y5316125D01*
X2538329Y5315979D01*
X2538110Y5315724D01*
X2537819Y5315433D01*
X2537455Y5315105D01*
X2537018Y5314742D01*
X2536509Y5314414D01*
X2535890Y5314086D01*
X2535926D01*
X2535999Y5314050D01*
X2536108Y5314014D01*
X2536254Y5313977D01*
X2536654Y5313832D01*
X2537164Y5313613D01*
X2537746Y5313322D01*
X2538329Y5312958D01*
X2538875Y5312485D01*
X2539384Y5311939D01*
X2539421Y5311866D01*
X2539566Y5311648D01*
X2539785Y5311283D01*
X2540003Y5310810D01*
X2540222Y5310228D01*
X2540440Y5309536D01*
X2540586Y5308735D01*
X2540622Y5307862D01*
Y5307825D01*
Y5307716D01*
Y5307534D01*
X2540586Y5307316D01*
X2540549Y5307025D01*
X2540476Y5306697D01*
X2540403Y5306333D01*
X2540331Y5305933D01*
X2540039Y5305059D01*
X2539821Y5304586D01*
X2539603Y5304149D01*
X2539311Y5303676D01*
X2538984Y5303203D01*
X2538620Y5302730D01*
X2538183Y5302293D01*
X2538147Y5302256D01*
X2538074Y5302184D01*
X2537928Y5302074D01*
X2537746Y5301929D01*
X2537528Y5301747D01*
X2537237Y5301565D01*
X2536909Y5301346D01*
X2536509Y5301164D01*
X2536108Y5300946D01*
X2535635Y5300727D01*
X2535162Y5300546D01*
X2534616Y5300364D01*
X2534034Y5300218D01*
X2533415Y5300109D01*
X2532796Y5300036D01*
X2532104Y5299999D01*
X2531777D01*
X2531558Y5300036D01*
X2531267Y5300072D01*
X2530939Y5300109D01*
X2530575Y5300181D01*
X2530175Y5300254D01*
X2529302Y5300473D01*
X2528392Y5300837D01*
X2527918Y5301055D01*
X2527481Y5301310D01*
X2527045Y5301637D01*
X2526608Y5301965D01*
X2526572Y5302002D01*
X2526499Y5302074D01*
X2526390Y5302184D01*
X2526280Y5302329D01*
X2526098Y5302511D01*
X2525916Y5302766D01*
X2525698Y5303021D01*
X2525479Y5303348D01*
X2525261Y5303712D01*
X2525043Y5304076D01*
X2524642Y5304950D01*
X2524315Y5305969D01*
X2524206Y5306515D01*
X2524133Y5307097D01*
X2527227Y5307498D01*
Y5307462D01*
X2527263Y5307389D01*
X2527300Y5307243D01*
X2527336Y5307061D01*
X2527372Y5306843D01*
X2527445Y5306588D01*
X2527627Y5306042D01*
X2527882Y5305387D01*
X2528209Y5304768D01*
X2528573Y5304185D01*
X2529010Y5303676D01*
X2529083Y5303640D01*
X2529229Y5303494D01*
X2529520Y5303312D01*
X2529884Y5303130D01*
X2530321Y5302912D01*
X2530867Y5302730D01*
X2531485Y5302584D01*
X2532141Y5302547D01*
X2532359D01*
X2532505Y5302584D01*
X2532905Y5302620D01*
X2533415Y5302730D01*
X2533997Y5302912D01*
X2534616Y5303166D01*
X2535235Y5303530D01*
X2535817Y5304040D01*
X2535890Y5304113D01*
X2536072Y5304331D01*
X2536290Y5304659D01*
X2536581Y5305096D01*
X2536873Y5305641D01*
X2537091Y5306260D01*
X2537273Y5306988D01*
X2537346Y5307789D01*
Y5307825D01*
Y5307898D01*
Y5308007D01*
X2537309Y5308153D01*
X2537273Y5308553D01*
X2537164Y5309027D01*
X2537018Y5309609D01*
X2536764Y5310191D01*
X2536399Y5310774D01*
X2535926Y5311320D01*
X2535854Y5311393D01*
X2535671Y5311538D01*
X2535380Y5311757D01*
X2534980Y5312011D01*
X2534470Y5312266D01*
X2533852Y5312485D01*
X2533160Y5312630D01*
X2532396Y5312703D01*
X2532068D01*
X2531813Y5312667D01*
X2531485Y5312630D01*
X2531122Y5312557D01*
X2530685Y5312485D01*
X2530211Y5312376D01*
X2530575Y5315105D01*
X2530758D01*
X2530903Y5315069D01*
X2531376D01*
X2531777Y5315142D01*
X2532250Y5315215D01*
X2532796Y5315324D01*
X2533415Y5315506D01*
X2533997Y5315761D01*
X2534616Y5316088D01*
X2534652D01*
X2534689Y5316125D01*
X2534871Y5316270D01*
X2535126Y5316525D01*
X2535417Y5316853D01*
X2535708Y5317326D01*
X2535963Y5317872D01*
X2536145Y5318491D01*
X2536218Y5318855D01*
Y5319255D01*
Y5319292D01*
Y5319328D01*
Y5319546D01*
X2536145Y5319837D01*
X2536072Y5320238D01*
X2535926Y5320675D01*
X2535744Y5321148D01*
X2535453Y5321621D01*
X2535053Y5322058D01*
X2535016Y5322094D01*
X2534834Y5322240D01*
X2534579Y5322422D01*
X2534252Y5322640D01*
X2533815Y5322822D01*
X2533305Y5323004D01*
X2532723Y5323150D01*
X2532068Y5323186D01*
X2531777D01*
X2531449Y5323114D01*
X2531012Y5323041D01*
X2530539Y5322895D01*
X2530066Y5322713D01*
X2529556Y5322422D01*
X2529083Y5322058D01*
X2529047Y5322021D01*
X2528901Y5321840D01*
X2528683Y5321585D01*
X2528428Y5321221D01*
X2528173Y5320748D01*
X2527918Y5320165D01*
X2527700Y5319474D01*
X2527554Y5318673D01*
X2524460Y5319219D01*
Y5319255D01*
X2524497Y5319364D01*
X2524533Y5319510D01*
X2524570Y5319728D01*
X2524642Y5319983D01*
X2524751Y5320274D01*
X2524970Y5320966D01*
X2525334Y5321767D01*
X2525771Y5322568D01*
X2526317Y5323332D01*
X2527008Y5324024D01*
X2527045Y5324060D01*
X2527117Y5324096D01*
X2527227Y5324169D01*
X2527372Y5324278D01*
X2527554Y5324424D01*
X2527809Y5324569D01*
X2528064Y5324715D01*
X2528392Y5324897D01*
X2529119Y5325188D01*
X2529957Y5325480D01*
X2530939Y5325662D01*
X2531449Y5325734D01*
X2532359D01*
X2532760Y5325698D01*
D02*
G37*
G36*
X2519801Y5311065D02*
Y5311029D01*
Y5310883D01*
Y5310701D01*
Y5310446D01*
X2519765Y5310119D01*
Y5309755D01*
X2519728Y5309318D01*
X2519692Y5308881D01*
X2519583Y5307898D01*
X2519437Y5306879D01*
X2519219Y5305896D01*
X2519073Y5305423D01*
X2518927Y5304986D01*
Y5304950D01*
X2518891Y5304877D01*
X2518818Y5304768D01*
X2518745Y5304622D01*
X2518527Y5304222D01*
X2518200Y5303712D01*
X2517763Y5303130D01*
X2517253Y5302547D01*
X2516598Y5301929D01*
X2515797Y5301383D01*
X2515761D01*
X2515688Y5301310D01*
X2515579Y5301274D01*
X2515397Y5301164D01*
X2515178Y5301055D01*
X2514887Y5300946D01*
X2514596Y5300837D01*
X2514232Y5300691D01*
X2513831Y5300546D01*
X2513395Y5300436D01*
X2512921Y5300327D01*
X2512376Y5300218D01*
X2511829Y5300145D01*
X2511247Y5300072D01*
X2509937Y5299999D01*
X2509609D01*
X2509354Y5300036D01*
X2509063D01*
X2508699Y5300072D01*
X2508299Y5300109D01*
X2507898Y5300145D01*
X2506988Y5300291D01*
X2506006Y5300509D01*
X2505059Y5300800D01*
X2504149Y5301201D01*
X2504113D01*
X2504040Y5301274D01*
X2503931Y5301346D01*
X2503785Y5301419D01*
X2503385Y5301710D01*
X2502912Y5302111D01*
X2502365Y5302620D01*
X2501856Y5303203D01*
X2501346Y5303931D01*
X2500946Y5304731D01*
Y5304768D01*
X2500910Y5304841D01*
X2500873Y5304986D01*
X2500800Y5305168D01*
X2500727Y5305387D01*
X2500655Y5305678D01*
X2500546Y5306006D01*
X2500473Y5306406D01*
X2500400Y5306843D01*
X2500291Y5307316D01*
X2500218Y5307825D01*
X2500145Y5308372D01*
X2500072Y5308990D01*
X2500036Y5309645D01*
X2499999Y5310337D01*
Y5311065D01*
Y5325625D01*
X2503348D01*
Y5311065D01*
Y5311029D01*
Y5310919D01*
Y5310738D01*
Y5310519D01*
X2503385Y5310264D01*
Y5309937D01*
X2503421Y5309245D01*
X2503494Y5308444D01*
X2503603Y5307644D01*
X2503749Y5306879D01*
X2503822Y5306551D01*
X2503931Y5306224D01*
X2503967Y5306151D01*
X2504040Y5305969D01*
X2504222Y5305714D01*
X2504440Y5305350D01*
X2504695Y5304986D01*
X2505059Y5304586D01*
X2505496Y5304185D01*
X2506006Y5303858D01*
X2506078Y5303822D01*
X2506260Y5303712D01*
X2506588Y5303603D01*
X2507025Y5303458D01*
X2507534Y5303275D01*
X2508189Y5303166D01*
X2508881Y5303057D01*
X2509646Y5303021D01*
X2510010D01*
X2510228Y5303057D01*
X2510555D01*
X2510883Y5303093D01*
X2511684Y5303239D01*
X2512557Y5303421D01*
X2513395Y5303712D01*
X2514195Y5304113D01*
X2514559Y5304368D01*
X2514887Y5304659D01*
X2514923Y5304695D01*
X2514960Y5304731D01*
X2515033Y5304841D01*
X2515142Y5304986D01*
X2515251Y5305205D01*
X2515397Y5305423D01*
X2515542Y5305751D01*
X2515688Y5306078D01*
X2515834Y5306479D01*
X2515943Y5306952D01*
X2516088Y5307498D01*
X2516198Y5308080D01*
X2516307Y5308735D01*
X2516380Y5309427D01*
X2516452Y5310228D01*
Y5311065D01*
Y5325625D01*
X2519801D01*
Y5311065D01*
D02*
G37*
G36*
X15993868Y6689964D02*
X15994232D01*
X15994596Y6689927D01*
X15995069Y6689891D01*
X15995542Y6689818D01*
X15996598Y6689636D01*
X15997763Y6689382D01*
X15998927Y6689017D01*
X16000055Y6688508D01*
X16000092Y6688471D01*
X16000200Y6688435D01*
X16000347Y6688362D01*
X16000528Y6688217D01*
X16000784Y6688071D01*
X16001076Y6687889D01*
X16001730Y6687416D01*
X16002459Y6686797D01*
X16003185Y6686069D01*
X16003914Y6685232D01*
X16004534Y6684249D01*
X16004568Y6684213D01*
X16004606Y6684104D01*
X16004679Y6683958D01*
X16004787Y6683776D01*
X16004896Y6683485D01*
X16005007Y6683194D01*
X16005152Y6682829D01*
X16005299Y6682429D01*
X16005444Y6681992D01*
X16005589Y6681519D01*
X16005808Y6680500D01*
X16005989Y6679335D01*
X16006062Y6678134D01*
Y6677770D01*
X16006025Y6677515D01*
X16005989Y6677188D01*
X16005953Y6676787D01*
X16005917Y6676387D01*
X16005808Y6675913D01*
X16005589Y6674931D01*
X16005260Y6673839D01*
X16005043Y6673293D01*
X16004787Y6672783D01*
X16004459Y6672274D01*
X16004133Y6671764D01*
X16004095Y6671727D01*
X16004061Y6671655D01*
X16003950Y6671509D01*
X16003769Y6671327D01*
X16003588Y6671145D01*
X16003332Y6670890D01*
X16003040Y6670636D01*
X16002748Y6670344D01*
X16002386Y6670053D01*
X16001949Y6669762D01*
X16001513Y6669434D01*
X16001040Y6669143D01*
X16000492Y6668888D01*
X15999947Y6668597D01*
X15999364Y6668379D01*
X15998709Y6668160D01*
X15997945Y6671436D01*
X15997981D01*
X15998054Y6671473D01*
X15998200Y6671546D01*
X15998381Y6671618D01*
X15998600Y6671691D01*
X15998891Y6671800D01*
X15999474Y6672092D01*
X16000130Y6672456D01*
X16000784Y6672892D01*
X16001404Y6673438D01*
X16001949Y6674021D01*
X16002022Y6674093D01*
X16002167Y6674312D01*
X16002350Y6674676D01*
X16002604Y6675149D01*
X16002823Y6675768D01*
X16003040Y6676459D01*
X16003185Y6677297D01*
X16003223Y6678207D01*
Y6678498D01*
X16003185Y6678680D01*
Y6678935D01*
X16003151Y6679226D01*
X16003040Y6679917D01*
X16002895Y6680682D01*
X16002640Y6681483D01*
X16002275Y6682320D01*
X16001802Y6683084D01*
Y6683121D01*
X16001730Y6683157D01*
X16001549Y6683412D01*
X16001257Y6683739D01*
X16000820Y6684140D01*
X16000275Y6684613D01*
X15999656Y6685050D01*
X15998891Y6685450D01*
X15998054Y6685814D01*
X15998017D01*
X15997945Y6685851D01*
X15997835Y6685887D01*
X15997654Y6685923D01*
X15997435Y6685996D01*
X15997180Y6686069D01*
X15996561Y6686178D01*
X15995834Y6686324D01*
X15995033Y6686470D01*
X15994159Y6686542D01*
X15993213Y6686579D01*
X15993176D01*
X15993067D01*
X15992885D01*
X15992667D01*
X15992412Y6686542D01*
X15992084D01*
X15991720Y6686506D01*
X15991320Y6686470D01*
X15990446Y6686360D01*
X15989500Y6686178D01*
X15988553Y6685960D01*
X15987607Y6685669D01*
X15987571D01*
X15987498Y6685632D01*
X15987389Y6685560D01*
X15987207Y6685487D01*
X15986770Y6685268D01*
X15986260Y6684941D01*
X15985678Y6684540D01*
X15985059Y6684031D01*
X15984513Y6683448D01*
X15984004Y6682757D01*
Y6682720D01*
X15983967Y6682648D01*
X15983894Y6682538D01*
X15983822Y6682393D01*
X15983749Y6682211D01*
X15983639Y6681992D01*
X15983421Y6681483D01*
X15983203Y6680828D01*
X15983021Y6680100D01*
X15982875Y6679299D01*
X15982839Y6678462D01*
Y6678207D01*
X15982875Y6677988D01*
Y6677734D01*
X15982912Y6677479D01*
X15983057Y6676824D01*
X15983239Y6676059D01*
X15983530Y6675295D01*
X15983931Y6674494D01*
X15984149Y6674093D01*
X15984440Y6673730D01*
X15984477Y6673693D01*
X15984513Y6673657D01*
X15984622Y6673547D01*
X15984731Y6673402D01*
X15984914Y6673256D01*
X15985132Y6673074D01*
X15985350Y6672856D01*
X15985641Y6672674D01*
X15985969Y6672456D01*
X15986333Y6672201D01*
X15986697Y6671982D01*
X15987134Y6671764D01*
X15987607Y6671582D01*
X15988117Y6671400D01*
X15988663Y6671218D01*
X15989245Y6671072D01*
X15988408Y6667724D01*
X15988371D01*
X15988226Y6667760D01*
X15988007Y6667833D01*
X15987716Y6667942D01*
X15987389Y6668051D01*
X15986988Y6668197D01*
X15986551Y6668379D01*
X15986078Y6668597D01*
X15985059Y6669107D01*
X15984040Y6669762D01*
X15983530Y6670162D01*
X15983021Y6670563D01*
X15982584Y6670999D01*
X15982147Y6671509D01*
X15982111Y6671546D01*
X15982038Y6671618D01*
X15981965Y6671800D01*
X15981819Y6671982D01*
X15981638Y6672274D01*
X15981456Y6672565D01*
X15981273Y6672965D01*
X15981092Y6673365D01*
X15980873Y6673839D01*
X15980691Y6674348D01*
X15980509Y6674894D01*
X15980327Y6675477D01*
X15980182Y6676096D01*
X15980109Y6676751D01*
X15980036Y6677442D01*
X15979999Y6678170D01*
Y6678571D01*
X15980036Y6678862D01*
Y6679190D01*
X15980072Y6679590D01*
X15980145Y6680027D01*
X15980218Y6680536D01*
X15980400Y6681592D01*
X15980691Y6682684D01*
X15981092Y6683776D01*
X15981346Y6684285D01*
X15981638Y6684795D01*
X15981674Y6684832D01*
X15981710Y6684904D01*
X15981819Y6685050D01*
X15981965Y6685195D01*
X15982111Y6685414D01*
X15982329Y6685669D01*
X15982584Y6685960D01*
X15982875Y6686251D01*
X15983203Y6686542D01*
X15983530Y6686870D01*
X15984368Y6687525D01*
X15985350Y6688144D01*
X15986442Y6688690D01*
X15986479D01*
X15986588Y6688763D01*
X15986770Y6688799D01*
X15986988Y6688908D01*
X15987280Y6688981D01*
X15987644Y6689090D01*
X15988044Y6689236D01*
X15988481Y6689345D01*
X15988954Y6689454D01*
X15989500Y6689600D01*
X15990628Y6689782D01*
X15991902Y6689927D01*
X15993213Y6690000D01*
X15993249D01*
X15993395D01*
X15993613D01*
X15993868Y6689964D01*
D02*
G37*
G36*
X15987498Y6661754D02*
X15987461D01*
X15987389Y6661717D01*
X15987243Y6661681D01*
X15987061Y6661645D01*
X15986843Y6661608D01*
X15986588Y6661535D01*
X15986042Y6661354D01*
X15985387Y6661099D01*
X15984768Y6660771D01*
X15984185Y6660407D01*
X15983676Y6659970D01*
X15983639Y6659898D01*
X15983494Y6659752D01*
X15983312Y6659461D01*
X15983130Y6659097D01*
X15982912Y6658660D01*
X15982729Y6658114D01*
X15982584Y6657495D01*
X15982548Y6656840D01*
Y6656622D01*
X15982584Y6656476D01*
X15982620Y6656075D01*
X15982729Y6655566D01*
X15982912Y6654984D01*
X15983166Y6654365D01*
X15983530Y6653746D01*
X15984040Y6653163D01*
X15984113Y6653091D01*
X15984331Y6652909D01*
X15984659Y6652690D01*
X15985095Y6652399D01*
X15985641Y6652108D01*
X15986260Y6651890D01*
X15986988Y6651708D01*
X15987789Y6651635D01*
X15987826D01*
X15987898D01*
X15988007D01*
X15988153Y6651671D01*
X15988553Y6651708D01*
X15989027Y6651817D01*
X15989609Y6651962D01*
X15990192Y6652217D01*
X15990774Y6652581D01*
X15991320Y6653054D01*
X15991393Y6653127D01*
X15991538Y6653309D01*
X15991757Y6653600D01*
X15992012Y6654001D01*
X15992266Y6654510D01*
X15992485Y6655129D01*
X15992630Y6655821D01*
X15992703Y6656585D01*
Y6656913D01*
X15992667Y6657167D01*
X15992630Y6657495D01*
X15992558Y6657859D01*
X15992485Y6658296D01*
X15992376Y6658769D01*
X15995105Y6658405D01*
Y6658223D01*
X15995069Y6658078D01*
Y6657604D01*
X15995142Y6657204D01*
X15995215Y6656731D01*
X15995324Y6656185D01*
X15995506Y6655566D01*
X15995761Y6654984D01*
X15996088Y6654365D01*
Y6654328D01*
X15996125Y6654292D01*
X15996270Y6654110D01*
X15996525Y6653855D01*
X15996853Y6653564D01*
X15997326Y6653273D01*
X15997872Y6653018D01*
X15998491Y6652836D01*
X15998855Y6652763D01*
X15999255D01*
X15999291D01*
X15999328D01*
X15999546D01*
X15999837Y6652836D01*
X16000238Y6652909D01*
X16000675Y6653054D01*
X16001148Y6653236D01*
X16001621Y6653528D01*
X16002058Y6653928D01*
X16002094Y6653964D01*
X16002239Y6654146D01*
X16002422Y6654401D01*
X16002640Y6654729D01*
X16002823Y6655166D01*
X16003004Y6655675D01*
X16003151Y6656257D01*
X16003185Y6656913D01*
Y6657204D01*
X16003113Y6657532D01*
X16003040Y6657968D01*
X16002895Y6658441D01*
X16002712Y6658915D01*
X16002422Y6659424D01*
X16002058Y6659898D01*
X16002022Y6659934D01*
X16001841Y6660079D01*
X16001585Y6660298D01*
X16001221Y6660553D01*
X16000748Y6660807D01*
X16000166Y6661062D01*
X15999474Y6661281D01*
X15998673Y6661426D01*
X15999219Y6664520D01*
X15999255D01*
X15999364Y6664484D01*
X15999510Y6664448D01*
X15999728Y6664411D01*
X15999983Y6664338D01*
X16000275Y6664229D01*
X16000965Y6664011D01*
X16001766Y6663647D01*
X16002567Y6663210D01*
X16003332Y6662664D01*
X16004023Y6661972D01*
X16004061Y6661936D01*
X16004095Y6661863D01*
X16004169Y6661754D01*
X16004278Y6661608D01*
X16004423Y6661426D01*
X16004568Y6661172D01*
X16004715Y6660917D01*
X16004896Y6660589D01*
X16005188Y6659861D01*
X16005480Y6659024D01*
X16005663Y6658041D01*
X16005733Y6657532D01*
Y6656622D01*
X16005697Y6656221D01*
X16005625Y6655748D01*
X16005516Y6655166D01*
X16005335Y6654510D01*
X16005116Y6653855D01*
X16004824Y6653200D01*
Y6653163D01*
X16004787Y6653127D01*
X16004679Y6652909D01*
X16004459Y6652581D01*
X16004206Y6652217D01*
X16003841Y6651780D01*
X16003441Y6651343D01*
X16002968Y6650907D01*
X16002422Y6650543D01*
X16002350Y6650506D01*
X16002167Y6650397D01*
X16001841Y6650252D01*
X16001438Y6650069D01*
X16000965Y6649887D01*
X16000420Y6649742D01*
X15999801Y6649633D01*
X15999182Y6649596D01*
X15999110D01*
X15998891D01*
X15998600Y6649633D01*
X15998200Y6649706D01*
X15997726Y6649815D01*
X15997217Y6649997D01*
X15996707Y6650215D01*
X15996198Y6650506D01*
X15996125Y6650543D01*
X15995979Y6650652D01*
X15995724Y6650870D01*
X15995433Y6651162D01*
X15995105Y6651525D01*
X15994742Y6651962D01*
X15994414Y6652472D01*
X15994086Y6653091D01*
Y6653054D01*
X15994050Y6652981D01*
X15994013Y6652872D01*
X15993977Y6652727D01*
X15993832Y6652326D01*
X15993613Y6651817D01*
X15993322Y6651234D01*
X15992958Y6650652D01*
X15992485Y6650106D01*
X15991939Y6649596D01*
X15991866Y6649560D01*
X15991647Y6649414D01*
X15991283Y6649196D01*
X15990810Y6648977D01*
X15990228Y6648759D01*
X15989536Y6648541D01*
X15988736Y6648395D01*
X15987862Y6648359D01*
X15987826D01*
X15987716D01*
X15987534D01*
X15987316Y6648395D01*
X15987025Y6648431D01*
X15986697Y6648504D01*
X15986333Y6648577D01*
X15985933Y6648650D01*
X15985059Y6648941D01*
X15984586Y6649159D01*
X15984149Y6649378D01*
X15983676Y6649669D01*
X15983203Y6649997D01*
X15982729Y6650361D01*
X15982293Y6650797D01*
X15982256Y6650834D01*
X15982183Y6650907D01*
X15982074Y6651052D01*
X15981929Y6651234D01*
X15981747Y6651453D01*
X15981565Y6651744D01*
X15981346Y6652072D01*
X15981164Y6652472D01*
X15980946Y6652872D01*
X15980728Y6653346D01*
X15980546Y6653819D01*
X15980363Y6654365D01*
X15980218Y6654947D01*
X15980109Y6655566D01*
X15980036Y6656185D01*
X15979999Y6656876D01*
Y6657204D01*
X15980036Y6657422D01*
X15980072Y6657713D01*
X15980109Y6658041D01*
X15980182Y6658405D01*
X15980254Y6658806D01*
X15980473Y6659679D01*
X15980837Y6660589D01*
X15981055Y6661062D01*
X15981310Y6661499D01*
X15981638Y6661936D01*
X15981965Y6662373D01*
X15982002Y6662409D01*
X15982074Y6662482D01*
X15982183Y6662591D01*
X15982329Y6662700D01*
X15982511Y6662882D01*
X15982766Y6663064D01*
X15983021Y6663283D01*
X15983348Y6663501D01*
X15983712Y6663720D01*
X15984076Y6663938D01*
X15984950Y6664338D01*
X15985969Y6664666D01*
X15986515Y6664775D01*
X15987097Y6664848D01*
X15987498Y6661754D01*
D02*
G37*
G36*
X15999401Y6642899D02*
X15999474Y6642826D01*
X15999510Y6642680D01*
X15999619Y6642498D01*
X15999728Y6642280D01*
X15999874Y6642025D01*
X16000238Y6641406D01*
X16000637Y6640678D01*
X16001148Y6639950D01*
X16001730Y6639186D01*
X16002350Y6638422D01*
X16002386Y6638385D01*
X16002422Y6638349D01*
X16002531Y6638239D01*
X16002640Y6638094D01*
X16003004Y6637766D01*
X16003441Y6637329D01*
X16003950Y6636893D01*
X16004534Y6636419D01*
X16005116Y6636019D01*
X16005733Y6635655D01*
Y6633653D01*
X15980436D01*
Y6636747D01*
X16000130D01*
X16000092Y6636783D01*
X15999947Y6636966D01*
X15999728Y6637184D01*
X15999474Y6637548D01*
X15999146Y6637948D01*
X15998782Y6638458D01*
X15998381Y6639040D01*
X15997981Y6639695D01*
Y6639732D01*
X15997945Y6639768D01*
X15997799Y6639987D01*
X15997617Y6640351D01*
X15997399Y6640788D01*
X15997144Y6641297D01*
X15996889Y6641843D01*
X15996634Y6642389D01*
X15996416Y6642935D01*
X15999401D01*
Y6642899D01*
D02*
G37*
G36*
X16093868Y6689964D02*
X16094233D01*
X16094597Y6689927D01*
X16095070Y6689891D01*
X16095543Y6689818D01*
X16096598Y6689636D01*
X16097763Y6689382D01*
X16098927Y6689017D01*
X16100056Y6688508D01*
X16100092Y6688471D01*
X16100201Y6688435D01*
X16100348Y6688362D01*
X16100529Y6688217D01*
X16100784Y6688071D01*
X16101074Y6687889D01*
X16101730Y6687416D01*
X16102457Y6686797D01*
X16103186Y6686069D01*
X16103914Y6685232D01*
X16104532Y6684249D01*
X16104568Y6684213D01*
X16104607Y6684104D01*
X16104679Y6683958D01*
X16104788Y6683776D01*
X16104897Y6683485D01*
X16105005Y6683194D01*
X16105152Y6682829D01*
X16105297Y6682429D01*
X16105442Y6681992D01*
X16105589Y6681519D01*
X16105806Y6680500D01*
X16105989Y6679335D01*
X16106062Y6678134D01*
Y6677770D01*
X16106026Y6677515D01*
X16105989Y6677188D01*
X16105953Y6676787D01*
X16105915Y6676387D01*
X16105806Y6675913D01*
X16105589Y6674931D01*
X16105261Y6673839D01*
X16105043Y6673293D01*
X16104788Y6672783D01*
X16104460Y6672274D01*
X16104134Y6671764D01*
X16104095Y6671727D01*
X16104059Y6671655D01*
X16103951Y6671509D01*
X16103769Y6671327D01*
X16103586Y6671145D01*
X16103333Y6670890D01*
X16103041Y6670636D01*
X16102749Y6670344D01*
X16102386Y6670053D01*
X16101950Y6669762D01*
X16101513Y6669434D01*
X16101040Y6669143D01*
X16100492Y6668888D01*
X16099947Y6668597D01*
X16099363Y6668379D01*
X16098709Y6668160D01*
X16097944Y6671436D01*
X16097980D01*
X16098055Y6671473D01*
X16098200Y6671546D01*
X16098381Y6671618D01*
X16098600Y6671691D01*
X16098890Y6671800D01*
X16099474Y6672092D01*
X16100128Y6672456D01*
X16100784Y6672892D01*
X16101402Y6673438D01*
X16101950Y6674021D01*
X16102022Y6674093D01*
X16102167Y6674312D01*
X16102348Y6674676D01*
X16102604Y6675149D01*
X16102821Y6675768D01*
X16103041Y6676459D01*
X16103186Y6677297D01*
X16103224Y6678207D01*
Y6678498D01*
X16103186Y6678680D01*
Y6678935D01*
X16103149Y6679226D01*
X16103041Y6679917D01*
X16102896Y6680682D01*
X16102640Y6681483D01*
X16102276Y6682320D01*
X16101803Y6683084D01*
Y6683121D01*
X16101730Y6683157D01*
X16101547Y6683412D01*
X16101257Y6683739D01*
X16100821Y6684140D01*
X16100273Y6684613D01*
X16099655Y6685050D01*
X16098890Y6685450D01*
X16098055Y6685814D01*
X16098017D01*
X16097944Y6685851D01*
X16097836Y6685887D01*
X16097654Y6685923D01*
X16097435Y6685996D01*
X16097179Y6686069D01*
X16096561Y6686178D01*
X16095835Y6686324D01*
X16095034Y6686470D01*
X16094158Y6686542D01*
X16093212Y6686579D01*
X16093176D01*
X16093067D01*
X16092884D01*
X16092667D01*
X16092413Y6686542D01*
X16092085D01*
X16091721Y6686506D01*
X16091320Y6686470D01*
X16090446Y6686360D01*
X16089500Y6686178D01*
X16088552Y6685960D01*
X16087606Y6685669D01*
X16087570D01*
X16087498Y6685632D01*
X16087389Y6685560D01*
X16087208Y6685487D01*
X16086769Y6685268D01*
X16086260Y6684941D01*
X16085678Y6684540D01*
X16085058Y6684031D01*
X16084513Y6683448D01*
X16084003Y6682757D01*
Y6682720D01*
X16083967Y6682648D01*
X16083895Y6682538D01*
X16083822Y6682393D01*
X16083750Y6682211D01*
X16083639Y6681992D01*
X16083422Y6681483D01*
X16083202Y6680828D01*
X16083021Y6680100D01*
X16082874Y6679299D01*
X16082838Y6678462D01*
Y6678207D01*
X16082874Y6677988D01*
Y6677734D01*
X16082912Y6677479D01*
X16083057Y6676824D01*
X16083239Y6676059D01*
X16083530Y6675295D01*
X16083931Y6674494D01*
X16084148Y6674093D01*
X16084440Y6673730D01*
X16084476Y6673693D01*
X16084513Y6673657D01*
X16084621Y6673547D01*
X16084730Y6673402D01*
X16084913Y6673256D01*
X16085133Y6673074D01*
X16085350Y6672856D01*
X16085642Y6672674D01*
X16085970Y6672456D01*
X16086332Y6672201D01*
X16086697Y6671982D01*
X16087133Y6671764D01*
X16087606Y6671582D01*
X16088118Y6671400D01*
X16088663Y6671218D01*
X16089245Y6671072D01*
X16088408Y6667724D01*
X16088371D01*
X16088226Y6667760D01*
X16088007Y6667833D01*
X16087715Y6667942D01*
X16087389Y6668051D01*
X16086988Y6668197D01*
X16086552Y6668379D01*
X16086079Y6668597D01*
X16085058Y6669107D01*
X16084040Y6669762D01*
X16083530Y6670162D01*
X16083021Y6670563D01*
X16082584Y6670999D01*
X16082148Y6671509D01*
X16082111Y6671546D01*
X16082039Y6671618D01*
X16081964Y6671800D01*
X16081820Y6671982D01*
X16081638Y6672274D01*
X16081455Y6672565D01*
X16081272Y6672965D01*
X16081093Y6673365D01*
X16080873Y6673839D01*
X16080690Y6674348D01*
X16080509Y6674894D01*
X16080326Y6675477D01*
X16080181Y6676096D01*
X16080109Y6676751D01*
X16080036Y6677442D01*
X16080000Y6678170D01*
Y6678571D01*
X16080036Y6678862D01*
Y6679190D01*
X16080072Y6679590D01*
X16080145Y6680027D01*
X16080217Y6680536D01*
X16080400Y6681592D01*
X16080690Y6682684D01*
X16081093Y6683776D01*
X16081347Y6684285D01*
X16081638Y6684795D01*
X16081675Y6684832D01*
X16081711Y6684904D01*
X16081820Y6685050D01*
X16081964Y6685195D01*
X16082111Y6685414D01*
X16082329Y6685669D01*
X16082584Y6685960D01*
X16082874Y6686251D01*
X16083202Y6686542D01*
X16083530Y6686870D01*
X16084368Y6687525D01*
X16085350Y6688144D01*
X16086443Y6688690D01*
X16086479D01*
X16086588Y6688763D01*
X16086769Y6688799D01*
X16086988Y6688908D01*
X16087280Y6688981D01*
X16087645Y6689090D01*
X16088043Y6689236D01*
X16088482Y6689345D01*
X16088955Y6689454D01*
X16089500Y6689600D01*
X16090628Y6689782D01*
X16091902Y6689927D01*
X16093212Y6690000D01*
X16093248D01*
X16093395D01*
X16093613D01*
X16093868Y6689964D01*
D02*
G37*
G36*
X16087498Y6661754D02*
X16087461D01*
X16087389Y6661717D01*
X16087242Y6661681D01*
X16087061Y6661645D01*
X16086843Y6661608D01*
X16086588Y6661535D01*
X16086042Y6661354D01*
X16085386Y6661099D01*
X16084768Y6660771D01*
X16084185Y6660407D01*
X16083675Y6659970D01*
X16083639Y6659898D01*
X16083494Y6659752D01*
X16083311Y6659461D01*
X16083130Y6659097D01*
X16082912Y6658660D01*
X16082729Y6658114D01*
X16082584Y6657495D01*
X16082548Y6656840D01*
Y6656622D01*
X16082584Y6656476D01*
X16082621Y6656075D01*
X16082729Y6655566D01*
X16082912Y6654984D01*
X16083166Y6654365D01*
X16083530Y6653746D01*
X16084040Y6653163D01*
X16084112Y6653091D01*
X16084332Y6652909D01*
X16084660Y6652690D01*
X16085094Y6652399D01*
X16085642Y6652108D01*
X16086260Y6651890D01*
X16086988Y6651708D01*
X16087790Y6651635D01*
X16087826D01*
X16087898D01*
X16088007D01*
X16088154Y6651671D01*
X16088552Y6651708D01*
X16089027Y6651817D01*
X16089609Y6651962D01*
X16090193Y6652217D01*
X16090775Y6652581D01*
X16091320Y6653054D01*
X16091393Y6653127D01*
X16091537Y6653309D01*
X16091757Y6653600D01*
X16092012Y6654001D01*
X16092266Y6654510D01*
X16092485Y6655129D01*
X16092630Y6655821D01*
X16092703Y6656585D01*
Y6656913D01*
X16092667Y6657167D01*
X16092630Y6657495D01*
X16092558Y6657859D01*
X16092485Y6658296D01*
X16092377Y6658769D01*
X16095104Y6658405D01*
Y6658223D01*
X16095070Y6658078D01*
Y6657604D01*
X16095142Y6657204D01*
X16095215Y6656731D01*
X16095324Y6656185D01*
X16095507Y6655566D01*
X16095760Y6654984D01*
X16096088Y6654365D01*
Y6654328D01*
X16096125Y6654292D01*
X16096270Y6654110D01*
X16096525Y6653855D01*
X16096853Y6653564D01*
X16097326Y6653273D01*
X16097872Y6653018D01*
X16098492Y6652836D01*
X16098854Y6652763D01*
X16099255D01*
X16099291D01*
X16099327D01*
X16099546D01*
X16099836Y6652836D01*
X16100239Y6652909D01*
X16100676Y6653054D01*
X16101149Y6653236D01*
X16101622Y6653528D01*
X16102058Y6653928D01*
X16102095Y6653964D01*
X16102240Y6654146D01*
X16102423Y6654401D01*
X16102640Y6654729D01*
X16102821Y6655166D01*
X16103004Y6655675D01*
X16103149Y6656257D01*
X16103186Y6656913D01*
Y6657204D01*
X16103113Y6657532D01*
X16103041Y6657968D01*
X16102896Y6658441D01*
X16102713Y6658915D01*
X16102423Y6659424D01*
X16102058Y6659898D01*
X16102022Y6659934D01*
X16101839Y6660079D01*
X16101585Y6660298D01*
X16101221Y6660553D01*
X16100746Y6660807D01*
X16100164Y6661062D01*
X16099474Y6661281D01*
X16098673Y6661426D01*
X16099218Y6664520D01*
X16099255D01*
X16099363Y6664484D01*
X16099510Y6664448D01*
X16099728Y6664411D01*
X16099983Y6664338D01*
X16100273Y6664229D01*
X16100965Y6664011D01*
X16101767Y6663647D01*
X16102568Y6663210D01*
X16103333Y6662664D01*
X16104023Y6661972D01*
X16104059Y6661936D01*
X16104095Y6661863D01*
X16104170Y6661754D01*
X16104279Y6661608D01*
X16104424Y6661426D01*
X16104568Y6661172D01*
X16104715Y6660917D01*
X16104897Y6660589D01*
X16105188Y6659861D01*
X16105478Y6659024D01*
X16105661Y6658041D01*
X16105734Y6657532D01*
Y6656622D01*
X16105698Y6656221D01*
X16105625Y6655748D01*
X16105516Y6655166D01*
X16105333Y6654510D01*
X16105116Y6653855D01*
X16104824Y6653200D01*
Y6653163D01*
X16104788Y6653127D01*
X16104679Y6652909D01*
X16104460Y6652581D01*
X16104206Y6652217D01*
X16103842Y6651780D01*
X16103441Y6651343D01*
X16102968Y6650907D01*
X16102423Y6650543D01*
X16102348Y6650506D01*
X16102167Y6650397D01*
X16101839Y6650252D01*
X16101439Y6650069D01*
X16100965Y6649887D01*
X16100420Y6649742D01*
X16099800Y6649633D01*
X16099182Y6649596D01*
X16099110D01*
X16098890D01*
X16098600Y6649633D01*
X16098200Y6649706D01*
X16097727Y6649815D01*
X16097218Y6649997D01*
X16096706Y6650215D01*
X16096197Y6650506D01*
X16096125Y6650543D01*
X16095980Y6650652D01*
X16095724Y6650870D01*
X16095432Y6651162D01*
X16095104Y6651525D01*
X16094742Y6651962D01*
X16094414Y6652472D01*
X16094086Y6653091D01*
Y6653054D01*
X16094049Y6652981D01*
X16094013Y6652872D01*
X16093977Y6652727D01*
X16093832Y6652326D01*
X16093613Y6651817D01*
X16093323Y6651234D01*
X16092958Y6650652D01*
X16092485Y6650106D01*
X16091940Y6649596D01*
X16091866Y6649560D01*
X16091646Y6649414D01*
X16091284Y6649196D01*
X16090811Y6648977D01*
X16090227Y6648759D01*
X16089537Y6648541D01*
X16088736Y6648395D01*
X16087862Y6648359D01*
X16087826D01*
X16087715D01*
X16087534D01*
X16087317Y6648395D01*
X16087025Y6648431D01*
X16086697Y6648504D01*
X16086332Y6648577D01*
X16085934Y6648650D01*
X16085058Y6648941D01*
X16084585Y6649159D01*
X16084148Y6649378D01*
X16083675Y6649669D01*
X16083202Y6649997D01*
X16082729Y6650361D01*
X16082293Y6650797D01*
X16082256Y6650834D01*
X16082184Y6650907D01*
X16082073Y6651052D01*
X16081928Y6651234D01*
X16081747Y6651453D01*
X16081566Y6651744D01*
X16081347Y6652072D01*
X16081163Y6652472D01*
X16080946Y6652872D01*
X16080729Y6653346D01*
X16080545Y6653819D01*
X16080362Y6654365D01*
X16080217Y6654947D01*
X16080109Y6655566D01*
X16080036Y6656185D01*
X16080000Y6656876D01*
Y6657204D01*
X16080036Y6657422D01*
X16080072Y6657713D01*
X16080109Y6658041D01*
X16080181Y6658405D01*
X16080254Y6658806D01*
X16080473Y6659679D01*
X16080837Y6660589D01*
X16081055Y6661062D01*
X16081310Y6661499D01*
X16081638Y6661936D01*
X16081964Y6662373D01*
X16082003Y6662409D01*
X16082073Y6662482D01*
X16082184Y6662591D01*
X16082329Y6662700D01*
X16082512Y6662882D01*
X16082766Y6663064D01*
X16083021Y6663283D01*
X16083347Y6663501D01*
X16083712Y6663720D01*
X16084076Y6663938D01*
X16084949Y6664338D01*
X16085970Y6664666D01*
X16086515Y6664775D01*
X16087097Y6664848D01*
X16087498Y6661754D01*
D02*
G37*
G36*
X16081127Y6645702D02*
X16081455Y6645665D01*
X16081820Y6645592D01*
X16082184Y6645520D01*
X16082584Y6645374D01*
X16082621D01*
X16082657Y6645337D01*
X16082874Y6645265D01*
X16083202Y6645119D01*
X16083639Y6644901D01*
X16084148Y6644609D01*
X16084730Y6644245D01*
X16085314Y6643845D01*
X16085934Y6643336D01*
X16085970D01*
X16086004Y6643263D01*
X16086224Y6643081D01*
X16086552Y6642753D01*
X16087025Y6642280D01*
X16087570Y6641734D01*
X16088226Y6641042D01*
X16088955Y6640205D01*
X16089718Y6639295D01*
X16089754Y6639259D01*
X16089865Y6639113D01*
X16090046Y6638895D01*
X16090263Y6638640D01*
X16090555Y6638312D01*
X16090883Y6637912D01*
X16091248Y6637511D01*
X16091646Y6637038D01*
X16092522Y6636128D01*
X16093395Y6635218D01*
X16093832Y6634782D01*
X16094269Y6634381D01*
X16094669Y6634017D01*
X16095070Y6633726D01*
X16095104D01*
X16095142Y6633653D01*
X16095251Y6633580D01*
X16095398Y6633507D01*
X16095797Y6633253D01*
X16096270Y6632962D01*
X16096853Y6632707D01*
X16097471Y6632452D01*
X16098164Y6632306D01*
X16098818Y6632234D01*
X16098854D01*
X16098890D01*
X16099110Y6632270D01*
X16099474Y6632306D01*
X16099874Y6632416D01*
X16100384Y6632561D01*
X16100893Y6632816D01*
X16101402Y6633144D01*
X16101912Y6633580D01*
X16101986Y6633653D01*
X16102131Y6633835D01*
X16102312Y6634090D01*
X16102568Y6634490D01*
X16102785Y6635000D01*
X16103004Y6635582D01*
X16103149Y6636274D01*
X16103186Y6637038D01*
Y6637257D01*
X16103149Y6637402D01*
X16103113Y6637839D01*
X16103004Y6638349D01*
X16102859Y6638895D01*
X16102604Y6639514D01*
X16102276Y6640096D01*
X16101839Y6640642D01*
X16101767Y6640715D01*
X16101585Y6640860D01*
X16101294Y6641079D01*
X16100857Y6641297D01*
X16100348Y6641552D01*
X16099691Y6641770D01*
X16098965Y6641916D01*
X16098127Y6641989D01*
X16098454Y6645155D01*
X16098492D01*
X16098600Y6645119D01*
X16098782D01*
X16099037Y6645083D01*
X16099327Y6645010D01*
X16099655Y6644937D01*
X16100056Y6644828D01*
X16100456Y6644719D01*
X16101330Y6644427D01*
X16102203Y6643991D01*
X16102640Y6643736D01*
X16103077Y6643408D01*
X16103477Y6643081D01*
X16103842Y6642717D01*
X16103878Y6642680D01*
X16103914Y6642608D01*
X16104023Y6642498D01*
X16104134Y6642316D01*
X16104279Y6642098D01*
X16104424Y6641843D01*
X16104607Y6641552D01*
X16104788Y6641188D01*
X16104971Y6640788D01*
X16105152Y6640351D01*
X16105297Y6639877D01*
X16105442Y6639368D01*
X16105553Y6638822D01*
X16105661Y6638239D01*
X16105698Y6637621D01*
X16105734Y6636966D01*
Y6636601D01*
X16105698Y6636347D01*
X16105661Y6636056D01*
X16105625Y6635691D01*
X16105553Y6635291D01*
X16105478Y6634891D01*
X16105225Y6633944D01*
X16104860Y6632998D01*
X16104643Y6632525D01*
X16104387Y6632051D01*
X16104059Y6631615D01*
X16103697Y6631214D01*
X16103659Y6631178D01*
X16103622Y6631105D01*
X16103477Y6631032D01*
X16103333Y6630887D01*
X16103149Y6630705D01*
X16102896Y6630523D01*
X16102640Y6630341D01*
X16102312Y6630122D01*
X16101622Y6629758D01*
X16100746Y6629394D01*
X16100311Y6629249D01*
X16099800Y6629176D01*
X16099291Y6629103D01*
X16098745Y6629067D01*
X16098673D01*
X16098492D01*
X16098200Y6629103D01*
X16097799Y6629140D01*
X16097363Y6629212D01*
X16096853Y6629358D01*
X16096308Y6629503D01*
X16095760Y6629722D01*
X16095688Y6629758D01*
X16095507Y6629831D01*
X16095215Y6629977D01*
X16094814Y6630195D01*
X16094378Y6630486D01*
X16093832Y6630850D01*
X16093285Y6631287D01*
X16092667Y6631797D01*
X16092594Y6631869D01*
X16092377Y6632051D01*
X16092194Y6632234D01*
X16092012Y6632416D01*
X16091793Y6632634D01*
X16091501Y6632925D01*
X16091211Y6633216D01*
X16090883Y6633580D01*
X16090519Y6633944D01*
X16090118Y6634381D01*
X16089718Y6634854D01*
X16089245Y6635364D01*
X16088772Y6635946D01*
X16088263Y6636529D01*
X16088226Y6636565D01*
X16088154Y6636638D01*
X16088043Y6636783D01*
X16087898Y6636966D01*
X16087681Y6637184D01*
X16087461Y6637439D01*
X16086988Y6638021D01*
X16086443Y6638640D01*
X16085896Y6639222D01*
X16085423Y6639732D01*
X16085241Y6639950D01*
X16085058Y6640132D01*
X16085024Y6640169D01*
X16084913Y6640278D01*
X16084768Y6640423D01*
X16084549Y6640605D01*
X16084295Y6640788D01*
X16084040Y6641006D01*
X16083422Y6641443D01*
Y6629030D01*
X16080437D01*
Y6645738D01*
X16080473D01*
X16080618D01*
X16080837D01*
X16081127Y6645702D01*
D02*
G37*
G36*
X15503868Y6309964D02*
X15504232D01*
X15504596Y6309927D01*
X15505069Y6309891D01*
X15505542Y6309818D01*
X15506598Y6309636D01*
X15507763Y6309382D01*
X15508927Y6309017D01*
X15510056Y6308508D01*
X15510092Y6308471D01*
X15510201Y6308435D01*
X15510347Y6308362D01*
X15510529Y6308217D01*
X15510784Y6308071D01*
X15511075Y6307889D01*
X15511730Y6307416D01*
X15512458Y6306797D01*
X15513186Y6306069D01*
X15513914Y6305232D01*
X15514533Y6304249D01*
X15514569Y6304213D01*
X15514606Y6304104D01*
X15514679Y6303958D01*
X15514788Y6303776D01*
X15514897Y6303485D01*
X15515006Y6303194D01*
X15515152Y6302829D01*
X15515298Y6302429D01*
X15515443Y6301992D01*
X15515589Y6301519D01*
X15515807Y6300500D01*
X15515989Y6299335D01*
X15516062Y6298134D01*
Y6297770D01*
X15516025Y6297515D01*
X15515989Y6297188D01*
X15515953Y6296787D01*
X15515916Y6296387D01*
X15515807Y6295913D01*
X15515589Y6294931D01*
X15515261Y6293839D01*
X15515043Y6293293D01*
X15514788Y6292783D01*
X15514460Y6292274D01*
X15514133Y6291764D01*
X15514096Y6291727D01*
X15514060Y6291655D01*
X15513951Y6291509D01*
X15513769Y6291327D01*
X15513587Y6291145D01*
X15513332Y6290890D01*
X15513041Y6290636D01*
X15512749Y6290344D01*
X15512386Y6290053D01*
X15511949Y6289762D01*
X15511512Y6289434D01*
X15511039Y6289143D01*
X15510493Y6288888D01*
X15509947Y6288597D01*
X15509364Y6288379D01*
X15508709Y6288160D01*
X15507945Y6291436D01*
X15507981D01*
X15508054Y6291473D01*
X15508200Y6291546D01*
X15508381Y6291618D01*
X15508600Y6291691D01*
X15508891Y6291800D01*
X15509474Y6292092D01*
X15510129Y6292456D01*
X15510784Y6292892D01*
X15511403Y6293438D01*
X15511949Y6294021D01*
X15512022Y6294093D01*
X15512167Y6294312D01*
X15512349Y6294676D01*
X15512604Y6295149D01*
X15512822Y6295768D01*
X15513041Y6296459D01*
X15513186Y6297297D01*
X15513223Y6298207D01*
Y6298498D01*
X15513186Y6298680D01*
Y6298935D01*
X15513150Y6299226D01*
X15513041Y6299917D01*
X15512895Y6300682D01*
X15512640Y6301483D01*
X15512276Y6302320D01*
X15511803Y6303084D01*
Y6303121D01*
X15511730Y6303157D01*
X15511548Y6303412D01*
X15511257Y6303739D01*
X15510820Y6304140D01*
X15510274Y6304613D01*
X15509656Y6305050D01*
X15508891Y6305450D01*
X15508054Y6305814D01*
X15508017D01*
X15507945Y6305851D01*
X15507835Y6305887D01*
X15507654Y6305923D01*
X15507435Y6305996D01*
X15507180Y6306069D01*
X15506561Y6306178D01*
X15505834Y6306324D01*
X15505033Y6306470D01*
X15504159Y6306542D01*
X15503213Y6306579D01*
X15503176D01*
X15503067D01*
X15502885D01*
X15502667D01*
X15502412Y6306542D01*
X15502084D01*
X15501720Y6306506D01*
X15501320Y6306470D01*
X15500446Y6306360D01*
X15499500Y6306178D01*
X15498553Y6305960D01*
X15497607Y6305669D01*
X15497571D01*
X15497498Y6305632D01*
X15497389Y6305560D01*
X15497207Y6305487D01*
X15496770Y6305268D01*
X15496260Y6304941D01*
X15495678Y6304540D01*
X15495059Y6304031D01*
X15494513Y6303448D01*
X15494004Y6302757D01*
Y6302720D01*
X15493967Y6302648D01*
X15493894Y6302538D01*
X15493822Y6302393D01*
X15493749Y6302211D01*
X15493639Y6301992D01*
X15493421Y6301483D01*
X15493203Y6300828D01*
X15493021Y6300100D01*
X15492875Y6299299D01*
X15492839Y6298462D01*
Y6298207D01*
X15492875Y6297988D01*
Y6297734D01*
X15492912Y6297479D01*
X15493057Y6296824D01*
X15493239Y6296059D01*
X15493530Y6295295D01*
X15493931Y6294494D01*
X15494149Y6294093D01*
X15494440Y6293730D01*
X15494477Y6293693D01*
X15494513Y6293657D01*
X15494622Y6293547D01*
X15494731Y6293402D01*
X15494914Y6293256D01*
X15495132Y6293074D01*
X15495350Y6292856D01*
X15495641Y6292674D01*
X15495969Y6292456D01*
X15496333Y6292201D01*
X15496697Y6291982D01*
X15497134Y6291764D01*
X15497607Y6291582D01*
X15498117Y6291400D01*
X15498663Y6291218D01*
X15499245Y6291072D01*
X15498408Y6287724D01*
X15498371D01*
X15498226Y6287760D01*
X15498007Y6287833D01*
X15497716Y6287942D01*
X15497389Y6288051D01*
X15496988Y6288197D01*
X15496551Y6288379D01*
X15496078Y6288597D01*
X15495059Y6289107D01*
X15494040Y6289762D01*
X15493530Y6290162D01*
X15493021Y6290563D01*
X15492584Y6290999D01*
X15492147Y6291509D01*
X15492111Y6291546D01*
X15492038Y6291618D01*
X15491965Y6291800D01*
X15491819Y6291982D01*
X15491638Y6292274D01*
X15491456Y6292565D01*
X15491273Y6292965D01*
X15491092Y6293365D01*
X15490873Y6293839D01*
X15490691Y6294348D01*
X15490509Y6294894D01*
X15490327Y6295477D01*
X15490182Y6296096D01*
X15490109Y6296751D01*
X15490036Y6297442D01*
X15489999Y6298170D01*
Y6298571D01*
X15490036Y6298862D01*
Y6299190D01*
X15490072Y6299590D01*
X15490145Y6300027D01*
X15490218Y6300536D01*
X15490400Y6301592D01*
X15490691Y6302684D01*
X15491092Y6303776D01*
X15491346Y6304285D01*
X15491638Y6304795D01*
X15491674Y6304832D01*
X15491710Y6304904D01*
X15491819Y6305050D01*
X15491965Y6305195D01*
X15492111Y6305414D01*
X15492329Y6305669D01*
X15492584Y6305960D01*
X15492875Y6306251D01*
X15493203Y6306542D01*
X15493530Y6306870D01*
X15494368Y6307525D01*
X15495350Y6308144D01*
X15496442Y6308690D01*
X15496479D01*
X15496588Y6308763D01*
X15496770Y6308799D01*
X15496988Y6308908D01*
X15497280Y6308981D01*
X15497644Y6309090D01*
X15498044Y6309236D01*
X15498481Y6309345D01*
X15498954Y6309454D01*
X15499500Y6309600D01*
X15500628Y6309782D01*
X15501902Y6309927D01*
X15503213Y6310000D01*
X15503249D01*
X15503395D01*
X15503613D01*
X15503868Y6309964D01*
D02*
G37*
G36*
X15497498Y6281754D02*
X15497461D01*
X15497389Y6281717D01*
X15497243Y6281681D01*
X15497061Y6281645D01*
X15496843Y6281608D01*
X15496588Y6281535D01*
X15496042Y6281354D01*
X15495387Y6281099D01*
X15494768Y6280771D01*
X15494185Y6280407D01*
X15493676Y6279970D01*
X15493639Y6279898D01*
X15493494Y6279752D01*
X15493312Y6279461D01*
X15493130Y6279097D01*
X15492912Y6278660D01*
X15492729Y6278114D01*
X15492584Y6277495D01*
X15492548Y6276840D01*
Y6276622D01*
X15492584Y6276476D01*
X15492620Y6276075D01*
X15492729Y6275566D01*
X15492912Y6274984D01*
X15493166Y6274365D01*
X15493530Y6273746D01*
X15494040Y6273163D01*
X15494113Y6273091D01*
X15494331Y6272909D01*
X15494659Y6272690D01*
X15495095Y6272399D01*
X15495641Y6272108D01*
X15496260Y6271890D01*
X15496988Y6271708D01*
X15497789Y6271635D01*
X15497826D01*
X15497898D01*
X15498007D01*
X15498153Y6271671D01*
X15498553Y6271708D01*
X15499027Y6271817D01*
X15499609Y6271962D01*
X15500192Y6272217D01*
X15500774Y6272581D01*
X15501320Y6273054D01*
X15501393Y6273127D01*
X15501538Y6273309D01*
X15501757Y6273600D01*
X15502012Y6274001D01*
X15502266Y6274510D01*
X15502485Y6275129D01*
X15502630Y6275821D01*
X15502703Y6276585D01*
Y6276913D01*
X15502667Y6277167D01*
X15502630Y6277495D01*
X15502558Y6277859D01*
X15502485Y6278296D01*
X15502376Y6278769D01*
X15505105Y6278405D01*
Y6278223D01*
X15505069Y6278078D01*
Y6277604D01*
X15505142Y6277204D01*
X15505215Y6276731D01*
X15505324Y6276185D01*
X15505506Y6275566D01*
X15505761Y6274984D01*
X15506088Y6274365D01*
Y6274328D01*
X15506125Y6274292D01*
X15506270Y6274110D01*
X15506525Y6273855D01*
X15506853Y6273564D01*
X15507326Y6273273D01*
X15507872Y6273018D01*
X15508491Y6272836D01*
X15508855Y6272763D01*
X15509255D01*
X15509291D01*
X15509328D01*
X15509546D01*
X15509837Y6272836D01*
X15510238Y6272909D01*
X15510675Y6273054D01*
X15511148Y6273236D01*
X15511621Y6273528D01*
X15512058Y6273928D01*
X15512094Y6273964D01*
X15512240Y6274146D01*
X15512422Y6274401D01*
X15512640Y6274729D01*
X15512822Y6275166D01*
X15513004Y6275675D01*
X15513150Y6276257D01*
X15513186Y6276913D01*
Y6277204D01*
X15513113Y6277532D01*
X15513041Y6277968D01*
X15512895Y6278441D01*
X15512713Y6278915D01*
X15512422Y6279424D01*
X15512058Y6279898D01*
X15512022Y6279934D01*
X15511840Y6280079D01*
X15511585Y6280298D01*
X15511221Y6280553D01*
X15510747Y6280807D01*
X15510165Y6281062D01*
X15509474Y6281281D01*
X15508673Y6281426D01*
X15509219Y6284520D01*
X15509255D01*
X15509364Y6284484D01*
X15509510Y6284448D01*
X15509728Y6284411D01*
X15509983Y6284338D01*
X15510274Y6284229D01*
X15510966Y6284011D01*
X15511767Y6283647D01*
X15512567Y6283210D01*
X15513332Y6282664D01*
X15514023Y6281972D01*
X15514060Y6281936D01*
X15514096Y6281863D01*
X15514169Y6281754D01*
X15514278Y6281608D01*
X15514424Y6281426D01*
X15514569Y6281172D01*
X15514715Y6280917D01*
X15514897Y6280589D01*
X15515188Y6279861D01*
X15515479Y6279024D01*
X15515662Y6278041D01*
X15515734Y6277532D01*
Y6276622D01*
X15515698Y6276221D01*
X15515625Y6275748D01*
X15515516Y6275166D01*
X15515334Y6274510D01*
X15515115Y6273855D01*
X15514824Y6273200D01*
Y6273163D01*
X15514788Y6273127D01*
X15514679Y6272909D01*
X15514460Y6272581D01*
X15514206Y6272217D01*
X15513842Y6271780D01*
X15513441Y6271343D01*
X15512968Y6270907D01*
X15512422Y6270543D01*
X15512349Y6270506D01*
X15512167Y6270397D01*
X15511840Y6270252D01*
X15511439Y6270069D01*
X15510966Y6269887D01*
X15510420Y6269742D01*
X15509801Y6269633D01*
X15509182Y6269596D01*
X15509110D01*
X15508891D01*
X15508600Y6269633D01*
X15508200Y6269706D01*
X15507726Y6269815D01*
X15507217Y6269997D01*
X15506707Y6270215D01*
X15506198Y6270506D01*
X15506125Y6270543D01*
X15505979Y6270652D01*
X15505724Y6270870D01*
X15505433Y6271162D01*
X15505105Y6271525D01*
X15504742Y6271962D01*
X15504414Y6272472D01*
X15504086Y6273091D01*
Y6273054D01*
X15504050Y6272981D01*
X15504013Y6272872D01*
X15503977Y6272727D01*
X15503832Y6272326D01*
X15503613Y6271817D01*
X15503322Y6271234D01*
X15502958Y6270652D01*
X15502485Y6270106D01*
X15501939Y6269596D01*
X15501866Y6269560D01*
X15501647Y6269414D01*
X15501283Y6269196D01*
X15500810Y6268977D01*
X15500228Y6268759D01*
X15499536Y6268541D01*
X15498736Y6268395D01*
X15497862Y6268359D01*
X15497826D01*
X15497716D01*
X15497534D01*
X15497316Y6268395D01*
X15497025Y6268431D01*
X15496697Y6268504D01*
X15496333Y6268577D01*
X15495933Y6268650D01*
X15495059Y6268941D01*
X15494586Y6269159D01*
X15494149Y6269378D01*
X15493676Y6269669D01*
X15493203Y6269997D01*
X15492729Y6270361D01*
X15492293Y6270797D01*
X15492256Y6270834D01*
X15492183Y6270907D01*
X15492074Y6271052D01*
X15491929Y6271234D01*
X15491747Y6271453D01*
X15491565Y6271744D01*
X15491346Y6272072D01*
X15491164Y6272472D01*
X15490946Y6272872D01*
X15490728Y6273346D01*
X15490546Y6273819D01*
X15490363Y6274365D01*
X15490218Y6274947D01*
X15490109Y6275566D01*
X15490036Y6276185D01*
X15489999Y6276876D01*
Y6277204D01*
X15490036Y6277422D01*
X15490072Y6277713D01*
X15490109Y6278041D01*
X15490182Y6278405D01*
X15490254Y6278806D01*
X15490473Y6279679D01*
X15490837Y6280589D01*
X15491055Y6281062D01*
X15491310Y6281499D01*
X15491638Y6281936D01*
X15491965Y6282373D01*
X15492002Y6282409D01*
X15492074Y6282482D01*
X15492183Y6282591D01*
X15492329Y6282700D01*
X15492511Y6282882D01*
X15492766Y6283064D01*
X15493021Y6283283D01*
X15493348Y6283501D01*
X15493712Y6283720D01*
X15494076Y6283938D01*
X15494950Y6284338D01*
X15495969Y6284666D01*
X15496515Y6284775D01*
X15497097Y6284848D01*
X15497498Y6281754D01*
D02*
G37*
G36*
X15498080Y6265301D02*
X15498299D01*
X15498553Y6265265D01*
X15499136Y6265192D01*
X15499791Y6265046D01*
X15500446Y6264828D01*
X15501138Y6264500D01*
X15501793Y6264100D01*
X15501829D01*
X15501866Y6264027D01*
X15502048Y6263882D01*
X15502339Y6263590D01*
X15502703Y6263190D01*
X15503067Y6262680D01*
X15503468Y6262061D01*
X15503795Y6261370D01*
X15504050Y6260533D01*
Y6260569D01*
X15504086Y6260605D01*
X15504123Y6260715D01*
X15504195Y6260860D01*
X15504341Y6261188D01*
X15504559Y6261625D01*
X15504851Y6262098D01*
X15505215Y6262571D01*
X15505615Y6263008D01*
X15506052Y6263408D01*
X15506125Y6263445D01*
X15506270Y6263554D01*
X15506561Y6263699D01*
X15506925Y6263845D01*
X15507399Y6264027D01*
X15507945Y6264173D01*
X15508564Y6264282D01*
X15509219Y6264318D01*
X15509255D01*
X15509328D01*
X15509474D01*
X15509692Y6264282D01*
X15509910Y6264245D01*
X15510201Y6264209D01*
X15510820Y6264064D01*
X15511548Y6263845D01*
X15512313Y6263481D01*
X15512713Y6263263D01*
X15513113Y6263008D01*
X15513478Y6262680D01*
X15513842Y6262353D01*
X15513878Y6262316D01*
X15513914Y6262243D01*
X15514023Y6262134D01*
X15514133Y6261989D01*
X15514278Y6261807D01*
X15514424Y6261552D01*
X15514606Y6261261D01*
X15514788Y6260970D01*
X15514970Y6260605D01*
X15515152Y6260205D01*
X15515298Y6259768D01*
X15515443Y6259295D01*
X15515662Y6258276D01*
X15515698Y6257694D01*
X15515734Y6257111D01*
Y6256783D01*
X15515698Y6256565D01*
X15515662Y6256274D01*
X15515625Y6255946D01*
X15515589Y6255582D01*
X15515479Y6255218D01*
X15515261Y6254345D01*
X15514933Y6253471D01*
X15514715Y6253034D01*
X15514460Y6252597D01*
X15514133Y6252197D01*
X15513805Y6251797D01*
X15513769Y6251760D01*
X15513732Y6251724D01*
X15513623Y6251615D01*
X15513478Y6251469D01*
X15513259Y6251324D01*
X15513041Y6251141D01*
X15512495Y6250778D01*
X15511803Y6250413D01*
X15511002Y6250086D01*
X15510092Y6249831D01*
X15509619Y6249795D01*
X15509110Y6249758D01*
X15509073D01*
X15509037D01*
X15508818D01*
X15508491Y6249795D01*
X15508090Y6249868D01*
X15507581Y6249977D01*
X15507071Y6250159D01*
X15506561Y6250377D01*
X15506052Y6250705D01*
X15505979Y6250741D01*
X15505834Y6250887D01*
X15505615Y6251105D01*
X15505324Y6251396D01*
X15504996Y6251797D01*
X15504669Y6252270D01*
X15504341Y6252816D01*
X15504050Y6253471D01*
Y6253435D01*
X15504013Y6253362D01*
X15503977Y6253253D01*
X15503904Y6253107D01*
X15503722Y6252670D01*
X15503468Y6252161D01*
X15503103Y6251615D01*
X15502703Y6251032D01*
X15502193Y6250486D01*
X15501611Y6249977D01*
X15501575D01*
X15501538Y6249940D01*
X15501320Y6249795D01*
X15500956Y6249576D01*
X15500483Y6249358D01*
X15499900Y6249140D01*
X15499209Y6248921D01*
X15498444Y6248775D01*
X15497607Y6248739D01*
X15497571D01*
X15497461D01*
X15497280D01*
X15497061Y6248775D01*
X15496806Y6248812D01*
X15496479Y6248848D01*
X15496115Y6248921D01*
X15495714Y6249030D01*
X15494877Y6249285D01*
X15494404Y6249467D01*
X15493967Y6249722D01*
X15493494Y6249977D01*
X15493057Y6250268D01*
X15492620Y6250632D01*
X15492183Y6251032D01*
X15492147Y6251069D01*
X15492074Y6251141D01*
X15491965Y6251251D01*
X15491856Y6251433D01*
X15491674Y6251688D01*
X15491492Y6251942D01*
X15491310Y6252270D01*
X15491092Y6252634D01*
X15490873Y6253034D01*
X15490691Y6253507D01*
X15490509Y6254017D01*
X15490327Y6254527D01*
X15490218Y6255109D01*
X15490109Y6255728D01*
X15490036Y6256347D01*
X15489999Y6257038D01*
Y6257402D01*
X15490036Y6257657D01*
X15490072Y6257985D01*
X15490109Y6258349D01*
X15490182Y6258749D01*
X15490291Y6259186D01*
X15490546Y6260169D01*
X15490728Y6260678D01*
X15490909Y6261151D01*
X15491164Y6261661D01*
X15491456Y6262171D01*
X15491783Y6262644D01*
X15492183Y6263081D01*
X15492220Y6263117D01*
X15492293Y6263190D01*
X15492402Y6263299D01*
X15492584Y6263445D01*
X15492802Y6263590D01*
X15493057Y6263809D01*
X15493348Y6263991D01*
X15493712Y6264209D01*
X15494076Y6264427D01*
X15494513Y6264609D01*
X15495423Y6264974D01*
X15495969Y6265119D01*
X15496515Y6265228D01*
X15497097Y6265301D01*
X15497680Y6265337D01*
X15497716D01*
X15497789D01*
X15497935D01*
X15498080Y6265301D01*
D02*
G37*
G36*
X15593868Y6309964D02*
X15594232D01*
X15594596Y6309927D01*
X15595069Y6309891D01*
X15595542Y6309818D01*
X15596598Y6309636D01*
X15597763Y6309382D01*
X15598927Y6309017D01*
X15600056Y6308508D01*
X15600092Y6308471D01*
X15600201Y6308435D01*
X15600347Y6308362D01*
X15600529Y6308217D01*
X15600784Y6308071D01*
X15601075Y6307889D01*
X15601730Y6307416D01*
X15602458Y6306797D01*
X15603186Y6306069D01*
X15603914Y6305232D01*
X15604533Y6304249D01*
X15604569Y6304213D01*
X15604606Y6304104D01*
X15604679Y6303958D01*
X15604788Y6303776D01*
X15604897Y6303485D01*
X15605006Y6303194D01*
X15605152Y6302829D01*
X15605298Y6302429D01*
X15605443Y6301992D01*
X15605589Y6301519D01*
X15605807Y6300500D01*
X15605989Y6299335D01*
X15606062Y6298134D01*
Y6297770D01*
X15606025Y6297515D01*
X15605989Y6297188D01*
X15605953Y6296787D01*
X15605916Y6296387D01*
X15605807Y6295913D01*
X15605589Y6294931D01*
X15605261Y6293839D01*
X15605043Y6293293D01*
X15604788Y6292783D01*
X15604460Y6292274D01*
X15604133Y6291764D01*
X15604096Y6291727D01*
X15604060Y6291655D01*
X15603951Y6291509D01*
X15603769Y6291327D01*
X15603587Y6291145D01*
X15603332Y6290890D01*
X15603041Y6290636D01*
X15602749Y6290344D01*
X15602386Y6290053D01*
X15601949Y6289762D01*
X15601512Y6289434D01*
X15601039Y6289143D01*
X15600493Y6288888D01*
X15599947Y6288597D01*
X15599364Y6288379D01*
X15598709Y6288160D01*
X15597945Y6291436D01*
X15597981D01*
X15598054Y6291473D01*
X15598200Y6291546D01*
X15598381Y6291618D01*
X15598600Y6291691D01*
X15598891Y6291800D01*
X15599474Y6292092D01*
X15600129Y6292456D01*
X15600784Y6292892D01*
X15601403Y6293438D01*
X15601949Y6294021D01*
X15602022Y6294093D01*
X15602167Y6294312D01*
X15602349Y6294676D01*
X15602604Y6295149D01*
X15602822Y6295768D01*
X15603041Y6296459D01*
X15603186Y6297297D01*
X15603223Y6298207D01*
Y6298498D01*
X15603186Y6298680D01*
Y6298935D01*
X15603150Y6299226D01*
X15603041Y6299917D01*
X15602895Y6300682D01*
X15602640Y6301483D01*
X15602276Y6302320D01*
X15601803Y6303084D01*
Y6303121D01*
X15601730Y6303157D01*
X15601548Y6303412D01*
X15601257Y6303739D01*
X15600820Y6304140D01*
X15600274Y6304613D01*
X15599656Y6305050D01*
X15598891Y6305450D01*
X15598054Y6305814D01*
X15598017D01*
X15597945Y6305851D01*
X15597835Y6305887D01*
X15597654Y6305923D01*
X15597435Y6305996D01*
X15597180Y6306069D01*
X15596561Y6306178D01*
X15595834Y6306324D01*
X15595033Y6306470D01*
X15594159Y6306542D01*
X15593213Y6306579D01*
X15593176D01*
X15593067D01*
X15592885D01*
X15592667D01*
X15592412Y6306542D01*
X15592084D01*
X15591720Y6306506D01*
X15591320Y6306470D01*
X15590446Y6306360D01*
X15589500Y6306178D01*
X15588553Y6305960D01*
X15587607Y6305669D01*
X15587571D01*
X15587498Y6305632D01*
X15587389Y6305560D01*
X15587207Y6305487D01*
X15586770Y6305268D01*
X15586260Y6304941D01*
X15585678Y6304540D01*
X15585059Y6304031D01*
X15584513Y6303448D01*
X15584004Y6302757D01*
Y6302720D01*
X15583967Y6302648D01*
X15583894Y6302538D01*
X15583822Y6302393D01*
X15583749Y6302211D01*
X15583639Y6301992D01*
X15583421Y6301483D01*
X15583203Y6300828D01*
X15583021Y6300100D01*
X15582875Y6299299D01*
X15582839Y6298462D01*
Y6298207D01*
X15582875Y6297988D01*
Y6297734D01*
X15582912Y6297479D01*
X15583057Y6296824D01*
X15583239Y6296059D01*
X15583530Y6295295D01*
X15583931Y6294494D01*
X15584149Y6294093D01*
X15584440Y6293730D01*
X15584477Y6293693D01*
X15584513Y6293657D01*
X15584622Y6293547D01*
X15584731Y6293402D01*
X15584914Y6293256D01*
X15585132Y6293074D01*
X15585350Y6292856D01*
X15585641Y6292674D01*
X15585969Y6292456D01*
X15586333Y6292201D01*
X15586697Y6291982D01*
X15587134Y6291764D01*
X15587607Y6291582D01*
X15588117Y6291400D01*
X15588663Y6291218D01*
X15589245Y6291072D01*
X15588408Y6287724D01*
X15588371D01*
X15588226Y6287760D01*
X15588007Y6287833D01*
X15587716Y6287942D01*
X15587389Y6288051D01*
X15586988Y6288197D01*
X15586551Y6288379D01*
X15586078Y6288597D01*
X15585059Y6289107D01*
X15584040Y6289762D01*
X15583530Y6290162D01*
X15583021Y6290563D01*
X15582584Y6290999D01*
X15582147Y6291509D01*
X15582111Y6291546D01*
X15582038Y6291618D01*
X15581965Y6291800D01*
X15581819Y6291982D01*
X15581638Y6292274D01*
X15581456Y6292565D01*
X15581273Y6292965D01*
X15581092Y6293365D01*
X15580873Y6293839D01*
X15580691Y6294348D01*
X15580509Y6294894D01*
X15580327Y6295477D01*
X15580182Y6296096D01*
X15580109Y6296751D01*
X15580036Y6297442D01*
X15579999Y6298170D01*
Y6298571D01*
X15580036Y6298862D01*
Y6299190D01*
X15580072Y6299590D01*
X15580145Y6300027D01*
X15580218Y6300536D01*
X15580400Y6301592D01*
X15580691Y6302684D01*
X15581092Y6303776D01*
X15581346Y6304285D01*
X15581638Y6304795D01*
X15581674Y6304832D01*
X15581710Y6304904D01*
X15581819Y6305050D01*
X15581965Y6305195D01*
X15582111Y6305414D01*
X15582329Y6305669D01*
X15582584Y6305960D01*
X15582875Y6306251D01*
X15583203Y6306542D01*
X15583530Y6306870D01*
X15584368Y6307525D01*
X15585350Y6308144D01*
X15586442Y6308690D01*
X15586479D01*
X15586588Y6308763D01*
X15586770Y6308799D01*
X15586988Y6308908D01*
X15587280Y6308981D01*
X15587644Y6309090D01*
X15588044Y6309236D01*
X15588481Y6309345D01*
X15588954Y6309454D01*
X15589500Y6309600D01*
X15590628Y6309782D01*
X15591902Y6309927D01*
X15593213Y6310000D01*
X15593249D01*
X15593395D01*
X15593613D01*
X15593868Y6309964D01*
D02*
G37*
G36*
X15587498Y6281754D02*
X15587461D01*
X15587389Y6281717D01*
X15587243Y6281681D01*
X15587061Y6281645D01*
X15586843Y6281608D01*
X15586588Y6281535D01*
X15586042Y6281354D01*
X15585387Y6281099D01*
X15584768Y6280771D01*
X15584185Y6280407D01*
X15583676Y6279970D01*
X15583639Y6279898D01*
X15583494Y6279752D01*
X15583312Y6279461D01*
X15583130Y6279097D01*
X15582912Y6278660D01*
X15582729Y6278114D01*
X15582584Y6277495D01*
X15582548Y6276840D01*
Y6276622D01*
X15582584Y6276476D01*
X15582620Y6276075D01*
X15582729Y6275566D01*
X15582912Y6274984D01*
X15583166Y6274365D01*
X15583530Y6273746D01*
X15584040Y6273163D01*
X15584113Y6273091D01*
X15584331Y6272909D01*
X15584659Y6272690D01*
X15585095Y6272399D01*
X15585641Y6272108D01*
X15586260Y6271890D01*
X15586988Y6271708D01*
X15587789Y6271635D01*
X15587826D01*
X15587898D01*
X15588007D01*
X15588153Y6271671D01*
X15588553Y6271708D01*
X15589027Y6271817D01*
X15589609Y6271962D01*
X15590192Y6272217D01*
X15590774Y6272581D01*
X15591320Y6273054D01*
X15591393Y6273127D01*
X15591538Y6273309D01*
X15591757Y6273600D01*
X15592012Y6274001D01*
X15592266Y6274510D01*
X15592485Y6275129D01*
X15592630Y6275821D01*
X15592703Y6276585D01*
Y6276913D01*
X15592667Y6277167D01*
X15592630Y6277495D01*
X15592558Y6277859D01*
X15592485Y6278296D01*
X15592376Y6278769D01*
X15595105Y6278405D01*
Y6278223D01*
X15595069Y6278078D01*
Y6277604D01*
X15595142Y6277204D01*
X15595215Y6276731D01*
X15595324Y6276185D01*
X15595506Y6275566D01*
X15595761Y6274984D01*
X15596088Y6274365D01*
Y6274328D01*
X15596125Y6274292D01*
X15596270Y6274110D01*
X15596525Y6273855D01*
X15596853Y6273564D01*
X15597326Y6273273D01*
X15597872Y6273018D01*
X15598491Y6272836D01*
X15598855Y6272763D01*
X15599255D01*
X15599291D01*
X15599328D01*
X15599546D01*
X15599837Y6272836D01*
X15600238Y6272909D01*
X15600675Y6273054D01*
X15601148Y6273236D01*
X15601621Y6273528D01*
X15602058Y6273928D01*
X15602094Y6273964D01*
X15602240Y6274146D01*
X15602422Y6274401D01*
X15602640Y6274729D01*
X15602822Y6275166D01*
X15603004Y6275675D01*
X15603150Y6276257D01*
X15603186Y6276913D01*
Y6277204D01*
X15603113Y6277532D01*
X15603041Y6277968D01*
X15602895Y6278441D01*
X15602713Y6278915D01*
X15602422Y6279424D01*
X15602058Y6279898D01*
X15602022Y6279934D01*
X15601840Y6280079D01*
X15601585Y6280298D01*
X15601221Y6280553D01*
X15600747Y6280807D01*
X15600165Y6281062D01*
X15599474Y6281281D01*
X15598673Y6281426D01*
X15599219Y6284520D01*
X15599255D01*
X15599364Y6284484D01*
X15599510Y6284448D01*
X15599728Y6284411D01*
X15599983Y6284338D01*
X15600274Y6284229D01*
X15600966Y6284011D01*
X15601767Y6283647D01*
X15602567Y6283210D01*
X15603332Y6282664D01*
X15604023Y6281972D01*
X15604060Y6281936D01*
X15604096Y6281863D01*
X15604169Y6281754D01*
X15604278Y6281608D01*
X15604424Y6281426D01*
X15604569Y6281172D01*
X15604715Y6280917D01*
X15604897Y6280589D01*
X15605188Y6279861D01*
X15605479Y6279024D01*
X15605662Y6278041D01*
X15605734Y6277532D01*
Y6276622D01*
X15605698Y6276221D01*
X15605625Y6275748D01*
X15605516Y6275166D01*
X15605334Y6274510D01*
X15605115Y6273855D01*
X15604824Y6273200D01*
Y6273163D01*
X15604788Y6273127D01*
X15604679Y6272909D01*
X15604460Y6272581D01*
X15604206Y6272217D01*
X15603842Y6271780D01*
X15603441Y6271343D01*
X15602968Y6270907D01*
X15602422Y6270543D01*
X15602349Y6270506D01*
X15602167Y6270397D01*
X15601840Y6270252D01*
X15601439Y6270069D01*
X15600966Y6269887D01*
X15600420Y6269742D01*
X15599801Y6269633D01*
X15599182Y6269596D01*
X15599110D01*
X15598891D01*
X15598600Y6269633D01*
X15598200Y6269706D01*
X15597726Y6269815D01*
X15597217Y6269997D01*
X15596707Y6270215D01*
X15596198Y6270506D01*
X15596125Y6270543D01*
X15595979Y6270652D01*
X15595724Y6270870D01*
X15595433Y6271162D01*
X15595105Y6271525D01*
X15594742Y6271962D01*
X15594414Y6272472D01*
X15594086Y6273091D01*
Y6273054D01*
X15594050Y6272981D01*
X15594013Y6272872D01*
X15593977Y6272727D01*
X15593832Y6272326D01*
X15593613Y6271817D01*
X15593322Y6271234D01*
X15592958Y6270652D01*
X15592485Y6270106D01*
X15591939Y6269596D01*
X15591866Y6269560D01*
X15591647Y6269414D01*
X15591283Y6269196D01*
X15590810Y6268977D01*
X15590228Y6268759D01*
X15589536Y6268541D01*
X15588736Y6268395D01*
X15587862Y6268359D01*
X15587826D01*
X15587716D01*
X15587534D01*
X15587316Y6268395D01*
X15587025Y6268431D01*
X15586697Y6268504D01*
X15586333Y6268577D01*
X15585933Y6268650D01*
X15585059Y6268941D01*
X15584586Y6269159D01*
X15584149Y6269378D01*
X15583676Y6269669D01*
X15583203Y6269997D01*
X15582729Y6270361D01*
X15582293Y6270797D01*
X15582256Y6270834D01*
X15582183Y6270907D01*
X15582074Y6271052D01*
X15581929Y6271234D01*
X15581747Y6271453D01*
X15581565Y6271744D01*
X15581346Y6272072D01*
X15581164Y6272472D01*
X15580946Y6272872D01*
X15580728Y6273346D01*
X15580546Y6273819D01*
X15580363Y6274365D01*
X15580218Y6274947D01*
X15580109Y6275566D01*
X15580036Y6276185D01*
X15579999Y6276876D01*
Y6277204D01*
X15580036Y6277422D01*
X15580072Y6277713D01*
X15580109Y6278041D01*
X15580182Y6278405D01*
X15580254Y6278806D01*
X15580473Y6279679D01*
X15580837Y6280589D01*
X15581055Y6281062D01*
X15581310Y6281499D01*
X15581638Y6281936D01*
X15581965Y6282373D01*
X15582002Y6282409D01*
X15582074Y6282482D01*
X15582183Y6282591D01*
X15582329Y6282700D01*
X15582511Y6282882D01*
X15582766Y6283064D01*
X15583021Y6283283D01*
X15583348Y6283501D01*
X15583712Y6283720D01*
X15584076Y6283938D01*
X15584950Y6284338D01*
X15585969Y6284666D01*
X15586515Y6284775D01*
X15587097Y6284848D01*
X15587498Y6281754D01*
D02*
G37*
G36*
X15597835Y6265265D02*
X15598163Y6265228D01*
X15598564Y6265192D01*
X15598964Y6265119D01*
X15599437Y6265010D01*
X15600383Y6264755D01*
X15600893Y6264573D01*
X15601439Y6264355D01*
X15601949Y6264100D01*
X15602422Y6263772D01*
X15602932Y6263445D01*
X15603368Y6263044D01*
X15603405Y6263008D01*
X15603478Y6262935D01*
X15603587Y6262826D01*
X15603732Y6262644D01*
X15603914Y6262426D01*
X15604133Y6262134D01*
X15604315Y6261843D01*
X15604569Y6261479D01*
X15604788Y6261115D01*
X15604970Y6260678D01*
X15605370Y6259695D01*
X15605516Y6259186D01*
X15605625Y6258604D01*
X15605698Y6258021D01*
X15605734Y6257402D01*
Y6257148D01*
X15605698Y6256966D01*
Y6256783D01*
X15605662Y6256529D01*
X15605552Y6255910D01*
X15605407Y6255218D01*
X15605152Y6254454D01*
X15604824Y6253690D01*
X15604388Y6252925D01*
Y6252889D01*
X15604315Y6252852D01*
X15604242Y6252743D01*
X15604133Y6252597D01*
X15603842Y6252234D01*
X15603441Y6251760D01*
X15602895Y6251287D01*
X15602240Y6250741D01*
X15601476Y6250268D01*
X15600602Y6249831D01*
X15600566D01*
X15600493Y6249795D01*
X15600347Y6249722D01*
X15600165Y6249649D01*
X15599910Y6249576D01*
X15599583Y6249467D01*
X15599219Y6249394D01*
X15598818Y6249285D01*
X15598345Y6249176D01*
X15597799Y6249067D01*
X15597217Y6248994D01*
X15596598Y6248921D01*
X15595906Y6248848D01*
X15595178Y6248775D01*
X15594378Y6248739D01*
X15593540D01*
X15593504D01*
X15593322D01*
X15593067D01*
X15592739D01*
X15592339Y6248775D01*
X15591866D01*
X15591320Y6248812D01*
X15590774Y6248885D01*
X15589536Y6248994D01*
X15588226Y6249176D01*
X15586988Y6249431D01*
X15586370Y6249613D01*
X15585824Y6249795D01*
X15585787D01*
X15585714Y6249831D01*
X15585569Y6249904D01*
X15585350Y6249977D01*
X15585132Y6250086D01*
X15584841Y6250231D01*
X15584222Y6250596D01*
X15583530Y6251032D01*
X15582802Y6251542D01*
X15582111Y6252197D01*
X15581492Y6252925D01*
Y6252962D01*
X15581419Y6253034D01*
X15581346Y6253144D01*
X15581273Y6253289D01*
X15581164Y6253507D01*
X15581019Y6253726D01*
X15580873Y6254017D01*
X15580764Y6254308D01*
X15580473Y6255000D01*
X15580218Y6255837D01*
X15580072Y6256747D01*
X15579999Y6257766D01*
Y6258057D01*
X15580036Y6258239D01*
Y6258494D01*
X15580072Y6258785D01*
X15580218Y6259477D01*
X15580400Y6260242D01*
X15580691Y6261042D01*
X15581092Y6261843D01*
X15581346Y6262243D01*
X15581638Y6262608D01*
X15581674Y6262644D01*
X15581710Y6262680D01*
X15581819Y6262789D01*
X15581929Y6262899D01*
X15582111Y6263044D01*
X15582329Y6263226D01*
X15582839Y6263590D01*
X15583494Y6263954D01*
X15584295Y6264318D01*
X15585205Y6264609D01*
X15586260Y6264828D01*
X15586515Y6261843D01*
X15586479D01*
X15586406Y6261807D01*
X15586333D01*
X15586188Y6261770D01*
X15585787Y6261661D01*
X15585350Y6261516D01*
X15584841Y6261333D01*
X15584331Y6261079D01*
X15583858Y6260788D01*
X15583458Y6260423D01*
X15583421Y6260387D01*
X15583312Y6260242D01*
X15583166Y6259987D01*
X15583021Y6259695D01*
X15582839Y6259295D01*
X15582693Y6258822D01*
X15582584Y6258276D01*
X15582548Y6257694D01*
Y6257439D01*
X15582584Y6257184D01*
X15582620Y6256856D01*
X15582693Y6256456D01*
X15582802Y6256056D01*
X15582948Y6255619D01*
X15583166Y6255218D01*
X15583203Y6255182D01*
X15583275Y6255036D01*
X15583421Y6254818D01*
X15583639Y6254600D01*
X15583894Y6254308D01*
X15584185Y6254017D01*
X15584513Y6253726D01*
X15584914Y6253435D01*
X15584950Y6253398D01*
X15585132Y6253325D01*
X15585387Y6253180D01*
X15585714Y6253034D01*
X15586151Y6252852D01*
X15586661Y6252670D01*
X15587243Y6252488D01*
X15587898Y6252306D01*
X15587935D01*
X15587971Y6252270D01*
X15588080D01*
X15588226Y6252234D01*
X15588590Y6252161D01*
X15589063Y6252051D01*
X15589646Y6251979D01*
X15590264Y6251906D01*
X15590956Y6251869D01*
X15591684Y6251833D01*
X15591720D01*
X15591829D01*
X15592012D01*
X15592303D01*
X15592230Y6251869D01*
X15592048Y6252015D01*
X15591793Y6252234D01*
X15591429Y6252488D01*
X15591065Y6252852D01*
X15590665Y6253289D01*
X15590264Y6253799D01*
X15589900Y6254381D01*
X15589864Y6254454D01*
X15589755Y6254672D01*
X15589609Y6255000D01*
X15589463Y6255400D01*
X15589281Y6255946D01*
X15589136Y6256529D01*
X15589027Y6257184D01*
X15588990Y6257876D01*
Y6258167D01*
X15589027Y6258385D01*
X15589063Y6258676D01*
X15589100Y6258967D01*
X15589172Y6259332D01*
X15589281Y6259695D01*
X15589536Y6260533D01*
X15589718Y6260970D01*
X15589937Y6261406D01*
X15590192Y6261880D01*
X15590519Y6262316D01*
X15590847Y6262753D01*
X15591247Y6263154D01*
X15591283Y6263190D01*
X15591356Y6263263D01*
X15591466Y6263336D01*
X15591647Y6263481D01*
X15591902Y6263663D01*
X15592157Y6263845D01*
X15592485Y6264027D01*
X15592849Y6264209D01*
X15593249Y6264427D01*
X15593686Y6264609D01*
X15594195Y6264792D01*
X15594705Y6264974D01*
X15595288Y6265119D01*
X15595906Y6265192D01*
X15596525Y6265265D01*
X15597217Y6265301D01*
X15597253D01*
X15597399D01*
X15597581D01*
X15597835Y6265265D01*
D02*
G37*
G36*
X15683868Y6309964D02*
X15684232D01*
X15684596Y6309927D01*
X15685069Y6309891D01*
X15685542Y6309818D01*
X15686598Y6309636D01*
X15687763Y6309382D01*
X15688927Y6309017D01*
X15690056Y6308508D01*
X15690092Y6308471D01*
X15690201Y6308435D01*
X15690347Y6308362D01*
X15690529Y6308217D01*
X15690784Y6308071D01*
X15691075Y6307889D01*
X15691730Y6307416D01*
X15692458Y6306797D01*
X15693186Y6306069D01*
X15693914Y6305232D01*
X15694533Y6304249D01*
X15694569Y6304213D01*
X15694606Y6304104D01*
X15694679Y6303958D01*
X15694788Y6303776D01*
X15694897Y6303485D01*
X15695006Y6303194D01*
X15695152Y6302829D01*
X15695298Y6302429D01*
X15695443Y6301992D01*
X15695589Y6301519D01*
X15695807Y6300500D01*
X15695989Y6299335D01*
X15696062Y6298134D01*
Y6297770D01*
X15696025Y6297515D01*
X15695989Y6297188D01*
X15695953Y6296787D01*
X15695916Y6296387D01*
X15695807Y6295913D01*
X15695589Y6294931D01*
X15695261Y6293839D01*
X15695043Y6293293D01*
X15694788Y6292783D01*
X15694460Y6292274D01*
X15694133Y6291764D01*
X15694096Y6291727D01*
X15694060Y6291655D01*
X15693951Y6291509D01*
X15693769Y6291327D01*
X15693587Y6291145D01*
X15693332Y6290890D01*
X15693041Y6290636D01*
X15692749Y6290344D01*
X15692386Y6290053D01*
X15691949Y6289762D01*
X15691512Y6289434D01*
X15691039Y6289143D01*
X15690493Y6288888D01*
X15689947Y6288597D01*
X15689364Y6288379D01*
X15688709Y6288160D01*
X15687945Y6291436D01*
X15687981D01*
X15688054Y6291473D01*
X15688200Y6291546D01*
X15688381Y6291618D01*
X15688600Y6291691D01*
X15688891Y6291800D01*
X15689474Y6292092D01*
X15690129Y6292456D01*
X15690784Y6292892D01*
X15691403Y6293438D01*
X15691949Y6294021D01*
X15692022Y6294093D01*
X15692167Y6294312D01*
X15692349Y6294676D01*
X15692604Y6295149D01*
X15692822Y6295768D01*
X15693041Y6296459D01*
X15693186Y6297297D01*
X15693223Y6298207D01*
Y6298498D01*
X15693186Y6298680D01*
Y6298935D01*
X15693150Y6299226D01*
X15693041Y6299917D01*
X15692895Y6300682D01*
X15692640Y6301483D01*
X15692276Y6302320D01*
X15691803Y6303084D01*
Y6303121D01*
X15691730Y6303157D01*
X15691548Y6303412D01*
X15691257Y6303739D01*
X15690820Y6304140D01*
X15690274Y6304613D01*
X15689656Y6305050D01*
X15688891Y6305450D01*
X15688054Y6305814D01*
X15688017D01*
X15687945Y6305851D01*
X15687835Y6305887D01*
X15687654Y6305923D01*
X15687435Y6305996D01*
X15687180Y6306069D01*
X15686561Y6306178D01*
X15685834Y6306324D01*
X15685033Y6306470D01*
X15684159Y6306542D01*
X15683213Y6306579D01*
X15683176D01*
X15683067D01*
X15682885D01*
X15682667D01*
X15682412Y6306542D01*
X15682084D01*
X15681720Y6306506D01*
X15681320Y6306470D01*
X15680446Y6306360D01*
X15679500Y6306178D01*
X15678553Y6305960D01*
X15677607Y6305669D01*
X15677571D01*
X15677498Y6305632D01*
X15677389Y6305560D01*
X15677207Y6305487D01*
X15676770Y6305268D01*
X15676260Y6304941D01*
X15675678Y6304540D01*
X15675059Y6304031D01*
X15674513Y6303448D01*
X15674004Y6302757D01*
Y6302720D01*
X15673967Y6302648D01*
X15673894Y6302538D01*
X15673822Y6302393D01*
X15673749Y6302211D01*
X15673639Y6301992D01*
X15673421Y6301483D01*
X15673203Y6300828D01*
X15673021Y6300100D01*
X15672875Y6299299D01*
X15672839Y6298462D01*
Y6298207D01*
X15672875Y6297988D01*
Y6297734D01*
X15672912Y6297479D01*
X15673057Y6296824D01*
X15673239Y6296059D01*
X15673530Y6295295D01*
X15673931Y6294494D01*
X15674149Y6294093D01*
X15674440Y6293730D01*
X15674477Y6293693D01*
X15674513Y6293657D01*
X15674622Y6293547D01*
X15674731Y6293402D01*
X15674914Y6293256D01*
X15675132Y6293074D01*
X15675350Y6292856D01*
X15675641Y6292674D01*
X15675969Y6292456D01*
X15676333Y6292201D01*
X15676697Y6291982D01*
X15677134Y6291764D01*
X15677607Y6291582D01*
X15678117Y6291400D01*
X15678663Y6291218D01*
X15679245Y6291072D01*
X15678408Y6287724D01*
X15678371D01*
X15678226Y6287760D01*
X15678007Y6287833D01*
X15677716Y6287942D01*
X15677389Y6288051D01*
X15676988Y6288197D01*
X15676551Y6288379D01*
X15676078Y6288597D01*
X15675059Y6289107D01*
X15674040Y6289762D01*
X15673530Y6290162D01*
X15673021Y6290563D01*
X15672584Y6290999D01*
X15672147Y6291509D01*
X15672111Y6291546D01*
X15672038Y6291618D01*
X15671965Y6291800D01*
X15671819Y6291982D01*
X15671638Y6292274D01*
X15671456Y6292565D01*
X15671273Y6292965D01*
X15671092Y6293365D01*
X15670873Y6293839D01*
X15670691Y6294348D01*
X15670509Y6294894D01*
X15670327Y6295477D01*
X15670182Y6296096D01*
X15670109Y6296751D01*
X15670036Y6297442D01*
X15669999Y6298170D01*
Y6298571D01*
X15670036Y6298862D01*
Y6299190D01*
X15670072Y6299590D01*
X15670145Y6300027D01*
X15670218Y6300536D01*
X15670400Y6301592D01*
X15670691Y6302684D01*
X15671092Y6303776D01*
X15671346Y6304285D01*
X15671638Y6304795D01*
X15671674Y6304832D01*
X15671710Y6304904D01*
X15671819Y6305050D01*
X15671965Y6305195D01*
X15672111Y6305414D01*
X15672329Y6305669D01*
X15672584Y6305960D01*
X15672875Y6306251D01*
X15673203Y6306542D01*
X15673530Y6306870D01*
X15674368Y6307525D01*
X15675350Y6308144D01*
X15676442Y6308690D01*
X15676479D01*
X15676588Y6308763D01*
X15676770Y6308799D01*
X15676988Y6308908D01*
X15677280Y6308981D01*
X15677644Y6309090D01*
X15678044Y6309236D01*
X15678481Y6309345D01*
X15678954Y6309454D01*
X15679500Y6309600D01*
X15680628Y6309782D01*
X15681902Y6309927D01*
X15683213Y6310000D01*
X15683249D01*
X15683395D01*
X15683613D01*
X15683868Y6309964D01*
D02*
G37*
G36*
X15695625Y6274401D02*
Y6271890D01*
X15679318D01*
Y6268468D01*
X15676479D01*
Y6271890D01*
X15670436D01*
Y6274984D01*
X15676479D01*
Y6285940D01*
X15679318D01*
X15695625Y6274401D01*
D02*
G37*
G36*
X15683977Y6265265D02*
X15684414D01*
X15684887Y6265228D01*
X15685433Y6265192D01*
X15686561Y6265083D01*
X15687763Y6264901D01*
X15688964Y6264682D01*
X15689510Y6264537D01*
X15690056Y6264391D01*
X15690092D01*
X15690165Y6264355D01*
X15690311Y6264282D01*
X15690493Y6264209D01*
X15690747Y6264136D01*
X15691002Y6263991D01*
X15691621Y6263699D01*
X15692276Y6263336D01*
X15692968Y6262862D01*
X15693659Y6262316D01*
X15694242Y6261661D01*
Y6261625D01*
X15694315Y6261588D01*
X15694388Y6261479D01*
X15694460Y6261333D01*
X15694606Y6261151D01*
X15694715Y6260933D01*
X15695006Y6260387D01*
X15695261Y6259732D01*
X15695516Y6258967D01*
X15695662Y6258057D01*
X15695734Y6257075D01*
Y6256747D01*
X15695698Y6256347D01*
X15695625Y6255873D01*
X15695516Y6255328D01*
X15695370Y6254745D01*
X15695188Y6254126D01*
X15694897Y6253544D01*
Y6253507D01*
X15694861Y6253471D01*
X15694752Y6253289D01*
X15694569Y6252998D01*
X15694315Y6252634D01*
X15693951Y6252234D01*
X15693550Y6251797D01*
X15693077Y6251396D01*
X15692531Y6250996D01*
X15692458Y6250959D01*
X15692276Y6250814D01*
X15691949Y6250668D01*
X15691476Y6250413D01*
X15690930Y6250195D01*
X15690311Y6249904D01*
X15689583Y6249649D01*
X15688782Y6249431D01*
X15688746D01*
X15688673Y6249394D01*
X15688564Y6249358D01*
X15688381Y6249322D01*
X15688163Y6249285D01*
X15687908Y6249249D01*
X15687581Y6249176D01*
X15687217Y6249140D01*
X15686816Y6249067D01*
X15686379Y6249030D01*
X15685870Y6248994D01*
X15685360Y6248921D01*
X15684778Y6248885D01*
X15684195D01*
X15683540Y6248848D01*
X15682849D01*
X15682812D01*
X15682667D01*
X15682412D01*
X15682121D01*
X15681720Y6248885D01*
X15681283D01*
X15680810Y6248921D01*
X15680301Y6248958D01*
X15679136Y6249067D01*
X15677935Y6249249D01*
X15676770Y6249467D01*
X15676224Y6249613D01*
X15675678Y6249795D01*
X15675641D01*
X15675569Y6249831D01*
X15675423Y6249904D01*
X15675241Y6249977D01*
X15674986Y6250050D01*
X15674731Y6250195D01*
X15674113Y6250486D01*
X15673458Y6250850D01*
X15672729Y6251324D01*
X15672074Y6251869D01*
X15671456Y6252525D01*
Y6252561D01*
X15671383Y6252597D01*
X15671310Y6252707D01*
X15671237Y6252852D01*
X15671128Y6253034D01*
X15670982Y6253216D01*
X15670728Y6253762D01*
X15670473Y6254417D01*
X15670218Y6255182D01*
X15670072Y6256092D01*
X15669999Y6257075D01*
Y6257439D01*
X15670036Y6257694D01*
X15670072Y6257985D01*
X15670145Y6258349D01*
X15670218Y6258749D01*
X15670327Y6259186D01*
X15670473Y6259623D01*
X15670618Y6260096D01*
X15670837Y6260569D01*
X15671092Y6261042D01*
X15671383Y6261516D01*
X15671747Y6261989D01*
X15672147Y6262426D01*
X15672584Y6262826D01*
X15672620Y6262862D01*
X15672729Y6262935D01*
X15672912Y6263044D01*
X15673203Y6263226D01*
X15673530Y6263408D01*
X15673967Y6263590D01*
X15674477Y6263845D01*
X15675059Y6264064D01*
X15675714Y6264282D01*
X15676479Y6264500D01*
X15677316Y6264719D01*
X15678262Y6264901D01*
X15679281Y6265083D01*
X15680373Y6265192D01*
X15681575Y6265265D01*
X15682849Y6265301D01*
X15682885D01*
X15683031D01*
X15683285D01*
X15683577D01*
X15683977Y6265265D01*
D02*
G37*
%LPC*%
G36*
X2487517Y5839050D02*
X2487299D01*
X2487153Y5839014D01*
X2486789Y5838977D01*
X2486280Y5838868D01*
X2485734Y5838686D01*
X2485115Y5838395D01*
X2484533Y5838031D01*
X2483950Y5837521D01*
X2483878Y5837448D01*
X2483732Y5837266D01*
X2483477Y5836939D01*
X2483222Y5836466D01*
X2482968Y5835919D01*
X2482713Y5835228D01*
X2482567Y5834463D01*
X2482494Y5833590D01*
Y5833517D01*
Y5833335D01*
X2482531Y5833007D01*
X2482567Y5832607D01*
X2482640Y5832134D01*
X2482785Y5831624D01*
X2482931Y5831078D01*
X2483149Y5830532D01*
X2483186Y5830459D01*
X2483295Y5830278D01*
X2483441Y5830023D01*
X2483659Y5829695D01*
X2483914Y5829368D01*
X2484242Y5828967D01*
X2484606Y5828640D01*
X2485042Y5828312D01*
X2485115Y5828275D01*
X2485261Y5828203D01*
X2485515Y5828057D01*
X2485843Y5827948D01*
X2486207Y5827802D01*
X2486644Y5827657D01*
X2487117Y5827584D01*
X2487627Y5827547D01*
X2487809D01*
X2487954Y5827584D01*
X2488318Y5827620D01*
X2488791Y5827730D01*
X2489301Y5827948D01*
X2489883Y5828203D01*
X2490466Y5828603D01*
X2490757Y5828822D01*
X2491012Y5829113D01*
Y5829149D01*
X2491085Y5829185D01*
X2491230Y5829404D01*
X2491449Y5829768D01*
X2491740Y5830241D01*
X2491995Y5830860D01*
X2492213Y5831588D01*
X2492359Y5832425D01*
X2492432Y5833408D01*
Y5833444D01*
Y5833517D01*
Y5833663D01*
X2492395Y5833845D01*
Y5834063D01*
X2492359Y5834318D01*
X2492249Y5834900D01*
X2492104Y5835556D01*
X2491849Y5836247D01*
X2491485Y5836902D01*
X2491012Y5837521D01*
X2490939Y5837594D01*
X2490757Y5837776D01*
X2490466Y5837994D01*
X2490066Y5838285D01*
X2489556Y5838577D01*
X2488974Y5838795D01*
X2488282Y5838977D01*
X2487517Y5839050D01*
D02*
G37*
G36*
X15769318Y6282919D02*
Y6274984D01*
X15780602D01*
X15769318Y6282919D01*
D02*
G37*
G36*
X15509291Y6261151D02*
X15509255D01*
X15509219D01*
X15509000Y6261115D01*
X15508673Y6261079D01*
X15508272Y6261006D01*
X15507799Y6260860D01*
X15507326Y6260678D01*
X15506816Y6260387D01*
X15506379Y6260023D01*
X15506343Y6259987D01*
X15506198Y6259805D01*
X15506015Y6259550D01*
X15505834Y6259222D01*
X15505615Y6258785D01*
X15505433Y6258276D01*
X15505288Y6257694D01*
X15505251Y6257038D01*
Y6256966D01*
X15505288Y6256747D01*
X15505324Y6256419D01*
X15505397Y6255983D01*
X15505542Y6255510D01*
X15505724Y6255036D01*
X15506015Y6254527D01*
X15506379Y6254090D01*
X15506416Y6254053D01*
X15506598Y6253908D01*
X15506816Y6253726D01*
X15507144Y6253507D01*
X15507544Y6253289D01*
X15508017Y6253107D01*
X15508564Y6252962D01*
X15509146Y6252925D01*
X15509182D01*
X15509219D01*
X15509437D01*
X15509765Y6252998D01*
X15510165Y6253071D01*
X15510602Y6253216D01*
X15511075Y6253435D01*
X15511548Y6253726D01*
X15512022Y6254126D01*
X15512058Y6254163D01*
X15512203Y6254345D01*
X15512386Y6254600D01*
X15512604Y6254927D01*
X15512822Y6255364D01*
X15513004Y6255837D01*
X15513150Y6256419D01*
X15513186Y6257038D01*
Y6257329D01*
X15513113Y6257657D01*
X15513041Y6258094D01*
X15512895Y6258567D01*
X15512713Y6259077D01*
X15512422Y6259550D01*
X15512022Y6260023D01*
X15511985Y6260060D01*
X15511840Y6260205D01*
X15511585Y6260387D01*
X15511257Y6260569D01*
X15510857Y6260788D01*
X15510383Y6260970D01*
X15509874Y6261115D01*
X15509291Y6261151D01*
D02*
G37*
G36*
X15497680Y6262171D02*
X15497607D01*
X15497461D01*
X15497207Y6262134D01*
X15496879Y6262098D01*
X15496479Y6262025D01*
X15496042Y6261916D01*
X15495605Y6261770D01*
X15495132Y6261588D01*
X15495095Y6261552D01*
X15494914Y6261479D01*
X15494695Y6261333D01*
X15494440Y6261115D01*
X15494113Y6260860D01*
X15493785Y6260533D01*
X15493494Y6260169D01*
X15493203Y6259732D01*
X15493166Y6259659D01*
X15493094Y6259514D01*
X15492984Y6259259D01*
X15492875Y6258931D01*
X15492766Y6258531D01*
X15492657Y6258057D01*
X15492584Y6257548D01*
X15492548Y6257038D01*
Y6256820D01*
X15492584Y6256674D01*
X15492620Y6256238D01*
X15492729Y6255728D01*
X15492912Y6255145D01*
X15493130Y6254527D01*
X15493494Y6253944D01*
X15493967Y6253362D01*
X15494040Y6253289D01*
X15494222Y6253144D01*
X15494549Y6252889D01*
X15494950Y6252634D01*
X15495460Y6252379D01*
X15496078Y6252124D01*
X15496806Y6251979D01*
X15497571Y6251906D01*
X15497607D01*
X15497680D01*
X15497789D01*
X15497935Y6251942D01*
X15498335Y6251979D01*
X15498881Y6252088D01*
X15499427Y6252270D01*
X15500046Y6252525D01*
X15500665Y6252889D01*
X15501247Y6253398D01*
X15501320Y6253471D01*
X15501466Y6253653D01*
X15501720Y6253981D01*
X15502012Y6254417D01*
X15502266Y6254963D01*
X15502521Y6255619D01*
X15502667Y6256347D01*
X15502739Y6257148D01*
Y6257366D01*
X15502703Y6257511D01*
X15502667Y6257912D01*
X15502558Y6258422D01*
X15502376Y6259004D01*
X15502121Y6259586D01*
X15501757Y6260205D01*
X15501283Y6260751D01*
X15501211Y6260824D01*
X15501029Y6260970D01*
X15500701Y6261188D01*
X15500301Y6261443D01*
X15499755Y6261734D01*
X15499136Y6261952D01*
X15498444Y6262098D01*
X15497680Y6262171D01*
D02*
G37*
G36*
X15597108Y6262134D02*
X15597071D01*
X15596998D01*
X15596889D01*
X15596707Y6262098D01*
X15596489D01*
X15596270Y6262061D01*
X15595724Y6261952D01*
X15595105Y6261770D01*
X15594450Y6261552D01*
X15593795Y6261188D01*
X15593213Y6260715D01*
X15593140Y6260642D01*
X15592994Y6260460D01*
X15592739Y6260132D01*
X15592485Y6259732D01*
X15592193Y6259186D01*
X15591939Y6258567D01*
X15591793Y6257876D01*
X15591720Y6257111D01*
Y6256893D01*
X15591757Y6256747D01*
X15591793Y6256347D01*
X15591902Y6255873D01*
X15592084Y6255291D01*
X15592339Y6254709D01*
X15592703Y6254126D01*
X15593213Y6253580D01*
X15593285Y6253507D01*
X15593504Y6253362D01*
X15593832Y6253144D01*
X15594305Y6252852D01*
X15594887Y6252597D01*
X15595579Y6252379D01*
X15596416Y6252234D01*
X15597362Y6252161D01*
X15597399D01*
X15597471D01*
X15597617D01*
X15597799Y6252197D01*
X15598054D01*
X15598309Y6252234D01*
X15598891Y6252343D01*
X15599583Y6252488D01*
X15600311Y6252743D01*
X15601002Y6253107D01*
X15601621Y6253580D01*
X15601657D01*
X15601694Y6253653D01*
X15601876Y6253835D01*
X15602131Y6254126D01*
X15602422Y6254527D01*
X15602677Y6255036D01*
X15602932Y6255619D01*
X15603113Y6256274D01*
X15603186Y6256638D01*
Y6257220D01*
X15603150Y6257366D01*
X15603113Y6257766D01*
X15602968Y6258239D01*
X15602786Y6258822D01*
X15602458Y6259441D01*
X15602058Y6260060D01*
X15601767Y6260351D01*
X15601476Y6260642D01*
X15601439D01*
X15601403Y6260715D01*
X15601293Y6260788D01*
X15601184Y6260860D01*
X15600820Y6261115D01*
X15600311Y6261370D01*
X15599692Y6261661D01*
X15598927Y6261916D01*
X15598054Y6262061D01*
X15597108Y6262134D01*
D02*
G37*
G36*
X15679318Y6282919D02*
Y6274984D01*
X15690602D01*
X15679318Y6282919D01*
D02*
G37*
G36*
X15682849Y6262134D02*
X15682776D01*
X15682594D01*
X15682266D01*
X15681829Y6262098D01*
X15681356D01*
X15680774Y6262061D01*
X15680155Y6262025D01*
X15679500Y6261952D01*
X15678080Y6261770D01*
X15677389Y6261661D01*
X15676734Y6261516D01*
X15676115Y6261370D01*
X15675532Y6261151D01*
X15675023Y6260933D01*
X15674586Y6260678D01*
X15674549D01*
X15674513Y6260605D01*
X15674258Y6260423D01*
X15673931Y6260096D01*
X15673567Y6259695D01*
X15673203Y6259150D01*
X15672875Y6258531D01*
X15672620Y6257839D01*
X15672584Y6257475D01*
X15672548Y6257075D01*
Y6256856D01*
X15672584Y6256711D01*
X15672657Y6256347D01*
X15672802Y6255837D01*
X15673057Y6255291D01*
X15673421Y6254672D01*
X15673639Y6254381D01*
X15673931Y6254090D01*
X15674222Y6253799D01*
X15674586Y6253507D01*
X15674622D01*
X15674695Y6253435D01*
X15674804Y6253362D01*
X15674986Y6253289D01*
X15675241Y6253144D01*
X15675569Y6253034D01*
X15675933Y6252889D01*
X15676370Y6252743D01*
X15676915Y6252634D01*
X15677498Y6252488D01*
X15678190Y6252343D01*
X15678917Y6252234D01*
X15679791Y6252161D01*
X15680701Y6252088D01*
X15681720Y6252015D01*
X15682849D01*
X15682885D01*
X15682922D01*
X15683103D01*
X15683431D01*
X15683868Y6252051D01*
X15684341D01*
X15684924Y6252088D01*
X15685542Y6252124D01*
X15686234Y6252197D01*
X15687617Y6252379D01*
X15688309Y6252488D01*
X15688964Y6252634D01*
X15689583Y6252779D01*
X15690165Y6252998D01*
X15690675Y6253216D01*
X15691112Y6253471D01*
X15691148D01*
X15691184Y6253544D01*
X15691293Y6253617D01*
X15691439Y6253726D01*
X15691767Y6254053D01*
X15692167Y6254454D01*
X15692531Y6255000D01*
X15692859Y6255619D01*
X15693004Y6255946D01*
X15693113Y6256310D01*
X15693150Y6256711D01*
X15693186Y6257111D01*
Y6257329D01*
X15693150Y6257475D01*
X15693077Y6257876D01*
X15692968Y6258349D01*
X15692749Y6258895D01*
X15692422Y6259477D01*
X15692203Y6259768D01*
X15691985Y6260060D01*
X15691694Y6260314D01*
X15691366Y6260569D01*
X15691330D01*
X15691257Y6260642D01*
X15691112Y6260715D01*
X15690930Y6260824D01*
X15690638Y6260933D01*
X15690311Y6261079D01*
X15689910Y6261188D01*
X15689437Y6261333D01*
X15688891Y6261479D01*
X15688272Y6261625D01*
X15687581Y6261770D01*
X15686816Y6261880D01*
X15685943Y6261989D01*
X15684996Y6262061D01*
X15683977Y6262098D01*
X15682849Y6262134D01*
D02*
G37*
%LPD*%
D84*
X2291662Y5941240D02*
X2618291D01*
Y5708760D02*
Y5941240D01*
X2291662Y5708760D02*
X2618291D01*
X2291662D02*
Y5941240D01*
X15798386Y6234051D02*
Y6385949D01*
X15721614Y6234051D02*
X15798386D01*
X15721614D02*
Y6385949D01*
X15798386D01*
X2336686Y5183760D02*
Y5416240D01*
Y5183760D02*
X2663314D01*
Y5416240D01*
X2336686D02*
X2663314D01*
X16018387Y6614051D02*
Y6765949D01*
X15941614Y6614051D02*
X16018387D01*
X15941614D02*
Y6765949D01*
X16018387D01*
X16118385Y6614051D02*
Y6765949D01*
X16041615Y6614051D02*
X16118385D01*
X16041615D02*
Y6765949D01*
X16118385D01*
X15528386Y6234051D02*
Y6385949D01*
X15451614Y6234051D02*
X15528386D01*
X15451614D02*
Y6385949D01*
X15528386D01*
X15618386Y6234051D02*
Y6385949D01*
X15541614Y6234051D02*
X15618386D01*
X15541614D02*
Y6385949D01*
X15618386D01*
X15708386Y6234051D02*
Y6385949D01*
X15631614Y6234051D02*
X15708386D01*
X15631614D02*
Y6385949D01*
X15708386D01*
%TF.MD5,709a9e6d366151ccec03b94089ee96c5*%
M02*
