%TF.GenerationSoftware,Altium Limited,Altium Designer,21.6.4 (81)*%
G04 Layer_Physical_Order=4*
G04 Layer_Color=16711680*
%FSLAX26Y26*%
%MOIN*%
%TF.SameCoordinates,892991E7-994B-4F78-B437-02A20B6E2807*%
%TF.FilePolarity,Positive*%
%TF.FileFunction,Copper,L4,Bot,Signal*%
%TF.Part,Single*%
G01*
G75*
%TA.AperFunction,SMDPad,CuDef*%
G04:AMPARAMS|DCode=22|XSize=55mil|YSize=43mil|CornerRadius=7.955mil|HoleSize=0mil|Usage=FLASHONLY|Rotation=90.000|XOffset=0mil|YOffset=0mil|HoleType=Round|Shape=RoundedRectangle|*
%AMROUNDEDRECTD22*
21,1,0.055000,0.027090,0,0,90.0*
21,1,0.039090,0.043000,0,0,90.0*
1,1,0.015910,0.013545,0.019545*
1,1,0.015910,0.013545,-0.019545*
1,1,0.015910,-0.013545,-0.019545*
1,1,0.015910,-0.013545,0.019545*
%
%ADD22ROUNDEDRECTD22*%
G04:AMPARAMS|DCode=27|XSize=55mil|YSize=43mil|CornerRadius=7.955mil|HoleSize=0mil|Usage=FLASHONLY|Rotation=180.000|XOffset=0mil|YOffset=0mil|HoleType=Round|Shape=RoundedRectangle|*
%AMROUNDEDRECTD27*
21,1,0.055000,0.027090,0,0,180.0*
21,1,0.039090,0.043000,0,0,180.0*
1,1,0.015910,-0.019545,0.013545*
1,1,0.015910,0.019545,0.013545*
1,1,0.015910,0.019545,-0.013545*
1,1,0.015910,-0.019545,-0.013545*
%
%ADD27ROUNDEDRECTD27*%
%TA.AperFunction,NonConductor*%
%ADD28C,0.008000*%
%TA.AperFunction,Conductor*%
%ADD29C,0.008000*%
%ADD30C,0.010000*%
%ADD31C,0.030000*%
%ADD32C,0.020000*%
%TA.AperFunction,SMDPad,CuDef*%
%ADD35R,0.043307X0.035433*%
%TA.AperFunction,ComponentPad*%
%ADD36C,0.060000*%
%ADD37R,0.060000X0.060000*%
%ADD38C,0.081102*%
%ADD39C,0.075000*%
%ADD40R,0.075000X0.075000*%
%ADD41C,0.236220*%
%ADD42C,0.047244*%
%ADD43C,0.090551*%
%ADD44C,0.056221*%
%ADD45R,0.056221X0.056221*%
%ADD46C,0.070000*%
%ADD47R,0.070000X0.070000*%
%ADD48C,0.244095*%
%ADD49C,0.118110*%
%ADD50R,0.062992X0.062992*%
%ADD51C,0.062992*%
%ADD52R,0.059055X0.059055*%
%ADD53C,0.059055*%
%ADD54C,0.074000*%
%ADD55C,0.130000*%
G04:AMPARAMS|DCode=56|XSize=37.402mil|YSize=61.024mil|CornerRadius=18.701mil|HoleSize=0mil|Usage=FLASHONLY|Rotation=270.000|XOffset=0mil|YOffset=0mil|HoleType=Round|Shape=RoundedRectangle|*
%AMROUNDEDRECTD56*
21,1,0.037402,0.023622,0,0,270.0*
21,1,0.000000,0.061024,0,0,270.0*
1,1,0.037402,-0.011811,0.000000*
1,1,0.037402,-0.011811,0.000000*
1,1,0.037402,0.011811,0.000000*
1,1,0.037402,0.011811,0.000000*
%
%ADD56ROUNDEDRECTD56*%
G04:AMPARAMS|DCode=57|XSize=49.213mil|YSize=37.402mil|CornerRadius=18.701mil|HoleSize=0mil|Usage=FLASHONLY|Rotation=270.000|XOffset=0mil|YOffset=0mil|HoleType=Round|Shape=RoundedRectangle|*
%AMROUNDEDRECTD57*
21,1,0.049213,0.000000,0,0,270.0*
21,1,0.011811,0.037402,0,0,270.0*
1,1,0.037402,0.000000,-0.005906*
1,1,0.037402,0.000000,0.005906*
1,1,0.037402,0.000000,0.005906*
1,1,0.037402,0.000000,-0.005906*
%
%ADD57ROUNDEDRECTD57*%
%ADD58O,0.089600X0.056000*%
%ADD59C,0.125980*%
G04:AMPARAMS|DCode=60|XSize=66mil|YSize=66mil|CornerRadius=0mil|HoleSize=0mil|Usage=FLASHONLY|Rotation=0.000|XOffset=0mil|YOffset=0mil|HoleType=Round|Shape=Octagon|*
%AMOCTAGOND60*
4,1,8,0.033000,-0.016500,0.033000,0.016500,0.016500,0.033000,-0.016500,0.033000,-0.033000,0.016500,-0.033000,-0.016500,-0.016500,-0.033000,0.016500,-0.033000,0.033000,-0.016500,0.0*
%
%ADD60OCTAGOND60*%

G04:AMPARAMS|DCode=61|XSize=61.02mil|YSize=61.02mil|CornerRadius=0mil|HoleSize=0mil|Usage=FLASHONLY|Rotation=90.000|XOffset=0mil|YOffset=0mil|HoleType=Round|Shape=Octagon|*
%AMOCTAGOND61*
4,1,8,0.015255,0.030510,-0.015255,0.030510,-0.030510,0.015255,-0.030510,-0.015255,-0.015255,-0.030510,0.015255,-0.030510,0.030510,-0.015255,0.030510,0.015255,0.015255,0.030510,0.0*
%
%ADD61OCTAGOND61*%

G04:AMPARAMS|DCode=62|XSize=61.02mil|YSize=61.02mil|CornerRadius=0mil|HoleSize=0mil|Usage=FLASHONLY|Rotation=0.000|XOffset=0mil|YOffset=0mil|HoleType=Round|Shape=Octagon|*
%AMOCTAGOND62*
4,1,8,0.030510,-0.015255,0.030510,0.015255,0.015255,0.030510,-0.015255,0.030510,-0.030510,0.015255,-0.030510,-0.015255,-0.015255,-0.030510,0.015255,-0.030510,0.030510,-0.015255,0.0*
%
%ADD62OCTAGOND62*%

%TA.AperFunction,SMDPad,CuDef*%
%ADD63R,0.062992X0.137795*%
%ADD64R,0.086614X0.173228*%
%TA.AperFunction,ComponentPad*%
%ADD65C,0.137795*%
%TA.AperFunction,SMDPad,CuDef*%
%ADD66R,0.137795X0.070079*%
%ADD67R,0.137795X0.062992*%
%ADD68R,0.173228X0.086614*%
%TA.AperFunction,ComponentPad*%
%ADD69R,0.062992X0.062992*%
%ADD70R,0.060000X0.060000*%
%TA.AperFunction,SMDPad,CuDef*%
%ADD71R,0.070079X0.137795*%
%TA.AperFunction,ComponentPad*%
%ADD72R,0.075000X0.075000*%
%TA.AperFunction,WasherPad*%
%ADD73C,0.150000*%
%TA.AperFunction,ViaPad*%
%ADD74C,0.020000*%
%ADD75C,0.050000*%
%ADD76C,0.040000*%
%TA.AperFunction,Conductor*%
%ADD79C,0.006000*%
%TA.AperFunction,NonConductor*%
%ADD80C,0.050000*%
%TA.AperFunction,Conductor*%
%ADD81C,0.032000*%
D22*
X3164500Y5650000D02*
D03*
X3235500D02*
D03*
Y5750000D02*
D03*
X3164500D02*
D03*
X1264500Y5400000D02*
D03*
X1335500D02*
D03*
X3164500Y5550000D02*
D03*
X3235500D02*
D03*
Y5450000D02*
D03*
X3164500D02*
D03*
X1335500Y5650000D02*
D03*
X1264500D02*
D03*
Y5750000D02*
D03*
X1335500D02*
D03*
X14914500Y450000D02*
D03*
X14985500D02*
D03*
X15214500Y450011D02*
D03*
X15285500D02*
D03*
X15514500Y450000D02*
D03*
X15585500D02*
D03*
X15814500D02*
D03*
X15885500D02*
D03*
X16114500Y450003D02*
D03*
X16185499D02*
D03*
X16428213Y450000D02*
D03*
X16499212D02*
D03*
D27*
X12800000Y6435500D02*
D03*
Y6364500D02*
D03*
X16830000Y5254500D02*
D03*
Y5325500D02*
D03*
X16530001Y5354500D02*
D03*
Y5425500D02*
D03*
X16629999D02*
D03*
Y5354500D02*
D03*
X16699995Y3014506D02*
D03*
Y3085506D02*
D03*
X16700001Y3964500D02*
D03*
Y4035500D02*
D03*
X15450000Y3764500D02*
D03*
Y3835500D02*
D03*
X15000000Y3764500D02*
D03*
Y3835500D02*
D03*
X11440000Y7125500D02*
D03*
Y7054500D02*
D03*
Y6911000D02*
D03*
Y6840000D02*
D03*
X15000000Y4314500D02*
D03*
Y4385500D02*
D03*
Y4464500D02*
D03*
Y4535500D02*
D03*
X15450000Y4314500D02*
D03*
Y4385500D02*
D03*
Y4464500D02*
D03*
Y4535500D02*
D03*
X13550394Y6585500D02*
D03*
Y6514500D02*
D03*
X14150000D02*
D03*
Y6585500D02*
D03*
X12300000Y6464500D02*
D03*
Y6535500D02*
D03*
X12900000Y6464500D02*
D03*
Y6535500D02*
D03*
X12500000Y6435500D02*
D03*
Y6364500D02*
D03*
X13100000Y6435500D02*
D03*
Y6364500D02*
D03*
X13200000Y6464500D02*
D03*
Y6535500D02*
D03*
X12600000Y6464500D02*
D03*
Y6535500D02*
D03*
X13400000Y6435500D02*
D03*
Y6364500D02*
D03*
D28*
X9506299Y1700000D02*
X9510299D01*
D29*
X6982299Y1800000D02*
X6986299Y1796000D01*
X6994299D01*
X6998299Y1800000D02*
X7006299D01*
X6994299Y1796000D02*
X6998299Y1800000D01*
X7006299Y1700000D02*
X7010299D01*
X9482299Y1800000D02*
X9486299Y1796000D01*
X9494299D01*
X9498299Y1800000D02*
X9506299D01*
X9494299Y1796000D02*
X9498299Y1800000D01*
X14482299D02*
X14486299Y1796000D01*
X14494299D01*
X14498299Y1800000D02*
X14506299D01*
X14494299Y1796000D02*
X14498299Y1800000D01*
X14506299Y1700000D02*
X14510299D01*
X4700000Y2310000D02*
Y2520000D01*
X5206299Y400000D02*
Y2333701D01*
X4990000Y2380000D02*
X5160000D01*
X5206299Y2333701D01*
X4950000Y2420000D02*
X4990000Y2380000D01*
X4950000Y2420000D02*
Y2510000D01*
X4900000Y2560000D02*
X4950000Y2510000D01*
X4700000Y2520000D02*
X4740000Y2560000D01*
X4900000D01*
X16261999Y1338000D02*
X16500000Y1100000D01*
Y450000D02*
Y1100000D01*
X16222000Y1338000D02*
X16261999D01*
X6720000Y4419314D02*
Y4420000D01*
X6710000Y1320000D02*
Y4409314D01*
X6720000Y4419314D01*
X6610000Y1210000D02*
X6920000Y900000D01*
X7006299D01*
X6610000Y1210000D02*
Y4250000D01*
X6710000Y1320000D02*
X6930000Y1100000D01*
X9210000Y1970000D02*
Y3690000D01*
X9494299Y1800000D02*
X9498299D01*
X9486299D02*
X9494299D01*
X9210000Y1970000D02*
X9380000Y1800000D01*
X9260000Y2020000D02*
Y3750000D01*
Y2020000D02*
X9380000Y1900000D01*
X9310000Y2070000D02*
Y3810000D01*
X9360000Y2150000D02*
Y3870000D01*
X6160000Y350000D02*
Y1380000D01*
X6110000Y300000D02*
X6160000Y350000D01*
X16219999Y459511D02*
Y1280000D01*
X16210489Y450000D02*
X16219999Y459511D01*
Y1340000D02*
X16222000Y1338000D01*
X14206299Y400000D02*
Y1316299D01*
X14230000Y1340000D01*
X14106299Y400000D02*
Y1263701D01*
X14090000Y1280000D02*
X14106299Y1263701D01*
X10970000Y1540000D02*
Y4430000D01*
X10680000Y1350000D02*
Y4320000D01*
X12806299Y400000D02*
X12810000Y403701D01*
Y1540000D01*
X9380000Y1800000D02*
X9482299D01*
X9380000Y1900000D02*
X9506299D01*
X9310000Y2070000D02*
X9380000Y2000000D01*
X9506299D01*
X9410000Y2100000D02*
X9506299D01*
X9360000Y2150000D02*
X9410000Y2100000D01*
X7006299Y1700000D02*
X7010299D01*
X6930000Y1100000D02*
X7006299D01*
X5406299Y300000D02*
X5460000Y353701D01*
Y1220000D01*
X5430000Y1250000D02*
X5460000Y1220000D01*
X6106299Y300000D02*
X6110000D01*
X5860000Y353701D02*
Y1850000D01*
X5806299Y300000D02*
X5860000Y353701D01*
X5560000Y1202526D02*
X5562299Y1200227D01*
Y356000D02*
Y1200227D01*
X5560000Y1202526D02*
Y2050000D01*
X5506299Y300000D02*
X5562299Y356000D01*
D30*
X13140000Y5480000D02*
X13140000Y2050000D01*
X13010000Y5610000D02*
X13140000Y5480000D01*
X12890000Y5610000D02*
X13010000D01*
X12400000Y5800000D02*
X12660000Y5540000D01*
X12930000D01*
X13070000Y5400000D01*
X12700000Y5800000D02*
X12890000Y5610000D01*
X13070000Y5400000D02*
X13070000Y2150000D01*
X13200000Y5400000D02*
Y5600000D01*
X13000000Y5800000D02*
X13200000Y5600000D01*
X13260000Y5400000D02*
Y5760000D01*
X13300000Y5800000D01*
X13200000Y6535500D02*
X13207250Y6542750D01*
X13292750D01*
X13300000Y6550000D01*
X12907250Y6542750D02*
X12992750D01*
X12900000Y6535500D02*
X12907250Y6542750D01*
X12992750D02*
X13000000Y6550000D01*
X13240000Y6350000D02*
X13300000D01*
X13200000Y6390000D02*
X13240000Y6350000D01*
X13200000Y6390000D02*
Y6464500D01*
X12925000Y6350000D02*
X13000000D01*
X12900000Y6375000D02*
X12925000Y6350000D01*
X12900000Y6375000D02*
Y6464500D01*
X12625000Y6350000D02*
X12700000D01*
X12600000Y6375000D02*
Y6464500D01*
Y6375000D02*
X12625000Y6350000D01*
X12607250Y6542750D02*
X12692750D01*
X12600000Y6535500D02*
X12607250Y6542750D01*
X12692750D02*
X12700000Y6550000D01*
X12325000Y6350000D02*
X12400000D01*
X12300000Y6375000D02*
X12325000Y6350000D01*
X12300000Y6375000D02*
Y6464500D01*
X12307250Y6542750D02*
X12392750D01*
X12300000Y6535500D02*
X12307250Y6542750D01*
X12392750D02*
X12400000Y6550000D01*
X13260000Y5400000D02*
X13260000Y1850000D01*
X13200000Y5400000D02*
X13200000Y1950000D01*
X5050000Y850000D02*
X5150000D01*
X5020000Y820000D02*
X5050000Y850000D01*
X4930000Y820000D02*
X5020000D01*
X5150000Y850000D02*
X5180000Y880000D01*
X6300000Y406299D02*
Y820000D01*
X6060000Y353701D02*
Y2350000D01*
X6006299Y300000D02*
X6060000Y353701D01*
X3400000Y400000D02*
Y2340000D01*
X3350000Y350000D02*
X3400000Y400000D01*
X16500000Y450000D02*
X16570000D01*
X16340000D02*
X16428213D01*
X16210489D02*
X16280001D01*
X14310000Y660000D02*
Y1150000D01*
Y660000D02*
X14370000Y600000D01*
X14506299D01*
X12706299Y400000D02*
Y1336299D01*
X12720000Y1350000D01*
X9870000Y550000D02*
Y1040000D01*
X9820000Y500000D02*
X9870000Y550000D01*
X9506299Y500000D02*
X9820000D01*
X9506299Y700000D02*
X9630000D01*
X9670000Y740000D02*
Y1250000D01*
X9630000Y700000D02*
X9670000Y740000D01*
X7450000Y2200000D02*
X7606299D01*
X7400000Y2250000D02*
Y4850000D01*
Y2250000D02*
X7450000Y2200000D01*
X6780000Y4489142D02*
Y4490000D01*
X6770000Y1750000D02*
Y4479142D01*
X6780000Y4489142D01*
X6660000Y1260000D02*
Y4319142D01*
Y1260000D02*
X6920000Y1000000D01*
X6670000Y4329142D02*
Y4330000D01*
X6660000Y4319142D02*
X6670000Y4329142D01*
X2041913Y148087D02*
X2090000Y100000D01*
X2041913Y148087D02*
Y341913D01*
X2090000Y100000D02*
X5875000D01*
X2200000Y160000D02*
X5835000D01*
X2150000Y210000D02*
Y350000D01*
Y210000D02*
X2200000Y160000D01*
X2050000Y2500000D02*
Y3600000D01*
X1150000Y2500000D02*
Y3050000D01*
X3990000Y3260000D02*
Y5890000D01*
X4050000Y5950000D01*
X3900000Y5940000D02*
X4010000Y6050000D01*
X3900000Y3360000D02*
Y5940000D01*
X16377251Y5603750D02*
Y5972250D01*
Y5352750D02*
Y5602750D01*
X16377956Y5352043D02*
X16450001Y5280000D01*
X16377251Y5602750D02*
X16450001Y5530000D01*
X14050000Y4900000D02*
Y5800000D01*
X14200000Y5937294D02*
X14210000Y5927294D01*
X14200000Y5937294D02*
Y5940000D01*
X14210000Y3110000D02*
Y5927294D01*
X14280000Y3010000D02*
Y5590000D01*
X14350000Y2940000D02*
Y5140000D01*
X8680000Y1360000D02*
Y4390000D01*
X8406299Y1086299D02*
X8680000Y1360000D01*
X8380000Y4690000D02*
X8680000Y4390000D01*
X8550000Y4690000D02*
X8750000Y4490000D01*
X8720000Y4690000D02*
X8810000Y4600000D01*
Y1300000D02*
Y4600000D01*
X8750000Y1340000D02*
Y4490000D01*
X8506299Y1096299D02*
X8750000Y1340000D01*
X6430000Y5280000D02*
Y5410000D01*
X8870000Y1260000D02*
Y4690000D01*
X8606299Y1096299D02*
X8810000Y1300000D01*
X8406299Y400000D02*
Y1086299D01*
X8506299Y400000D02*
Y1096299D01*
X8606299Y400000D02*
Y1096299D01*
X8706299D02*
X8870000Y1260000D01*
X8706299Y400000D02*
Y1096299D01*
X7500000Y2690000D02*
Y4630000D01*
X7340000Y2160000D02*
Y4750000D01*
X1650000Y4630000D02*
Y5710000D01*
X7910000Y3210000D02*
Y3940000D01*
X7960000Y3180000D02*
Y4020000D01*
X7870000Y3020000D02*
X8020000Y3170000D01*
Y4100000D01*
X7930000Y3000000D02*
X8070000Y3140000D01*
Y4170000D01*
X6770000Y1750000D02*
X6930000Y1590000D01*
X5906299Y400000D02*
X5960000Y346299D01*
Y185000D02*
Y346299D01*
X5875000Y100000D02*
X5960000Y185000D01*
X5835000Y160000D02*
X5906299Y231299D01*
Y300000D01*
X13650000Y4775000D02*
Y5800000D01*
X8475000Y1775000D02*
Y3950000D01*
X8375000Y1675000D02*
X8475000Y1775000D01*
X8175000Y1675000D02*
X8375000D01*
X8075000Y1575000D02*
X8175000Y1675000D01*
X8075000Y468701D02*
Y1575000D01*
X8006299Y400000D02*
X8075000Y468701D01*
X7906299Y400000D02*
X8000000Y493701D01*
Y1600000D01*
X8400000Y1825000D02*
Y4075000D01*
X8325000Y1750000D02*
X8400000Y1825000D01*
X8150000Y1750000D02*
X8325000D01*
X8000000Y1600000D02*
X8150000Y1750000D01*
X7860000Y450000D02*
X7930000Y520000D01*
Y3000000D01*
X7806299Y446299D02*
X7870000Y510000D01*
X7860000Y353701D02*
Y450000D01*
X7870000Y510000D02*
Y3020000D01*
X4290000Y460000D02*
Y3110000D01*
X6260000Y1675497D02*
X6270000Y1685497D01*
Y3010000D01*
X6260000Y353701D02*
Y1675497D01*
X6206299Y400000D02*
Y3103593D01*
X6210000Y3107294D01*
Y3110000D01*
X6206299Y300000D02*
X6260000Y353701D01*
X4380000Y420000D02*
Y3010000D01*
X14360000Y740000D02*
Y1200000D01*
Y740000D02*
X14400000Y700000D01*
X14988087Y81913D02*
X14990000Y80000D01*
X14988087Y81913D02*
Y447413D01*
X15285500Y450011D02*
X15288087Y447425D01*
Y211913D02*
X15290000Y210000D01*
X15288087Y211913D02*
Y447425D01*
X15890000Y1747294D02*
Y1750000D01*
X15885500Y450000D02*
Y1742794D01*
X15890000Y1747294D01*
X15588087Y1648087D02*
X15590000Y1650000D01*
X15588087Y450000D02*
Y1648087D01*
Y450000D02*
X15675000D01*
X8990000Y1400000D02*
Y1650000D01*
Y1400000D02*
X9106299Y1283701D01*
Y400000D02*
Y1283701D01*
X9080000Y1460000D02*
X9206299Y1333701D01*
X9080000Y1460000D02*
Y1750000D01*
X9206299Y400000D02*
Y1333701D01*
X12990000Y3150000D02*
Y3200000D01*
X16629999D02*
X16969999D01*
X16629999Y3078502D02*
Y3200000D01*
X16379999D02*
X16629999D01*
X12910000Y3210000D02*
Y4070000D01*
X13006299Y400000D02*
Y2550000D01*
X12906299Y2650000D02*
X12906299Y400000D01*
X12960000Y3120000D02*
X12990000Y3150000D01*
X12906299Y300000D02*
X12960000Y353701D01*
Y3120000D01*
X12860000Y3160000D02*
X12910000Y3210000D01*
X12860000Y353701D02*
Y3160000D01*
X12806299Y300000D02*
X12860000Y353701D01*
X14510299Y1700000D02*
X14610000D01*
X14506299D02*
X14510299D01*
X14670000Y1760000D02*
Y3040000D01*
X14610000Y1700000D02*
X14670000Y1760000D01*
X14620000Y1850000D02*
Y3110000D01*
X14570000Y1800000D02*
X14620000Y1850000D01*
X14506299Y1800000D02*
X14570000D01*
X13560000Y1280000D02*
Y3950000D01*
X13660000Y1260000D02*
Y3750000D01*
X13460000Y1310000D02*
Y4210000D01*
X13340000Y1340000D02*
Y4400000D01*
X13560000Y1160000D02*
X13660000Y1260000D01*
X13460000Y1180000D02*
X13560000Y1280000D01*
Y353701D02*
Y1160000D01*
X13460000Y353701D02*
Y1180000D01*
X13506299Y300000D02*
X13560000Y353701D01*
X13206299Y1056299D02*
X13460000Y1310000D01*
X13206299Y400000D02*
Y1056299D01*
X13406299Y300000D02*
X13460000Y353701D01*
X13106299Y1106299D02*
X13340000Y1340000D01*
X13106299Y400000D02*
Y1106299D01*
X12460000Y1040000D02*
Y2390000D01*
Y1040000D02*
X12500000Y1000000D01*
X12606299D01*
X12340000Y950000D02*
X12390000Y900000D01*
X12606299D01*
X12340000Y950000D02*
Y2710000D01*
X7340000Y2160000D02*
X7400000Y2100000D01*
X7450000Y2590000D02*
Y4560000D01*
Y2590000D02*
X7480000Y2560000D01*
X7500000Y2690000D02*
X7530000Y2660000D01*
X11290000Y2450000D02*
Y6880000D01*
X11590000Y1450000D02*
X11590000Y6590000D01*
X11290000Y6880000D02*
X11321000Y6911000D01*
X11360000Y6840000D02*
X11440000D01*
X12760000Y353701D02*
Y1450000D01*
X12706299Y300000D02*
X12760000Y353701D01*
X8240000Y1800000D02*
Y7280000D01*
X8140000Y1900000D02*
Y7350000D01*
X1260000Y4560000D02*
Y4562706D01*
X1264500Y4567206D01*
Y5400000D01*
X7530000Y2660000D02*
X7606299D01*
X7480000Y2560000D02*
X7606299D01*
X7400000Y2100000D02*
X7606299D01*
X4010000Y6050000D02*
X4100000D01*
X4050000Y5950000D02*
X4100000D01*
X6430000Y5280000D02*
X6460000Y5250000D01*
X6550000D01*
X7170000Y1670000D02*
Y2550000D01*
X7250000Y2950000D02*
X7250000Y1470000D01*
X7180000Y1400000D02*
X7250000Y1470000D01*
X7006299Y1400000D02*
X7180000D01*
X7210000Y1570000D02*
Y2850000D01*
X7140000Y1500000D02*
X7210000Y1570000D01*
X7006299Y1500000D02*
X7140000D01*
X7100000Y1600000D02*
X7170000Y1670000D01*
X7006299Y1600000D02*
X7100000D01*
X7010299Y1700000D02*
X7080000D01*
X7130000Y1750000D02*
Y2650000D01*
X7080000Y1700000D02*
X7130000Y1750000D01*
X7450000Y5550000D02*
Y6800000D01*
Y5550000D02*
X7750000Y5250000D01*
X7550000Y5550000D02*
Y6800000D01*
Y5550000D02*
X7750000Y5350000D01*
X7720000Y413701D02*
Y3020000D01*
X7910000Y3210000D01*
X7810000Y3030000D02*
X7960000Y3180000D01*
X7760000Y510000D02*
Y1050000D01*
X7810000Y510000D02*
Y3030000D01*
X7806299Y300000D02*
X7860000Y353701D01*
X7806299Y400000D02*
Y446299D01*
X7760000Y460000D02*
X7810000Y510000D01*
X7760000Y353701D02*
Y460000D01*
X7706299Y300000D02*
X7760000Y353701D01*
X7706299Y400000D02*
X7720000Y413701D01*
X6930000Y1276299D02*
Y1590000D01*
X6920000Y1000000D02*
X7006299D01*
X6980698Y1221249D02*
Y1225602D01*
X6930000Y1276299D02*
X6980698Y1225602D01*
X7001947Y1200000D02*
X7006299D01*
X6980698Y1221249D02*
X7001947Y1200000D01*
X2041913Y341913D02*
X2050000Y350000D01*
X5960000Y446299D02*
Y2410000D01*
Y446299D02*
X6006299Y400000D01*
X3300000Y400000D02*
Y2420000D01*
X3250000Y350000D02*
X3300000Y400000D01*
X3800000Y2740000D02*
Y3210000D01*
X3750000Y2690000D02*
X3800000Y2740000D01*
X3740000Y2820000D02*
Y3310000D01*
X3710000Y2790000D02*
X3740000Y2820000D01*
X3600000Y2690000D02*
X3750000D01*
X3550000Y2500000D02*
Y2640000D01*
X3600000Y2690000D01*
X3500000Y2790000D02*
X3710000D01*
X3450000Y2740000D02*
X3500000Y2790000D01*
X3450000Y2500000D02*
Y2740000D01*
X6360000Y353701D02*
Y880000D01*
X6306299Y300000D02*
X6360000Y353701D01*
X6300000Y406299D02*
X6306299Y400000D01*
X5760000Y353701D02*
Y950000D01*
X5706299Y300000D02*
X5760000Y353701D01*
X5691913Y414386D02*
Y1048087D01*
Y414386D02*
X5706299Y400000D01*
X5690000Y1050000D02*
X5691913Y1048087D01*
X5406299Y400000D02*
Y1143593D01*
X5410000Y1147294D01*
Y1150000D01*
X6408087Y1281016D02*
Y1288087D01*
X6406299Y1279228D02*
X6408087Y1281016D01*
Y1288087D02*
X6410000Y1290000D01*
X6406299Y400000D02*
Y1279228D01*
X6460000Y353701D02*
Y1240000D01*
X6406299Y300000D02*
X6460000Y353701D01*
X6106299Y1333593D02*
X6110000Y1337294D01*
Y1340000D01*
X6106299Y400000D02*
Y1333593D01*
X6560000Y353701D02*
Y1750000D01*
X6506299Y300000D02*
X6560000Y353701D01*
X6506299Y1683593D02*
X6510000Y1687294D01*
X6506299Y400000D02*
Y1683593D01*
X6510000Y1687294D02*
Y1690000D01*
X5800000Y1947294D02*
X5806299Y1940995D01*
X5800000Y1947294D02*
Y1950000D01*
X5806299Y400000D02*
Y1940995D01*
X5506299Y400000D02*
Y2143593D01*
X5510000Y2147294D01*
Y2150000D01*
X5260000Y353701D02*
Y2250000D01*
X5206299Y300000D02*
X5260000Y353701D01*
X15007250Y3757250D02*
X15142750D01*
X15150000Y3750000D01*
X15000000Y3764500D02*
X15007250Y3757250D01*
X15000000Y3835500D02*
X15007250Y3842750D01*
X15142750D02*
X15150000Y3850000D01*
X15007250Y3842750D02*
X15142750D01*
X15592750Y3757250D02*
X15600000Y3750000D01*
X15457250Y3757250D02*
X15592750D01*
X15450000Y3764500D02*
X15457250Y3757250D01*
X15592750Y3842750D02*
X15600000Y3850000D01*
X15457250Y3842750D02*
X15592750D01*
X15450000Y3835500D02*
X15457250Y3842750D01*
X9720000Y600000D02*
X9770000Y650000D01*
Y1150000D01*
X9506299Y600000D02*
X9720000D01*
X14400000Y700000D02*
X14506299D01*
X14260000Y600000D02*
X14360000Y500000D01*
X14506299D01*
X14260000Y600000D02*
Y1040000D01*
X7460000Y500000D02*
Y1050000D01*
X6660000Y353701D02*
Y850000D01*
X6606299Y300000D02*
X6660000Y353701D01*
X6760000D02*
Y950000D01*
X6706299Y300000D02*
X6760000Y353701D01*
X9160000D02*
Y650000D01*
X9260000Y353701D02*
Y750000D01*
X9106299Y300000D02*
X9160000Y353701D01*
X9206299Y300000D02*
X9260000Y353701D01*
X14250299Y344000D02*
Y539701D01*
X14250000Y540000D02*
X14250299Y539701D01*
X14206299Y300000D02*
X14250299Y344000D01*
X14106299Y300000D02*
X14160000Y353701D01*
Y520000D01*
X14985500Y450000D02*
X14988087Y447413D01*
X15885500Y450000D02*
X15888087Y447413D01*
X1950000Y2750000D02*
Y3050000D01*
Y2500000D02*
Y2750000D01*
X1050000D02*
Y3050000D01*
Y2500000D02*
Y2750000D01*
X1850000Y2850000D02*
Y3050000D01*
Y2500000D02*
Y2850000D01*
X950000D02*
Y3050000D01*
Y2500000D02*
Y2850000D01*
X1750000Y2950000D02*
Y3050000D01*
Y2500000D02*
Y2950000D01*
X850000D02*
Y3050000D01*
Y2500000D02*
Y2950000D01*
X1000000Y5700000D02*
Y5725000D01*
X1025000Y5750000D01*
X3070000Y5550000D02*
X3164500D01*
X3235500Y5450000D02*
Y5500000D01*
Y5550000D01*
Y5500000D02*
X3350000D01*
X3610000Y5650000D02*
X3730000Y5530000D01*
Y5490000D02*
Y5530000D01*
X2860000Y5600000D02*
X2890000Y5630000D01*
X2950000D01*
X3020000Y5710000D02*
X3060000Y5750000D01*
X3020000Y5600000D02*
X3070000Y5650000D01*
X3060000Y5750000D02*
X3164500D01*
X3070000Y5650000D02*
X3164500D01*
X3235500Y5700000D02*
Y5704500D01*
Y5750000D01*
Y5650000D02*
Y5700000D01*
Y5704500D02*
X3240000Y5700000D01*
X3350000D01*
X1273087Y5576913D02*
Y5641413D01*
X1120000Y5400000D02*
X1264500D01*
X1273087Y5576913D02*
X1275000Y5575000D01*
X1325000Y5550000D02*
X1326913Y5551913D01*
Y5641413D01*
X1335500Y5650000D01*
Y5395599D02*
Y5400000D01*
Y5395599D02*
X1351775Y5379324D01*
X1356176D01*
X1385500Y5350000D01*
X1600000D01*
X1025000Y5750000D02*
X1264500D01*
Y5650000D02*
X1273087Y5641413D01*
X1335500Y5750000D02*
X1400000D01*
X1610000D01*
X1650000Y5710000D01*
X3020000Y5500000D02*
X3070000Y5450000D01*
X3020000Y5600000D02*
X3070000Y5550000D01*
Y5450000D02*
X3164500D01*
X11321000Y6911000D02*
X11440000D01*
X16700001Y3830000D02*
Y3964500D01*
X16693995Y3014506D02*
X16699995D01*
X15000000Y4535500D02*
X15114500D01*
X15150000Y4500000D01*
X15007250Y4392750D02*
X15142750D01*
X15150000Y4400000D01*
X15000000Y4385500D02*
X15007250Y4392750D01*
X15000000Y4385500D02*
Y4464500D01*
X15142750Y4307250D02*
X15150000Y4300000D01*
X15007250Y4307250D02*
X15142750D01*
X15000000Y4314500D02*
X15007250Y4307250D01*
X15564500Y4535500D02*
X15600000Y4500000D01*
X15450000Y4535500D02*
X15564500D01*
X15457250Y4392750D02*
X15592750D01*
X15450000Y4385500D02*
X15457250Y4392750D01*
X15592750D02*
X15600000Y4400000D01*
X15450000Y4385500D02*
Y4464500D01*
X15592750Y4307250D02*
X15600000Y4300000D01*
X15450000Y4314500D02*
X15457250Y4307250D01*
X15592750D01*
X16700001Y3830000D02*
X16780001Y3750000D01*
X16900000D01*
X16885500Y4035500D02*
X16900000Y4050000D01*
X16700001Y4035500D02*
X16885500D01*
X16629999Y3078502D02*
X16693995Y3014506D01*
X16610001Y2900000D02*
X16900000D01*
X16969999Y3200000D02*
X17000000Y3170000D01*
Y2830000D02*
Y3170000D01*
X16969999Y2800000D02*
X17000000Y2830000D01*
X16900000Y2800000D02*
X16969999D01*
X1750000Y3050000D02*
Y3600000D01*
X1850000Y3050000D02*
Y3600000D01*
X1950000Y3050000D02*
Y3600000D01*
X16450001Y6045000D02*
X16549999D01*
X16600000Y6095000D01*
Y6270000D01*
X16377251Y5972250D02*
X16450001Y6045000D01*
X11690000Y6590000D02*
Y6740000D01*
X11725000Y6775000D01*
X11875000D01*
X11925000Y6825000D01*
Y7016535D01*
X11800000Y7141535D02*
X11925000Y7016535D01*
X11448000Y7117500D02*
X11482500D01*
X11440000Y7125500D02*
X11448000Y7117500D01*
X11575000Y7025000D02*
X11700000D01*
X11482500Y7117500D02*
X11575000Y7025000D01*
X11700000D02*
X11800000Y6925000D01*
X16530001Y5354500D02*
X16629999D01*
X16474501D02*
X16530001D01*
X16450001Y5330000D02*
X16474501Y5354500D01*
X16750000Y5180000D02*
X16809999D01*
X16830000Y5200000D01*
Y5254500D01*
X9290000Y5490000D02*
Y5940000D01*
X9240000Y5440000D02*
X9290000Y5490000D01*
X8790000Y5440000D02*
X9240000D01*
X8740000Y5490000D02*
X8790000Y5440000D01*
X9140000Y5522500D02*
Y5740000D01*
X8940000Y5490000D02*
X9107500D01*
X9140000Y5522500D01*
X10540000Y5490000D02*
Y5940000D01*
X10490000Y5440000D02*
X10540000Y5490000D01*
X10040000Y5440000D02*
X10490000D01*
X9990000Y5490000D02*
X10040000Y5440000D01*
X10390008Y5544718D02*
Y5739992D01*
X10390000Y5740000D02*
X10390008Y5739992D01*
X10190000Y5490000D02*
X10335290D01*
X10390008Y5544718D01*
X11440000Y6911000D02*
Y7054500D01*
X15285500Y450011D02*
X15285511Y450000D01*
X15375000D01*
X15885500D02*
X15975000D01*
X15425000D02*
X15514500D01*
X15125000D02*
X15214489D01*
X15214500Y450011D01*
X16049999Y450000D02*
X16114500D01*
X15735500D02*
X15814500D01*
X14800000D02*
X14914500D01*
X14985500D02*
X15075000D01*
D31*
X12408928Y6450000D02*
X12423428Y6435500D01*
X12400000Y6450000D02*
X12408928D01*
X12423428Y6435500D02*
X12500000D01*
D32*
X12414500Y6364500D02*
X12500000D01*
X12400000Y6350000D02*
X12414500Y6364500D01*
X12726134Y6435500D02*
X12800000D01*
X12711634Y6450000D02*
X12726134Y6435500D01*
X12700000Y6450000D02*
X12711634D01*
X12714500Y6364500D02*
X12800000D01*
X12700000Y6350000D02*
X12714500Y6364500D01*
X13026134Y6435500D02*
X13100000D01*
X13011634Y6450000D02*
X13026134Y6435500D01*
X13000000Y6450000D02*
X13011634D01*
X13000000Y6350000D02*
X13014500Y6364500D01*
X13100000D01*
X13300000Y6350000D02*
X13314500Y6364500D01*
X13400000D01*
X13300000Y6450000D02*
X13311634D01*
X13326134Y6435500D02*
X13400000D01*
X13311634Y6450000D02*
X13326134Y6435500D01*
X13550394Y6474606D02*
Y6514500D01*
X13550000Y6585500D02*
X13550284Y6585784D01*
Y6625284D01*
X13575000Y6650000D01*
X14149716Y6585784D02*
Y6625284D01*
Y6585784D02*
X14150000Y6585500D01*
X14125000Y6650000D02*
X14149716Y6625284D01*
X13550394Y6474606D02*
X13575000Y6450000D01*
X13650000D01*
X13575000Y6650000D02*
X13650000D01*
X14050000D02*
X14125000D01*
X14050000Y6450000D02*
X14125000D01*
X14150000Y6475000D01*
Y6514500D01*
X575000Y6350000D02*
X800000D01*
X900000Y6250000D01*
Y5850000D02*
Y6250000D01*
X575000Y4900000D02*
X775000D01*
X900000Y5025000D01*
Y5300000D01*
X16699995Y3085506D02*
X16885506D01*
X16900000Y3100000D01*
X16629999Y5425500D02*
X16632250Y5427750D01*
X16527750D02*
X16530001Y5425500D01*
X16450001Y5430000D02*
X16452250Y5427750D01*
X16527750D01*
X16820000Y5421882D02*
Y5430000D01*
X16830000Y5325500D02*
Y5411882D01*
X16820000Y5421882D02*
X16830000Y5411882D01*
X16817751Y5427750D02*
X16820000Y5430000D01*
X16632250Y5427750D02*
X16817751D01*
D35*
X2098032Y6350000D02*
D03*
Y6450000D02*
D03*
X1850000Y6350000D02*
D03*
Y6450000D02*
D03*
X15430000Y5040000D02*
D03*
Y5140000D02*
D03*
X15181969Y5040000D02*
D03*
Y5140000D02*
D03*
X15428031Y5490000D02*
D03*
Y5590000D02*
D03*
X15180000Y5490000D02*
D03*
Y5590000D02*
D03*
X15428031Y5840000D02*
D03*
Y5940000D02*
D03*
X15180000Y5840000D02*
D03*
Y5940000D02*
D03*
X1851968Y4950000D02*
D03*
Y4850000D02*
D03*
X2100000Y4950000D02*
D03*
Y4850000D02*
D03*
D36*
X3650000Y2500000D02*
D03*
X3550000D02*
D03*
X3450000D02*
D03*
X13750000Y7050000D02*
D03*
X13850000D02*
D03*
X13950000D02*
D03*
X575000Y4800000D02*
D03*
Y4900000D02*
D03*
Y5000000D02*
D03*
Y6450000D02*
D03*
Y6350000D02*
D03*
Y6250000D02*
D03*
X3450000Y1850000D02*
D03*
X3350000D02*
D03*
X3250000D02*
D03*
X850000D02*
D03*
X950000D02*
D03*
X1050000D02*
D03*
X1450000D02*
D03*
X1550000D02*
D03*
X1650000D02*
D03*
X2050000D02*
D03*
X2150000D02*
D03*
X2250000D02*
D03*
X2650000D02*
D03*
X2750000D02*
D03*
X2850000D02*
D03*
X3250000Y1350000D02*
D03*
X3350000D02*
D03*
X3450000D02*
D03*
X1050000Y350000D02*
D03*
X950000D02*
D03*
X850000D02*
D03*
X1650000D02*
D03*
X1550000D02*
D03*
X1450000D02*
D03*
X2250000D02*
D03*
X2150000D02*
D03*
X2050000D02*
D03*
X2850000D02*
D03*
X2750000D02*
D03*
X2650000D02*
D03*
X850000Y1350000D02*
D03*
X950000D02*
D03*
X1050000D02*
D03*
X850000Y850000D02*
D03*
X950000D02*
D03*
X1050000D02*
D03*
X3250000Y350000D02*
D03*
X3350000D02*
D03*
X3450000D02*
D03*
X3250000Y850000D02*
D03*
X3350000D02*
D03*
X3450000D02*
D03*
X7450000Y6800000D02*
D03*
X7550000D02*
D03*
X7650000D02*
D03*
X2700000Y2500000D02*
D03*
X2800000D02*
D03*
X2900000D02*
D03*
X2700000Y3050000D02*
D03*
X2800000D02*
D03*
X2900000D02*
D03*
X2700000Y3600000D02*
D03*
X2800000D02*
D03*
X2900000D02*
D03*
X3650000D02*
D03*
X3550000D02*
D03*
X3450000D02*
D03*
X3650000Y3050000D02*
D03*
X3550000D02*
D03*
X3450000D02*
D03*
X10090000Y7190000D02*
D03*
X10190000D02*
D03*
X10290000D02*
D03*
X8790000D02*
D03*
X8890000D02*
D03*
X8990000D02*
D03*
X15600000Y2550000D02*
D03*
Y2650000D02*
D03*
Y2750000D02*
D03*
Y3850000D02*
D03*
Y3750000D02*
D03*
Y3650000D02*
D03*
X15150000D02*
D03*
Y3750000D02*
D03*
Y3850000D02*
D03*
Y4300000D02*
D03*
Y4400000D02*
D03*
Y4500000D02*
D03*
X15600000Y4300000D02*
D03*
Y4400000D02*
D03*
Y4500000D02*
D03*
D37*
X3350000Y2500000D02*
D03*
X3150000Y1850000D02*
D03*
X750000D02*
D03*
X1350000D02*
D03*
X1950000D02*
D03*
X2550000D02*
D03*
X3150000Y1350000D02*
D03*
X750000Y350000D02*
D03*
X1350000D02*
D03*
X1950000D02*
D03*
X2550000D02*
D03*
X750000Y1350000D02*
D03*
Y850000D02*
D03*
X3150000Y350000D02*
D03*
Y850000D02*
D03*
X7350000Y6800000D02*
D03*
X2600000Y2500000D02*
D03*
Y3050000D02*
D03*
Y3600000D02*
D03*
X3350000D02*
D03*
Y3050000D02*
D03*
D38*
X1292126Y3174016D02*
D03*
X17024015Y2557874D02*
D03*
Y3507874D02*
D03*
X1292126Y3724016D02*
D03*
Y2624016D02*
D03*
X2192126Y3724016D02*
D03*
Y2624016D02*
D03*
X13132126Y7164016D02*
D03*
X2192126Y3174016D02*
D03*
D39*
X1250000Y3050000D02*
D03*
X1150000D02*
D03*
X1050000D02*
D03*
X950000D02*
D03*
X850000D02*
D03*
X16900000Y3000000D02*
D03*
Y2900000D02*
D03*
Y2800000D02*
D03*
Y2700000D02*
D03*
Y2600000D02*
D03*
Y3550000D02*
D03*
Y3650000D02*
D03*
Y3750000D02*
D03*
Y3850000D02*
D03*
Y3950000D02*
D03*
X850000Y3600000D02*
D03*
X950000D02*
D03*
X1050000D02*
D03*
X1150000D02*
D03*
X1250000D02*
D03*
X850000Y2500000D02*
D03*
X950000D02*
D03*
X1050000D02*
D03*
X1150000D02*
D03*
X1250000D02*
D03*
X2150000Y3600000D02*
D03*
X2050000D02*
D03*
X1950000D02*
D03*
X1850000D02*
D03*
X1750000D02*
D03*
Y2500000D02*
D03*
X1850000D02*
D03*
X1950000D02*
D03*
X2050000D02*
D03*
X2150000D02*
D03*
X13090000Y7040000D02*
D03*
X12990000D02*
D03*
X12890000D02*
D03*
X12790000D02*
D03*
X12690000D02*
D03*
X1750000Y3050000D02*
D03*
X1850000D02*
D03*
X1950000D02*
D03*
X2050000D02*
D03*
X2150000D02*
D03*
D40*
X750000D02*
D03*
Y3600000D02*
D03*
Y2500000D02*
D03*
X1650000Y3600000D02*
D03*
Y2500000D02*
D03*
X12590000Y7040000D02*
D03*
X1650000Y3050000D02*
D03*
D41*
X12000000Y400000D02*
D03*
Y2683465D02*
D03*
X10070866Y400000D02*
D03*
Y2683465D02*
D03*
D42*
X10140000Y6240000D02*
D03*
Y6540000D02*
D03*
X10290000Y6240000D02*
D03*
Y6540000D02*
D03*
X9040000Y6240000D02*
D03*
Y6540000D02*
D03*
X8890000Y6240000D02*
D03*
Y6540000D02*
D03*
D43*
X16850393Y2258661D02*
D03*
Y1741339D02*
D03*
D44*
X16743702Y2137795D02*
D03*
Y2039370D02*
D03*
Y1960630D02*
D03*
D45*
Y1862205D02*
D03*
D46*
X10590000Y5740000D02*
D03*
X10540000Y5940000D02*
D03*
X10490000Y5740000D02*
D03*
X10440000Y5940000D02*
D03*
X10390000Y5740000D02*
D03*
X10340000Y5940000D02*
D03*
X10290000Y5740000D02*
D03*
X10240000Y5940000D02*
D03*
X10190000Y5740000D02*
D03*
X10140000Y5940000D02*
D03*
X10090000Y5740000D02*
D03*
X10040000Y5940000D02*
D03*
X9990000Y5740000D02*
D03*
X9940000Y5940000D02*
D03*
X9340000Y5740000D02*
D03*
X9290000Y5940000D02*
D03*
X9240000Y5740000D02*
D03*
X9190000Y5940000D02*
D03*
X9140000Y5740000D02*
D03*
X9090000Y5940000D02*
D03*
X9040000Y5740000D02*
D03*
X8990000Y5940000D02*
D03*
X8940000Y5740000D02*
D03*
X8890000Y5940000D02*
D03*
X8840000Y5740000D02*
D03*
X8790000Y5940000D02*
D03*
X8740000Y5740000D02*
D03*
X8690000Y5940000D02*
D03*
D47*
X9890000Y5740000D02*
D03*
X8640000D02*
D03*
D48*
X300000Y300000D02*
D03*
Y7200000D02*
D03*
X16950001Y7220000D02*
D03*
Y300000D02*
D03*
D49*
X5534646Y6966535D02*
D03*
X5700000D02*
D03*
Y6750000D02*
D03*
X5534646D02*
D03*
X11634646Y7141535D02*
D03*
X11800000D02*
D03*
Y6925000D02*
D03*
X11634646D02*
D03*
X16434647Y6486535D02*
D03*
X16600000D02*
D03*
Y6270000D02*
D03*
X16434647D02*
D03*
D50*
X12700000Y6350000D02*
D03*
Y5800000D02*
D03*
X16930000Y6290000D02*
D03*
X13650000Y6450000D02*
D03*
X14050000D02*
D03*
X13650000Y5800000D02*
D03*
X14050000D02*
D03*
X5450000Y5850000D02*
D03*
X5850000D02*
D03*
X6250000D02*
D03*
X5050000D02*
D03*
X12400000Y6350000D02*
D03*
X13000000D02*
D03*
X13300000D02*
D03*
X12400000Y5800000D02*
D03*
X13000000D02*
D03*
X13300000D02*
D03*
D51*
X12700000Y6450000D02*
D03*
Y6550000D02*
D03*
Y6000000D02*
D03*
Y5900000D02*
D03*
X16930000Y6390000D02*
D03*
Y6490000D02*
D03*
X800000Y5300000D02*
D03*
X900000D02*
D03*
Y5850000D02*
D03*
X800000D02*
D03*
X11790000Y6590000D02*
D03*
X11690000D02*
D03*
X13650000Y6650000D02*
D03*
Y6550000D02*
D03*
X14050000Y6650000D02*
D03*
Y6550000D02*
D03*
X13650000Y5900000D02*
D03*
Y6000000D02*
D03*
X14050000Y5900000D02*
D03*
Y6000000D02*
D03*
X5450000Y5950000D02*
D03*
Y6050000D02*
D03*
X5850000Y5950000D02*
D03*
Y6050000D02*
D03*
X6250000Y5950000D02*
D03*
Y6050000D02*
D03*
X5050000Y5950000D02*
D03*
Y6050000D02*
D03*
X12400000Y6450000D02*
D03*
Y6550000D02*
D03*
X13000000Y6450000D02*
D03*
Y6550000D02*
D03*
X13300000Y6450000D02*
D03*
Y6550000D02*
D03*
X12400000Y5900000D02*
D03*
Y6000000D02*
D03*
X13000000D02*
D03*
Y5900000D02*
D03*
X13300000Y6000000D02*
D03*
Y5900000D02*
D03*
D52*
X4100000Y6250000D02*
D03*
D53*
Y6150000D02*
D03*
Y5950000D02*
D03*
Y5850000D02*
D03*
Y5750000D02*
D03*
Y5650000D02*
D03*
Y5550000D02*
D03*
Y5450000D02*
D03*
Y5350000D02*
D03*
Y6050000D02*
D03*
D54*
X6550000Y6150000D02*
D03*
Y6050000D02*
D03*
Y5950000D02*
D03*
Y5850000D02*
D03*
Y5750000D02*
D03*
Y5650000D02*
D03*
Y5550000D02*
D03*
Y5450000D02*
D03*
Y5350000D02*
D03*
Y5250000D02*
D03*
X7750000Y5150000D02*
D03*
Y5250000D02*
D03*
Y5350000D02*
D03*
Y5450000D02*
D03*
Y5550000D02*
D03*
Y5650000D02*
D03*
Y5750000D02*
D03*
D55*
X7700000Y6400000D02*
D03*
Y5000000D02*
D03*
X6600000Y6400000D02*
D03*
Y5000000D02*
D03*
D56*
X17170000Y1262205D02*
D03*
Y1537795D02*
D03*
D57*
X17063702Y1301575D02*
D03*
Y1498425D02*
D03*
D58*
X5106299Y1200000D02*
D03*
Y1300000D02*
D03*
Y1400000D02*
D03*
Y1600000D02*
D03*
Y1100000D02*
D03*
Y3260000D02*
D03*
Y3360000D02*
D03*
Y3160000D02*
D03*
Y3060000D02*
D03*
Y700000D02*
D03*
Y800000D02*
D03*
Y900000D02*
D03*
Y1000000D02*
D03*
Y2300000D02*
D03*
Y2960000D02*
D03*
Y2660000D02*
D03*
Y2460000D02*
D03*
Y2560000D02*
D03*
Y2860000D02*
D03*
Y2760000D02*
D03*
Y2000000D02*
D03*
Y1700000D02*
D03*
Y1800000D02*
D03*
Y1900000D02*
D03*
Y2100000D02*
D03*
Y2200000D02*
D03*
X7006299Y3000000D02*
D03*
Y2900000D02*
D03*
Y2800000D02*
D03*
Y2700000D02*
D03*
Y2600000D02*
D03*
Y2500000D02*
D03*
Y2400000D02*
D03*
Y2300000D02*
D03*
Y1200000D02*
D03*
Y1400000D02*
D03*
Y2100000D02*
D03*
Y1900000D02*
D03*
Y1600000D02*
D03*
Y1800000D02*
D03*
Y1700000D02*
D03*
Y1500000D02*
D03*
Y2000000D02*
D03*
Y1100000D02*
D03*
Y1000000D02*
D03*
Y900000D02*
D03*
Y800000D02*
D03*
Y700000D02*
D03*
Y600000D02*
D03*
Y500000D02*
D03*
X7606299Y1200000D02*
D03*
Y1300000D02*
D03*
Y1400000D02*
D03*
Y1600000D02*
D03*
Y1100000D02*
D03*
Y3260000D02*
D03*
Y3360000D02*
D03*
Y3160000D02*
D03*
Y3060000D02*
D03*
Y700000D02*
D03*
Y800000D02*
D03*
Y900000D02*
D03*
Y1000000D02*
D03*
Y2300000D02*
D03*
Y2960000D02*
D03*
Y2660000D02*
D03*
Y2460000D02*
D03*
Y2560000D02*
D03*
Y2860000D02*
D03*
Y2760000D02*
D03*
Y2000000D02*
D03*
Y1700000D02*
D03*
Y1800000D02*
D03*
Y1900000D02*
D03*
Y2100000D02*
D03*
Y2200000D02*
D03*
X9506299Y3000000D02*
D03*
Y2900000D02*
D03*
Y2800000D02*
D03*
Y2700000D02*
D03*
Y2600000D02*
D03*
Y2500000D02*
D03*
Y2400000D02*
D03*
Y2300000D02*
D03*
Y1200000D02*
D03*
Y1400000D02*
D03*
Y2100000D02*
D03*
Y1900000D02*
D03*
Y1600000D02*
D03*
Y1800000D02*
D03*
Y1700000D02*
D03*
Y1500000D02*
D03*
Y2000000D02*
D03*
Y1100000D02*
D03*
Y1000000D02*
D03*
Y900000D02*
D03*
Y800000D02*
D03*
Y700000D02*
D03*
Y600000D02*
D03*
Y500000D02*
D03*
X12606299Y1200000D02*
D03*
Y1300000D02*
D03*
Y1400000D02*
D03*
Y1600000D02*
D03*
Y1100000D02*
D03*
Y3260000D02*
D03*
Y3360000D02*
D03*
Y3160000D02*
D03*
Y3060000D02*
D03*
Y700000D02*
D03*
Y800000D02*
D03*
Y900000D02*
D03*
Y1000000D02*
D03*
Y2300000D02*
D03*
Y2960000D02*
D03*
Y2660000D02*
D03*
Y2460000D02*
D03*
Y2560000D02*
D03*
Y2860000D02*
D03*
Y2760000D02*
D03*
Y2000000D02*
D03*
Y1700000D02*
D03*
Y1800000D02*
D03*
Y1900000D02*
D03*
Y2100000D02*
D03*
Y2200000D02*
D03*
X14506299Y3000000D02*
D03*
Y2900000D02*
D03*
Y2800000D02*
D03*
Y2700000D02*
D03*
Y2600000D02*
D03*
Y2500000D02*
D03*
Y2400000D02*
D03*
Y2300000D02*
D03*
Y1200000D02*
D03*
Y1400000D02*
D03*
Y2100000D02*
D03*
Y1900000D02*
D03*
Y1600000D02*
D03*
Y1800000D02*
D03*
Y1700000D02*
D03*
Y1500000D02*
D03*
Y2000000D02*
D03*
Y1100000D02*
D03*
Y1000000D02*
D03*
Y900000D02*
D03*
Y800000D02*
D03*
Y700000D02*
D03*
Y600000D02*
D03*
Y500000D02*
D03*
D59*
X5706299Y1500000D02*
D03*
X5106299Y550000D02*
D03*
Y3500000D02*
D03*
X7006299Y3550000D02*
D03*
Y300000D02*
D03*
X6806299Y1500000D02*
D03*
X8206299D02*
D03*
X7606299Y550000D02*
D03*
Y3500000D02*
D03*
X9506299Y3550000D02*
D03*
Y300000D02*
D03*
X9306299Y1500000D02*
D03*
X13206299D02*
D03*
X12606299Y550000D02*
D03*
Y3500000D02*
D03*
X14506299Y3550000D02*
D03*
Y300000D02*
D03*
X14306299Y1500000D02*
D03*
D60*
X5106299Y300000D02*
D03*
Y400000D02*
D03*
X5606299Y300000D02*
D03*
X5706299Y400000D02*
D03*
X5806299D02*
D03*
Y300000D02*
D03*
X5206299Y400000D02*
D03*
Y300000D02*
D03*
X5306299Y400000D02*
D03*
Y300000D02*
D03*
X5406299Y400000D02*
D03*
Y300000D02*
D03*
X5506299Y400000D02*
D03*
Y300000D02*
D03*
X5606299Y400000D02*
D03*
X5706299Y300000D02*
D03*
X6306299Y400000D02*
D03*
X6406299D02*
D03*
Y300000D02*
D03*
X6506299Y400000D02*
D03*
Y300000D02*
D03*
X6606299Y400000D02*
D03*
Y300000D02*
D03*
X6706299Y400000D02*
D03*
Y300000D02*
D03*
X6806299Y400000D02*
D03*
Y300000D02*
D03*
X6306299D02*
D03*
X5906299Y400000D02*
D03*
Y300000D02*
D03*
X6006299Y400000D02*
D03*
Y300000D02*
D03*
X6106299Y400000D02*
D03*
Y300000D02*
D03*
X6206299Y400000D02*
D03*
Y300000D02*
D03*
X7606299D02*
D03*
Y400000D02*
D03*
X8106299Y300000D02*
D03*
X8206299Y400000D02*
D03*
X8306299D02*
D03*
Y300000D02*
D03*
X7706299Y400000D02*
D03*
Y300000D02*
D03*
X7806299Y400000D02*
D03*
Y300000D02*
D03*
X7906299Y400000D02*
D03*
Y300000D02*
D03*
X8006299Y400000D02*
D03*
Y300000D02*
D03*
X8106299Y400000D02*
D03*
X8206299Y300000D02*
D03*
X8806299Y400000D02*
D03*
X8906299D02*
D03*
Y300000D02*
D03*
X9006299Y400000D02*
D03*
Y300000D02*
D03*
X9106299Y400000D02*
D03*
Y300000D02*
D03*
X9206299Y400000D02*
D03*
Y300000D02*
D03*
X9306299Y400000D02*
D03*
Y300000D02*
D03*
X8806299D02*
D03*
X8406299Y400000D02*
D03*
Y300000D02*
D03*
X8506299Y400000D02*
D03*
Y300000D02*
D03*
X8606299Y400000D02*
D03*
Y300000D02*
D03*
X8706299Y400000D02*
D03*
Y300000D02*
D03*
X12606299D02*
D03*
Y400000D02*
D03*
X13106299Y300000D02*
D03*
X13206299Y400000D02*
D03*
X13306299D02*
D03*
Y300000D02*
D03*
X12706299Y400000D02*
D03*
Y300000D02*
D03*
X12806299Y400000D02*
D03*
Y300000D02*
D03*
X12906299Y400000D02*
D03*
Y300000D02*
D03*
X13006299Y400000D02*
D03*
Y300000D02*
D03*
X13106299Y400000D02*
D03*
X13206299Y300000D02*
D03*
X13806299Y400000D02*
D03*
X13906299D02*
D03*
Y300000D02*
D03*
X14006299Y400000D02*
D03*
Y300000D02*
D03*
X14106299Y400000D02*
D03*
Y300000D02*
D03*
X14206299Y400000D02*
D03*
Y300000D02*
D03*
X14306299Y400000D02*
D03*
Y300000D02*
D03*
X13806299D02*
D03*
X13406299Y400000D02*
D03*
Y300000D02*
D03*
X13506299Y400000D02*
D03*
Y300000D02*
D03*
X13606299Y400000D02*
D03*
Y300000D02*
D03*
X13706299Y400000D02*
D03*
Y300000D02*
D03*
D61*
X5336299Y3280000D02*
D03*
X5236299Y3380000D02*
D03*
X5336299D02*
D03*
X5236299Y3480000D02*
D03*
X5336299D02*
D03*
X5236299Y3280000D02*
D03*
X7836299D02*
D03*
X7736299Y3380000D02*
D03*
X7836299D02*
D03*
X7736299Y3480000D02*
D03*
X7836299D02*
D03*
X7736299Y3280000D02*
D03*
X12836299D02*
D03*
X12736299Y3380000D02*
D03*
X12836299D02*
D03*
X12736299Y3480000D02*
D03*
X12836299D02*
D03*
X12736299Y3280000D02*
D03*
D62*
X5906299Y1595000D02*
D03*
Y1495000D02*
D03*
X6006299Y1595000D02*
D03*
Y1495000D02*
D03*
X6106299D02*
D03*
Y1595000D02*
D03*
X8406299D02*
D03*
Y1495000D02*
D03*
X8506299Y1595000D02*
D03*
Y1495000D02*
D03*
X8606299D02*
D03*
Y1595000D02*
D03*
X13406299D02*
D03*
Y1495000D02*
D03*
X13506299Y1595000D02*
D03*
Y1495000D02*
D03*
X13606299D02*
D03*
Y1595000D02*
D03*
D63*
X3500000Y5179528D02*
D03*
Y5400000D02*
D03*
X16930000Y5090000D02*
D03*
Y5310472D02*
D03*
X3500000Y6030000D02*
D03*
Y5809528D02*
D03*
X1050000Y6450000D02*
D03*
Y6229528D02*
D03*
Y5020472D02*
D03*
Y4800000D02*
D03*
D64*
X15080000Y6590000D02*
D03*
Y6940394D02*
D03*
D65*
X12000000Y5100000D02*
D03*
X12393701D02*
D03*
D66*
X16450001Y1855906D02*
D03*
Y1650000D02*
D03*
X12040000Y6940000D02*
D03*
Y7145905D02*
D03*
D67*
X9690000Y6590000D02*
D03*
X9910472D02*
D03*
X8440000Y6890000D02*
D03*
X8660472D02*
D03*
X8440000Y6590000D02*
D03*
X8660472D02*
D03*
X9690000Y6890000D02*
D03*
X9910472D02*
D03*
D68*
X8940000Y5040000D02*
D03*
X9290394D02*
D03*
X10190000D02*
D03*
X10540394D02*
D03*
D69*
X1000000Y5300000D02*
D03*
Y5850000D02*
D03*
X11590000Y6590000D02*
D03*
D70*
X575000Y4700000D02*
D03*
Y6150000D02*
D03*
X15600000Y2450000D02*
D03*
D71*
X16600000Y1350000D02*
D03*
X16805906D02*
D03*
D72*
X16900000Y3100000D02*
D03*
Y4050000D02*
D03*
D73*
X4550000Y5400000D02*
D03*
Y6190000D02*
D03*
D74*
X4930000Y820000D02*
D03*
X6300000D02*
D03*
X6060000Y2350000D02*
D03*
X3400000Y2340000D02*
D03*
X4700000Y2310000D02*
D03*
X16570000Y450000D02*
D03*
X16340000D02*
D03*
X16280001D02*
D03*
X2050000Y2690000D02*
D03*
X1150000D02*
D03*
X3990000Y3260000D02*
D03*
X3900000Y3360000D02*
D03*
X14050000Y4900000D02*
D03*
X14210000Y3110000D02*
D03*
X14200000Y5940000D02*
D03*
X14280000Y3010000D02*
D03*
Y5590000D02*
D03*
X14350000Y2940000D02*
D03*
Y5140000D02*
D03*
X8380000Y4690000D02*
D03*
X8550000D02*
D03*
X8720000D02*
D03*
X8870000D02*
D03*
X6430000Y5410000D02*
D03*
X9210000Y3690000D02*
D03*
X9260000Y3750000D02*
D03*
X9310000Y3810000D02*
D03*
X9360000Y3870000D02*
D03*
X7500000Y4630000D02*
D03*
X7340000Y4750000D02*
D03*
X1650000Y4630000D02*
D03*
X7910000Y3940000D02*
D03*
X7960000Y4020000D02*
D03*
X8020000Y4100000D02*
D03*
X8070000Y4170000D02*
D03*
X6720000Y4420000D02*
D03*
X6670000Y4330000D02*
D03*
X6610000Y4250000D02*
D03*
X6780000Y4490000D02*
D03*
X13650000Y4775000D02*
D03*
X8475000Y3950000D02*
D03*
X8400000Y4075000D02*
D03*
X4290000Y3110000D02*
D03*
X6270000Y3010000D02*
D03*
X6210000Y3110000D02*
D03*
X4380000Y3010000D02*
D03*
X4290000Y460000D02*
D03*
X4380000Y420000D02*
D03*
X14360000Y1200000D02*
D03*
X14310000Y1150000D02*
D03*
X14990000Y80000D02*
D03*
X15290000Y210000D02*
D03*
X15890000Y1750000D02*
D03*
X15590000Y1650000D02*
D03*
X8990000D02*
D03*
X9080000Y1750000D02*
D03*
X16219999Y1340000D02*
D03*
Y1280000D02*
D03*
X14230000Y1340000D02*
D03*
X14090000Y1280000D02*
D03*
X12990000Y3200000D02*
D03*
X16379999D02*
D03*
X12910000Y4070000D02*
D03*
X13010000Y2550000D02*
D03*
X12900000Y2650000D02*
D03*
X14670000Y3040000D02*
D03*
X14620000Y3110000D02*
D03*
X13560000Y3950000D02*
D03*
X13660000Y3750000D02*
D03*
X13460000Y4210000D02*
D03*
X13340000Y4400000D02*
D03*
X12340000Y2710000D02*
D03*
X12460000Y2390000D02*
D03*
X7400000Y4850000D02*
D03*
X7450000Y4560000D02*
D03*
X11290000Y2450000D02*
D03*
X10970000Y1540000D02*
D03*
X10680000Y1350000D02*
D03*
X12720000D02*
D03*
X10680000Y4320000D02*
D03*
X10970000Y4430000D02*
D03*
X11590000Y1450000D02*
D03*
X11360000Y6840000D02*
D03*
X12810000Y1540000D02*
D03*
X12760000Y1450000D02*
D03*
X13260000Y1850000D02*
D03*
X13200000Y1950000D02*
D03*
X13140000Y2050000D02*
D03*
X13070000Y2150000D02*
D03*
X8240000Y1800000D02*
D03*
X8140000Y7350000D02*
D03*
X8240000Y7280000D02*
D03*
X8140000Y1900000D02*
D03*
X1260000Y4560000D02*
D03*
X7250000Y2950000D02*
D03*
X7210000Y2850000D02*
D03*
X7130000Y2650000D02*
D03*
X7170000Y2550000D02*
D03*
X7760000Y1050000D02*
D03*
Y510000D02*
D03*
X5960000Y2410000D02*
D03*
X3300000Y2420000D02*
D03*
X3800000Y3210000D02*
D03*
X3740000Y3310000D02*
D03*
X6360000Y880000D02*
D03*
X5180000D02*
D03*
X5760000Y950000D02*
D03*
X5690000Y1050000D02*
D03*
X5410000Y1150000D02*
D03*
X5430000Y1250000D02*
D03*
X6410000Y1290000D02*
D03*
X6460000Y1240000D02*
D03*
X6110000Y1340000D02*
D03*
X6160000Y1380000D02*
D03*
X6560000Y1750000D02*
D03*
X6510000Y1690000D02*
D03*
X5860000Y1850000D02*
D03*
X5800000Y1950000D02*
D03*
X5510000Y2150000D02*
D03*
X5560000Y2050000D02*
D03*
X5260000Y2250000D02*
D03*
X9670000Y1250000D02*
D03*
X14260000Y1040000D02*
D03*
X9770000Y1150000D02*
D03*
X9870000Y1040000D02*
D03*
X7460000Y1050000D02*
D03*
Y500000D02*
D03*
X6660000Y850000D02*
D03*
X6760000Y950000D02*
D03*
X9160000Y650000D02*
D03*
X9260000Y750000D02*
D03*
X14850000Y1010000D02*
D03*
X15150000D02*
D03*
X15450000D02*
D03*
X15750000D02*
D03*
X16049999D02*
D03*
X16340000Y1020000D02*
D03*
X14250000Y540000D02*
D03*
X14160000Y520000D02*
D03*
X1950000Y2750000D02*
D03*
X1850000Y2850000D02*
D03*
X1750000Y2950000D02*
D03*
X1050000Y2750000D02*
D03*
X950000Y2850000D02*
D03*
X850000Y2950000D02*
D03*
X1850000Y4750000D02*
D03*
X2100000D02*
D03*
X1800000Y4950000D02*
D03*
X1600000Y5350000D02*
D03*
X1120000Y5400000D02*
D03*
X1750000D02*
D03*
X2050000Y5500000D02*
D03*
X1325000Y5550000D02*
D03*
X925000D02*
D03*
X1275000Y5575000D02*
D03*
X1000000Y5700000D02*
D03*
X1400000Y5750000D02*
D03*
X2025000Y6025000D02*
D03*
X1800000Y6450000D02*
D03*
X1850000Y6550000D02*
D03*
X2150000Y5075000D02*
D03*
X2400000Y5175000D02*
D03*
X3420000Y5200000D02*
D03*
X2300000Y5425000D02*
D03*
X2600000Y5450000D02*
D03*
X3730000Y5490000D02*
D03*
X3020000Y5500000D02*
D03*
X3350000D02*
D03*
X2860000Y5600000D02*
D03*
X3360000D02*
D03*
X3020000D02*
D03*
X2950000Y5630000D02*
D03*
X3610000Y5650000D02*
D03*
X2350000Y5675000D02*
D03*
X2100000Y5700000D02*
D03*
X3350000D02*
D03*
X3020000Y5710000D02*
D03*
X2325000Y5975000D02*
D03*
X2550000D02*
D03*
X3430000Y6000000D02*
D03*
X2100000Y6550000D02*
D03*
X15400000Y6260000D02*
D03*
X16580000Y4110000D02*
D03*
X16610001Y2900000D02*
D03*
X15270000Y2500000D02*
D03*
X15280000Y2700000D02*
D03*
X14275000Y6945000D02*
D03*
X14475000D02*
D03*
X15430000Y5440000D02*
D03*
Y4990000D02*
D03*
Y5790000D02*
D03*
X15763892Y5040000D02*
D03*
X15905000Y5340000D02*
D03*
X15790000Y5570000D02*
D03*
X15730000Y5850000D02*
D03*
X16450001Y5530000D02*
D03*
Y5330000D02*
D03*
Y5280000D02*
D03*
X16660000Y5050000D02*
D03*
X16570000Y5580000D02*
D03*
X16760000Y5600000D02*
D03*
X16750000Y5180000D02*
D03*
X16850000Y5090000D02*
D03*
X8740000Y5490000D02*
D03*
X8940000D02*
D03*
X8665000Y5165000D02*
D03*
X8565000Y5565000D02*
D03*
X8840000Y5490000D02*
D03*
X9990000D02*
D03*
X10190000D02*
D03*
X9915000Y5165000D02*
D03*
X9815000Y5565000D02*
D03*
X10090000Y5490000D02*
D03*
X15975000Y450000D02*
D03*
X15675000D02*
D03*
X15375000D02*
D03*
X15425000D02*
D03*
X15125000D02*
D03*
X16049999D02*
D03*
X16025000Y325000D02*
D03*
X15735500Y450000D02*
D03*
X14800000D02*
D03*
X15075000D02*
D03*
X16375000Y1450000D02*
D03*
X16424999Y1400000D02*
D03*
X16375000D02*
D03*
Y1300000D02*
D03*
X16424999D02*
D03*
X16475000D02*
D03*
X16525000D02*
D03*
X16375000Y1350000D02*
D03*
X16424999D02*
D03*
X16475000D02*
D03*
X16525000D02*
D03*
X16400000Y325000D02*
D03*
X15700000D02*
D03*
X15400000D02*
D03*
X15100000Y325006D02*
D03*
X14800000Y325000D02*
D03*
D75*
X16820000Y5430000D02*
D03*
X16450001D02*
D03*
X14970000Y6940000D02*
D03*
Y6590000D02*
D03*
X17030001Y5870000D02*
D03*
X9340000Y5165000D02*
D03*
X10590000Y5190000D02*
D03*
X10440000Y6322500D02*
D03*
X9790000Y6390000D02*
D03*
X8540000D02*
D03*
X9190000Y6339000D02*
D03*
X8940000Y5165000D02*
D03*
X10190000Y5190000D02*
D03*
X12090000Y6790000D02*
D03*
X11990000D02*
D03*
Y6690000D02*
D03*
X12090000D02*
D03*
Y6590000D02*
D03*
X11990000D02*
D03*
D76*
X16950001Y1500000D02*
D03*
D79*
X7730000Y5250000D02*
X7750000D01*
D80*
X5336299Y3280000D02*
X5341299Y3275000D01*
X7836299Y3280000D02*
X7841299Y3275000D01*
X12836299Y3280000D02*
X12841299Y3275000D01*
D81*
X6796299Y410000D02*
X6806299Y400000D01*
X9296299Y410000D02*
X9306299Y400000D01*
X14296299Y410000D02*
X14306299Y400000D01*
%TF.MD5,7a112a6421e9e92d7fd256b1b4cd8782*%
M02*
