%TF.GenerationSoftware,Altium Limited,Altium Designer,21.6.4 (81)*%
G04 Layer_Color=8388736*
%FSLAX26Y26*%
%MOIN*%
%TF.SameCoordinates,892991E7-994B-4F78-B437-02A20B6E2807*%
%TF.FilePolarity,Positive*%
%TF.FileFunction,Other,Top_3D_Body*%
%TF.Part,Single*%
G01*
G75*
%TA.AperFunction,NonConductor*%
%ADD84C,0.007874*%
D84*
X2378303Y5921555D02*
X2531650D01*
Y5728445D02*
Y5921555D01*
X2378303Y5728445D02*
X2531650D01*
X2378303D02*
Y5921555D01*
X15791496Y6247008D02*
Y6372992D01*
X15728504Y6247008D02*
X15791496D01*
X15728504D02*
Y6372992D01*
X15791496D01*
X2423327Y5203445D02*
Y5396555D01*
Y5203445D02*
X2576673D01*
Y5396555D01*
X2423327D02*
X2576673D01*
X16011496Y6627008D02*
Y6752992D01*
X15948504Y6627008D02*
X16011496D01*
X15948504D02*
Y6752992D01*
X16011496D01*
X16111496Y6627008D02*
Y6752992D01*
X16048504Y6627008D02*
X16111496D01*
X16048504D02*
Y6752992D01*
X16111496D01*
X15521496Y6247008D02*
Y6372992D01*
X15458504Y6247008D02*
X15521496D01*
X15458504D02*
Y6372992D01*
X15521496D01*
X15611496Y6247008D02*
Y6372992D01*
X15548504Y6247008D02*
X15611496D01*
X15548504D02*
Y6372992D01*
X15611496D01*
X15701496Y6247008D02*
Y6372992D01*
X15638504Y6247008D02*
X15701496D01*
X15638504D02*
Y6372992D01*
X15701496D01*
%TF.MD5,5b981c341ad7df7f4521651b560287b6*%
M02*
