%TF.GenerationSoftware,Altium Limited,Altium Designer,21.6.4 (81)*%
G04 Layer_Color=65535*
%FSLAX26Y26*%
%MOIN*%
%TF.SameCoordinates,892991E7-994B-4F78-B437-02A20B6E2807*%
%TF.FilePolarity,Positive*%
%TF.FileFunction,Other,Top_Designators*%
%TF.Part,Single*%
G01*
G75*
%TA.AperFunction,NonConductor*%
%ADD83C,0.010000*%
G36*
X6560000Y6140000D02*
X6540000D01*
Y6160000D01*
X6560000D01*
Y6140000D01*
D02*
G37*
G36*
Y6040000D02*
X6540000D01*
Y6060000D01*
X6560000D01*
Y6040000D01*
D02*
G37*
G36*
Y5940000D02*
X6540000D01*
Y5960000D01*
X6560000D01*
Y5940000D01*
D02*
G37*
G36*
Y5840000D02*
X6540000D01*
Y5860000D01*
X6560000D01*
Y5840000D01*
D02*
G37*
G36*
X7760000Y5740000D02*
X7740000D01*
Y5760000D01*
X7760000D01*
Y5740000D01*
D02*
G37*
G36*
X6560000D02*
X6540000D01*
Y5760000D01*
X6560000D01*
Y5740000D01*
D02*
G37*
G36*
X7760000Y5640000D02*
X7740000D01*
Y5660000D01*
X7760000D01*
Y5640000D01*
D02*
G37*
G36*
X6560000D02*
X6540000D01*
Y5660000D01*
X6560000D01*
Y5640000D01*
D02*
G37*
G36*
X7760000Y5540000D02*
X7740000D01*
Y5560000D01*
X7760000D01*
Y5540000D01*
D02*
G37*
G36*
X6560000D02*
X6540000D01*
Y5560000D01*
X6560000D01*
Y5540000D01*
D02*
G37*
G36*
X7760000Y5440000D02*
X7740000D01*
Y5460000D01*
X7760000D01*
Y5440000D01*
D02*
G37*
G36*
X6560000D02*
X6540000D01*
Y5460000D01*
X6560000D01*
Y5440000D01*
D02*
G37*
G36*
X7760000Y5340000D02*
X7740000D01*
Y5360000D01*
X7760000D01*
Y5340000D01*
D02*
G37*
G36*
X6560000D02*
X6540000D01*
Y5360000D01*
X6560000D01*
Y5340000D01*
D02*
G37*
G36*
X7760000Y5240000D02*
X7740000D01*
Y5260000D01*
X7760000D01*
Y5240000D01*
D02*
G37*
G36*
X6560000D02*
X6540000D01*
Y5260000D01*
X6560000D01*
Y5240000D01*
D02*
G37*
G36*
X7760000Y5140000D02*
X7740000D01*
Y5160000D01*
X7760000D01*
Y5140000D01*
D02*
G37*
G36*
X7846299Y3470000D02*
X7826299D01*
Y3490000D01*
X7846299D01*
Y3470000D01*
D02*
G37*
G36*
X7746299D02*
X7726299D01*
Y3490000D01*
X7746299D01*
Y3470000D01*
D02*
G37*
G36*
X5346299D02*
X5326299D01*
Y3490000D01*
X5346299D01*
Y3470000D01*
D02*
G37*
G36*
X5246299D02*
X5226299D01*
Y3490000D01*
X5246299D01*
Y3470000D01*
D02*
G37*
G36*
X7846299Y3370000D02*
X7826299D01*
Y3390000D01*
X7846299D01*
Y3370000D01*
D02*
G37*
G36*
X7746299D02*
X7726299D01*
Y3390000D01*
X7746299D01*
Y3370000D01*
D02*
G37*
G36*
X5346299D02*
X5326299D01*
Y3390000D01*
X5346299D01*
Y3370000D01*
D02*
G37*
G36*
X5246299D02*
X5226299D01*
Y3390000D01*
X5246299D01*
Y3370000D01*
D02*
G37*
G36*
X7616299Y3350000D02*
X7596299D01*
Y3370000D01*
X7616299D01*
Y3350000D01*
D02*
G37*
G36*
X5116299D02*
X5096299D01*
Y3370000D01*
X5116299D01*
Y3350000D01*
D02*
G37*
G36*
X7846299Y3270000D02*
X7826299D01*
Y3290000D01*
X7846299D01*
Y3270000D01*
D02*
G37*
G36*
X7746299D02*
X7726299D01*
Y3290000D01*
X7746299D01*
Y3270000D01*
D02*
G37*
G36*
X5346299D02*
X5326299D01*
Y3290000D01*
X5346299D01*
Y3270000D01*
D02*
G37*
G36*
X5246299D02*
X5226299D01*
Y3290000D01*
X5246299D01*
Y3270000D01*
D02*
G37*
G36*
X7616299Y3250000D02*
X7596299D01*
Y3270000D01*
X7616299D01*
Y3250000D01*
D02*
G37*
G36*
X5116299D02*
X5096299D01*
Y3270000D01*
X5116299D01*
Y3250000D01*
D02*
G37*
G36*
X7616299Y3150000D02*
X7596299D01*
Y3170000D01*
X7616299D01*
Y3150000D01*
D02*
G37*
G36*
X5116299D02*
X5096299D01*
Y3170000D01*
X5116299D01*
Y3150000D01*
D02*
G37*
G36*
X7616299Y3050000D02*
X7596299D01*
Y3070000D01*
X7616299D01*
Y3050000D01*
D02*
G37*
G36*
X5116299D02*
X5096299D01*
Y3070000D01*
X5116299D01*
Y3050000D01*
D02*
G37*
G36*
X7016299Y2990000D02*
X6996299D01*
Y3010000D01*
X7016299D01*
Y2990000D01*
D02*
G37*
G36*
X7616299Y2950000D02*
X7596299D01*
Y2970000D01*
X7616299D01*
Y2950000D01*
D02*
G37*
G36*
X5116299D02*
X5096299D01*
Y2970000D01*
X5116299D01*
Y2950000D01*
D02*
G37*
G36*
X7016299Y2890000D02*
X6996299D01*
Y2910000D01*
X7016299D01*
Y2890000D01*
D02*
G37*
G36*
X7616299Y2850000D02*
X7596299D01*
Y2870000D01*
X7616299D01*
Y2850000D01*
D02*
G37*
G36*
X5116299D02*
X5096299D01*
Y2870000D01*
X5116299D01*
Y2850000D01*
D02*
G37*
G36*
X7016299Y2790000D02*
X6996299D01*
Y2810000D01*
X7016299D01*
Y2790000D01*
D02*
G37*
G36*
X7616299Y2750000D02*
X7596299D01*
Y2770000D01*
X7616299D01*
Y2750000D01*
D02*
G37*
G36*
X5116299D02*
X5096299D01*
Y2770000D01*
X5116299D01*
Y2750000D01*
D02*
G37*
G36*
X7016299Y2690000D02*
X6996299D01*
Y2710000D01*
X7016299D01*
Y2690000D01*
D02*
G37*
G36*
X7616299Y2650000D02*
X7596299D01*
Y2670000D01*
X7616299D01*
Y2650000D01*
D02*
G37*
G36*
X5116299D02*
X5096299D01*
Y2670000D01*
X5116299D01*
Y2650000D01*
D02*
G37*
G36*
X7016299Y2590000D02*
X6996299D01*
Y2610000D01*
X7016299D01*
Y2590000D01*
D02*
G37*
G36*
X7616299Y2550000D02*
X7596299D01*
Y2570000D01*
X7616299D01*
Y2550000D01*
D02*
G37*
G36*
X5116299D02*
X5096299D01*
Y2570000D01*
X5116299D01*
Y2550000D01*
D02*
G37*
G36*
X7016299Y2490000D02*
X6996299D01*
Y2510000D01*
X7016299D01*
Y2490000D01*
D02*
G37*
G36*
X7616299Y2450000D02*
X7596299D01*
Y2470000D01*
X7616299D01*
Y2450000D01*
D02*
G37*
G36*
X5116299D02*
X5096299D01*
Y2470000D01*
X5116299D01*
Y2450000D01*
D02*
G37*
G36*
X7016299Y2390000D02*
X6996299D01*
Y2410000D01*
X7016299D01*
Y2390000D01*
D02*
G37*
G36*
X7616299Y2290000D02*
X7596299D01*
Y2310000D01*
X7616299D01*
Y2290000D01*
D02*
G37*
G36*
X7016299D02*
X6996299D01*
Y2310000D01*
X7016299D01*
Y2290000D01*
D02*
G37*
G36*
X5116299D02*
X5096299D01*
Y2310000D01*
X5116299D01*
Y2290000D01*
D02*
G37*
G36*
X7616299Y2190000D02*
X7596299D01*
Y2210000D01*
X7616299D01*
Y2190000D01*
D02*
G37*
G36*
X5116299D02*
X5096299D01*
Y2210000D01*
X5116299D01*
Y2190000D01*
D02*
G37*
G36*
X7616299Y2090000D02*
X7596299D01*
Y2110000D01*
X7616299D01*
Y2090000D01*
D02*
G37*
G36*
X7016299D02*
X6996299D01*
Y2110000D01*
X7016299D01*
Y2090000D01*
D02*
G37*
G36*
X5116299D02*
X5096299D01*
Y2110000D01*
X5116299D01*
Y2090000D01*
D02*
G37*
G36*
X7616299Y1990000D02*
X7596299D01*
Y2010000D01*
X7616299D01*
Y1990000D01*
D02*
G37*
G36*
X7016299D02*
X6996299D01*
Y2010000D01*
X7016299D01*
Y1990000D01*
D02*
G37*
G36*
X5116299D02*
X5096299D01*
Y2010000D01*
X5116299D01*
Y1990000D01*
D02*
G37*
G36*
X7616299Y1890000D02*
X7596299D01*
Y1910000D01*
X7616299D01*
Y1890000D01*
D02*
G37*
G36*
X7016299D02*
X6996299D01*
Y1910000D01*
X7016299D01*
Y1890000D01*
D02*
G37*
G36*
X5116299D02*
X5096299D01*
Y1910000D01*
X5116299D01*
Y1890000D01*
D02*
G37*
G36*
X7616299Y1790000D02*
X7596299D01*
Y1810000D01*
X7616299D01*
Y1790000D01*
D02*
G37*
G36*
X7016299D02*
X6996299D01*
Y1810000D01*
X7016299D01*
Y1790000D01*
D02*
G37*
G36*
X5116299D02*
X5096299D01*
Y1810000D01*
X5116299D01*
Y1790000D01*
D02*
G37*
G36*
X7616299Y1690000D02*
X7596299D01*
Y1710000D01*
X7616299D01*
Y1690000D01*
D02*
G37*
G36*
X7016299D02*
X6996299D01*
Y1710000D01*
X7016299D01*
Y1690000D01*
D02*
G37*
G36*
X5116299D02*
X5096299D01*
Y1710000D01*
X5116299D01*
Y1690000D01*
D02*
G37*
G36*
X7616299Y1590000D02*
X7596299D01*
Y1610000D01*
X7616299D01*
Y1590000D01*
D02*
G37*
G36*
X7016299D02*
X6996299D01*
Y1610000D01*
X7016299D01*
Y1590000D01*
D02*
G37*
G36*
X5116299D02*
X5096299D01*
Y1610000D01*
X5116299D01*
Y1590000D01*
D02*
G37*
G36*
X6116299Y1585000D02*
X6096299D01*
Y1605000D01*
X6116299D01*
Y1585000D01*
D02*
G37*
G36*
X6016299D02*
X5996299D01*
Y1605000D01*
X6016299D01*
Y1585000D01*
D02*
G37*
G36*
X5916299D02*
X5896299D01*
Y1605000D01*
X5916299D01*
Y1585000D01*
D02*
G37*
G36*
X7016299Y1490000D02*
X6996299D01*
Y1510000D01*
X7016299D01*
Y1490000D01*
D02*
G37*
G36*
X6116299Y1485000D02*
X6096299D01*
Y1505000D01*
X6116299D01*
Y1485000D01*
D02*
G37*
G36*
X6016299D02*
X5996299D01*
Y1505000D01*
X6016299D01*
Y1485000D01*
D02*
G37*
G36*
X5916299D02*
X5896299D01*
Y1505000D01*
X5916299D01*
Y1485000D01*
D02*
G37*
G36*
X7616299Y1390000D02*
X7596299D01*
Y1410000D01*
X7616299D01*
Y1390000D01*
D02*
G37*
G36*
X7016299D02*
X6996299D01*
Y1410000D01*
X7016299D01*
Y1390000D01*
D02*
G37*
G36*
X5116299D02*
X5096299D01*
Y1410000D01*
X5116299D01*
Y1390000D01*
D02*
G37*
G36*
X7616299Y1290000D02*
X7596299D01*
Y1310000D01*
X7616299D01*
Y1290000D01*
D02*
G37*
G36*
X5116299D02*
X5096299D01*
Y1310000D01*
X5116299D01*
Y1290000D01*
D02*
G37*
G36*
X7616299Y1190000D02*
X7596299D01*
Y1210000D01*
X7616299D01*
Y1190000D01*
D02*
G37*
G36*
X7016299D02*
X6996299D01*
Y1210000D01*
X7016299D01*
Y1190000D01*
D02*
G37*
G36*
X5116299D02*
X5096299D01*
Y1210000D01*
X5116299D01*
Y1190000D01*
D02*
G37*
G36*
X7616299Y1090000D02*
X7596299D01*
Y1110000D01*
X7616299D01*
Y1090000D01*
D02*
G37*
G36*
X7016299D02*
X6996299D01*
Y1110000D01*
X7016299D01*
Y1090000D01*
D02*
G37*
G36*
X5116299D02*
X5096299D01*
Y1110000D01*
X5116299D01*
Y1090000D01*
D02*
G37*
G36*
X7616299Y990000D02*
X7596299D01*
Y1010000D01*
X7616299D01*
Y990000D01*
D02*
G37*
G36*
X7016299D02*
X6996299D01*
Y1010000D01*
X7016299D01*
Y990000D01*
D02*
G37*
G36*
X5116299D02*
X5096299D01*
Y1010000D01*
X5116299D01*
Y990000D01*
D02*
G37*
G36*
X7616299Y890000D02*
X7596299D01*
Y910000D01*
X7616299D01*
Y890000D01*
D02*
G37*
G36*
X7016299D02*
X6996299D01*
Y910000D01*
X7016299D01*
Y890000D01*
D02*
G37*
G36*
X5116299D02*
X5096299D01*
Y910000D01*
X5116299D01*
Y890000D01*
D02*
G37*
G36*
X7616299Y790000D02*
X7596299D01*
Y810000D01*
X7616299D01*
Y790000D01*
D02*
G37*
G36*
X7016299D02*
X6996299D01*
Y810000D01*
X7016299D01*
Y790000D01*
D02*
G37*
G36*
X5116299D02*
X5096299D01*
Y810000D01*
X5116299D01*
Y790000D01*
D02*
G37*
G36*
X7616299Y690000D02*
X7596299D01*
Y710000D01*
X7616299D01*
Y690000D01*
D02*
G37*
G36*
X7016299D02*
X6996299D01*
Y710000D01*
X7016299D01*
Y690000D01*
D02*
G37*
G36*
X5116299D02*
X5096299D01*
Y710000D01*
X5116299D01*
Y690000D01*
D02*
G37*
G36*
X7016299Y590000D02*
X6996299D01*
Y610000D01*
X7016299D01*
Y590000D01*
D02*
G37*
G36*
Y490000D02*
X6996299D01*
Y510000D01*
X7016299D01*
Y490000D01*
D02*
G37*
G36*
X7916299Y390000D02*
X7896299D01*
Y410000D01*
X7916299D01*
Y390000D01*
D02*
G37*
G36*
X7816299D02*
X7796299D01*
Y410000D01*
X7816299D01*
Y390000D01*
D02*
G37*
G36*
X7716299D02*
X7696299D01*
Y410000D01*
X7716299D01*
Y390000D01*
D02*
G37*
G36*
X7616299D02*
X7596299D01*
Y410000D01*
X7616299D01*
Y390000D01*
D02*
G37*
G36*
X6816299D02*
X6796299D01*
Y410000D01*
X6816299D01*
Y390000D01*
D02*
G37*
G36*
X6716299D02*
X6696299D01*
Y410000D01*
X6716299D01*
Y390000D01*
D02*
G37*
G36*
X6616299D02*
X6596299D01*
Y410000D01*
X6616299D01*
Y390000D01*
D02*
G37*
G36*
X6516299D02*
X6496299D01*
Y410000D01*
X6516299D01*
Y390000D01*
D02*
G37*
G36*
X6416299D02*
X6396299D01*
Y410000D01*
X6416299D01*
Y390000D01*
D02*
G37*
G36*
X6316299D02*
X6296299D01*
Y410000D01*
X6316299D01*
Y390000D01*
D02*
G37*
G36*
X6216299D02*
X6196299D01*
Y410000D01*
X6216299D01*
Y390000D01*
D02*
G37*
G36*
X6116299D02*
X6096299D01*
Y410000D01*
X6116299D01*
Y390000D01*
D02*
G37*
G36*
X6016299D02*
X5996299D01*
Y410000D01*
X6016299D01*
Y390000D01*
D02*
G37*
G36*
X5916299D02*
X5896299D01*
Y410000D01*
X5916299D01*
Y390000D01*
D02*
G37*
G36*
X5816299D02*
X5796299D01*
Y410000D01*
X5816299D01*
Y390000D01*
D02*
G37*
G36*
X5716299D02*
X5696299D01*
Y410000D01*
X5716299D01*
Y390000D01*
D02*
G37*
G36*
X5616299D02*
X5596299D01*
Y410000D01*
X5616299D01*
Y390000D01*
D02*
G37*
G36*
X5516299D02*
X5496299D01*
Y410000D01*
X5516299D01*
Y390000D01*
D02*
G37*
G36*
X5416299D02*
X5396299D01*
Y410000D01*
X5416299D01*
Y390000D01*
D02*
G37*
G36*
X5316299D02*
X5296299D01*
Y410000D01*
X5316299D01*
Y390000D01*
D02*
G37*
G36*
X5216299D02*
X5196299D01*
Y410000D01*
X5216299D01*
Y390000D01*
D02*
G37*
G36*
X5116299D02*
X5096299D01*
Y410000D01*
X5116299D01*
Y390000D01*
D02*
G37*
G36*
X7916299Y290000D02*
X7896299D01*
Y310000D01*
X7916299D01*
Y290000D01*
D02*
G37*
G36*
X7816299D02*
X7796299D01*
Y310000D01*
X7816299D01*
Y290000D01*
D02*
G37*
G36*
X7716299D02*
X7696299D01*
Y310000D01*
X7716299D01*
Y290000D01*
D02*
G37*
G36*
X7616299D02*
X7596299D01*
Y310000D01*
X7616299D01*
Y290000D01*
D02*
G37*
G36*
X6816299D02*
X6796299D01*
Y310000D01*
X6816299D01*
Y290000D01*
D02*
G37*
G36*
X6716299D02*
X6696299D01*
Y310000D01*
X6716299D01*
Y290000D01*
D02*
G37*
G36*
X6616299D02*
X6596299D01*
Y310000D01*
X6616299D01*
Y290000D01*
D02*
G37*
G36*
X6516299D02*
X6496299D01*
Y310000D01*
X6516299D01*
Y290000D01*
D02*
G37*
G36*
X6416299D02*
X6396299D01*
Y310000D01*
X6416299D01*
Y290000D01*
D02*
G37*
G36*
X6316299D02*
X6296299D01*
Y310000D01*
X6316299D01*
Y290000D01*
D02*
G37*
G36*
X6216299D02*
X6196299D01*
Y310000D01*
X6216299D01*
Y290000D01*
D02*
G37*
G36*
X6116299D02*
X6096299D01*
Y310000D01*
X6116299D01*
Y290000D01*
D02*
G37*
G36*
X6016299D02*
X5996299D01*
Y310000D01*
X6016299D01*
Y290000D01*
D02*
G37*
G36*
X5916299D02*
X5896299D01*
Y310000D01*
X5916299D01*
Y290000D01*
D02*
G37*
G36*
X5816299D02*
X5796299D01*
Y310000D01*
X5816299D01*
Y290000D01*
D02*
G37*
G36*
X5716299D02*
X5696299D01*
Y310000D01*
X5716299D01*
Y290000D01*
D02*
G37*
G36*
X5616299D02*
X5596299D01*
Y310000D01*
X5616299D01*
Y290000D01*
D02*
G37*
G36*
X5516299D02*
X5496299D01*
Y310000D01*
X5516299D01*
Y290000D01*
D02*
G37*
G36*
X5416299D02*
X5396299D01*
Y310000D01*
X5416299D01*
Y290000D01*
D02*
G37*
G36*
X5316299D02*
X5296299D01*
Y310000D01*
X5316299D01*
Y290000D01*
D02*
G37*
G36*
X5216299D02*
X5196299D01*
Y310000D01*
X5216299D01*
Y290000D01*
D02*
G37*
G36*
X5116299D02*
X5096299D01*
Y310000D01*
X5116299D01*
Y290000D01*
D02*
G37*
G36*
X12846299Y3470000D02*
X12826299D01*
Y3490000D01*
X12846299D01*
Y3470000D01*
D02*
G37*
G36*
X12746299D02*
X12726299D01*
Y3490000D01*
X12746299D01*
Y3470000D01*
D02*
G37*
G36*
X12846299Y3370000D02*
X12826299D01*
Y3390000D01*
X12846299D01*
Y3370000D01*
D02*
G37*
G36*
X12746299D02*
X12726299D01*
Y3390000D01*
X12746299D01*
Y3370000D01*
D02*
G37*
G36*
X12616299Y3350000D02*
X12596299D01*
Y3370000D01*
X12616299D01*
Y3350000D01*
D02*
G37*
G36*
X12846299Y3270000D02*
X12826299D01*
Y3290000D01*
X12846299D01*
Y3270000D01*
D02*
G37*
G36*
X12746299D02*
X12726299D01*
Y3290000D01*
X12746299D01*
Y3270000D01*
D02*
G37*
G36*
X12616299Y3250000D02*
X12596299D01*
Y3270000D01*
X12616299D01*
Y3250000D01*
D02*
G37*
G36*
Y3150000D02*
X12596299D01*
Y3170000D01*
X12616299D01*
Y3150000D01*
D02*
G37*
G36*
Y3050000D02*
X12596299D01*
Y3070000D01*
X12616299D01*
Y3050000D01*
D02*
G37*
G36*
X14516299Y2990000D02*
X14496299D01*
Y3010000D01*
X14516299D01*
Y2990000D01*
D02*
G37*
G36*
X9516299D02*
X9496299D01*
Y3010000D01*
X9516299D01*
Y2990000D01*
D02*
G37*
G36*
X12616299Y2950000D02*
X12596299D01*
Y2970000D01*
X12616299D01*
Y2950000D01*
D02*
G37*
G36*
X14516299Y2890000D02*
X14496299D01*
Y2910000D01*
X14516299D01*
Y2890000D01*
D02*
G37*
G36*
X9516299D02*
X9496299D01*
Y2910000D01*
X9516299D01*
Y2890000D01*
D02*
G37*
G36*
X12616299Y2850000D02*
X12596299D01*
Y2870000D01*
X12616299D01*
Y2850000D01*
D02*
G37*
G36*
X14516299Y2790000D02*
X14496299D01*
Y2810000D01*
X14516299D01*
Y2790000D01*
D02*
G37*
G36*
X9516299D02*
X9496299D01*
Y2810000D01*
X9516299D01*
Y2790000D01*
D02*
G37*
G36*
X12616299Y2750000D02*
X12596299D01*
Y2770000D01*
X12616299D01*
Y2750000D01*
D02*
G37*
G36*
X14516299Y2690000D02*
X14496299D01*
Y2710000D01*
X14516299D01*
Y2690000D01*
D02*
G37*
G36*
X9516299D02*
X9496299D01*
Y2710000D01*
X9516299D01*
Y2690000D01*
D02*
G37*
G36*
X12616299Y2650000D02*
X12596299D01*
Y2670000D01*
X12616299D01*
Y2650000D01*
D02*
G37*
G36*
X14516299Y2590000D02*
X14496299D01*
Y2610000D01*
X14516299D01*
Y2590000D01*
D02*
G37*
G36*
X9516299D02*
X9496299D01*
Y2610000D01*
X9516299D01*
Y2590000D01*
D02*
G37*
G36*
X12616299Y2550000D02*
X12596299D01*
Y2570000D01*
X12616299D01*
Y2550000D01*
D02*
G37*
G36*
X14516299Y2490000D02*
X14496299D01*
Y2510000D01*
X14516299D01*
Y2490000D01*
D02*
G37*
G36*
X9516299D02*
X9496299D01*
Y2510000D01*
X9516299D01*
Y2490000D01*
D02*
G37*
G36*
X12616299Y2450000D02*
X12596299D01*
Y2470000D01*
X12616299D01*
Y2450000D01*
D02*
G37*
G36*
X14516299Y2390000D02*
X14496299D01*
Y2410000D01*
X14516299D01*
Y2390000D01*
D02*
G37*
G36*
X9516299D02*
X9496299D01*
Y2410000D01*
X9516299D01*
Y2390000D01*
D02*
G37*
G36*
X14516299Y2290000D02*
X14496299D01*
Y2310000D01*
X14516299D01*
Y2290000D01*
D02*
G37*
G36*
X12616299D02*
X12596299D01*
Y2310000D01*
X12616299D01*
Y2290000D01*
D02*
G37*
G36*
X9516299D02*
X9496299D01*
Y2310000D01*
X9516299D01*
Y2290000D01*
D02*
G37*
G36*
X12616299Y2190000D02*
X12596299D01*
Y2210000D01*
X12616299D01*
Y2190000D01*
D02*
G37*
G36*
X14516299Y2090000D02*
X14496299D01*
Y2110000D01*
X14516299D01*
Y2090000D01*
D02*
G37*
G36*
X12616299D02*
X12596299D01*
Y2110000D01*
X12616299D01*
Y2090000D01*
D02*
G37*
G36*
X9516299D02*
X9496299D01*
Y2110000D01*
X9516299D01*
Y2090000D01*
D02*
G37*
G36*
X14516299Y1990000D02*
X14496299D01*
Y2010000D01*
X14516299D01*
Y1990000D01*
D02*
G37*
G36*
X12616299D02*
X12596299D01*
Y2010000D01*
X12616299D01*
Y1990000D01*
D02*
G37*
G36*
X9516299D02*
X9496299D01*
Y2010000D01*
X9516299D01*
Y1990000D01*
D02*
G37*
G36*
X14516299Y1890000D02*
X14496299D01*
Y1910000D01*
X14516299D01*
Y1890000D01*
D02*
G37*
G36*
X12616299D02*
X12596299D01*
Y1910000D01*
X12616299D01*
Y1890000D01*
D02*
G37*
G36*
X9516299D02*
X9496299D01*
Y1910000D01*
X9516299D01*
Y1890000D01*
D02*
G37*
G36*
X14516299Y1790000D02*
X14496299D01*
Y1810000D01*
X14516299D01*
Y1790000D01*
D02*
G37*
G36*
X12616299D02*
X12596299D01*
Y1810000D01*
X12616299D01*
Y1790000D01*
D02*
G37*
G36*
X9516299D02*
X9496299D01*
Y1810000D01*
X9516299D01*
Y1790000D01*
D02*
G37*
G36*
X14516299Y1690000D02*
X14496299D01*
Y1710000D01*
X14516299D01*
Y1690000D01*
D02*
G37*
G36*
X12616299D02*
X12596299D01*
Y1710000D01*
X12616299D01*
Y1690000D01*
D02*
G37*
G36*
X9516299D02*
X9496299D01*
Y1710000D01*
X9516299D01*
Y1690000D01*
D02*
G37*
G36*
X14516299Y1590000D02*
X14496299D01*
Y1610000D01*
X14516299D01*
Y1590000D01*
D02*
G37*
G36*
X12616299D02*
X12596299D01*
Y1610000D01*
X12616299D01*
Y1590000D01*
D02*
G37*
G36*
X9516299D02*
X9496299D01*
Y1610000D01*
X9516299D01*
Y1590000D01*
D02*
G37*
G36*
X13616299Y1585000D02*
X13596299D01*
Y1605000D01*
X13616299D01*
Y1585000D01*
D02*
G37*
G36*
X13516299D02*
X13496299D01*
Y1605000D01*
X13516299D01*
Y1585000D01*
D02*
G37*
G36*
X13416299D02*
X13396299D01*
Y1605000D01*
X13416299D01*
Y1585000D01*
D02*
G37*
G36*
X8616299D02*
X8596299D01*
Y1605000D01*
X8616299D01*
Y1585000D01*
D02*
G37*
G36*
X8516299D02*
X8496299D01*
Y1605000D01*
X8516299D01*
Y1585000D01*
D02*
G37*
G36*
X8416299D02*
X8396299D01*
Y1605000D01*
X8416299D01*
Y1585000D01*
D02*
G37*
G36*
X14516299Y1490000D02*
X14496299D01*
Y1510000D01*
X14516299D01*
Y1490000D01*
D02*
G37*
G36*
X9516299D02*
X9496299D01*
Y1510000D01*
X9516299D01*
Y1490000D01*
D02*
G37*
G36*
X13616299Y1485000D02*
X13596299D01*
Y1505000D01*
X13616299D01*
Y1485000D01*
D02*
G37*
G36*
X13516299D02*
X13496299D01*
Y1505000D01*
X13516299D01*
Y1485000D01*
D02*
G37*
G36*
X13416299D02*
X13396299D01*
Y1505000D01*
X13416299D01*
Y1485000D01*
D02*
G37*
G36*
X8616299D02*
X8596299D01*
Y1505000D01*
X8616299D01*
Y1485000D01*
D02*
G37*
G36*
X8516299D02*
X8496299D01*
Y1505000D01*
X8516299D01*
Y1485000D01*
D02*
G37*
G36*
X8416299D02*
X8396299D01*
Y1505000D01*
X8416299D01*
Y1485000D01*
D02*
G37*
G36*
X14516299Y1390000D02*
X14496299D01*
Y1410000D01*
X14516299D01*
Y1390000D01*
D02*
G37*
G36*
X12616299D02*
X12596299D01*
Y1410000D01*
X12616299D01*
Y1390000D01*
D02*
G37*
G36*
X9516299D02*
X9496299D01*
Y1410000D01*
X9516299D01*
Y1390000D01*
D02*
G37*
G36*
X12616299Y1290000D02*
X12596299D01*
Y1310000D01*
X12616299D01*
Y1290000D01*
D02*
G37*
G36*
X14516299Y1190000D02*
X14496299D01*
Y1210000D01*
X14516299D01*
Y1190000D01*
D02*
G37*
G36*
X12616299D02*
X12596299D01*
Y1210000D01*
X12616299D01*
Y1190000D01*
D02*
G37*
G36*
X9516299D02*
X9496299D01*
Y1210000D01*
X9516299D01*
Y1190000D01*
D02*
G37*
G36*
X14516299Y1090000D02*
X14496299D01*
Y1110000D01*
X14516299D01*
Y1090000D01*
D02*
G37*
G36*
X12616299D02*
X12596299D01*
Y1110000D01*
X12616299D01*
Y1090000D01*
D02*
G37*
G36*
X9516299D02*
X9496299D01*
Y1110000D01*
X9516299D01*
Y1090000D01*
D02*
G37*
G36*
X14516299Y990000D02*
X14496299D01*
Y1010000D01*
X14516299D01*
Y990000D01*
D02*
G37*
G36*
X12616299D02*
X12596299D01*
Y1010000D01*
X12616299D01*
Y990000D01*
D02*
G37*
G36*
X9516299D02*
X9496299D01*
Y1010000D01*
X9516299D01*
Y990000D01*
D02*
G37*
G36*
X14516299Y890000D02*
X14496299D01*
Y910000D01*
X14516299D01*
Y890000D01*
D02*
G37*
G36*
X12616299D02*
X12596299D01*
Y910000D01*
X12616299D01*
Y890000D01*
D02*
G37*
G36*
X9516299D02*
X9496299D01*
Y910000D01*
X9516299D01*
Y890000D01*
D02*
G37*
G36*
X14516299Y790000D02*
X14496299D01*
Y810000D01*
X14516299D01*
Y790000D01*
D02*
G37*
G36*
X12616299D02*
X12596299D01*
Y810000D01*
X12616299D01*
Y790000D01*
D02*
G37*
G36*
X9516299D02*
X9496299D01*
Y810000D01*
X9516299D01*
Y790000D01*
D02*
G37*
G36*
X14516299Y690000D02*
X14496299D01*
Y710000D01*
X14516299D01*
Y690000D01*
D02*
G37*
G36*
X12616299D02*
X12596299D01*
Y710000D01*
X12616299D01*
Y690000D01*
D02*
G37*
G36*
X9516299D02*
X9496299D01*
Y710000D01*
X9516299D01*
Y690000D01*
D02*
G37*
G36*
X14516299Y590000D02*
X14496299D01*
Y610000D01*
X14516299D01*
Y590000D01*
D02*
G37*
G36*
X9516299D02*
X9496299D01*
Y610000D01*
X9516299D01*
Y590000D01*
D02*
G37*
G36*
X14516299Y490000D02*
X14496299D01*
Y510000D01*
X14516299D01*
Y490000D01*
D02*
G37*
G36*
X9516299D02*
X9496299D01*
Y510000D01*
X9516299D01*
Y490000D01*
D02*
G37*
G36*
X14316299Y390000D02*
X14296299D01*
Y410000D01*
X14316299D01*
Y390000D01*
D02*
G37*
G36*
X14216299D02*
X14196299D01*
Y410000D01*
X14216299D01*
Y390000D01*
D02*
G37*
G36*
X14116299D02*
X14096299D01*
Y410000D01*
X14116299D01*
Y390000D01*
D02*
G37*
G36*
X14016299D02*
X13996299D01*
Y410000D01*
X14016299D01*
Y390000D01*
D02*
G37*
G36*
X13916299D02*
X13896299D01*
Y410000D01*
X13916299D01*
Y390000D01*
D02*
G37*
G36*
X13816299D02*
X13796299D01*
Y410000D01*
X13816299D01*
Y390000D01*
D02*
G37*
G36*
X13716299D02*
X13696299D01*
Y410000D01*
X13716299D01*
Y390000D01*
D02*
G37*
G36*
X13616299D02*
X13596299D01*
Y410000D01*
X13616299D01*
Y390000D01*
D02*
G37*
G36*
X13516299D02*
X13496299D01*
Y410000D01*
X13516299D01*
Y390000D01*
D02*
G37*
G36*
X13416299D02*
X13396299D01*
Y410000D01*
X13416299D01*
Y390000D01*
D02*
G37*
G36*
X13316299D02*
X13296299D01*
Y410000D01*
X13316299D01*
Y390000D01*
D02*
G37*
G36*
X13216299D02*
X13196299D01*
Y410000D01*
X13216299D01*
Y390000D01*
D02*
G37*
G36*
X13116299D02*
X13096299D01*
Y410000D01*
X13116299D01*
Y390000D01*
D02*
G37*
G36*
X13016299D02*
X12996299D01*
Y410000D01*
X13016299D01*
Y390000D01*
D02*
G37*
G36*
X12916299D02*
X12896299D01*
Y410000D01*
X12916299D01*
Y390000D01*
D02*
G37*
G36*
X12816299D02*
X12796299D01*
Y410000D01*
X12816299D01*
Y390000D01*
D02*
G37*
G36*
X12716299D02*
X12696299D01*
Y410000D01*
X12716299D01*
Y390000D01*
D02*
G37*
G36*
X12616299D02*
X12596299D01*
Y410000D01*
X12616299D01*
Y390000D01*
D02*
G37*
G36*
X9316299D02*
X9296299D01*
Y410000D01*
X9316299D01*
Y390000D01*
D02*
G37*
G36*
X9216299D02*
X9196299D01*
Y410000D01*
X9216299D01*
Y390000D01*
D02*
G37*
G36*
X9116299D02*
X9096299D01*
Y410000D01*
X9116299D01*
Y390000D01*
D02*
G37*
G36*
X9016299D02*
X8996299D01*
Y410000D01*
X9016299D01*
Y390000D01*
D02*
G37*
G36*
X8916299D02*
X8896299D01*
Y410000D01*
X8916299D01*
Y390000D01*
D02*
G37*
G36*
X8816299D02*
X8796299D01*
Y410000D01*
X8816299D01*
Y390000D01*
D02*
G37*
G36*
X8716299D02*
X8696299D01*
Y410000D01*
X8716299D01*
Y390000D01*
D02*
G37*
G36*
X8616299D02*
X8596299D01*
Y410000D01*
X8616299D01*
Y390000D01*
D02*
G37*
G36*
X8516299D02*
X8496299D01*
Y410000D01*
X8516299D01*
Y390000D01*
D02*
G37*
G36*
X8416299D02*
X8396299D01*
Y410000D01*
X8416299D01*
Y390000D01*
D02*
G37*
G36*
X8316299D02*
X8296299D01*
Y410000D01*
X8316299D01*
Y390000D01*
D02*
G37*
G36*
X8216299D02*
X8196299D01*
Y410000D01*
X8216299D01*
Y390000D01*
D02*
G37*
G36*
X8116299D02*
X8096299D01*
Y410000D01*
X8116299D01*
Y390000D01*
D02*
G37*
G36*
X8016299D02*
X7996299D01*
Y410000D01*
X8016299D01*
Y390000D01*
D02*
G37*
G36*
X14316299Y290000D02*
X14296299D01*
Y310000D01*
X14316299D01*
Y290000D01*
D02*
G37*
G36*
X14216299D02*
X14196299D01*
Y310000D01*
X14216299D01*
Y290000D01*
D02*
G37*
G36*
X14116299D02*
X14096299D01*
Y310000D01*
X14116299D01*
Y290000D01*
D02*
G37*
G36*
X14016299D02*
X13996299D01*
Y310000D01*
X14016299D01*
Y290000D01*
D02*
G37*
G36*
X13916299D02*
X13896299D01*
Y310000D01*
X13916299D01*
Y290000D01*
D02*
G37*
G36*
X13816299D02*
X13796299D01*
Y310000D01*
X13816299D01*
Y290000D01*
D02*
G37*
G36*
X13716299D02*
X13696299D01*
Y310000D01*
X13716299D01*
Y290000D01*
D02*
G37*
G36*
X13616299D02*
X13596299D01*
Y310000D01*
X13616299D01*
Y290000D01*
D02*
G37*
G36*
X13516299D02*
X13496299D01*
Y310000D01*
X13516299D01*
Y290000D01*
D02*
G37*
G36*
X13416299D02*
X13396299D01*
Y310000D01*
X13416299D01*
Y290000D01*
D02*
G37*
G36*
X13316299D02*
X13296299D01*
Y310000D01*
X13316299D01*
Y290000D01*
D02*
G37*
G36*
X13216299D02*
X13196299D01*
Y310000D01*
X13216299D01*
Y290000D01*
D02*
G37*
G36*
X13116299D02*
X13096299D01*
Y310000D01*
X13116299D01*
Y290000D01*
D02*
G37*
G36*
X13016299D02*
X12996299D01*
Y310000D01*
X13016299D01*
Y290000D01*
D02*
G37*
G36*
X12916299D02*
X12896299D01*
Y310000D01*
X12916299D01*
Y290000D01*
D02*
G37*
G36*
X12816299D02*
X12796299D01*
Y310000D01*
X12816299D01*
Y290000D01*
D02*
G37*
G36*
X12716299D02*
X12696299D01*
Y310000D01*
X12716299D01*
Y290000D01*
D02*
G37*
G36*
X12616299D02*
X12596299D01*
Y310000D01*
X12616299D01*
Y290000D01*
D02*
G37*
G36*
X9316299D02*
X9296299D01*
Y310000D01*
X9316299D01*
Y290000D01*
D02*
G37*
G36*
X9216299D02*
X9196299D01*
Y310000D01*
X9216299D01*
Y290000D01*
D02*
G37*
G36*
X9116299D02*
X9096299D01*
Y310000D01*
X9116299D01*
Y290000D01*
D02*
G37*
G36*
X9016299D02*
X8996299D01*
Y310000D01*
X9016299D01*
Y290000D01*
D02*
G37*
G36*
X8916299D02*
X8896299D01*
Y310000D01*
X8916299D01*
Y290000D01*
D02*
G37*
G36*
X8816299D02*
X8796299D01*
Y310000D01*
X8816299D01*
Y290000D01*
D02*
G37*
G36*
X8716299D02*
X8696299D01*
Y310000D01*
X8716299D01*
Y290000D01*
D02*
G37*
G36*
X8616299D02*
X8596299D01*
Y310000D01*
X8616299D01*
Y290000D01*
D02*
G37*
G36*
X8516299D02*
X8496299D01*
Y310000D01*
X8516299D01*
Y290000D01*
D02*
G37*
G36*
X8416299D02*
X8396299D01*
Y310000D01*
X8416299D01*
Y290000D01*
D02*
G37*
G36*
X8316299D02*
X8296299D01*
Y310000D01*
X8316299D01*
Y290000D01*
D02*
G37*
G36*
X8216299D02*
X8196299D01*
Y310000D01*
X8216299D01*
Y290000D01*
D02*
G37*
G36*
X8116299D02*
X8096299D01*
Y310000D01*
X8116299D01*
Y290000D01*
D02*
G37*
G36*
X8016299D02*
X7996299D01*
Y310000D01*
X8016299D01*
Y290000D01*
D02*
G37*
D83*
X13099987Y179977D02*
X13089990Y189974D01*
X13069997D01*
X13060000Y179977D01*
Y169981D01*
X13069997Y159984D01*
X13089990D01*
X13099987Y149987D01*
Y139990D01*
X13089990Y129994D01*
X13069997D01*
X13060000Y139990D01*
X13129977Y179977D02*
Y169981D01*
X13119981D01*
X13139974D01*
X13129977D01*
Y139990D01*
X13139974Y129994D01*
X13169964Y169981D02*
Y129994D01*
Y149987D01*
X13179961Y159984D01*
X13189958Y169981D01*
X13199955D01*
X13229945Y129994D02*
X13249939D01*
X13239942D01*
Y169981D01*
X13229945D01*
X13279929Y129994D02*
Y169981D01*
X13309919D01*
X13319916Y159984D01*
Y129994D01*
X13359903Y110000D02*
X13369900D01*
X13379897Y119997D01*
Y169981D01*
X13349906D01*
X13339909Y159984D01*
Y139990D01*
X13349906Y129994D01*
X13379897D01*
%TF.MD5,fce024259075d5f11722a0f74d9aad5b*%
M02*
