M48
;Layer_Color=9474304
;FILE_FORMAT=2:5
INCH,LZ
;TYPE=NON_PLATED
T18F00S00C0.08110
T19F00S00C0.09055
T20F00S00C0.12598
T21F00S00C0.13000
T22F00S00C0.15000
%
T18
X0129213Y0262402
Y0317402
X0219213
Y0262402
X1702402Y0255787
Y0350787
X0219213Y0372402
X0129213
X1313213Y0716402
T19
X1685039Y0174134
Y0225866
T20
X070063Y003
X095063
X145063
X143063Y015
X132063
X126063Y0055
X093063Y015
X082063
X068063
X076063Y0055
X051063
X057063Y015
X145063Y0355
X126063Y035
X095063Y0355
X076063Y035
X070063Y0355
X051063Y035
T21
X066Y05
X077
Y064
X066
T22
X0455Y054
Y0619
M30
