G04*
G04 #@! TF.GenerationSoftware,Altium Limited,Altium Designer,21.6.4 (81)*
G04*
G04 Layer_Color=16711935*
%FSLAX25Y25*%
%MOIN*%
G70*
G04*
G04 #@! TF.SameCoordinates,CD5F86C8-859A-4174-9CB5-FF9077504482*
G04*
G04*
G04 #@! TF.FilePolarity,Negative*
G04*
G01*
G75*
%ADD56R,0.06306X0.06306*%
G04:AMPARAMS|DCode=60|XSize=59mil|YSize=47mil|CornerRadius=9.96mil|HoleSize=0mil|Usage=FLASHONLY|Rotation=90.000|XOffset=0mil|YOffset=0mil|HoleType=Round|Shape=RoundedRectangle|*
%AMROUNDEDRECTD60*
21,1,0.05900,0.02709,0,0,90.0*
21,1,0.03909,0.04700,0,0,90.0*
1,1,0.01991,0.01355,0.01955*
1,1,0.01991,0.01355,-0.01955*
1,1,0.01991,-0.01355,-0.01955*
1,1,0.01991,-0.01355,0.01955*
%
%ADD60ROUNDEDRECTD60*%
G04:AMPARAMS|DCode=65|XSize=59mil|YSize=47mil|CornerRadius=9.96mil|HoleSize=0mil|Usage=FLASHONLY|Rotation=180.000|XOffset=0mil|YOffset=0mil|HoleType=Round|Shape=RoundedRectangle|*
%AMROUNDEDRECTD65*
21,1,0.05900,0.02709,0,0,180.0*
21,1,0.03909,0.04700,0,0,180.0*
1,1,0.01991,-0.01955,0.01355*
1,1,0.01991,0.01955,0.01355*
1,1,0.01991,0.01955,-0.01355*
1,1,0.01991,-0.01955,-0.01355*
%
%ADD65ROUNDEDRECTD65*%
%ADD66R,0.04731X0.03943*%
%ADD67C,0.06400*%
%ADD68R,0.06400X0.06400*%
%ADD69C,0.08510*%
%ADD70C,0.07900*%
%ADD71R,0.07900X0.07900*%
%ADD72C,0.24022*%
%ADD73C,0.05124*%
%ADD74C,0.09455*%
%ADD75C,0.06022*%
%ADD76R,0.06022X0.06022*%
%ADD77C,0.07000*%
%ADD78R,0.07000X0.07000*%
%ADD79C,0.24961*%
%ADD80C,0.12211*%
%ADD81R,0.06699X0.06699*%
%ADD82C,0.06699*%
%ADD83C,0.06306*%
%ADD84C,0.07800*%
%ADD85C,0.13400*%
%ADD86C,0.06000*%
G04:AMPARAMS|DCode=87|XSize=41.34mil|YSize=64.96mil|CornerRadius=20.67mil|HoleSize=0mil|Usage=FLASHONLY|Rotation=270.000|XOffset=0mil|YOffset=0mil|HoleType=Round|Shape=RoundedRectangle|*
%AMROUNDEDRECTD87*
21,1,0.04134,0.02362,0,0,270.0*
21,1,0.00000,0.06496,0,0,270.0*
1,1,0.04134,-0.01181,0.00000*
1,1,0.04134,-0.01181,0.00000*
1,1,0.04134,0.01181,0.00000*
1,1,0.04134,0.01181,0.00000*
%
%ADD87ROUNDEDRECTD87*%
G04:AMPARAMS|DCode=88|XSize=53.15mil|YSize=41.34mil|CornerRadius=20.67mil|HoleSize=0mil|Usage=FLASHONLY|Rotation=270.000|XOffset=0mil|YOffset=0mil|HoleType=Round|Shape=RoundedRectangle|*
%AMROUNDEDRECTD88*
21,1,0.05315,0.00000,0,0,270.0*
21,1,0.01181,0.04134,0,0,270.0*
1,1,0.04134,0.00000,-0.00591*
1,1,0.04134,0.00000,0.00591*
1,1,0.04134,0.00000,0.00591*
1,1,0.04134,0.00000,-0.00591*
%
%ADD88ROUNDEDRECTD88*%
%ADD89O,0.09360X0.06000*%
%ADD90C,0.12998*%
%ADD91P,0.07577X8X22.5*%
%ADD92P,0.07038X8X112.5*%
%ADD93P,0.07038X8X22.5*%
%ADD94R,0.06699X0.14179*%
%ADD95R,0.09061X0.17723*%
%ADD96C,0.14179*%
%ADD97R,0.14179X0.07408*%
%ADD98R,0.14179X0.06699*%
%ADD99R,0.17723X0.09061*%
%ADD100R,0.06699X0.06699*%
%ADD101R,0.06400X0.06400*%
%ADD102R,0.07408X0.14179*%
%ADD103R,0.07900X0.07900*%
%ADD104C,0.15400*%
%ADD105C,0.02400*%
%ADD106C,0.05400*%
%ADD107C,0.04400*%
D56*
X410000Y625000D02*
D03*
D60*
X316450Y565000D02*
D03*
X323550D02*
D03*
Y575000D02*
D03*
X316450D02*
D03*
X126450Y540000D02*
D03*
X133550D02*
D03*
X316450Y555000D02*
D03*
X323550D02*
D03*
Y545000D02*
D03*
X316450D02*
D03*
X133550Y565000D02*
D03*
X126450D02*
D03*
Y575000D02*
D03*
X133550D02*
D03*
X1491450Y45000D02*
D03*
X1498550D02*
D03*
X1521450Y45001D02*
D03*
X1528550D02*
D03*
X1551450Y45000D02*
D03*
X1558550D02*
D03*
X1581450D02*
D03*
X1588550D02*
D03*
X1611450Y45000D02*
D03*
X1618550D02*
D03*
X1642821Y45000D02*
D03*
X1649921D02*
D03*
D65*
X1280000Y643550D02*
D03*
Y636450D02*
D03*
X1683000Y525450D02*
D03*
Y532550D02*
D03*
X1653000Y535450D02*
D03*
Y542550D02*
D03*
X1663000D02*
D03*
Y535450D02*
D03*
X1670000Y301451D02*
D03*
Y308551D02*
D03*
X1670000Y396450D02*
D03*
Y403550D02*
D03*
X1545000Y376450D02*
D03*
Y383550D02*
D03*
X1500000Y376450D02*
D03*
Y383550D02*
D03*
X1144000Y712550D02*
D03*
Y705450D02*
D03*
Y691100D02*
D03*
Y684000D02*
D03*
X1500000Y431450D02*
D03*
Y438550D02*
D03*
Y446450D02*
D03*
Y453550D02*
D03*
X1545000Y431450D02*
D03*
Y438550D02*
D03*
Y446450D02*
D03*
Y453550D02*
D03*
X1355039Y658550D02*
D03*
Y651450D02*
D03*
X1415000D02*
D03*
Y658550D02*
D03*
X1230000Y646450D02*
D03*
Y653550D02*
D03*
X1290000Y646450D02*
D03*
Y653550D02*
D03*
X1250000Y643550D02*
D03*
Y636450D02*
D03*
X1310000Y643550D02*
D03*
Y636450D02*
D03*
X1320000Y646450D02*
D03*
Y653550D02*
D03*
X1260000Y646450D02*
D03*
Y653550D02*
D03*
X1340000Y643550D02*
D03*
Y636450D02*
D03*
D66*
X209803Y635000D02*
D03*
Y645000D02*
D03*
X185000Y635000D02*
D03*
Y645000D02*
D03*
X1543000Y504000D02*
D03*
Y514000D02*
D03*
X1518197Y504000D02*
D03*
Y514000D02*
D03*
X1542803Y549000D02*
D03*
Y559000D02*
D03*
X1518000Y549000D02*
D03*
Y559000D02*
D03*
X1542803Y584000D02*
D03*
Y594000D02*
D03*
X1518000Y584000D02*
D03*
Y594000D02*
D03*
X185197Y495000D02*
D03*
Y485000D02*
D03*
X210000Y495000D02*
D03*
Y485000D02*
D03*
D67*
X365000Y250000D02*
D03*
X355000D02*
D03*
X345000D02*
D03*
X57500Y480000D02*
D03*
Y490000D02*
D03*
Y500000D02*
D03*
Y645000D02*
D03*
Y635000D02*
D03*
Y625000D02*
D03*
X345000Y185000D02*
D03*
X335000D02*
D03*
X325000D02*
D03*
X85000D02*
D03*
X95000D02*
D03*
X105000D02*
D03*
X145000D02*
D03*
X155000D02*
D03*
X165000D02*
D03*
X205000D02*
D03*
X215000D02*
D03*
X225000D02*
D03*
X265000D02*
D03*
X275000D02*
D03*
X285000D02*
D03*
X325000Y135000D02*
D03*
X335000D02*
D03*
X345000D02*
D03*
X105000Y35000D02*
D03*
X95000D02*
D03*
X85000D02*
D03*
X165000D02*
D03*
X155000D02*
D03*
X145000D02*
D03*
X225000D02*
D03*
X215000D02*
D03*
X205000D02*
D03*
X285000D02*
D03*
X275000D02*
D03*
X265000D02*
D03*
X85000Y135000D02*
D03*
X95000D02*
D03*
X105000D02*
D03*
X85000Y85000D02*
D03*
X95000D02*
D03*
X105000D02*
D03*
X325000Y35000D02*
D03*
X335000D02*
D03*
X345000D02*
D03*
X325000Y85000D02*
D03*
X335000D02*
D03*
X345000D02*
D03*
X745000Y680000D02*
D03*
X755000D02*
D03*
X765000D02*
D03*
X270000Y250000D02*
D03*
X280000D02*
D03*
X290000D02*
D03*
X270000Y305000D02*
D03*
X280000D02*
D03*
X290000D02*
D03*
X270000Y360000D02*
D03*
X280000D02*
D03*
X290000D02*
D03*
X365000D02*
D03*
X355000D02*
D03*
X345000D02*
D03*
X365000Y305000D02*
D03*
X355000D02*
D03*
X345000D02*
D03*
X1560000Y255000D02*
D03*
Y265000D02*
D03*
Y275000D02*
D03*
D68*
X335000Y250000D02*
D03*
X315000Y185000D02*
D03*
X75000D02*
D03*
X135000D02*
D03*
X195000D02*
D03*
X255000D02*
D03*
X315000Y135000D02*
D03*
X75000Y35000D02*
D03*
X135000D02*
D03*
X195000D02*
D03*
X255000D02*
D03*
X75000Y135000D02*
D03*
Y85000D02*
D03*
X315000Y35000D02*
D03*
Y85000D02*
D03*
X735000Y680000D02*
D03*
X260000Y250000D02*
D03*
Y305000D02*
D03*
Y360000D02*
D03*
X335000D02*
D03*
Y305000D02*
D03*
D69*
X129213Y317402D02*
D03*
X1702402Y255787D02*
D03*
Y350787D02*
D03*
X129213Y372402D02*
D03*
Y262402D02*
D03*
X219213Y372402D02*
D03*
Y262402D02*
D03*
X1313213Y716402D02*
D03*
X219213Y317402D02*
D03*
D70*
X125000Y305000D02*
D03*
X115000D02*
D03*
X105000D02*
D03*
X95000D02*
D03*
X85000D02*
D03*
X1690000Y300000D02*
D03*
Y290000D02*
D03*
Y280000D02*
D03*
Y270000D02*
D03*
Y260000D02*
D03*
Y355000D02*
D03*
Y365000D02*
D03*
Y375000D02*
D03*
Y385000D02*
D03*
Y395000D02*
D03*
X85000Y360000D02*
D03*
X95000D02*
D03*
X105000D02*
D03*
X115000D02*
D03*
X125000D02*
D03*
X85000Y250000D02*
D03*
X95000D02*
D03*
X105000D02*
D03*
X115000D02*
D03*
X125000D02*
D03*
X215000Y360000D02*
D03*
X205000D02*
D03*
X195000D02*
D03*
X185000D02*
D03*
X175000D02*
D03*
Y250000D02*
D03*
X185000D02*
D03*
X195000D02*
D03*
X205000D02*
D03*
X215000D02*
D03*
X1309000Y704000D02*
D03*
X1299000D02*
D03*
X1289000D02*
D03*
X1279000D02*
D03*
X1269000D02*
D03*
X175000Y305000D02*
D03*
X185000D02*
D03*
X195000D02*
D03*
X205000D02*
D03*
X215000D02*
D03*
D71*
X75000D02*
D03*
Y360000D02*
D03*
Y250000D02*
D03*
X165000Y360000D02*
D03*
Y250000D02*
D03*
X1259000Y704000D02*
D03*
X165000Y305000D02*
D03*
D72*
X1200000Y40000D02*
D03*
Y268347D02*
D03*
X1007087Y40000D02*
D03*
Y268347D02*
D03*
D73*
X1014000Y624000D02*
D03*
Y654000D02*
D03*
X1029000Y624000D02*
D03*
Y654000D02*
D03*
X904000Y624000D02*
D03*
Y654000D02*
D03*
X889000Y624000D02*
D03*
Y654000D02*
D03*
D74*
X1685039Y225866D02*
D03*
Y174134D02*
D03*
D75*
X1674370Y213779D02*
D03*
Y203937D02*
D03*
Y196063D02*
D03*
D76*
Y186221D02*
D03*
D77*
X1059000Y574000D02*
D03*
X1054000Y594000D02*
D03*
X1049000Y574000D02*
D03*
X1044000Y594000D02*
D03*
X1039000Y574000D02*
D03*
X1034000Y594000D02*
D03*
X1029000Y574000D02*
D03*
X1024000Y594000D02*
D03*
X1019000Y574000D02*
D03*
X1014000Y594000D02*
D03*
X1009000Y574000D02*
D03*
X1004000Y594000D02*
D03*
X999000Y574000D02*
D03*
X994000Y594000D02*
D03*
X934000Y574000D02*
D03*
X929000Y594000D02*
D03*
X924000Y574000D02*
D03*
X919000Y594000D02*
D03*
X914000Y574000D02*
D03*
X909000Y594000D02*
D03*
X904000Y574000D02*
D03*
X899000Y594000D02*
D03*
X894000Y574000D02*
D03*
X889000Y594000D02*
D03*
X884000Y574000D02*
D03*
X879000Y594000D02*
D03*
X874000Y574000D02*
D03*
X869000Y594000D02*
D03*
D78*
X989000Y574000D02*
D03*
X864000D02*
D03*
D79*
X30000Y30000D02*
D03*
Y720000D02*
D03*
X1695000Y722000D02*
D03*
Y30000D02*
D03*
D80*
X553465Y696654D02*
D03*
X570000D02*
D03*
Y675000D02*
D03*
X553465D02*
D03*
X1163465Y714153D02*
D03*
X1180000D02*
D03*
Y692500D02*
D03*
X1163465D02*
D03*
X1643465Y648654D02*
D03*
X1660000D02*
D03*
Y627000D02*
D03*
X1643465D02*
D03*
D81*
X1270000Y635000D02*
D03*
Y580000D02*
D03*
X1693000Y629000D02*
D03*
X1365000Y645000D02*
D03*
X1405000D02*
D03*
X1365000Y580000D02*
D03*
X1405000D02*
D03*
X545000Y585000D02*
D03*
X585000D02*
D03*
X625000D02*
D03*
X505000D02*
D03*
X1240000Y635000D02*
D03*
X1300000D02*
D03*
X1330000D02*
D03*
X1240000Y580000D02*
D03*
X1300000D02*
D03*
X1330000D02*
D03*
D82*
X1270000Y645000D02*
D03*
Y655000D02*
D03*
Y600000D02*
D03*
Y590000D02*
D03*
X1693000Y639000D02*
D03*
Y649000D02*
D03*
X80000Y530000D02*
D03*
X90000D02*
D03*
Y585000D02*
D03*
X80000D02*
D03*
X1179000Y659000D02*
D03*
X1169000D02*
D03*
X1365000Y665000D02*
D03*
Y655000D02*
D03*
X1405000Y665000D02*
D03*
Y655000D02*
D03*
X1365000Y590000D02*
D03*
Y600000D02*
D03*
X1405000Y590000D02*
D03*
Y600000D02*
D03*
X545000Y595000D02*
D03*
Y605000D02*
D03*
X585000Y595000D02*
D03*
Y605000D02*
D03*
X625000Y595000D02*
D03*
Y605000D02*
D03*
X505000Y595000D02*
D03*
Y605000D02*
D03*
X1240000Y645000D02*
D03*
Y655000D02*
D03*
X1300000Y645000D02*
D03*
Y655000D02*
D03*
X1330000Y645000D02*
D03*
Y655000D02*
D03*
X1240000Y590000D02*
D03*
Y600000D02*
D03*
X1300000D02*
D03*
Y590000D02*
D03*
X1330000Y600000D02*
D03*
Y590000D02*
D03*
D83*
X410000Y615000D02*
D03*
Y595000D02*
D03*
Y585000D02*
D03*
Y575000D02*
D03*
Y565000D02*
D03*
Y555000D02*
D03*
Y545000D02*
D03*
Y535000D02*
D03*
Y605000D02*
D03*
D84*
X655000Y615000D02*
D03*
Y605000D02*
D03*
Y595000D02*
D03*
Y585000D02*
D03*
Y575000D02*
D03*
Y565000D02*
D03*
Y555000D02*
D03*
Y545000D02*
D03*
Y535000D02*
D03*
Y525000D02*
D03*
X775000Y515000D02*
D03*
Y525000D02*
D03*
Y535000D02*
D03*
Y545000D02*
D03*
Y555000D02*
D03*
Y565000D02*
D03*
Y575000D02*
D03*
D85*
X770000Y640000D02*
D03*
Y500000D02*
D03*
X660000Y640000D02*
D03*
Y500000D02*
D03*
D86*
X1375000Y705000D02*
D03*
X1385000D02*
D03*
X1395000D02*
D03*
X1009000Y719000D02*
D03*
X1019000D02*
D03*
X1029000D02*
D03*
X879000D02*
D03*
X889000D02*
D03*
X899000D02*
D03*
X1560000Y385000D02*
D03*
Y375000D02*
D03*
Y365000D02*
D03*
X1515000D02*
D03*
Y375000D02*
D03*
Y385000D02*
D03*
Y430000D02*
D03*
Y440000D02*
D03*
Y450000D02*
D03*
X1560000Y430000D02*
D03*
Y440000D02*
D03*
Y450000D02*
D03*
D87*
X1717000Y126221D02*
D03*
Y153779D02*
D03*
D88*
X1706370Y130157D02*
D03*
Y149843D02*
D03*
D89*
X510630Y120000D02*
D03*
Y130000D02*
D03*
Y140000D02*
D03*
Y160000D02*
D03*
Y110000D02*
D03*
Y326000D02*
D03*
Y336000D02*
D03*
Y316000D02*
D03*
Y306000D02*
D03*
Y70000D02*
D03*
Y80000D02*
D03*
Y90000D02*
D03*
Y100000D02*
D03*
Y230000D02*
D03*
Y296000D02*
D03*
Y266000D02*
D03*
Y246000D02*
D03*
Y256000D02*
D03*
Y286000D02*
D03*
Y276000D02*
D03*
Y200000D02*
D03*
Y170000D02*
D03*
Y180000D02*
D03*
Y190000D02*
D03*
Y210000D02*
D03*
Y220000D02*
D03*
X700630Y300000D02*
D03*
Y290000D02*
D03*
Y280000D02*
D03*
Y270000D02*
D03*
Y260000D02*
D03*
Y250000D02*
D03*
Y240000D02*
D03*
Y230000D02*
D03*
Y120000D02*
D03*
Y140000D02*
D03*
Y210000D02*
D03*
Y190000D02*
D03*
Y160000D02*
D03*
Y180000D02*
D03*
Y170000D02*
D03*
Y150000D02*
D03*
Y200000D02*
D03*
Y110000D02*
D03*
Y100000D02*
D03*
Y90000D02*
D03*
Y80000D02*
D03*
Y70000D02*
D03*
Y60000D02*
D03*
Y50000D02*
D03*
X760630Y120000D02*
D03*
Y130000D02*
D03*
Y140000D02*
D03*
Y160000D02*
D03*
Y110000D02*
D03*
Y326000D02*
D03*
Y336000D02*
D03*
Y316000D02*
D03*
Y306000D02*
D03*
Y70000D02*
D03*
Y80000D02*
D03*
Y90000D02*
D03*
Y100000D02*
D03*
Y230000D02*
D03*
Y296000D02*
D03*
Y266000D02*
D03*
Y246000D02*
D03*
Y256000D02*
D03*
Y286000D02*
D03*
Y276000D02*
D03*
Y200000D02*
D03*
Y170000D02*
D03*
Y180000D02*
D03*
Y190000D02*
D03*
Y210000D02*
D03*
Y220000D02*
D03*
X950630Y300000D02*
D03*
Y290000D02*
D03*
Y280000D02*
D03*
Y270000D02*
D03*
Y260000D02*
D03*
Y250000D02*
D03*
Y240000D02*
D03*
Y230000D02*
D03*
Y120000D02*
D03*
Y140000D02*
D03*
Y210000D02*
D03*
Y190000D02*
D03*
Y160000D02*
D03*
Y180000D02*
D03*
Y170000D02*
D03*
Y150000D02*
D03*
Y200000D02*
D03*
Y110000D02*
D03*
Y100000D02*
D03*
Y90000D02*
D03*
Y80000D02*
D03*
Y70000D02*
D03*
Y60000D02*
D03*
Y50000D02*
D03*
X1260630Y120000D02*
D03*
Y130000D02*
D03*
Y140000D02*
D03*
Y160000D02*
D03*
Y110000D02*
D03*
Y326000D02*
D03*
Y336000D02*
D03*
Y316000D02*
D03*
Y306000D02*
D03*
Y70000D02*
D03*
Y80000D02*
D03*
Y90000D02*
D03*
Y100000D02*
D03*
Y230000D02*
D03*
Y296000D02*
D03*
Y266000D02*
D03*
Y246000D02*
D03*
Y256000D02*
D03*
Y286000D02*
D03*
Y276000D02*
D03*
Y200000D02*
D03*
Y170000D02*
D03*
Y180000D02*
D03*
Y190000D02*
D03*
Y210000D02*
D03*
Y220000D02*
D03*
X1450630Y300000D02*
D03*
Y290000D02*
D03*
Y280000D02*
D03*
Y270000D02*
D03*
Y260000D02*
D03*
Y250000D02*
D03*
Y240000D02*
D03*
Y230000D02*
D03*
Y120000D02*
D03*
Y140000D02*
D03*
Y210000D02*
D03*
Y190000D02*
D03*
Y160000D02*
D03*
Y180000D02*
D03*
Y170000D02*
D03*
Y150000D02*
D03*
Y200000D02*
D03*
Y110000D02*
D03*
Y100000D02*
D03*
Y90000D02*
D03*
Y80000D02*
D03*
Y70000D02*
D03*
Y60000D02*
D03*
Y50000D02*
D03*
D90*
X570630Y150000D02*
D03*
X510630Y55000D02*
D03*
Y350000D02*
D03*
X700630Y355000D02*
D03*
Y30000D02*
D03*
X680630Y150000D02*
D03*
X820630D02*
D03*
X760630Y55000D02*
D03*
Y350000D02*
D03*
X950630Y355000D02*
D03*
Y30000D02*
D03*
X930630Y150000D02*
D03*
X1320630D02*
D03*
X1260630Y55000D02*
D03*
Y350000D02*
D03*
X1450630Y355000D02*
D03*
Y30000D02*
D03*
X1430630Y150000D02*
D03*
D91*
X510630Y30000D02*
D03*
Y40000D02*
D03*
X560630Y30000D02*
D03*
X570630Y40000D02*
D03*
X580630D02*
D03*
Y30000D02*
D03*
X520630Y40000D02*
D03*
Y30000D02*
D03*
X530630Y40000D02*
D03*
Y30000D02*
D03*
X540630Y40000D02*
D03*
Y30000D02*
D03*
X550630Y40000D02*
D03*
Y30000D02*
D03*
X560630Y40000D02*
D03*
X570630Y30000D02*
D03*
X630630Y40000D02*
D03*
X640630D02*
D03*
Y30000D02*
D03*
X650630Y40000D02*
D03*
Y30000D02*
D03*
X660630Y40000D02*
D03*
Y30000D02*
D03*
X670630Y40000D02*
D03*
Y30000D02*
D03*
X680630Y40000D02*
D03*
Y30000D02*
D03*
X630630D02*
D03*
X590630Y40000D02*
D03*
Y30000D02*
D03*
X600630Y40000D02*
D03*
Y30000D02*
D03*
X610630Y40000D02*
D03*
Y30000D02*
D03*
X620630Y40000D02*
D03*
Y30000D02*
D03*
X760630D02*
D03*
Y40000D02*
D03*
X810630Y30000D02*
D03*
X820630Y40000D02*
D03*
X830630D02*
D03*
Y30000D02*
D03*
X770630Y40000D02*
D03*
Y30000D02*
D03*
X780630Y40000D02*
D03*
Y30000D02*
D03*
X790630Y40000D02*
D03*
Y30000D02*
D03*
X800630Y40000D02*
D03*
Y30000D02*
D03*
X810630Y40000D02*
D03*
X820630Y30000D02*
D03*
X880630Y40000D02*
D03*
X890630D02*
D03*
Y30000D02*
D03*
X900630Y40000D02*
D03*
Y30000D02*
D03*
X910630Y40000D02*
D03*
Y30000D02*
D03*
X920630Y40000D02*
D03*
Y30000D02*
D03*
X930630Y40000D02*
D03*
Y30000D02*
D03*
X880630D02*
D03*
X840630Y40000D02*
D03*
Y30000D02*
D03*
X850630Y40000D02*
D03*
Y30000D02*
D03*
X860630Y40000D02*
D03*
Y30000D02*
D03*
X870630Y40000D02*
D03*
Y30000D02*
D03*
X1260630D02*
D03*
Y40000D02*
D03*
X1310630Y30000D02*
D03*
X1320630Y40000D02*
D03*
X1330630D02*
D03*
Y30000D02*
D03*
X1270630Y40000D02*
D03*
Y30000D02*
D03*
X1280630Y40000D02*
D03*
Y30000D02*
D03*
X1290630Y40000D02*
D03*
Y30000D02*
D03*
X1300630Y40000D02*
D03*
Y30000D02*
D03*
X1310630Y40000D02*
D03*
X1320630Y30000D02*
D03*
X1380630Y40000D02*
D03*
X1390630D02*
D03*
Y30000D02*
D03*
X1400630Y40000D02*
D03*
Y30000D02*
D03*
X1410630Y40000D02*
D03*
Y30000D02*
D03*
X1420630Y40000D02*
D03*
Y30000D02*
D03*
X1430630Y40000D02*
D03*
Y30000D02*
D03*
X1380630D02*
D03*
X1340630Y40000D02*
D03*
Y30000D02*
D03*
X1350630Y40000D02*
D03*
Y30000D02*
D03*
X1360630Y40000D02*
D03*
Y30000D02*
D03*
X1370630Y40000D02*
D03*
Y30000D02*
D03*
D92*
X533630Y328000D02*
D03*
X523630Y338000D02*
D03*
X533630D02*
D03*
X523630Y348000D02*
D03*
X533630D02*
D03*
X523630Y328000D02*
D03*
X783630D02*
D03*
X773630Y338000D02*
D03*
X783630D02*
D03*
X773630Y348000D02*
D03*
X783630D02*
D03*
X773630Y328000D02*
D03*
X1283630D02*
D03*
X1273630Y338000D02*
D03*
X1283630D02*
D03*
X1273630Y348000D02*
D03*
X1283630D02*
D03*
X1273630Y328000D02*
D03*
D93*
X590630Y159500D02*
D03*
Y149500D02*
D03*
X600630Y159500D02*
D03*
Y149500D02*
D03*
X610630D02*
D03*
Y159500D02*
D03*
X840630D02*
D03*
Y149500D02*
D03*
X850630Y159500D02*
D03*
Y149500D02*
D03*
X860630D02*
D03*
Y159500D02*
D03*
X1340630D02*
D03*
Y149500D02*
D03*
X1350630Y159500D02*
D03*
Y149500D02*
D03*
X1360630D02*
D03*
Y159500D02*
D03*
D94*
X350000Y517953D02*
D03*
Y540000D02*
D03*
X1693000Y509000D02*
D03*
Y531047D02*
D03*
X350000Y603000D02*
D03*
Y580953D02*
D03*
X105000Y645000D02*
D03*
Y622953D02*
D03*
Y502047D02*
D03*
Y480000D02*
D03*
D95*
X1508000Y659000D02*
D03*
Y694039D02*
D03*
D96*
X1200000Y510000D02*
D03*
X1239370D02*
D03*
D97*
X1645000Y185591D02*
D03*
Y165000D02*
D03*
X1204000Y694000D02*
D03*
Y714591D02*
D03*
D98*
X969000Y659000D02*
D03*
X991047D02*
D03*
X844000Y689000D02*
D03*
X866047D02*
D03*
X844000Y659000D02*
D03*
X866047D02*
D03*
X969000Y689000D02*
D03*
X991047D02*
D03*
D99*
X894000Y504000D02*
D03*
X929039D02*
D03*
X1019000D02*
D03*
X1054039D02*
D03*
D100*
X100000Y530000D02*
D03*
Y585000D02*
D03*
X1159000Y659000D02*
D03*
D101*
X57500Y470000D02*
D03*
Y615000D02*
D03*
X1560000Y245000D02*
D03*
D102*
X1660000Y135000D02*
D03*
X1680591D02*
D03*
D103*
X1690000Y310000D02*
D03*
Y405000D02*
D03*
D104*
X455000Y540000D02*
D03*
Y619000D02*
D03*
D105*
X493000Y82000D02*
D03*
X630000D02*
D03*
X606000Y235000D02*
D03*
X340000Y234000D02*
D03*
X470000Y231000D02*
D03*
X1657000Y45000D02*
D03*
X1634000D02*
D03*
X1628000D02*
D03*
X205000Y269000D02*
D03*
X115000D02*
D03*
X399000Y326000D02*
D03*
X390000Y336000D02*
D03*
X1405000Y490000D02*
D03*
X1421000Y311000D02*
D03*
X1420000Y594000D02*
D03*
X1428000Y301000D02*
D03*
Y559000D02*
D03*
X1435000Y294000D02*
D03*
Y514000D02*
D03*
X838000Y469000D02*
D03*
X855000D02*
D03*
X872000D02*
D03*
X887000D02*
D03*
X643000Y541000D02*
D03*
X921000Y369000D02*
D03*
X926000Y375000D02*
D03*
X931000Y381000D02*
D03*
X936000Y387000D02*
D03*
X750000Y463000D02*
D03*
X734000Y475000D02*
D03*
X165000Y463000D02*
D03*
X791000Y394000D02*
D03*
X796000Y402000D02*
D03*
X802000Y410000D02*
D03*
X807000Y417000D02*
D03*
X672000Y442000D02*
D03*
X667000Y433000D02*
D03*
X661000Y425000D02*
D03*
X678000Y449000D02*
D03*
X1365000Y477500D02*
D03*
X847500Y395000D02*
D03*
X840000Y407500D02*
D03*
X429000Y311000D02*
D03*
X627000Y301000D02*
D03*
X621000Y311000D02*
D03*
X438000Y301000D02*
D03*
X429000Y46000D02*
D03*
X438000Y42000D02*
D03*
X1436000Y120000D02*
D03*
X1431000Y115000D02*
D03*
X1499000Y8000D02*
D03*
X1529000Y21000D02*
D03*
X1589000Y175000D02*
D03*
X1559000Y165000D02*
D03*
X899000D02*
D03*
X908000Y175000D02*
D03*
X1622000Y134000D02*
D03*
Y128000D02*
D03*
X1423000Y134000D02*
D03*
X1409000Y128000D02*
D03*
X1299000Y320000D02*
D03*
X1638000D02*
D03*
X1291000Y407000D02*
D03*
X1301000Y255000D02*
D03*
X1290000Y265000D02*
D03*
X1467000Y304000D02*
D03*
X1462000Y311000D02*
D03*
X1356000Y395000D02*
D03*
X1366000Y375000D02*
D03*
X1346000Y421000D02*
D03*
X1334000Y440000D02*
D03*
X1234000Y271000D02*
D03*
X1246000Y239000D02*
D03*
X740000Y485000D02*
D03*
X745000Y456000D02*
D03*
X1129000Y245000D02*
D03*
X1097000Y154000D02*
D03*
X1068000Y135000D02*
D03*
X1272000D02*
D03*
X1068000Y432000D02*
D03*
X1097000Y443000D02*
D03*
X1159000Y145000D02*
D03*
X1136000Y684000D02*
D03*
X1281000Y154000D02*
D03*
X1276000Y145000D02*
D03*
X1326000Y185000D02*
D03*
X1320000Y195000D02*
D03*
X1314000Y205000D02*
D03*
X1307000Y215000D02*
D03*
X824000Y180000D02*
D03*
X814000Y735000D02*
D03*
X824000Y728000D02*
D03*
X814000Y190000D02*
D03*
X126000Y456000D02*
D03*
X725000Y295000D02*
D03*
X721000Y285000D02*
D03*
X713000Y265000D02*
D03*
X717000Y255000D02*
D03*
X776000Y105000D02*
D03*
Y51000D02*
D03*
X596000Y241000D02*
D03*
X330000Y242000D02*
D03*
X380000Y321000D02*
D03*
X374000Y331000D02*
D03*
X636000Y88000D02*
D03*
X518000D02*
D03*
X576000Y95000D02*
D03*
X569000Y105000D02*
D03*
X541000Y115000D02*
D03*
X543000Y125000D02*
D03*
X641000Y129000D02*
D03*
X646000Y124000D02*
D03*
X611000Y134000D02*
D03*
X616000Y138000D02*
D03*
X656000Y175000D02*
D03*
X651000Y169000D02*
D03*
X586000Y185000D02*
D03*
X580000Y195000D02*
D03*
X551000Y215000D02*
D03*
X556000Y205000D02*
D03*
X526000Y225000D02*
D03*
X967000Y125000D02*
D03*
X1426000Y104000D02*
D03*
X977000Y115000D02*
D03*
X987000Y104000D02*
D03*
X746000Y105000D02*
D03*
Y50000D02*
D03*
X666000Y85000D02*
D03*
X676000Y95000D02*
D03*
X916000Y65000D02*
D03*
X926000Y75000D02*
D03*
X1485000Y101000D02*
D03*
X1515000D02*
D03*
X1545000D02*
D03*
X1575000D02*
D03*
X1605000D02*
D03*
X1634000Y102000D02*
D03*
X1425000Y54000D02*
D03*
X1416000Y52000D02*
D03*
X195000Y275000D02*
D03*
X185000Y285000D02*
D03*
X175000Y295000D02*
D03*
X105000Y275000D02*
D03*
X95000Y285000D02*
D03*
X85000Y295000D02*
D03*
X185000Y475000D02*
D03*
X210000D02*
D03*
X180000Y495000D02*
D03*
X160000Y535000D02*
D03*
X112000Y540000D02*
D03*
X175000D02*
D03*
X205000Y550000D02*
D03*
X132500Y555000D02*
D03*
X92500D02*
D03*
X127500Y557500D02*
D03*
X100000Y570000D02*
D03*
X140000Y575000D02*
D03*
X202500Y602500D02*
D03*
X180000Y645000D02*
D03*
X185000Y655000D02*
D03*
X215000Y507500D02*
D03*
X240000Y517500D02*
D03*
X342000Y520000D02*
D03*
X230000Y542500D02*
D03*
X260000Y545000D02*
D03*
X373000Y549000D02*
D03*
X302000Y550000D02*
D03*
X335000D02*
D03*
X286000Y560000D02*
D03*
X336000D02*
D03*
X302000D02*
D03*
X295000Y563000D02*
D03*
X361000Y565000D02*
D03*
X235000Y567500D02*
D03*
X210000Y570000D02*
D03*
X335000D02*
D03*
X302000Y571000D02*
D03*
X232500Y597500D02*
D03*
X255000D02*
D03*
X343000Y600000D02*
D03*
X210000Y655000D02*
D03*
X1540000Y626000D02*
D03*
X1658000Y411000D02*
D03*
X1661000Y290000D02*
D03*
X1527000Y250000D02*
D03*
X1528000Y270000D02*
D03*
X1427500Y694500D02*
D03*
X1447500D02*
D03*
X1543000Y544000D02*
D03*
Y499000D02*
D03*
Y579000D02*
D03*
X1576389Y504000D02*
D03*
X1590500Y534000D02*
D03*
X1579000Y557000D02*
D03*
X1573000Y585000D02*
D03*
X1645000Y553000D02*
D03*
Y533000D02*
D03*
Y528000D02*
D03*
X1666000Y505000D02*
D03*
X1657000Y558000D02*
D03*
X1676000Y560000D02*
D03*
X1675000Y518000D02*
D03*
X1685000Y509000D02*
D03*
X874000Y549000D02*
D03*
X894000D02*
D03*
X866500Y516500D02*
D03*
X856500Y556500D02*
D03*
X884000Y549000D02*
D03*
X999000D02*
D03*
X1019000D02*
D03*
X991500Y516500D02*
D03*
X981500Y556500D02*
D03*
X1009000Y549000D02*
D03*
X1597500Y45000D02*
D03*
X1567500D02*
D03*
X1537500D02*
D03*
X1542500D02*
D03*
X1512500D02*
D03*
X1605000D02*
D03*
X1602500Y32500D02*
D03*
X1573550Y45000D02*
D03*
X1480000D02*
D03*
X1507500D02*
D03*
X1637500Y145000D02*
D03*
X1642500Y140000D02*
D03*
X1637500D02*
D03*
Y130000D02*
D03*
X1642500D02*
D03*
X1647500D02*
D03*
X1652500D02*
D03*
X1637500Y135000D02*
D03*
X1642500D02*
D03*
X1647500D02*
D03*
X1652500D02*
D03*
X1640000Y32500D02*
D03*
X1570000D02*
D03*
X1540000D02*
D03*
X1510000Y32501D02*
D03*
X1480000Y32500D02*
D03*
D106*
X1682000Y543000D02*
D03*
X1645000D02*
D03*
X1497000Y694000D02*
D03*
Y659000D02*
D03*
X1703000Y587000D02*
D03*
X934000Y516500D02*
D03*
X1059000Y519000D02*
D03*
X1044000Y632250D02*
D03*
X979000Y639000D02*
D03*
X854000D02*
D03*
X919000Y633900D02*
D03*
X894000Y516500D02*
D03*
X1019000Y519000D02*
D03*
X1209000Y679000D02*
D03*
X1199000D02*
D03*
Y669000D02*
D03*
X1209000D02*
D03*
Y659000D02*
D03*
X1199000D02*
D03*
D107*
X1695000Y150000D02*
D03*
M02*
